/* XPM */
static char * a_xpm[] = {
"56 46 8 1",
" 	c None",
".	c #FFFFFFFFFFFF",
"X	c #000000000000",
"o	c #000008080808",
"O	c #52525555FFFF",
"+	c #7B7B86869C9C",
"@	c #737379798484",
"#	c #949496969494",
"                                                        ",
"                                                        ",
"                                                        ",
"                                                        ",
"                                                        ",
"                                                        ",
"                                                        ",
"                                                        ",
"                                                        ",
"                                                        ",
"                         ..                             ",
"                       ..XX.                            ",
"                     ..XX.X.                            ",
"                   ..XX...X.                            ",
"                  .XX..  .X.                            ",
"                 .X..    .X.                            ",
"                 .X.     .X.     oXXXXXoX               ",
"                 .X.     .X.    XX. . . XX              ",
"                 .X.   ...X.   oX........XX             ",
"                 .X.  .XXXX.   X...XXXX.. X             ",
"                 .X. .X..OX.  XX..XXXXXX..X             ",
"                 .X. .X.OOX.  X .XX ++XX .              ",
"                 .X. .XOOOX.  X .X . @XX                ",
"               ...X.  .XXX.   X .X... XX                ",
"              .XXXX.   ...    X ...XXXX                 ",
"             .X..OX.          X ..X ...                 ",
"             .X.OOX.          X ..X#...                 ",
"             .XOOOX.          X ..X+ ..                 ",
"              .XXX.           X+ ..X+  +                ",
"               ...    XXXXXXX  X+ ..X+@XX               ",
"                       ....... XX+ ..XXX..              ",
"                                XX+ ......              ",
"                 XXXXXXXXXXX     XX+ ....               ",
"                  ...........     XX+    +X             ",
"                                   XX+@+@X              ",
"                     XXXXXXXXXXXX   XXXXX               ",
"                      ............                      ",
"                                                        ",
"                                                        ",
"                                                        ",
"                                                        ",
"                                                        ",
"                                                        ",
"                                                        ",
"                                                        ",
"                                                        "};
