/* XPM */
static char * date_xpm[] = {
"56 46 12 1",
" 	c None",
".	c #FFFFFFFFFFFF",
"X	c #8C8C8E8E8C8C",
"o	c #DEDEDBDBDEDE",
"O	c #000000000000",
"+	c #FFFF14144242",
"@	c #CECE55552929",
"#	c #ADAD61616363",
"$	c #B5B545455A5A",
"%	c #DEDEAEAE6B6B",
"&	c #FFFF8E8E0808",
"*	c #A5A579798C8C",
"                                                        ",
"                                                        ",
"                                                        ",
"                                                        ",
"                                                        ",
"                                                        ",
"                                                        ",
"                                                        ",
"                                                        ",
"             ...............................            ",
"             .XXXXXXXXXXXXXXXXXXXXXXXXXXXX.X            ",
"             .XoooooooooooooOooooooooooooo.X            ",
"             .XoooooooooooooOooooooooooooo.X            ",
"             .Xo+++++++++++oOo+++++++++++o.X            ",
"             .XoooooooooooooOooooooooooooo.X            ",
"             .XoooooooooooOOoOOooooooooooo.X            ",
"             .Xooooo@@#oooOOOOOooo@@#@oooo.X            ",
"             .Xoooo#@$@oooooOoooo#@$@@@ooo.X            ",
"             .Xooo@@%@@oooooOoooo@%o@%$ooo.X            ",
"             .Xooo@o@$@oooooOooooooo@$@ooo.X            ",
"             .Xooooo@%$oooooOoooooo@$@oooo.X            ",
"             .Xoooo...............$@@%oooo.X            ",
"             .Xooo.oooooooooooooooX@&ooooo.X            ",
"             .Xooo.oXXXXXXXXXXXX.oX*oooooo.X            ",
"             .Xooo.oXooooooooooo.oX@oooooo.X            ",
"             .Xooo.oXoooooOooooo.oX@oooooo.X            ",
"             .Xooo.oXoooooOooooo.oX@$@#ooo.X            ",
"             .Xooo.oXoooooOooooo.oX$%@@ooo.X            ",
"             .Xooo.oXoooooOooooo.oXooooooo.X            ",
"             .Xooo.oXoooooOOOOoo.oXooooooo.X            ",
"             .X....oXoooo@oooooo.oX........X            ",
"             .oooo.oXooo@ooooooo.oXooooooooX            ",
"             .XXXX.oXoo@oooooooo.oXXXXXXXXXX            ",
"                  .oXooooooooooo.oX                     ",
"                  .oXooooooooooo.oX                     ",
"                  .o.............oX                     ",
"                  .oooooooooooooooX                     ",
"                  .XXXXXXXXXXXXXXXX                     ",
"                   XXXXXXXXXXXXXXX                      ",
"                                                        ",
"                                                        ",
"                                                        ",
"                                                        ",
"                                                        ",
"                                                        ",
"                                                        "};
