/* XPM */
static char * window_xpm[] = {
"48 48 14 1",
" 	c None",
".	c #E7E7E3E3E7E7",
"X	c #C6C6C3C3C6C6",
"o	c #848482828484",
"O	c #A5A5A2A2A5A5",
"+	c #636361616363",
"@	c #00000000FFFF",
"#	c #FFFFFFFFFFFF",
"$	c #DEDEDBDBDEDE",
"%	c #8C8C8E8E8C8C",
"&	c #4A4AD7D7BDBD",
"*	c #0000FFFF0000",
"=	c #21218A8A2121",
"-	c #212120202121",
"         ..................XXXXXXXXXXXXoo       ",
"         .............XXXXXXXXXXOOOOOOO++oo     ",
"         .............XXXXXXXXXOOOOOOOO++++oo   ",
"         ..XOoOOOOOOOOOOOOOOOOOOOOOOOOO+++++++  ",
"         ..X@@@@@@@@@@@@@@@@@@@@@@@@OOO+++++++  ",
"         ..X@@@@@@@@@@@@@@@@@@@@@@@@OOO+++++++  ",
"         ..X@@@@@@@@@@@@@@@@@@@@@@@@OOO+++++++  ",
"         ..X@@@##################@@@OOO+++++++  ",
"         ..X@@@#$$#$$$$$$$$$#$$#%@@@OOO+++++++  ",
"         ..X@@@#%%%%%%%%%%%%%%%%%@@@OOO+++++++  ",
"         ..X@@@#&&&&&&&&&&&&&&&&%@@@OOO+++++++  ",
"         ..X@@@#&&&&&&&&&&&&&&&&%@@@OOO+++++++  ",
"         ..X@@@#&&&&&&&&&&&&&&&&%@@@OOO+++++++  ",
"         ..X@@@#&&&&&&&&&&&&&&&&%@@@OOO+++++++  ",
"         ..X@@@#&&&&&&&&&&&&&&&&%@@@OOO+++++++  ",
"         ..X@@@#&&&&&&&&&&&&&&&&%@@@OOO+++++++  ",
"         ..X@@@#&&&&&&&&&&&&&&&&%@@@OOO++++++   ",
"         ..X@@@#&&&&&&&&&&&&&&&&%@@@OOO++++++   ",
"         ..X@@@#%%%%%%%%%%%%%%%%%@@@OOO+++++    ",
"         ..X@@@@@@@@@@@@@@@@@@@@@@@@OOO+++++    ",
"         .XX@@@@@@@@@@@@@@@@@@@@@@@@OOO++++     ",
"         .XX@@@@@@@@@@@@@@@@@@@@@@@@OOO++++     ",
"         .XX@@@@@@@@@@@@@@@@@@@@@@@@OOO++++     ",
"         .XXOOOOOOO@@@@@@@@@@@@@@@@@OOO++++     ",
"         .XXXXXXXXXXXXXXXXXXXXOOOOOOOOO+++      ",
"         .XXXXXXXXXXXXXOOOOOOOOOO**OOOO+++      ",
"         OOOOOOOOOOOOOOOOOOOOOOOOOOOOOO+++      ",
"                .#.XXOOOOOOOOOOOOOOOOOO++       ",
"             .#..XOOoo+++++++++++++++++++++oooo+",
"          .##..XOOoooooo++++++++++++++++++oooo++",
"        ......OOOooooooooo+++++++++++++ooooo++++",
"        .XOOOOXXXXXXXXOOOoooo++++++++ooooo++++++",
"        .XOOOOOOOOOOOOXXXXXXXXXOOOOOOOOO++++++++",
"        .XO**=OOOOOOOOOOOOOOOOOXXXXXXXX+++++++++",
"        .XO===OOOOOOOOOOOOOOOOOOOOOOOOO+++++++++",
"        .XOOOOOOOOOOOOOOOOOOOoooooOOOOO+++++++++",
"        #XOOOOOOOOOOOOOOOOOooo++++OoooO+++++++++",
"        XXXOXOOOOOOOOOOOOOOOOXXXXXXOOOO+++++++++",
"      OOXXOOXOXXOXXOOOOOOOOOOOOOOOOOOOO+++++++++",
"    OO..XOOXOOXOOXXOXXOXXOOOOOOOOOOOOOO+++++++  ",
"  OO...XoOXoOXoOOXOOXOOXOOoXXOXXOXOOOOO+++++    ",
"oOX..OXoOXoO.oO.XoOXoOXoOX.XOOXOOXOoXO+-++      ",
"oOOOXX......OOXXoOXoOXoOX.XoOXOOXOoXX++-        ",
" ooooOOOOXXXX#......XOOXXOoOOoOOOoXO++-         ",
"      ooooooOOOOXXXX###...XXOOOOO.O++-          ",
"             ooooooOOOOXXXX......Oo+-           ",
"                    ooooooOOOXXXOo+-            ",
"                           oooooo++             "};
