/* XPM */
static char * monitor_xpm[] = {
"48 48 15 1",
" 	s None	c None",
".	c grey64",
"X	c white",
"o	c grey89",
"O	c grey76",
"+	c grey51",
"@	c magenta4",
"#	c grey39",
"$	c grey13",
"%	c grey7",
"&	c grey4",
"*	c turquoise4",
"=	c blue4",
"-	c grey26",
";	c green1",
" .............................................  ",
".XoXXXXXXXXXXXXXXXXXXXXXXXXXXXXXXXXXXXXXXXXXoO. ",
".ooooooooooooooooooooooooooooooooooooOoOOOOOo.+ ",
".XoooooooooooooooooooooooooooooooooooooOOOOOO@# ",
".XoooooooooooooooooooooooooooooooooOoOOOOOOOO+$ ",
".XoooooooooooooooooooooooooooooooooooOOOOOOOO@% ",
".Xoooo&&&&&&&&&&&&&&&&&&&&&&&&&&&&&&&&&&&.OOO*$ ",
".Xoooo&#=#=###=#=#=#=#=#=#=#=#=#=#=#=#=#=XOOO@% ",
".Xoooo&##=#=#=#=#=#=#=#=#=#=#=#=#=#=#=#=#XOOO#% ",
".Xoooo&#=XXXXXX#=XX#=XXXXX=#=#=#=#=#=#=##XOOO@% ",
".Xoooo&=#=#=#=#=#=#=#=#=#=#=#=#=#=#=#=#=#XOOO#% ",
".Xoooo&#=XXX=XX#XXXXX#=XXXXXX#XXX#=#=#=#-XOO.@% ",
".Xoooo&##=#=#=#=#=#=#=#=#=#=#=#=#=#=#=#=-XO.O#% ",
".Xoooo&#=XXXX#XXXXXXX#XXXX=#=#=#=#=#=#=#-X...@% ",
".Xoooo&=#=#=#=#=#=#=#=#=#=#=#=#=#=#=#=#=-XO..#% ",
".Xoooo&#=XX#XXXX=XXXXX=XXXXX=#=#=#=#=#=#-X...=% ",
".Xoooo&=#=#=#=#=#=#=#=#=#=#=#=#=#=#=#=#=-X...#% ",
".Xoooo&#=XXXXX=#=#=#=#=#=#=#=#=#=#=#=#=#-X...#& ",
".Xoooo&=#=#=#=#=#=#=#=#=#=#=#=#=#=#=#=#=-X...#% ",
".Xoooo&#=XX#=#=#=#=#=#=#=#=#=#=#=#=#=#=#-X...#& ",
".Xoooo&@#=#=#=#=#=#=#=#=#=#=#=#=#=#=#=#=-X...#% ",
".Xoooo&#=XXXX#XX=XXX=#=#=#=#=#=#=#=#=#=#-X...#& ",
".Xoooo&=#=#=#=#=#=#=#=#=#=#=#=#=#=#=#=#=-X...#& ",
".Xoooo&#=XXX=XXXX#=XXXX#=#=#=#=#=#=#=#=#-X...#& ",
".Xoooo&=#=#=#=#=#=#=#=#=#=#=#=#=#=#=#=#=-X...#& ",
".Xoooo&#=XX#=#=#=#=#=#=#=#=#=#=#=#=#=#=#-X...#& ",
".Xoooo&=#=#=#=#=#=#=#=#=#=#=#=#=#=#=#=#=-X..+#& ",
".Xoooo&#=#=#=#=#=#=#=#=#=#=#=#=#=#=#=#=#-X..+#& ",
".Xoooo&=#=#=#=#=#=#=#=#=#=#=#=#=#=#=#=#=-X+++#& ",
".Xoooo&#=#=#=#=#=#=#=#=#=#=#=#=#=#=#=#=#-X+++-& ",
".Xoooo&##=#=#=#=#=#=#=#=#=#=#=#=#=#=#=#=#X+++-& ",
".Xoooo&#####=#=#=#=#=#@@=#=@=#=#=#####=#=X+++-& ",
".Xoooo.XXXXXXXXXXXXXXXXXXXXXXXXXXXXXXXXXXX+++-& ",
".XoooooOoOOOOOOOOOOOOO................---++++-& ",
".XoooOoOOOOOOOOOOOOOO...............++-;;O+++-& ",
".XoooOOOOOOOOOOOOOOO................+++OOO+++-& ",
".X.+@+@+@@@#@#@#################-#------------& ",
".*&&&&&&&&&&&&&&&&&&&&&&&&&&&&&&&&&&&&&&&&&&&&& ",
"          .X#----$OO..+##--$$%%%$$---           ",
"         .X.######-#+*+##---%$$--####$          ",
"        .Xo++++++++##---------#++++++#$         ",
"       .XX............................#$        ",
"      .XXXXXXXXXXXXXXXXXXXXXXXXXXXXXXXX#$       ",
"      .X................................&       ",
"      .X................................&       ",
"       #&&&&&&&&&&&&&&&&&&&&&&&&&&&&&&&&        ",
"                                                ",
"                                                "};
