/* XPM */
static char *shutdown[] = {
/* width height num_colors chars_per_pixel */
"    48    48       62            1",
/* colors */
". c #000000",
"# c #00000f",
"a c None",
"b c #0f000f",
"c c #0f001f",
"d c #0f0f0f",
"e c #0f0f1f",
"f c #1f001f",
"g c #1f002f",
"h c #1f0f1f",
"i c #1f0f2f",
"j c #2f0040",
"k c #2f0f40",
"l c #400040",
"m c #400050",
"n c #400f40",
"o c #400f50",
"p c #400f60",
"q c #500060",
"r c #500f60",
"s c #500f70",
"t c #50402f",
"u c #50502f",
"v c #505040",
"w c #505050",
"x c #600070",
"y c #600f80",
"z c #600f90",
"A c #60402f",
"B c #604040",
"C c #606750",
"D c #700f90",
"E c #700fa0",
"F c #7020a0",
"G c #705050",
"H c #705060",
"I c #706750",
"J c #706760",
"K c #800fa0",
"L c #800fb0",
"M c #800fcf",
"N c #8020cf",
"O c #900fb0",
"P c #900fcf",
"Q c #900fdf",
"R c #9020cf",
"S c #a00fdf",
"T c #a00fef",
"U c #a020df",
"V c #a020ef",
"W c #a08770",
"X c #a09770",
"Y c #a0a8a0",
"Z c #b00fef",
"0 c #b00fff",
"1 c #b020ef",
"2 c #b020ff",
"3 c #b08770",
"4 c #b08780",
"5 c #cf0fff",
"6 c #ffc8a0",
"7 c #ffffff",
/* pixels */
"aaaaaaaaaaaaaaaaaaaaaaaaYIGIGIGIGIGwwIaaaaaaaaaa",
"aaaaaaaaaaaaaaaaaaaaaaCHw66666666666X3Cwaaaaaaaa",
"aaaaaaaaaaaaaaaaaaaaGC666666666666666666Gaaaaaaa",
"aaaaaaaaaaaaaaaaaaaI666666666666666666666Jaaaaaa",
"aaaaaaaaaaaaaaaaaaG66666666666366666666666GIaaaa",
"aaaaaaaaaaaaaaaaaJ66666663X4X3X4X3X4vBX66666CJaa",
"aaaaaaaaaaaaaaaaG666666tBuBtBuBtBuBt3X66666666GI",
"aaaaaaaaaaaaaaaI6666vBv6666666666666666666666666",
"aaaaaaaaaaaaaaGX66Bu6666666666666666666666666666",
"aaaaaaaaaaaaaJX66B666666666666666666666666666666",
"aaaaaaaaaaaaGX666u666666666666666666666666666666",
"aaaaaaaaaaaIX666XB666666666666666666666666666666",
".................ABX3WBXB.BuBABX3666666666666666",
"77777777777777777YvB...........Bv366666666666666",
"YYYYYYYYYYYYYYYYYYYwwwwww.........36666666666666",
"YYYYYYYYYYYYYYYYYYYYYYYww..........6666666666666",
"YYYYYYY77777777777777.YYw...........666666666666",
"YYYYYYY7YYYYYYYYYYYYw.YYw............36666666666",
"YYYYYYY7Y.wYYYYYYw.Yw.YYw..............666666666",
"YYYYYYY7Yw.wYYYYw.wYw.YYw...............X6666666",
"YYYYYYY7YYw.wYYw.wYYw.YYw................A3X6666",
"YYYYYYY7YYYw.ww.wYYYw.YYw..................BX666",
"YYYYYYY7YYYYw..wYYYYw.YYw................uBt3X6W",
"YYYYYYY7YYYYw..wYYYYw.YYw......Bw.....vBvBX3X6X6",
"YYYYYYY7YYYw.ww.wYYYw.YYw.....BaaAB....uBWBX3W6X",
"YYYYYYY7YYw.wYYw.wYYw.YYw......aaaaavBvB.BvBXBX4",
"YYYYYYY7Yw.wYYYYw.wYw.YYw.B....aaaaaaaaaauBtBuBt",
"YYYYYYY7Y.wYYYYYYw.Yw.YYw.vB...aaaaaaaaaaaaavBvB",
"YYYYYYY7YYYYYYYYYYYYw.YYw.auB.aaaaaaaaaaaaaaaaaa",
"YYYYYYY7wwwwwwwwwwwww.YYw.aaaaaaaaaaaaaaaaaaaaaa",
"YYYYYYY...............YYw.aaaaaaaaaaaaaaaaaaaaaa",
"YYYYYYYYYYYYYYYYYYYYYYYYw.aaaaaaaaaaaaaaaaaaaaaa",
"YYYYYYYYYYYYYYYYYYYYYYYYw.aaaaaaaaaaaaaaaaaaaaaa",
"wwwwwwwwwwwwwwwwwwwwwwwww.aaaaaaaaaaaaaaaaaaaaaa",
"..........................aaaaaaaaaaaaaaaaaaaaaa",
"YYYYYYYYYYYYYYYYYYYYYYYYY.aaaaaaaaaaaaaaaaaaaaaa",
"YYYYYYYYYYYYYYYYYYYYYYYYY.aaaaaaaaaaaaaaaaaaaaaa",
"YYYYYYYYYYYYYYYYYYYYYYYYY.aaaaaaaaaaaaaaaaaaaaaa",
"YYYYYYYYYYYYYYYYYYYYYYYYY.aaaaaaaaaaaaaaaaaaaaaa",
"YYYYYYYYYYYYYYYYYYYYYYYYY.aaaaaaaaaaaaaaaaaaaaaa",
"YYYYYYYYYYYYYYYYYYYYYYYYY.aaaaaaaaaaaaaaaaaaaaaa",
"wwwwwwwwwwwwwwwwwwww7YYYY.aaaaaaaaaaaaaaaaaaaaaa",
"...................Y7YYYY.aaaaaaaaaaaaaaaaaaaaaa",
"#chjkmossyzEELRSUZ2Y7YYYY.aaaaaaaaaaaaaaaaaaaaaa",
"bbgilnqrxyDDKLPRS15Y7YYYY.aaaaaaaaaaaaaaaaaaaaaa",
"dfejkmpssyzEFONQU22Y7YYYY.aaaaaaaaaaaaaaaaaaaaaa",
"bbggjoqrxyDDLLPPTV5Y7YYYY.aaaaaaaaaaaaaaaaaaaaaa",
"#chjkmpsszzEEMRSU02Y7YYYY.aaaaaaaaaaaaaaaaaaaaaa"
};
SIMPLE  =                    T                                                  BITPIX  =                    8                                                  NAXIS   =                    2                                                  NAXIS1  =                   48                                                  NAXIS2  =                   48                                                  HISTORY Written by XV 3.10                                                      END                                                                                                                                                                                                                                                                                                                                                                                                                                                                                                                                                                                                                                                                                                                                                                                                                                                                                                                                                                                                                                                                                                                                                                                                                                                                                                                                                                                                                                                                                                                                                                                                                                                                                                                                                                                                                                                                                                                                                                                                                                                                                                                                                                                                                                                                                                                                                                                                                                                                                             
