/* XPM */
static char * image_name[] = {
"20 20 67 1",
" 	c #DCDCD8D8DCDC",
".	c #CFCFC7C7CFCF",
"X	c #999999999999",
"o	c #C4C4C4C4C4C4",
"O	c #AEAEAAAAAEAE",
"+	c #B6B6AEAEB6B6",
"@	c #AEAEAEAEB6B6",
"#	c #717175757171",
"$	c #B6B6B2B2B6B6",
"%	c #B0B0B0B0B0B0",
"&	c #BEBEB6B6BEBE",
"*	c #AEAEA6A6AEAE",
"=	c #BEBEBABABEBE",
"-	c #FFFFFBFBFFFF",
";	c #FFFFFFFFFFFF",
":	c #666666666666",
">	c #A6A69E9EA6A6",
",	c #B9B9B9B9B9B9",
"<	c #696969697171",
"1	c #AEAEB2B2CFCF",
"2	c #CCCCCCCCCCCC",
"3	c #DCDCDCDCDCDC",
"4	c #303034343030",
"5	c #96969696AEAE",
"6	c #3D3D3B3B3D3D",
"7	c #515155554949",
"8	c #909090909090",
"9	c #D7D7D3D3D7D7",
"0	c #000008080808",
"q	c #5F5F5F5F5F5F",
"w	c #8E8E8A8A8E8E",
"e	c #C7C7BABAC7C7",
"r	c #A6A6A2A2A6A6",
"t	c #6B6B69696B6B",
"y	c #DFDFBABA8E8E",
"u	c #DFDFAEAE6969",
"i	c #AEAE61616161",
"p	c #595951512828",
"a	c #616161616161",
"s	c #F0F0F0F0F0F0",
"d	c #BEBEBEBEBEBE",
"f	c #A9A9A9A9A9A9",
"g	c #AEAE9E9E5959",
"h	c #E7E7D7D79E9E",
"j	c #9E9E9A9A9E9E",
"k	c #F7F7F3F3F7F7",
"l	c #717179798686",
"z	c #A6A6A6A6A6A6",
"x	c #AEAEA6A67171",
"c	c #969692929696",
"v	c #7F7F7F7F7F7F",
"b	c #D2D2B4B48C8C",
"n	c #AAAAAAAAAAAA",
"m	c #797979797979",
"M	c #BFBFC2C2BFBF",
"N	c #525252525252",
"B	c #8E8E91918E8E",
"V	c #2F2F4F4F4F4F",
"C	c #28282C2C3030",
"Z	c #2B2B2B2B2B2B",
"A	c #8E8E86867979",
"S	c #555555555555",
"D	c #868679798686",
"F	c #969696969696",
"G	c #404042424040",
"H	c #AEAEAEAEAEAE",
"J	c #535353535353",
" ..................X",
"oO+++++++++@OO+++@o#",
"o+$$%$$%$$OO+++&$+o#",
"oO@$+++++*=-;;:>,+o<",
"o*@+++,$@1;2+334++o<",
"o*OO+$567890q#;ww$o<",
"erO*+@tyuipaoXsdw$e<",
"=rff+wgh:5qw$jk$l+=<",
"=rfz$#xhiii<fcs%vO&<",
"=>rf@tbhhhtk;;;;;f$<",
",jrnmuxixpwM$%+%f#,t",
"=j@wxgNBnVCCCCCZtm,:",
",j8Ax4S=;XiAwwwicm,:",
",Xibp6X$;D:####twm$:",
"$c:77F5n;a6GGpG6mv+:",
"%Xwwwrcf;zjrr>rr>m+a",
"$cj>5Xcn$#wwwwwwm#Oa",
"%wcccXcc8888c8ccccna",
"$rffnffffHnfOnnnfn,q",
"mJJJJSSJJJJJSSSJSJS6"};
