/* XPM */
static char * image_name[] = {
"20 20 58 1",
" 	c #F7F7F3F3F7F7",
".	c #DCDCDCDCDCDC",
"X	c #DCDCD8D8DCDC",
"o	c #6B6B69696B6B",
"O	c #E9E9E9E9E9E9",
"+	c #999999999999",
"@	c #A6A69E9EA6A6",
"#	c #A6A6A2A2A6A6",
"$	c #B6B6AEAEB6B6",
"%	c #717175757171",
"&	c #8E8E8A8A8E8E",
"*	c #CCCCCCCCCCCC",
"=	c #555555555555",
"-	c #AEAEAAAAAEAE",
";	c #AEAEAEAEAEAE",
":	c #B6B6B2B2B6B6",
">	c #AAAAAAAAAAAA",
",	c #A9A9A9A9A9A9",
"<	c #A6A6A6A6A6A6",
"1	c #BEBEBABABEBE",
"2	c #494949495151",
"3	c #C7C7BABAC7C7",
"4	c #696969697171",
"5	c #797979797979",
"6	c #707080809090",
"7	c #5151A2A24949",
"8	c #525252525252",
"9	c #5F5F5F5F5F5F",
"0	c #C4C4C4C4C4C4",
"q	c #969692929696",
"w	c #AEAEA6A6AEAE",
"e	c #D7D7D3D3D7D7",
"r	c #535353535353",
"t	c #CFCFC7C7CFCF",
"y	c #9E9E9A9A9E9E",
"u	c #BEBEB6B6BEBE",
"i	c #D3D3D3D3D3D3",
"p	c #868679798686",
"a	c #96969696AEAE",
"s	c #181820202020",
"d	c #8E8E91918E8E",
"f	c #515155554949",
"g	c #8E8E86867979",
"h	c #A0A0A0A0A0A0",
"j	c #B9B9B9B9B9B9",
"k	c #AEAEB2B2CFCF",
"l	c #FFFFFFFFFFFF",
"z	c #616161616161",
"x	c #404042424040",
"c	c #D7D7DFDFE7E7",
"v	c #FFFFFBFBFFFF",
"b	c #EDEDEDEDEDED",
"n	c #F0F0F0F0F0F0",
"m	c #202028285151",
"M	c #2F2F4F4F4F4F",
"N	c #303034343030",
"B	c #AEAE61616161",
"V	c #2B2B2B2B2B2B",
" .XXXXXXXXXXXXXX...o",
"O+@@@@#@@#@@#@#$%&*=",
"O@-;::$->$$,<$1%o23=",
"O@-$@4o5&67&&:89$=0=",
"O@$3q&3w-,>1eqr#&+t=",
"Oy0tu3tttiiO&=p#3$0=",
"Oyta&&qwwow&sd2f3-0=",
"Oy0++d+gh$52aj2=3-0=",
"Oyk#lllll&zlllx=3-0=",
"Oy3hllll%rllllx=3$0=",
"Oa3yllc=zlllllx=3-0=",
"Oykyll==llvv lx=3$0=",
"Oak#l%9lvX.  lx=3-09",
"Oyk#<2bnOn lllx=3-0=",
"Oa3h.  lllllll2=k-0=",
"Oy0:llllllllll==3$0=",
"O#>mMNNNNNNNN2s=3$0=",
"O#>zr==========B:w0=",
"OuteXXcXXXcXXXXett.=",
"arrrrrrrrrrrrrrrrr=V"};
