/* XPM */
static char * image_name[] = {
"20 20 61 1",
" 	c #F7F7F3F3F7F7",
".	c #DCDCDCDCDCDC",
"X	c #6B6B69696B6B",
"o	c #E9E9E9E9E9E9",
"O	c #999999999999",
"+	c #A6A6A2A2A6A6",
"@	c #C7C7BABAC7C7",
"#	c #555555555555",
"$	c #A6A69E9EA6A6",
"%	c #AEAEAAAAAEAE",
"&	c #B6B6AEAEB6B6",
"*	c #B6B6B2B2B6B6",
"=	c #AEAEAEAEB6B6",
"-	c #AAAAAAAAAAAA",
";	c #C4C4C4C4C4C4",
":	c #5F5F5F5F5F5F",
">	c #A0A0A0A0A0A0",
",	c #666666666666",
"<	c #B0B0B0B0B0B0",
"1	c #B9B9B9B9B9B9",
"2	c #7F7F7F7F7F7F",
"3	c #D3D3D3D3D3D3",
"4	c #CCCCCCCCCCCC",
"5	c #000000000000",
"6	c #969696969696",
"7	c #BEBEBABABEBE",
"8	c #BEBEBEBEBEBE",
"9	c #8E8E8A8A8E8E",
"0	c #F0F0F0F0F0F0",
"q	c #181820202020",
"w	c #FFFFFFFFFFFF",
"e	c #404042424040",
"r	c #AEAEA6A6AEAE",
"t	c #515155554949",
"y	c #616161616161",
"u	c #909090909090",
"i	c #DCDCD8D8DCDC",
"p	c #AEAEB2B2CFCF",
"a	c #3D3D3B3B3D3D",
"s	c #CFCFC7C7CFCF",
"d	c #9E9E9A9A9E9E",
"f	c #717175757171",
"g	c #969692929696",
"h	c #5151A2A24949",
"j	c #707080809090",
"k	c #202020202020",
"l	c #797979797979",
"z	c #868679798686",
"x	c #A6A6A6A6A6A6",
"c	c #494949495151",
"v	c #080804040808",
"b	c #A9A9A9A9A9A9",
"n	c #BEBEB6B6BEBE",
"m	c #525252525252",
"M	c #303034343030",
"N	c #595951512828",
"B	c #8E8E86867979",
"V	c #8E8E91918E8E",
"C	c #96969696AEAE",
"Z	c #535353535353",
"A	c #2B2B2B2B2B2B",
" ..................X",
"oO++++++++++++++++@#",
"o$%%&%**%=--%%%%&&;:",
"o>&&&,o#$*<*&&1>&23:",
"o$&&43&5+@+ X67o;X@:",
"o$%%89,59=70q+1we5;:",
"or64<#t5<y>u52ipa5s:",
"o*8:9dX5fe>g5h ,-q;:",
"o7j5+7952e1+q:f#4k@:",
"o@l5+dz5xc1$v9by4k@:",
"on+v+b95*m1%vlOy7q@:",
"o*1MxOl5*m1%qNt:sk;:",
"on>v%1B5bc8nqNNy7k;:",
"o7f5$pf5Oe;nvyf,uv;:",
"o@95Xfc59c6,qVnXe5s:",
"o&lv9V:5fe+9v:l#y5;:",
"o+$r+Xet9ljfNNM:9l4#",
"o+**xC+n@8<*7@7@714:",
"on;4ssss4ssss4sss;.:",
"dZZZ###ZZZmZ#Z#####A"};
