/* XPM */
static char * image_name[] = {
"20 20 53 1",
" 	c #DCDCD8D8DCDC",
".	c #D3D3D3D3D3D3",
"X	c #CFCFC7C7CFCF",
"o	c #CCCCCCCCCCCC",
"O	c #999999999999",
"+	c #C4C4C4C4C4C4",
"@	c #B6B6AEAEB6B6",
"#	c #717175757171",
"$	c #B6B6B2B2B6B6",
"%	c #696969697171",
"&	c #AEAEAEAEB6B6",
"*	c #B0B0B0B0B0B0",
"=	c #C7C7BABAC7C7",
"-	c #AEAEAEAEAEAE",
";	c #6B6B69696B6B",
":	c #A6A6A2A2A6A6",
">	c #666666666666",
",	c #AEAEAAAAAEAE",
"<	c #080804040808",
"1	c #BEBEBABABEBE",
"2	c #8E8E8A8A8E8E",
"3	c #000000000000",
"4	c #B9B9B9B9B9B9",
"5	c #E9E9E9E9E9E9",
"6	c #5F5F5F5F5F5F",
"7	c #797979797979",
"8	c #FFFFFFFFFFFF",
"9	c #202020202020",
"0	c #303034343030",
"q	c #535353535353",
"w	c #2B2B2B2B2B2B",
"e	c #494949495151",
"r	c #868679798686",
"t	c #A9A9A9A9A9A9",
"y	c #DCDCDCDCDCDC",
"u	c #D7D7D3D3D7D7",
"i	c #3D3D3B3B3D3D",
"p	c #EDEDEDEDEDED",
"a	c #F0F0F0F0F0F0",
"s	c #F7F7F3F3F7F7",
"d	c #909090909090",
"f	c #BEBEB6B6BEBE",
"g	c #A6A69E9EA6A6",
"h	c #181820202020",
"j	c #9E9E9A9A9E9E",
"k	c #CFCFD3D3CFCF",
"l	c #AAAAAAAAAAAA",
"z	c #616161616161",
"x	c #969692929696",
"c	c #969696969696",
"v	c #A0A0A0A0A0A0",
"b	c #A6A6A6A6A6A6",
"n	c #555555555555",
" .XXXoXXXXXXXXXXXX.O",
"+@@@@@@@@@@@@@@@@@+#",
"+@@@$@@@$$@@$$$$@@X%",
"+@@@@@@@@@@@@&@*@@+%",
"+@=++=@@-@@$==$@@@+;",
"=:##%>@@,@@$<<11$$+;",
"+23333+=4141;25634X;",
"=2378529220=q6=33w@;",
"=23e2rt3<37y33u33w.;",
"=2333i e3wp13<a03 u>",
"1237syod3wXf3<5w3+=>",
"123e2;gh33#+335w32@>",
"173333w<13hf3<u733$>",
"4j+..k+o+@+=lk4t1o z",
"4xjjjjOOOjjjjjOOjO,z",
"$dxOcjcOOcOOOxOOOc,6",
"$dOOOcccOcccOcxOOO,z",
"*dxxxOxcxxccxccxxxt6",
"$vtltbltb,btlttltt16",
"7qqqqqnqqnnqqnnnqqn0"};
