/* XPM */
static char * window_xpm[] = {
"56 46 9 1",
" 	c None",
".	c #FFFFFFFFFFFF",
"X	c #FFFFFBFBFFFF",
"o	c #DEDEDBDBDEDE",
"O	c #8C8C8E8E8C8C",
"+	c #FFFFF3F3FFFF",
"@	c #BDBDB6B6BDBD",
"#	c #00000000FFFF",
"$	c #4A4AD7D7BDBD",
"                                                        ",
"                                                        ",
"                                                        ",
"                                                        ",
"                                                        ",
"   ...........................................          ",
"   XoooOXoooooooooooooooooooooooooooOXoooOXoooO         ",
"   XoOoO+oooooooooooooooooooooooooooOXoOoOXoOoO         ",
"   XoooOXoooooooooooooooooooooooooooOXoooOXoooO         ",
"   @OOOOOOOOOOOOOOOOOOOOOOOOOOOOOOOOOOOOOOOOOOO         ",
"   XO######################################...O         ",
"   XO######################################.ooO         ",
"   XO######################################.ooO         ",
"   XO######################################.ooO         ",
"   XO######################################.ooO         ",
"   XO######################################.ooO         ",
"   XO######################################.ooO         ",
"   XO######################################.ooO         ",
"   XO##############..................................   ",
"   XO##############.oooO.oooooooooooooooooO.oooO.ooo.   ",
"   XO##############.oOoO.oooooooooooooooooO.oOoO.oOo.   ",
"   XO##############.oooO.oooooooooooooooooO.oooO.ooo.   ",
"   XO##############.OOOOOOOOOOOOOOOOOOOOOOOOOOOOOOOOO   ",
"   XO##############.O$$$$$$$$$$$$$$$$$$$$$$$$$$$$...O   ",
"   XO##############.O$$$$$$$$$$$$$$$$$$$$$$$$$$$$.ooO   ",
"   XO##############.O$$$$$$$$$$$$$$$$$$$$$$$$$$$$.ooO   ",
"   +O##############.O$$$$$$$$$$$$$$$$$$$$$$$$$$$$.ooO   ",
"   XO##############.O$$$$$$$$$$$$$$$$$$$$$$$$$$$$.ooO   ",
"   XO##############.O$$$$$$$$$$$$$$$$$$$$$$$$$$$$.ooO   ",
"   XO##############.O$$$$$$$$$$$$$$$$$$$$$$$$$$$$.ooO   ",
"   +O##############.O$$$$$$$$$$$$$$$$$$$$$$$$$$$$.ooO   ",
"   XO##############.O$$$$$$$$$$$$$$$$$$$$$$$$$$$$.ooO   ",
"   +O##############.O$$$$$$$$$$$$$$$$$$$$$$$$$$$$.ooO   ",
"   XO##############.O$$$$$$$$$$$$$$$$$$$$$$$$$$$$.ooO   ",
"   +O##############.O$$$$$$$$$$$$$$$$$$$$$$$$$$$$.ooO   ",
"   XOXXXXXXXXXXXXXX.O$$$$$$$$$$$$$$$$$$$$$$$$$$$$.ooO   ",
"   +OOOOOOOOOOOOOOO.O$$$$$$$$$$$$$$$$$$$$$$$$$$$$.ooO   ",
"                   .O$$$$$$$$$$$$$$$$$$$$$$$$$$$$.ooO   ",
"                   .O$$$$$$$$$$$$$$$$$$$$$$$$$$$$.ooO   ",
"                   .O$$$$$$$$$$$$$$$$$$$$$$$$$$$$.ooO   ",
"                   .OOOOOOOOOOOOOOOOOOOOOOOOOOOOOOOOO   ",
"                                                        ",
"                                                        ",
"                                                        ",
"                                                        ",
"                                                        "};
