/* XPM */
static char * arrdown[] = {
/* arrdown pixmap
 * width height ncolors chars_per_pixel */
"32 32 2 2 ",
"   s None c None",
".  c #000 	 s s_#000 ",
/* pixels */
"                    . . . . . . . . . .                         ",
"                    .               . .                         ",
"                    .               . .                         ",
"                    .               . .                         ",
"                    .               . .                         ",
"                    .               . .                         ",
"                    .               . .                         ",
"                    .               . .                         ",
"                    .               . .                         ",
"                    .               . .                         ",
"                    .               . .                         ",
"                    .               . .                         ",
"                    .               . .                         ",
"                    .               . .                         ",
"                    .               . .                         ",
"                    .               . .                         ",
"                    .               . .                         ",
"                    .               . .                         ",
"                    .               . .                         ",
"                    .               . .                         ",
"                    .               . .                         ",
"                    .               . .                         ",
"            . . . . .               . . . . .                   ",
"              .                           . . .                 ",
"                .                       . . .                   ",
"                  .                   . . .                     ",
"                    .               . . .                       ",
"                      .           . . .                         ",
"                        .       . . .                           ",
"                          .   . . .                             ",
"                            . . .                               ",
"                              .                                 "
} ;
