/* XPM */
static char *noname[] = {
/* width height ncolors chars_per_pixel */
"32 32 12 1",
/* colors */
"` c #CBFFFF",
"a c #AB0000",
"c c #326565",
"e c red",
"g c green",
"h c #770000",
"i c #99CCCC",
"j c #00AB00",
"l c #007700",
"m c #005500",
"q c #DC0000",
"v c black",
/* pixels */
"```````````````````````````````i",
"`iiiiiiiiiiiiiiiiiiiiiiiiiiiiiic",
"`iiiiiiiiiiiiiiiiiiiiiiiiiiiiiic",
"`iiiiiiiiiiiiiiiiiiiviiiiiiiiiic",
"`iiiiiiiiiiiiiiiiiivlviiiiiiiiic",
"`iiiiiiiiiiiiiiiiivllmviiiiiiiic",
"`iiiiiiiiiiiiiiiiiivlmmviiiiiiic",
"`iiiiiiiiiiiiiiiiiiivmmmviiiiiic",
 "`iiivgvvvgvvvvvvvvvvvvmmmviiiiic",
"`iiiiggggggggjjjjllllmmmmvviiiic",
"`iiiiivgvvvggjjjjllllmmmmvvviiic",
"`iiiiiiggggggjjjjllllmmmmvviiiic",
"`iiiiiiivgvvvjvvvvvvvvmmmviiiiic",
"`iiiiiiiiiiiiiiiiiiivmmmviiiiiic",
"`iiiiiiiiiiviiiiiiivlmmviiiiiiic",
"`iiiiiiiiivqviiiiivllmviiiiiiiic",
"`iiiiiiiivqqqviiiiivlviiiiiiiiic",
"`iiiiiiivqqqviiiiiiiviiiiiiiiiic",
"`iiiiiiveqqviiiiiiiiiiiiiiiiiiic",
"`iiiiiveeqvvvvvvvvvvvvhvvvvviiic",
"`iiiiveeeqqqqaaaahhhhhhhhhviiiic",
"`iiiveeeeqqqqaaaahhhhvvvhviiiiic",
"`iiiiveeeqqqqaaaahhhhhhhhiiiiiic",
"`iiiiiveeqvvvvvvvvhvvvhviiiiiiic",
"`iiiiiiveqqviiiiiiiiiiiiiiiiiiic",
"`iiiiiiivqqqviiiiiiiiiiiiiiiiiic",
"`iiiiiiiivqqqviiiiiiiiiiiiiiiiic",
"`iiiiiiiiivqviiiiiiiiiiiiiiiiiic",
"`iiiiiiiiiiviiiiiiiiiiiiiiiiiiic",
"`iiiiiiiiiiiiiiiiiiiiiiiiiiiiiic",
"`iiiiiiiiiiiiiiiiiiiiiiiiiiiiiic",
"iccccccccccccccccccccccccccccccc"
};
