/* XPM */
static char * button_max_xpm[] = {
"12 12 33 1",
" 	c None",
".	c #020204",
"+	c #7C7A88",
"@	c #B8B6BC",
"#	c #D6D6DC",
"$	c #5A5A6C",
"%	c #9796A4",
"&	c #6E6A7C",
"*	c #C6C6CC",
"=	c #8B8A94",
"-	c #646274",
";	c #C0BEC4",
">	c #AAAAB4",
",	c #737284",
"'	c #86828C",
")	c #D1D1D4",
"!	c #6A666C",
"~	c #827E8C",
"{	c #EEEEEC",
"]	c #A2A1AC",
"^	c #DEDEE4",
"/	c #BEBAC4",
"(	c #D6D2DC",
"_	c #7A7684",
":	c #7E7E8C",
"<	c #BABAC4",
"[	c #8E8E9C",
"}	c #DADADC",
"|	c #5E5E6C",
"1	c #706E7C",
"2	c #CACACC",
"3	c #666674",
"4	c #AEAEB4",
"{{{{{{{{{{{{",
"{$|-3&1,_+~!",
"{-........=!",
"{&.)*<4]%.%!",
"{_.*<4]%=.]!",
"{'.<4]%=+.>!",
"{=.4]%=~1.@!",
"{%.]%=+13.;!",
"{].%=~,-$.2!",
"{>........(!",
"{@/;;*2)(}^!",
"!!!!&!!!!!!!"};
