/* XPM */
static char * button_xpm[] = {
"12 12 33 1",
" 	c None",
".	c #5C5C6C",
"+	c #A7A6AE",
"@	c #858390",
"#	c #D1CFD4",
"$	c #BDBCC4",
"%	c #9897A3",
"&	c #716F7C",
"*	c #B5B4BC",
"=	c #90909C",
"-	c #A1A0AB",
";	c #7D7B89",
">	c #C8C8CD",
",	c #EEEEEC",
"'	c #6A666D",
")	c #B0AEB6",
"!	c #8D8A94",
"~	c #DCDCE0",
"{	c #646274",
"]	c #797684",
"^	c #D6D6DC",
"/	c #C2C2C8",
"(	c #AEAAB4",
"_	c #8A8694",
":	c #D6D2DC",
"<	c #9E9AA4",
"[	c #767284",
"}	c #A6A2AC",
"|	c #827E8C",
"1	c #C2BEC4",
"2	c #BAB6BC",
"3	c #6E6A7C",
"4	c #AAAAB4",
",,,,,,,,,,,,",
",..{'3&[];|'",
",{'3&[]|@_!'",
",&[];|@_!=='",
",];|@!==%--'",
",@@==%%-}}+'",
",==%%--+)**'",
",%<-++))*$1'",
",}+4)*2$1/>'",
",))*$$/>>#^'",
",*$$/>>:^^~'",
"''''''3'''3'"};
