/* XPM */
static char * button_vert_xpm[] = {
"12 12 33 1",
" 	c None",
".	c #020204",
"+	c #7C7A88",
"@	c #B7B6BC",
"#	c #9E9AA4",
"$	c #D7D7DC",
"%	c #8D8A94",
"&	c #C6C6CC",
"*	c #5C5C6C",
"=	c #ACABB4",
"-	c #6E6C7C",
";	c #83828C",
">	c #C0BFC4",
",	c #94949F",
"'	c #D3D1D7",
")	c #646274",
"!	c #BEBAC4",
"~	c #A4A3AC",
"{	c #EEEEEC",
"]	c #797584",
"^	c #DEDEE4",
"/	c #B2B2BC",
"(	c #827E8C",
"_	c #B2AEBC",
":	c #8A8694",
"<	c #9A96A4",
"[	c #6A666C",
"}	c #7E7E8C",
"|	c #BABAC0",
"1	c #A29EAC",
"2	c #8E8E9C",
"3	c #CACACF",
"4	c #868694",
"{{{{{{{{{{{{",
"{**)....]+([",
"{)[-.^'.;4%[",
"{-]].'3.%,,[",
"{]+}.>!.,#1[",
"{;4%.|/.~~=[",
"{2,,.=~.__@[",
"{<#1.1,.@|>[",
"{~~=.,:.>>3[",
"{=//.:}.3''[",
"{@>>....$^^[",
"[[[[[[[[[[[["};
