/* XPM */
static char * button_horiz_xpm[] = {
"12 12 33 1",
" 	c None",
".	c #020204",
"+	c #7D7A89",
"@	c #B9B6BC",
"#	c #A3A1AC",
"$	c #D7D7DC",
"%	c #C6C6CC",
"&	c #8C8A94",
"*	c #5C5C6C",
"=	c #6F6C7C",
"-	c #ADABB4",
";	c #C0BFC5",
">	c #858492",
",	c #D1D0D4",
"'	c #95939F",
")	c #757382",
"!	c #B4B2BC",
"~	c #646274",
"{	c #EEEEEC",
"]	c #DEDEE4",
"^	c #A6A6AC",
"/	c #827E8C",
"(	c #BEBAC4",
"_	c #B2AEB8",
":	c #8A8694",
"<	c #D6D2DC",
"[	c #9A96A4",
"}	c #7A7684",
"|	c #6A666D",
"1	c #7E7E8C",
"2	c #BABAC0",
"3	c #CACACE",
"4	c #8E8E9C",
"{{{{{{{{{{{{",
"{**~~==)}+/|",
"{~|==}}1>:&|",
"{=)}11>:&4'|",
"{..........|",
"{.],;@-#'>.|",
"{.$32_#'&+.|",
"{..........|",
"{#^-_!@2;;3|",
"{-_!@;;%3,<|",
"{@;;;3,,$$]|",
"||||||||||||"};
