/* XPM */
static char * icl8_17087_xpm[] = {
/* width height ncolors chars_per_pixel */
"32 32 5 1",
/* colors */
" 	s None	c None",
".	c black",
"X	c wheat",
"o	c tan",
"O	c #555555",
/* pixels */
"    ...................         ",
"    .XXXXXXXXXXXXXXXXX..        ",
"    .XXXXXX............o.       ",
"    .XXXXX.OOOOOOOOOOO.oo.      ",
"    .XXXXX.OOOO........ooo.     ",
"    .XXXXX.OOO.XXXXXXX.oooo.    ",
"    .XXXX.......XXXXXX.......   ",
"    .XXXX.......XXXXXXX....o.   ",
"    .XXXXXXXXXXXXXXXXXX....o.   ",
"    .XXXXXXXXXXXXXXXXXX.OO.X.   ",
"    .XXXXXXXXXXXXXXXXXX.OO.X.   ",
"    .XXXXXXXXXXXXXXXXXX.OO.X.   ",
"    .XXXXXXXXXXXXXXXXXX.OO.X.   ",
"    .XXXXXXXXXXXXXXXXXX.OO.X.   ",
"    .XXXXXXXXXXXXXXXXXX.OO.X.   ",
"    .XXXXXXXXXXXXXXXXXX.OO.X.   ",
"    .XXXXXXXXXXXXXXXXXX.OO.X.   ",
"    .XXXXXXXXXXXXXXXXXX.OO.X.   ",
"    .XXXX.......XXXXXXX.OO.X.   ",
"    .XXXX.......XXXXXXX.OO.X.   ",
"    .XXXXX.....XXXXXXXX.OO.X.   ",
"    .XXXXXX.O.XXXXXXXX.OOO.X.   ",
"    .XXXX..............OOO.X.   ",
"    .XXXX.OOOOOOOOOOOOOOO.XX.   ",
"    .XXXX................XXX.   ",
"    .XXXXXX.O.XXXXXXXXXXXXXX.   ",
"    .XXXXXX...XXXXXXXXXXXXXX.   ",
"    .X.XXXX.O.XXXX.XXXXXXXXX.   ",
"    .X.............XXXXXXXXX.   ",
"    .X.XXXX...XXXX.XXXXXXXXX.   ",
"    .XXXXXXXXXXXXXXXXXXXXXXX.   ",
"    .........................   "};
