/* XPM */
static char * icl8_30231_xpm[] = {
/* width height ncolors chars_per_pixel */
"32 32 8 1",
/* colors */
" 	s None	c None",
".	c #660000",
"X	c #CD3300",
"o	c #33FE00",
"O	c #986500",
"+	c #220000",
"@	c #550000",
"#	c #983200",
/* pixels */
"                                ",
"                                ",
"                                ",
"                                ",
"                                ",
"                                ",
"                                ",
"                                ",
".........................       ",
".XXXXXXXXXXXXXXXXXXXXXXXX.      ",
".XXXXXoooOXoooXOoooXoXXoXX.     ",
"+.XXXXoXXoXoXXXoXXXXoXoXXXX.    ",
"++.XXXoXXoXooXXOooOXoooXXXXX.   ",
"+++.XXoXXoXoXXXXXXoXoXXoXXXXX.  ",
"++++.XoooOXoooXoooOXoXXXoXXXXX. ",
"+++++.XXXXXXXXXXXXXXXXXXXXXXXXX.",
"++++++@@@@@@@@@@@@@@@@@@@@@@@@@@",
"++++++@######@     +++++@######@",
"++++++@######@      ++++@######@",
"++++++@@@@@@@@       +++@@@@@@@@",
"++++++@######@        ++@######@",
" +++++@######@         +@######@",
"  ++++@@@@@@@@          @@@@@@@@",
"   +++@######@          @######@",
"    ++@######@          @######@",
"     +@######@          @######@",
"      @@@@@@@@          @@@@@@@@",
"                                ",
"                                ",
"                                ",
"                                ",
"                                "};
