/* XPM */
static char * icl8_16322_xpm[] = {
/* width height ncolors chars_per_pixel */
"32 32 9 1",
/* colors */
" 	s None	c None",
".	c black",
"X	c cadet blue",
"o	c #555555",
"O	c #FF9966",
"+	c white",
"@	c #0000EF",
"#	c #99CCCC",
"$	c #00CBFE",
/* pixels */
"                                ",
"                                ",
"                                ",
"                                ",
"                                ",
"                                ",
"                                ",
"                                ",
"                                ",
" .............................. ",
" .XXXXXXXXXXXXXXXXXXXXXXXXXXXX. ",
" .XXXXXXXXXXXXXXXXXXXXXXXXXXXX. ",
" .XXXXXXXXXXXXXXXXXXXoXXXXXXXX. ",
" .X................XXoXXOOOOXX. ",
" .X.+++++++++++.++.XXoXXOOOOXX. ",
" .X.+@@@@++++++.++.XXoXXXXXXXX. ",
" .X.+++++++++++....XXoXXXXXXXX. ",
" .X.+@@@+@@++++.##.XXoXXOOOOXX. ",
" .X.+++++++++++.##.XXoXXOOOOXX. ",
" .X.+@@+@@@++++.##.XXoXXXXXXXX. ",
" .X.+++++++++++.##.XXoXXXXXXXX. ",
" .X.###########.##.XXoXXXXXXXX. ",
" .X.#$$$$#$$###.##.XXoXXOOOOXX. ",
" .X.###########.##.XXoXXOOOOXX. ",
" .X.+++++++++++....XXoXXXXXXXX. ",
" .X.+@@@+@@@+++.++.XXoXXXXXXXX. ",
" .X.+++++++++++.++.XXoXXOOOOXX. ",
" .X................XXoXXOOOOXX. ",
" .XXXXXXXXXXXXXXXXXXXoXXXXXXXX. ",
" .XXXXXXXXXXXXXXXXXXXXXXXXXXXX. ",
" .XXXXXXXXXXXXXXXXXXXXXXXXXXXX. ",
" .............................. "};
