/* XPM */
static char * editres_xpm[] = {
/* width height ncolors chars_per_pixel */
"32 32 9 1",
/* colors */
" 	s None	c None",
".	c #00FE32",
"X	c #006600",
"o	c #444444",
"O	c #FFCC9A",
"+	c black",
"@	c #3366FF",
"#	c #FE0000",
"$	c #CD0000",
/* pixels */
"        ....                    ",
"      .......                   ",
"     ...X.XXXo oo               ",
"    .X.X.XXOOO+OO+              ",
"    .XXXXXOOo@OOO+              ",
"    X  XXOOOOOOO+               ",
"    XX  XOoO#$OOO+              ",
"     X  oO@O#$O#O+              ",
"         +OOOOO#O++             ",
"        oOOOO##OO+@+            ",
"        oOO+OOOO+@@#+           ",
"         ++ ++++@@+#+           ",
"               +@+##@+          ",
"                +##+@+          ",
"                 #+@@+          ",
"                 +@@+#@         ",
"                  @+#+@         ",
"       ######     +###@         ",
"       ######      #+@  ###     ",
"        ######     +@  ####     ",
"         ######        ###      ",
"          ######      ###       ",
"           ######    ###        ",
"           ######   ###         ",
"            ###### ###          ",
"             #### #####         ",
"             ### #######        ",
"            ###   ######        ",
"           ###     ######       ",
"          ###       ######      ",
"         ###        #######     ",
"        ###          ######     "};
