/* XPM */
static char* exit = {
"23 38 5 2",
"__ c #908090",
"_` c #7f7f7f",
"_a c #000000",
"_b c #d2b48c",
"_c c #f5deb3",
"_______`_`_`_`_`_`_`_`_`_`_`_`_`_`_`_`_`_`____", 
"_`_`_a_a_a_a_a_a_a_a_a_a_a_a_a_a_a_a_a_a_a_a__", 
"_`_a_b_b_b_b_b_b_b_b_b_b_b_b_b_b_b_b_b_b_b_b_a", 
"_`_a_a_a_b_b_b_b_b_b_b_b_b_b_b_b_b_b_b_b_b_b_a", 
"_`_a_c_c_a_a_b_b_b_b_b_b_b_b_b_b_b_b_b_b_b_b_a", 
"_`_a_c_c_c_c_a_a_b_b_b_b_b_b_b_b_b_b_b_b_b_b_a", 
"_`_a_c_c_c_c_c_c_a_b_b_b_b_b_b_b_b_b_b_b_b_b_a", 
"_`_a_c_c_c_c_c_c_c_a_a_b_b_b_b_b_b_b_b_b_b_b_a", 
"_`_a_c_c_c_a_a_c_c_c_c_a_a_b_b_b_b_b_b_b_b_b_a", 
"_`_a_c_c_c_a_a_a_c_c_c_c_c_a_a_b_b_b_b_b_b_b_a", 
"_`_a_c_c_c_a_c_a_a_a_c_c_c_c_c_a_b_b_b_b_b_b_a", 
"_`_a_c_c_c_a_c_c_c_a_a_c_c_c_c_c_a_b_b_b_b_b_a", 
"_`_a_c_c_c_a_a_a_c_c_c_c_c_c_c_c_a_b_b_b_b_b_a", 
"_`_a_c_c_c_a_c_a_a_a_c_c_c_c_c_c_a_b_b_b_b_b_a", 
"_`_a_c_c_c_a_a_c_c_c_c_c_c_c_c_c_a_b_b_b_b_b_a", 
"_`_a_c_c_c_c_a_a_a_a_c_c_c_c_c_c_a_b_b_b_b_b_a", 
"_`_a_c_c_c_c_c_c_a_a_a_c_c_c_c_c_a_b_b_b_b_b_a", 
"_`_a_c_c_c_a_a_c_c_c_c_c_c_c_c_c_a_b_b_b_b_b_a", 
"_`_a_c_c_c_c_a_a_a_a_a_c_c_c_c_c_a_b_b_b_b_b_a", 
"_`_a_c_c_c_c_c_a_a_c_c_c_c_c_c_c_a_b_b_b_b_b_a", 
"_`_a_c_c_c_a_a_a_a_a_c_c_c_c_c_c_a_b_b_b_b_b_a", 
"_`_a_c_c_c_c_c_c_c_a_a_c_c_c_c_c_a_b_b_b_b_b_a", 
"_`_a_c_c_c_c_c_a_a_c_c_c_c_c_c_c_a_b_b_b_b_b_a", 
"_`_a_c_c_c_c_c_a_a_c_c_c_c_c_c_c_a_b_b_b_b_b_a", 
"_`_a_c_c_c_c_c_a_a_c_c_c_c_c_c_c_a_b_b_b_b_b_a", 
"_`_a_c_c_c_c_c_a_a_c_c_c_c_c_c_c_a_b_b_b_b_b_a", 
"_`_a_c_c_c_c_c_c_c_c_c_c_c_c_c_c_a_b_b_b_b_b_a", 
"_`_a_c_c_c_a_a_a_a_c_c_c_c_c_c_c_a_b_b_b_b_b_a", 
"_`_a_c_c_c_c_c_a_a_a_c_c_c_c_c_c_a_b_b_b_b_b_a", 
"_`_a_c_c_c_c_c_a_a_a_a_a_c_c_c_c_a_b_b_b_b_b_a", 
"___a_c_c_c_c_c_a_a_c_c_a_c_c_c_c_a_a_a_a_a_a__", 
"_____a_a_c_c_c_a_a_c_c_c_c_c_c_c_a____________", 
"_________a_a_c_c_a_c_c_c_c_c_c_c_a____________", 
"_____________a_a_c_c_c_c_c_c_c_c_a____________", 
"_________________a_a_c_c_c_c_c_c_a____________", 
"_____________________a_a_c_c_c_c_a____________", 
"_________________________a_a_c_c_a____________", 
"_____________________________a_a______________", 
} ;
