/* XPM */
static char * icl8_15540_xpm[] = {
/* width height ncolors chars_per_pixel */
"32 32 8 1",
/* colors */
" 	s None	c None",
".	c #777777",
"X	c black",
"o	c wheat",
"O	c #0066FE",
"+	c #9ACCFF",
"@	c #FF9966",
"#	c #FFCC9A",
/* pixels */
".XXXXXXXXXXXXXXXXXXXXXXXX.      ",
"XooooooooooooooooooooooooX      ",
"XooooooooooOOOOOoooooooooX      ",
"XooooooooooO+++OoooooooooX      ",
"XooooooooooO+++OoooooooooX      ",
"XooooooooooOOOOOoooooooooX      ",
"XooooooooooooOoooooooooooX      ",
"XooooooooooooOoooooooooooX      ",
"XoooooooooooO+OooooooooooX      ",
"XooooooooooO+++OoooooooooX      ",
"XooooOOOOOO+++++OOOOOooooX      ",
"XooooOoooooO+++OooooOooooX      ",
"XooOOOOOooooO+OoooOOOOOooX      ",
"XooO+++OoooooOooooO+++OooX      ",
"XooO+++OooooooooooO+++OooX      ",
"XooOOOOOooooooooooOOOOOooX      ",
"XooooOooooooooooooooOooooX      ",
"XooooOoooXXXooooooooOooooX      ",
"XooooOoooXXXXXXXXXoooooooX      ",
"XoooO+OooXX@@@@@@@XoXXXXXX      ",
"XooO+++OoXX#######@X@@@@@X      ",
"XoO+++++OXX#######X@#####@X     ",
"XooO+++OoXX######X@##XX###@X    ",
"XoooO+OooXXX#####X##X@@X###@XXXX",
"XooooOooooooX####X##X##X####@@XX",
"XooooOoooooooX###@XX@##X######XX",
"XooOOOOOooooooX###@@##X@######XX",
"XooO+++OoooooooX#####X@#######XX",
"XooO+++OooooooooXXXXXoX#######XX",
"XooOOOOOoooooooooooooooXXXXXXXXX",
"XooooooooooooooooooooooooX   XXX",
".XXXXXXXXXXXXXXXXXXXXXXXX.      "};
