/* XPM */
static char * icl8_18139_xpm[] = {
/* width height ncolors chars_per_pixel */
"32 32 20 1",
/* colors */
" 	s None	c None",
".	c black",
"X	c tan",
"o	c wheat",
"O	c #FFCC9A",
"+	c #FF9966",
"@	c #DDDDDD",
"#	c #3399FF",
"$	c #9A6633",
"%	c white",
"&	c #0033FE",
"*	c #FE0000",
"=	c #663300",
"-	c #888888",
";	c #000077",
":	c #890000",
"?	c #111111",
">	c #444444",
",	c #777777",
"<	c #BBBBBB",
/* pixels */
"                                ",
"  ......                        ",
" .XXXXXX.                       ",
"...............                 ",
".ooooooooooooo.                 ",
".ooooooooooooo.                 ",
".ooooooooooooo.                 ",
".oooooooooooooo                 ",
".ooooooooooooo.                 ",
".ooooooooooooOO                 ",
".ooooooooooOO++++@#@            ",
".......o.oO++$$$$%&%*           ",
"          +$$$$$=-;-:           ",
"         +$$$$==                ",
"        +$$$$=                  ",
"        +$$$=     ?             ",
"       +$$$=      >             ",
"       +$$$=   ?   ,            ",
"       +$$=   ?%>  -            ",
"       +$$=    >%,  <           ",
"       @%-      ,  X.X.X.       ",
"       #&;  ?>    XXXXXXX.      ",
"       @%-    ,- XX.X.X.........",
"        *:      <Xooooooooooooo.",
"                 Xooooooooooooo.",
"                 .ooooooooooooo.",
"                 Xooooooooooooo.",
"                 .ooooooooooooo.",
"                 .ooooooooooooo.",
"                 .ooooooooooooo.",
"                 ...............",
"                                "};
