/* XPM */
static char *noname[] = {
/* width height ncolors chars_per_pixel */
"32 32 5 1",
/* colors */
"` c #000000",
"a c #FFFE9A",
"b c #FFCC9A",
"c c none",
"d c #FFCC66",
/* pixels */
"cccccccccccccccccccccccccccccccc",
"cccccccccccccccccccccccccccccccc",
"cccccccccccccccccccccccccccccccc",
"cccccccccccccccccccccccccccccccc",
"cccccccccccccccccccccccccccccccc",
"cccccccccccccccccccccccccccccccc",
"cccccccccccccccccccccccccccccccc",
"ccccc```````cccccccccccccccccccc",
"cccc`ddddddd`ccccccccccccccccccc",
"ccc`ddddddddd`cccccccccccccccccc",
"cc`ddddddddddd`ccccccccccccccccc",
"c`````````````````````````````cc",
"`aaaaaaaaaaaaaaaaaaaaaaaaaaaaa`c",
"`aaaaaaaaaaaaaaaaaaaaaaaaaaaaa`c",
"`aaaaaaaaaaaaaaaaaaaaaaaaaaaaa`c",
"`aaaaaaaaaaaaaaaaaaaaaaaaaaaaa`c",
"`aaaaaaaaaaaaaaaaaaaaaaaaaaaaa`c",
"`aaaaaaaaaaaaaaaaaaaaaaaaaaaaa`c",
"`aaaaaaaaaaaaaaaaaaaaaaaaaaaaa`c",
"`aaaaaaaaaaaaaaaaaaaaaaaaaaaaa`c",
"`aaaaaaaaaaaaaaaaaaaaaaaaaaaaa`c",
"`aaaaaaaaaaaaaaaaaaaaaaaaaaaaa`c",
"`aaaaaaaaaaaaaaaaaaaaaaaaaaaaa`c",
"`aaaaaaaaaaaaaaaaaaaaaaaaaaaaa`c",
"`aaaaaaaaaaaaaaaaaaaaaaaaaaaaa`c",
"`aaaaaaaaaaaaaaaaaaaaaaaaaaaaa`c",
"`aaaaaaaaaaaaaaaaaaaaaaaaaaaaa`c",
"`aaaaaaaaaaaaaaaaaaaaaaaaaaaaa`c",
"`aaaaaaaaaaaaaaaaaaaaaaaaaaaaa`c",
"`aaaaaaaaaaaaaaaaaaaaaaaaaaaaa`c",
"`bbbbbbbbbbbbbbbbbbbbbbbbbbbbb`c",
"```````````````````````````````c"
};
