/* XPM */
static char * fvwm2_xpm[] = {
/* width height ncolors chars_per_pixel */
"132 64 7 1",
/* colors */
" 	s none c none",
".	c #fffa35 m #000000",
"X	c #b9a02b",
"o	c #8b6914",
"O	c #ff0000",
"+	c #770000",
"@      c #cc0000 m #ffffff",
/* pixels */
"                                               .XXXo                                                                                ",
" OOOOOOOOOOOOOOOOOOOOOOOOOOOOOOO  OOOOOOOOOO   .XXXo   OOOOOOOOOO  OOOOOOOOOO           OOOOOOOOOO  OOOOOOOOO      ...    OOOOOOOOO ",
" OOOOOOOOOOOOOOOOOOOOOOOOOOOOOO+  OOOOOOOOO+    ooo    OOOOOOOOO+  OOOOOOOOO+           OOOOOOOOO+  OOOOOOOO+     .XXXo   OOOOOOOO+ ",
" OOOOOOOOOOOOOOOOOOOOOOOOOOOOO++  OOOOOOOO++           OOOOOOOO++  OOOOOOOO++   ...     OOOOOOOO++  OOOOOOO+++    .XXXo  OOOOOOOO++ ",
" OOO@@@@@@@@@@@@@@@@@@@@@@@@@+++  OOO@@@@+++           OOO@@@@+++  OOO@@@@+++  .XXX.    OOO@@@@+++  OOO@@@@+++    .XXXo  OOO@@@@+++ ",
" OOO@@@@@@@@@@@@@@@@@@@@@@@@@+++  OOO@@@@+++           OOO@@@@+++  OOO@@@@+++ .XXXXXo   OOO@@@@+++  OOO@@@@@+++    ooo  OOO@@@@@+++ ",
" OOO@@@@@@@@@@@@@@@@@@@@@@@@@+++  OOO@@@@+++           OOO@@@@+++  OOO@@@@+++ .XXXXXo   OOO@@@@+++  OOO@@@@@+++         OOO@@@@@+++ ",
" OOO@@@@@@@@@@@@@@@@@@@@@@@@@+++  OOO@@@@+++           OOO@@@@+++  OOO@@@@+++ .XXXXXo   OOO@@@@+++  OOO@@@@@@+++       OOO@@@@@@+++ ",
" OOO@@@@++++++++++++++++++++++++  OOO@@@@+++           OOO@@@@+++  OOO@@@@+++  oXXXo    OOO@@@@+++  OOO@@@@@@+++       OOO@@@@@@+++ ",
" OOO@@@@++++++++++++++++++++++++  OOO@@@@+++           OOO@@@@+++  OOO@@@@+++   ooo     OOO@@@@+++  OOO@@@@@@@+++     OOO@@@@@@@+++ ",
" OOO@@@@++++++++++++++++++++++++  OOO@@@@+++           OOO@@@@+++  OOO@@@@+++           OOO@@@@+++  OOO@@@@@@@+++     OOO@@@@@@@+++ ",
" OOO@@@@+++                       OOO@@@@+++           OOO@@@@+++  OOO@@@@+++           OOO@@@@+++  OOO@@@@@@@@+++   OOO@@@@@@@@+++ ",
" OOO@@@@+++                       OOO@@@@+++           OOO@@@@+++  OOO@@@@+++           OOO@@@@+++  OOO@@@@@@@@+++   OOO@@@@@@@@+++ ",
" OOO@@@@+++     ...               OOO@@@@+++           OOO@@@@+++  OOO@@@@+++           OOO@@@@+++  OOO@@@@+@@@@+++ OOO@@@@O@@@@+++ ",
" OOO@@@@+++    .XXXo              OOO@@@@+++           OOO@@@@+++  OOO@@@@+++           OOO@@@@+++  OOO@@@@+O@@@+++ OOO@@@+O@@@@+++ ",
" OOO@@@@+++    .XXXo              OOO@@@@+++           OOO@@@@+++  OOO@@@@+++           OOO@@@@+++  OOO@@@@+O@@@@++OOO@@@@+O@@@@+++ ",
" OOO@@@@+++    .XXXo         .    OOO@@@@+++           OOO@@@@+++  OOO@@@@+++       .   OOO@@@@+++  OOO@@@@+OO@@@++OOO@@@++O@@@@+++ ",
" OOO@@@@+++     ooo         .Xo   OOO@@@@+++  ...      OOO@@@@+++  OOO@@@@+++      .Xo  OOO@@@@+++  OOO@@@@++O@@@@+OO@@@@+OO@@@@+++ ",
" OOO@@@@+++                  o    OOO@@@@+++ .XXXo     OOO@@@@+++  OOO@@@@+++       o   OOO@@@@+++  OOO@@@@++OO@@@+OO@@@++OO@@@@+++ ",
" OOO@@@@+++                       OOO@@@@+++ .XXXo     OOO@@@@+++  OOO@@@@+++           OOO@@@@+++  OOO@@@@++OO@@@@O@@@@++OO@@@@+++ ",
" OOO@@@@+++                       OOO@@@@+++ .XXXo     OOO@@@@+++  OOO@@@@+++           OOO@@@@+++  OOO@@@@++OOO@@@O@@@+++OO@@@@+++ ",
" OOO@@@@+++OOOOOOOOOOOOOOOO       OOO@@@@+++  ooo      OOO@@@@+++  OOO@@@@+++           OOO@@@@+++  OOO@@@@+++OO@@@@@@@++OOO@@@@+++ ",
" OOO@@@@++OOOOOOOOOOOOOOOO+       OOO@@@@+++           OOO@@@@+++  OOO@@@@+++     O     OOO@@@@+++  OOO@@@@+++OOO@@@@@+++OOO@@@@+++ ",
" OOO@@@@+OOOOOOOOOOOOOOOO++       OOO@@@@+++           OOO@@@@+++  OOO@@@@+++     O     OOO@@@@+++  OOO@@@@+++OOO@@@@@+++OOO@@@@+++ ",
" OOO@@@@@@@@@@@@@@@@@@@@+++       OOO@@@@+++           OOO@@@@+++  OOO@@@@+++    OO+    OOO@@@@+++  OOO@@@@+++ OOO@@@+++ OOO@@@@+++ ",
" OOO@@@@@@@@@@@@@@@@@@@@+++        OOO@@@+++           OOO@@@+++   OOO@@@@+++    OO+    OOO@@@@+++  OOO@@@@+++ OOO@@@+++ OOO@@@@+++ ",
" OOO@@@@@@@@@@@@@@@@@@@@+++        OOO@@@@+++         OOO@@@@+++   OOO@@@@+++   OOO++   OOO@@@@+++  OOO@@@@+++  OOO@+++  OOO@@@@+++ ",
" OOO@@@@@@@@@@@@@@@@@@@@+++         OOO@@@+++         OOO@@@+++    OOO@@@@+++   OOO++   OOO@@@@+++  OOO@@@@+++  OOO@+++  OOO@@@@+++ ",
" OOO@@@@+++++++++++++++++++         OOO@@@@+++       OOO@@@@+++    OOO@@@@+++  OOO@+++  OOO@@@@+++  OOO@@@@+++   OOO++   OOO@@@@+++ ",
" OOO@@@@+++++++++++++++++++          OOO@@@+++       OOO@@@+++     OOO@@@@+++  OOO@+++  OOO@@@@+++  OOO@@@@+++   OOO++   OOO@@@@+++ ",
" OOO@@@@+++++++++++++++++++          OOO@@@@+++     OOO@@@@+++     OOO@@@@+++ OOO@@@+++ OOO@@@@+++  OOO@@@@+++    OO+    OOO@@@@+++ ",
" OOO@@@@+++                           OOO@@@+++     OOO@@@+++      OOO@@@@+++ OOO@@@+++ OOO@@@@+++  OOO@@@@+++    OO+    OOO@@@@+++ ",
" OOO@@@@+++                           OOO@@@@+++   OOO@@@@+++      OOO@@@@+++OOO@@@@@+++OOO@@@@+++  OOO@@@@+++     O     OOO@@@@+++ ",
" OOO@@@@+++                            OOO@@@+++   OOO@@@+++       OOO@@@@+++OOO@@@@@+++OOO@@@@+++  OOO@@@@+++     O     OOO@@@@+++ ",
" OOO@@@@+++    ...                     OOO@@@@+++ OOO@@@@+++       OOO@@@@+++OO@@@@@@@++OOO@@@@+++  OOO@@@@+++           OOO@@@@+++ ",
" OOO@@@@+++   .XXXo                     OOO@@@+++ OOO@@@+++        OOO@@@@++OOO@@@O@@@+++OO@@@@+++  OOO@@@@+++           OOO@@@@+++ ",
" OOO@@@@+++   .XXXo                     OOO@@@@++OOO@@@@+++        OOO@@@@++OO@@@@O@@@@++OO@@@@+++  OOO@@@@+++           OOO@@@@+++ ",
" OOO@@@@+++   .XXXo                      OOO@@@++OOO@@@+++         OOO@@@@++OO@@@+OO@@@++OO@@@@+++  OOO@@@@+++      ...  OOO@@@@+++ ",
" OOO@@@@+++    ooo              ...      OOO@@@@+OO@@@@+++         OOO@@@@++O@@@@+OO@@@@+OO@@@@+++  OOO@@@@+++     .XXXo OOO@@@@+++ ",
" OOO@@@@+++                    .XXXo      OOO@@@+OO@@@+++          OOO@@@@+OO@@@++OOO@@@++O@@@@+++  OOO@@@@+++     .XXXo OOO@@@@+++ ",
" OOO@@@@+++                    .XXXo      OOO@@@@O@@@@+++          OOO@@@@+O@@@@++OOO@@@@+O@@@@+++  OOO@@@@+++     .XXXo OOO@@@@+++ ",
" OOO@@@@+++                    .XXXo       OOO@@@O@@@+++           OOO@@@@+O@@@+++ OOO@@@+O@@@@+++  OOO@@@@+++      ooo  OOO@@@@+++ ",
" OOO@@@@+++            ...      ooo        OOO@@@@@@@+++           OOO@@@@+@@@@+++ OOO@@@@O@@@@+++  OOO@@@@+++           OOO@@@@+++ ",
" OOO@@@@+++          ..XXX..                OOO@@@@@+++            OOO@@@@@@@@+++   OOO@@@@@@@@+++  OOO@@@@+++           OOO@@@@+++ ",
" OOO@@@@+++         .XXXXXXXo               OOO@@@@@+++            OOO@@@@@@@@+++   OOO@@@@@@@@+++  OOO@@@@+++           OOO@@@@+++ ",
" OOO@@@@+++        .XXXXXXXXXo               OOO@@@+++      .      OOO@@@@@@@+++     OOO@@@@@@@+++  OOO@@@@+++           OOO@@@@+++ ",
" OOO@@@@+++        .XXXXXXXXXo               OOO@@@+++    ..X..    OOO@@@@@@@+++     OOO@@@@@@@+++  OOO@@@@+++           OOO@@@@+++ ",
" OOO@@@@+++        .XXXXXXXXXo                OOO@+++     .XXXo    OOO@@@@@@+++       OOO@@@@@@+++  OOO@@@@+++           OOO@@@@+++ ",
" OOO@@@@+++        .XXXXXXXXXo                OOO@+++    .XXXXXo   OOO@@@@@@+++       OOO@@@@@@+++  OOO@@@@+++           OOO@@@@+++ ",
" OOO@@@@+++        .XXXXXXXXXo                 OOO++      .XXXo    OOO@@@@@+++         OOO@@@@@+++  OOO@@@@+++           OOO@@@@+++ ",
" OOO@@@@+++         .XXXXXXXo                  OOO++      ooXoo    OOO@@@@@+++         OOO@@@@@+++  OOO@@@@+++           OOO@@@@+++ ",
" OOO@@@@+++          ooXXXoo                    OO+         o      OOO@@@@+++           OOO@@@@+++  OOO@@@@+++           OOO@@@@+++ ",
" OOO+++++++            ooo                      OO+                OOO+++++++           OOO+++++++  OOO+++++++           OOO+++++++ ",
" OO++++++++                                      O                 OO+++++++             O++++++++  OO++++++++           OO++++++++ ",
" O+++++++++                       .......        O                 O++++++++     .....   +++++++++  O+++++++++           O+++++++++ ",
"                                ..XXXXXXX..                   .                ..XXXXX..                           ...              ",
"                               .XXXXXXXXXXXo               ...X...            .XXXXXXXXXo                        ..XXX..            ",
"           ...                .XXXXXXXXXXXXXo             .XXXXXXXo          .XXXXXXXXXXXo                     .XXXXXXXXXo          ",
"         ..XXXoo             .XXXXXXXXXXXXXXXo            .XXXXXXXo         .XXXXXXXXXXXXXo           ...      .XXXXXXXXXo      .   ",
"...     .XXXXXXXo           .XXXXXXXXXXXXXXXXXo           .XXXXXXXo         .XXXXXXXXXXXXXo          .XXXo    .XXXXXXXXXXXo  ...X...",
"XXXo   .XXXXXXXXXo          .XXXXXXXXXXXXXXXXXo          .XXXXXXXXXo       .XXXXXXXXXXXXXXXo         .XXXo    .XXXXXXXXXXXo .XXXXXXX",
"XXXXo  .XXXXXXXXXo          .XXXXXXXXXXXXXXXXXo           .XXXXXXXo        .XXXXXXXXXXXXXXXo         .XXXo   .XXXXXXXXXXXXXoXXXXXXXX",
"XXXXo  .XXXXXXXXXo          .XXXXXXXXXXXXXXXXXo           .XXXXXXXo        .XXXXXXXXXXXXXXXo          ooo    .XXXXXXXXXXXXXXXXXXXXXX",
"XXXXo  .XXXXXXXXXo          .XXXXXXXXXXXXXXXXXo           .XXXXXXXo        .XXXXXXXXXXXXXXXo                 .XXXXXXXXXXXXXXXXXXXXXX"};

