/* XPM */
static char * fvwm3_xpm [] = {
"132 44 6 1",
" 	c none",
".	c #F0D040",
"X	c #D09E20",
"o	c #A06000",
"O	c #C07F10",
"+	c #904000",
"                                                                                                                                    ",
" .XXXXXXXXXXXXXXXXXXXXXXXXXXXXXX  .XXXXXXXXX           .XXXXXXXXX  .XXXXXXXXX           .XXXXXXXXX  .XXXXXXXX             .XXXXXXXX ",
" ..XXXXXXXXXXXXXXXXXXXXXXXXXXXXo  ..XXXXXXXo           ..XXXXXXXo  ..XXXXXXXo           ..XXXXXXXo  ..XXXXXXoo           ...XXXXXXo ",
" ...XXXXXXXXXXXXXXXXXXXXXXXXXXoo  ...XXXXXoo           ...XXXXXoo  ...XXXXXoo           ...XXXXXoo  ...XXXXoooo         ....XXXXXoo ",
" ...OOOOOOOOOOOOOOOOOOOOOOOOOooo  ...OOOOooo           ...OOOOooo  ...OOOOooo           ...OOOOooo  ...OOOOooooo       .....OOOOooo ",
" ...OOOOOOOOOOOOOOOOOOOOOOOOOooo  ...OOOOooo           ...OOOOooo  ...OOOOooo           ...OOOOooo  ...OOOOOooooo     .....OOOOOooo ",
" ...OOOOOOOOOOOOOOOOOOOOOOOOOooo  ...OOOOooo           ...OOOOooo  ...OOOOooo           ...OOOOooo  ...OOOOOOooooo   .....OOOOOOooo ",
" ...OOOOOOOOOOOOOOOOOOOOOOOOOooo  ...OOOOooo           ...OOOOooo  ...OOOOooo           ...OOOOooo  ...OOOOOOOooooo .....OOOOOOOooo ",
" ...OOOOo++++++++++++++++++++ooo  ...OOOOooo           ...OOOOooo  ...OOOOooo           ...OOOOooo  ...OOOOOOOOooooo....OOOOOOOOooo ",
" ...OOOOoo++++++++++++++++++++oo  ...OOOOooo           ...OOOOooo  ...OOOOooo           ...OOOOooo  ...OOOOOOOOOoooo...OOOOOOOOOooo ",
" ...OOOOooo++++++++++++++++++++o  ...OOOOooo           ...OOOOooo  ...OOOOooo           ...OOOOooo  ...OOOOOOOOOOooo..OOOOOOOOOOooo ",
" ...OOOOooo                       ...OOOOooo           ...OOOOooo  ...OOOOooo           ...OOOOooo  ...OOOOOOOOOOOoo.OOOOOOOOOOOooo ",
" ...OOOOooo                       ...OOOOooo           ...OOOOooo  ...OOOOooo           ...OOOOooo  ...OOOOoOOOOOOOoOOOOOOO.OOOOooo ",
" ...OOOOooo                       ...OOOOooo           ...OOOOooo  ...OOOOooo           ...OOOOooo  ...OOOOooOOOOOOOOOOOOO..OOOOooo ",
" ...OOOOooo                       ...OOOOooo           ...OOOOooo  ...OOOOooo           ...OOOOooo  ...OOOOoo.OOOOOOOOOOOo..OOOOooo ",
" ...OOOOooo                       ...OOOOooo           ...OOOOooo  ...OOOOooo           ...OOOOooo  ...OOOOoo..OOOOOOOOOoo..OOOOooo ",
" ...OOOOooo                       ...OOOOooo           ...OOOOooo  ...OOOOooo           ...OOOOooo  ...OOOOoo...OOOOOOOooo..OOOOooo ",
" ...OOOOoooXXXXXXXXXXXXXXXX       ...OOOOooo           ...OOOOooo  ...OOOOooo           ...OOOOooo  ...OOOOooo...OOOOOooo...OOOOooo ",
" ...OOOOooXXXXXXXXXXXXXXXXo       ...OOOOooo           ...OOOOooo  ...OOOOooo           ...OOOOooo  ...OOOOooo....OOOoooo...OOOOooo ",
" ...OOOOoXXXXXXXXXXXXXXXXoo       ...OOOOooo           ...OOOOooo  ...OOOOooo           ...OOOOooo  ...OOOOooo ....Ooooo ...OOOOooo ",
" ...OOOOOOOOOOOOOOOOOOOOooo       ...OOOOooo           ...OOOOooo  ...OOOOooo           ...OOOOooo  ...OOOOooo  ...oooo  ...OOOOooo ",
" ...OOOOOOOOOOOOOOOOOOOOooo       ...OOOOooo           ...OOOOooo  ...OOOOooo           ...OOOOooo  ...OOOOooo   ...oo   ...OOOOooo ",
" ...OOOOOOOOOOOOOOOOOOOOooo       ...OOOOooo           ...OOOOooo  ...OOOOooo           ...OOOOooo  ...OOOOooo    ..o    ...OOOOooo ",
" ...OOOOOOOOOOOOOOOOOOOOooo       ...OOOOooo           ...OOOOooo  ...OOOOooo     .     ...OOOOooo  ...OOOOooo     .     ...OOOOooo ",
" ...OOOOo+++++++++++++++ooo       ...OOOOooo           ...OOOOooo  ...OOOOooo    ..o    ...OOOOooo  ...OOOOooo           ...OOOOooo ",
" ...OOOOoo+++++++++++++++oo       ...OOOOooo           ...OOOOooo  ...OOOOooo   ...oo   ...OOOOooo  ...OOOOooo           ...OOOOooo ",
" ...OOOOooo+++++++++++++++o       ...OOOOooo           ...OOOOooo  ...OOOOooo  ....ooo  ...OOOOooo  ...OOOOooo           ...OOOOooo ",
" ...OOOOooo                       ...OOOOooo           ...OOOOooo  ...OOOOooo ....Ooooo ...OOOOooo  ...OOOOooo           ...OOOOooo ",
" ...OOOOooo                       ...OOOOoooo         ....OOOOooo  ...OOOOooo....OOOoooo...OOOOooo  ...OOOOooo           ...OOOOooo ",
" ...OOOOooo                       ....OOOOoooo       ....OOOOoooo  ...OOOOooo...OOOOOoooo..OOOOooo  ...OOOOooo           ...OOOOooo ",
" ...OOOOooo                        ....OOOOoooo     ....OOOOoooo   ...OOOOoo...OOOOOOOooo..OOOOooo  ...OOOOooo           ...OOOOooo ",
" ...OOOOooo                         ....OOOOoooo   ....OOOOoooo    ...OOOOoo..OOOOOOOOOooo.OOOOooo  ...OOOOooo           ...OOOOooo ",
" ...OOOOooo                          ....OOOOoooo ....OOOOoooo     ...OOOOo..OOOOO.OOOOOoo.OOOOooo  ...OOOOooo           ...OOOOooo ",
" ...OOOOooo                           ....OOOOoooO...OOOOoooo      ...OOOOo.OOOOOo..OOOOOooOOOOooo  ...OOOOooo           ...OOOOooo ",
" ...OOOOooo                            ....OOOOooO..OOOOoooo       ...OOOOOOOOOOoo...OOOOOOOOOOooo  ...OOOOooo           ...OOOOooo ",
" ...OOOOooo                             ....OOOOoO.OOOOoooo        ...OOOOOOOOOooo....OOOOOOOOOooo  ...OOOOooo           ...OOOOooo ",
" ...OOOOooo                              ....OOOOoOOOOoooo         ...OOOOOOOOoooo ....OOOOOOOOooo  ...OOOOooo           ...OOOOooo ",
" ...OOOOooo                               ....OOOOOOOoooo          ...OOOOOOOoooo   ....OOOOOOOooo  ...OOOOooo           ...OOOOooo ",
" ...OOOOooo                                ....OOOOOoooo           ...OOOOOOoooo     ....OOOOOOooo  ...OOOOooo           ...OOOOooo ",
" ...OOOOooo                                 ....OOOoooo            ...OOOOOoooo       ....OOOOOooo  ...OOOOooo           ...OOOOooo ",
" ...OOOOooo                                  ....Ooooo             ...OOOOoooo         ....OOOOooo  ...OOOOooo           ...OOOOooo ",
" ...++++ooo                                   ...Oooo              ...++++ooo           ...+++++oo  ...++++ooo           ...++++ooo ",
" ..++++++oo                                    ..Ooo               ..++++++o             .+++++++o  ..++++++oo           ..++++++oo ",
" .++++++++o                                     .Oo                .++++++++             +++++++++  .++++++++o           .++++++++o "};


