/* XPM */
static char * jbomb_xpm[] = {
"16 16 7 1",
" 	s None	c None",
".	c gray30",
"X	c black",
"o	c gray45",
"O	c white",
"+	c gray85",
"@	c yellow",
"                ",
"                ",
"       ...      ",
"      .   .     ",
"     .     .    ",
"    XXX     .   ",
"   XXooX    .   ",
"  XoO+XXX    .  ",
" XXOooXXXX   .  ",
" Xo+oXXXoX   @  ",
" XoXXXXX@X   @@ ",
" XXXXXXo+X    @ ",
" XXXXX.ooX  @   ",
"  XX..o.X       ",
"   XXXXX        ",
"                "};
