/* XPM */
static char * jbook1_xpm[] = {
/**/
"16 16 4 1",
/**/
" 	s None	c None",
".	c saddlebrown",
"X	c white",
"o	c black",
/*÷dÄ¬÷dÇ\*/
"                ",
"    ..........  ",
"   ..XXXXXXXX.  ",
"   .........X.  ",
"   .........X.  ",
"   ..oo.ooo.X.  ",
"   ...o.o.o.X.  ",
"   ..o.o.o..X.  ",
"   .........X.  ",
"   .........X.  ",
"   .........X.  ",
"   .........X.  ",
"   .........X.  ",
"   .........X   ",
"    ........    ",
"                "};
