/* XPM */
static char * jclock_xpm[] = {
"16 16 6 1",
" 	s None	c None",
".	c gray45",
"X	c gray60",
"o	c white",
"O	c gray70",
"+	c black",
"                ",
"                ",
"     .XXX.      ",
"    .ooooo.     ",
"   OoooooooO    ",
"  .oooo+oooo.   ",
" .ooooo+ooooo.  ",
" .ooooo+ooooo.  ",
" .ooooo+ooooo.  ",
" .oooooo+oooo.  ",
" .ooooooo+ooo.  ",
"  .ooooooooo.   ",
"   OoooooooO    ",
"    .ooooo.     ",
"     .XXX.      ",
"                "};
