/* XPM */
static char * Jlock_xpm[] = {
"64 38 8 1",
" 	s None	c None",
".	c gray70",
"X	c gray85",
"o	c gray50",
"O	c white",
"+	c gray60",
"@	c gray30",
"#	c gray55",
"                                                   .Xo    OXo   ",
"                                                   .Xo    .Xo   ",
"                                                   OXo   .Oo    ",
"                                                  .Xo... .Xo    ",
"                                                ...XoXXX+.Xo    ",
"                                             ...XXOXoo+XX+Xo    ",
"                                            .XXX.o.XX...Ooo     ",
"                                 +++++++  .OXXoo   .XXX.Xoo     ",
"                               ++OXXXXX++.OX+o      ooo.Oo      ",
"                             +oOXXXXXXXXXOXo          ..Xo      ",
".                           +oOXX.oooooo.Xo.+       .OXXo       ",
"X.                          oOOX.+      .OoX.+    ..XXoo        ",
"XX.                    ++++++++.        .XoXX+  ..XXXo          ",
"oXX..               +O.XXXXXXXX.o       .XXOX+o+XXXoo           ",
" o+XX........... +.OXXX.oooooo.Xo        +ooooXX+oo             ",
"   oXX.XXXXXXXX+.OXX.oo    oOXoOXo    ooooXXXooo@               ",
"   .oX+ooooooo.OXX.o       oXX. X ooooXXXooooXXXX+              ",
"  .XX.Xo     +.X.oo        oOXooooXXXooooXXXXooooX@             ",
"  .Oo.Xo     +Oo.XXo       .ooXXXooooXXXXooooXXXXoo+            ",
"  .X+OXo     +Xo .Oo       o..oooXXXXooooXXXXooooXX@            ",
". .X+XXo     +X. .Oo     +O#.OXXXooooXXXXooooXXXXXoo+           ",
"X..XX.+      +XX.OX+++O+OXX#oX.ooXXXXooooXXXXXooooXX++          ",
"XXXoXXX+.......OXXo.XXXXX.o.o.OXXooooXXXXXooooXXXXXooo+         ",
".oooo++XXXXXXXXXoo++.++oo  oooXooXXXXXooooXXXXXooooXo.@         ",
"       ooooooooo            .o.XXXooooXXXXXooooXXXX....@        ",
"                            oooOooXXXXXooooXXXX....OOOXo        ",
"                            o.o.XXXooooXXXX....OOXXXXXoXo       ",
"                             ooX.ooXXXX....OOXXXXX#o##o#o       ",
"                             o.oOXX....OOOOXXXo##oooo##Xo       ",
"                             o#oO..OOOOXXXXooooooooo###.o       ",
"                              oo.OOXXXX###oo@@@@oooo#..o        ",
"                              o.OXX#ooooo@@@XXXO####.oo         ",
"                              ooX#oooooo@XXOXO##.##oo           ",
"                               oX#oooooooO###.o#o               ",
"                               oX#######.##oo                   ",
"                                o.####.oo                       ",
"                                ooooo                           ",
"                                                                "};
