/* XPM */
static char * jlower_xpm[] = {
"16 16 7 1",
" 	s None	c None",
".	c steelblue1",
"X	c black",
"o	c white",
"O	c gray60",
"+	c gray85",
"@	c gray45",
"                ",
" ............   ",
" .X.X.X..X.X.   ",
" ............   ",
" .ooooOOOOOOOOOO",
" .oO@OOXOXOOXOXO",
" .ooo@OOOOOOOOOO",
" .o@@OO++++++++O",
"OOOOOOOOO++++++O",
"XOXOOXOXO++++++O",
"OOOOOOOOO++++++O",
"++++++++O++++++O",
"++++++++O++++++O",
"++++++++OOOOOOOO",
"++++++++O       ",
"++++++++O       "};
