/* XPM */
static char * jmove_xpm[] = {
"16 16 8 1",
" 	s None	c None",
".	c steelblue1",
"X	c black",
"o	c white",
"O	c gray60",
"+	c gray45",
"@	c red",
"#	c gray85",
"                ",
"                ",
" ............   ",
" .X.X.X..X.X.   ",
" ............   ",
" .oooooooooo.   ",
" .oO+OoOOooo.   ",
" .ooo+O@@++O.   ",
" .o++Oo@@@oo.   ",
" .oooOoO@@@o.   ",
" .oO++##O@@@.   ",
" .oooooooo@@@  @",
" ..........@@@@@",
"            @@@@",
"            @@@@",
"           @@@@@"};
