/* XPM */
static char * jraise_xpm[] = {
"16 16 8 1",
" 	s None	c None",
".	c steelblue1",
"X	c black",
"o	c white",
"O	c gray45",
"+	c gray60",
"@	c gray70",
"#	c gray85",
"                ",
" ............   ",
" .X.X.X..X.X.   ",
" ............   ",
" .oooooooooo.O++",
" .o+O+o++ooo.OX+",
" .oooO+ooOO+.O++",
" .oOO+oooooo.@#+",
"+.ooo+o+##oo.@#+",
"X.o+OO##+++o.@#+",
"+.oooooooooo.@#+",
"#............@#+",
"##@@@@@@O@@@@@#+",
"########+######+",
"########++++++++",
"########+       "};
