/* XPM */
static char * Jxlock_xpm[] = {
"64 38 9 1",
" 	s None	c None",
".	c gray70",
"X	c gray85",
"o	c gray50",
"O	c white",
"+	c gray60",
"@	c red",
"#	c gray30",
"$	c gray55",
"                                                      .Xo    OXo",
"                                                      .Xo    .Xo",
"                                                      OXo   .Oo ",
"                                                     .Xo... .Xo ",
"                                                   ...Xo.XX+.Xo ",
"                                                ...XXOXoo+XX+Xo ",
" @@@@@@@@@@                @@@                 .XXX.o.XX...Ooo  ",
"  @@@@@@@@@@              @@@       +++++++  .OXXoo   .XX..Xoo  ",
"   @@@@@@@@@@            @@@      ++OXXXXX++.OX+o      ooo.Oo   ",
"    @@@@@@@@@@          @@@     +oOXXXXXXXXXOXo          ..Xo   ",
".... @@@@@@@@@@        @@@     +oOXX.oooooo.Xo.+       .OXXo    ",
"XXXX. @@@@@@@@@@      @@@      oOOX.+      .Oo..+    ..XXoo     ",
"oooXX. @@@@@@@@@@    @@@  ++++++++.        .Xo.X+  ..XXXo       ",
"   oXX..@@@@@@@@@@  @@@+O.XXXXXXXX.o       .XXOX+o+XXXoo        ",
"    o+XX.@@@@@@@@@.@@@OXXX.oooooo.Xo        +ooooXX+oo          ",
"      oXX.@@@@@@@X@@@XX.oo    oO.oOXo    ooooXXXooo#            ",
"      .oX+o@@@@@o@@@@.o       o... X ooooXXXooooXXXX+           ",
"o    .XX.Xo @@@ @@@@@@        oOXooooXXXooooXXXXooooX#          ",
"Xo   .Oo.Xo@@@ @@@@@@@@       .ooXXXooooXXXXooooXXXXoo+         ",
"XXo  .X+OX@@@ @@@@@@@@@@      o..oooXXXXooooXXXXooooXX#         ",
".XX...X+.@@@   @@@@@@@@@@   +O$.OXXXooooXXXXooooXXXXXoo+        ",
" .oX.XXX@@@     @@@@@@@@@@+OXX$oX.ooXXXXooooXXXXXooooXX++       ",
"   oooo@@@+......@@@@@@@@@@X.o.o.OXXooooXXXXXooooXXXXXooo+      ",
"     X@@@+XXXXXXXX@@@@@@@@@@  oooXooXXXXXooooXXXXXooooXo.#      ",
"     @@@  ooooooooo@@@@@@@@@@  .o.XXXooooXXXXXooooXXXX....#     ",
"    @@@             @@@@@@@@@@ oooOooXXXXXooooXXXX....OOOXo     ",
"   @@@               @@@@@@@@@@o.o.XXXooooXXXX....OOXXXXXoXo    ",
"  @@@                 @@@@@@@@@@ooX.ooXXXX....OOXXXXX$o$$o$o    ",
" @@@                            o.oOXX....OOOOXXXo$$oooo$$Xo    ",
"                                o$oO..OOOOXXXXooooooooo$$$.o    ",
"                                 oo.OOXXXX$$$oo####oooo$..o     ",
"                                 o.OXX$ooooo###XXXO$$$$.oo      ",
"                                 ooX$oooooo#XXOXO$$.$$oo        ",
"                                  oX$oooooooO$$$.o$o            ",
"                                  oX$$$$$$$.$$oo                ",
"                                   o.$$$$.oo                    ",
"                                   ooooo                        ",
"                                                                "};
