/* XPM */
static char * mail1_xpm[] = {
"64 38 9 1",
" 	s None	c None",
".	c gray70",
"X	c white",
"o	c #727277778585",
"O	c yellow",
"+	c tan",
"@	c gray50",
"#	c gray30",
"$	c black",
"              .XX.XXX..                                         ",
"             .XXXX.XXXX..                                       ",
"             .XXXX.XXXXXX..                                     ",
"            .XXXXXX.XXXXXXX..                                   ",
"            .XXXXXX.XXXXXXXXX..                                 ",
"           .XXXXXXXX.XXXXXXXXXX...                              ",
"           .XXXXXXXX.XXXXXXXXXXXXX..                            ",
"          .XXXXXXXXXX.XXXXXXXXXXXXXX..                          ",
"         .XXXXXXXXXXX.XXXXXXXXXXXXXXXX..ooooooooo               ",
"         .XXXXXXXXXXXX.XXXXXXXXXXXXXXXXX..OOOOOOOo              ",
"        .XXXXXXXXXXXXX.XXXXXXXXXXXXXXXXXXX..OOOOOo              ",
"        .XXXXXXXXXXXXXX.XXXXXXXXXXXXXXXXXXXX...OOo              ",
"       .XXXXXXXXXXXXXXX.XXXXXXXXXXXXXXXXXXXXXXX..o              ",
"       .XXXXXXXXXXXXXXXX.XXXXXXXXXXXXXXXXXXXXXXXX..             ",
"      .XXXXXXXXXXXXXXXXX.XXXXXXXXXXXXXXXXXXXXXXXXXX..           ",
"     .....................XXXXXXXXXXXXXXXXXXXXXXXXXXX..         ",
"  ooo ..XXXXXXXXXXXXXXXXX.XXXXXXXXXXXXXXXXXXXXXXXXXXXXX..       ",
" o+++ooo..XXXXXXXXXXXXXXXX.XXXXXXXXXXXXXXXXXXXXXXXXX..... @@@@  ",
" o++++++++..XXXXXXXXXXXXXX.XXXXXXXXXXXXXXX..........XXX. @@@@@  ",
" o++++++++++..XXXXXXXXXXXXX.XXXX..........XXXXXXXXXXXXX. @@@@@. ",
" o++++++++++++..XXXXXXXXXXX.....XXX.XXXXXXXXXXXXXXXXXX.@@@@.@@. ",
" o+++ooooooo++++..XXXXXXXXXXXXXXXXXX.XXXXXXXXXXXXXXXX.@@@@@...  ",
" o+++oo###ooo+++++..XXXXXXXXXXXXXXXX.XXXXXXXXXXXXXXXX.@.......  ",
" o++o###$##oo++++++o..XXXXXXXXXXXXXXX.XXXXXXXXXXXXXX.@@...@@@   ",
" ooo##$$$$$#oo+++++oOO..XXXXXXXXXXXXXX.XXXXXXXXXXXXX.@..@@@@    ",
" oo##$$$.$$$##o++++oOOOO..XXXXXXXXXXXX.XXXXXXXXXXXXX.@@@@.@@    ",
"     $$...$$#########ooooo.XXXXXXXXXXXX.XXXXXXXXXXX.@@@@@@@.    ",
"     $$$.$$$               ..XXXXXXXXXXX.XXXXXXXXX.@@...@..     ",
" @@@@@$$$$$     .@@@@@@@@@@@...@XXXXXXXX.XXXXXXXXX.@@@@@@@      ",
".....@.$$$.@@@@@@@@....@@@@@@@@..XXXXXXXX.XXXXXXX.@@@@@@@       ",
"    .@@@@@@@@@@@@@@@@@@....@@@@@@..XXXXXXX.XXXXXX.@@            ",
"                    @@@@@@@@@@@@@@@..XXXXX.XXXXX.@@             ",
"                                  @@@..XXXX.XXXX.@              ",
"                                       ..XXX.XX.                ",
"                                         ..X.XX.                ",
"                                           ....                 ",
"                                             .                  ",
"                                                                "};
