/* XPM */
static char * mini_xterm_xpm[] = {
"14 14 5 1",
" 	c None",
".	c lightgrey",
"X	c dimgrey",
"o	c darkgreen",
"O	c white",
"              ",
"  .........X  ",
"  .ooooooo.X  ",
"  .oOOOooo.X  ",
"  .ooooooo.XX ",
"  .ooooooo.XX ",
"  .oOoOooo.XX ",
"  .ooooooo.X  ",
"   .......X   ",
"   XXXXXXXXX  ",
"  XXXXXXXX.X  ",
" XOOOOOO.. XXX",
" .OOOOOO.X .. ",
"              "};
