/* XPM */
static char * image_name[] = {
"14 14 5 1",
" 	c green",
".	c None",
"X	c red",
"o	c cyan",
"O	c yellow",
"    ..........",
" .............",
"   ...........",
" X..X.........",
" X..X.........",
".X.X..........",
".XXo...o......",
".X.o...o......",
"...o.o.o......",
"...o.o.oO...O.",
"....o.o.OO.OO.",
"........O.O.O.",
"........O...O.",
"........O...O."};
