/* XPM */
static char * mini_maximize_xpm[] = {
/*zý¬zþÓ zýÀzþÓð*/
"14 14 4 1",
/**/
" 	c green",
".	s None	c None",
"X	c lavender",
"o	c yellow",
/*@Oh*/
"              ",
" . ... . .X.. ",
"          XXX ",
" .........X.. ",
" ...oo....X.. ",
" ..oooo...X.. ",
" ...oo....X.. ",
" .........X.. ",
" .........X.. ",
" XXXXXXXXXX.. ",
" ..........X. ",
" ...........X ",
" ...........X ",
"              "};
