/* XPM */
static char *minimize_xpm_full[] = {
/* width height num_colors chars_per_pixel */
"    15    14       4       1",
/* colors */
". c #000000",
"^ c #e0e0e0",
"* c #505050",
"  c #c3c3c3",
/* pixels */
"^^^^^^^^^^^^^^^",
"^             *",
"^             *",
"^             *",
"^             *",
"^             *",
"^             *",
"^             *",
"^             *",
"^   .......   *",
"^   .......   *",
"^             *"
"^             *"
"^**************"
};
