/* XPM */
static char * mini_xpaint_xpm[] = {
"14 14 6 2 0 0",
"__	c white",
"_`	c black",
"_a	c red",
"_b	c gray63",
"_c	c red4",
"_d	c gray47",
"_`_`_`_`_`__________________",
"___`_`_`_`__________________",
"_____`_`_`_`________________",
"_______`_b_`________________",
"_________`_b________________",
"___________`_b_________`_`__",
"_____________b_`_`_`_`_____`",
"___`_`_`_________`_`_a_a_a_a",
"_`_________`_a_a_a_a_a_a_a_a",
"___`___`_a_a_a_a_a_a_a_a_a_`",
"___`_`_b_b_a_a_a_a_a_`_c_d_c",
"___b_`_b_b_`_a_a_`_d_c___c__",
"___`_`_`_`_`_c_c_d_c___c___c",
"___b_b_`_b_`_c_d_c___c___c__"};
