/* XPM */
static char * res2_xpm[] = {
"14 14 2 1",
"       s None  c None",
".      c #6b2302",
"              ",
"              ",
"  ...    ...  ",
"  ..      ..  ",
"  . .    . .  ",
"     .  .     ",
"      ..      ",
"      ..      ",
"     .  .     ",
"  . .    . .  ",
"  ..      ..  ",
"  ...    ...  ",
"              ",
"              "};       
