/* XPM */
static char * mini_stickpressed_xpm[] = {
"14 14 3 1 0 3",
" 	s None	c None",
".	c black",
"X	c green",
"              ",
"              ",
"              ",
"    .....     ",
"   .XXXXX.    ",
"   .XXXXX.    ",
"   ..XXX..    ",
"    .XXX.     ",
"    .XXX.     ",
"    .XXX.     ",
"    .XXX.     ",
"   .XXXXX.    ",
"  .XXXXXXX.   ",
" ...........  "};
