/* XPM */
static char * image_name[] = {
"22 14 2 1",
" 	c None",
".	c red",
"                      ",
"                      ",
"                      ",
"                      ",
"..... .    . .. ......",
"..... ..  .. .. ......",
"..     ....  ..   ..  ",
"....    ..   ..   ..  ",
"....   ....  ..   ..  ",
"..    ..  .. ..   ..  ",
"..... .    . ..   ..  ",
"..... .    . ..   ..  ",
"                      ",
"                      "};
