/* XPM */
static char * image_name[] = {
"24 21 5 1",
" 	c None",
".	c red",
"X	c white",
"o	c navy",
"O	c gray",
"       .... .....       ",
"       ..X.....X..      ",
"      ...X.....XX.      ",
"      ..XX..XXX...      ",
"     .oXXXXXXXX...      ",
"    ..oXXXXXXXXX..      ",
"   .oooooooooooooo..    ",
"  ..ooo....oo...oo...   ",
"   ..o.....o.....oo..   ",
"    ....X.o...X.o...    ",
"    ....Xoo..X.oo..     ",
"     ..XXo..X..o..      ",
"    ..XXo.........      ",
"    ..X.o.....o..       ",
"   .....O..X..o..       ",
"   .......XX..o.        ",
"   .......XX..o         ",
"   ...........o         ",
"    .........           ",
"      ......            ",
"       .....            "};
