/* XPM */
static char * mini_winXX_normalize_xpm[] = {
"15 14 5 1",
" 	c None",
".	c #E0E0E0",
"+	c #C3C3C3",
"@	c #505050",
"#	c #000000",
"...............",
".+++++++++++++@",
".++++######+++@",
".++++######+++@",
".++++#++++#+++@",
".++######+#+++@",
".++######+#+++@",
".++#++++###+++@",
".++#++++#+++++@",
".++#++++#+++++@",
".++######+++++@",
".+++++++++++++@",
".+++++++++++++@",
".@@@@@@@@@@@@@@"};
