/* XPM */
static char * mini_iconify_xpm[] = {
/**/
"14 14 4 1",
/*Á
*/
" 	c green",
".	s None	c None",
"X	c lavender",
"o	c yellow",
/*@Oh*/
"           ...",
" . ... . . ...",
"           X..",
" ......... X..",
" ...oo.... X..",
" ..oooo... X..",
" ...oo.... .X.",
" ......... .X.",
" ......... .X.",
"           .X.",
"..XXX......X.X",
".....XXX...X.X",
"........XXX.  ",
"...........X  "};
