/* XPM */
static char * image_name[] = {
"14 14 3 1",
" 	c green",
".	c None",
"X	c yellow",
"           ...",
" . ... . . ...",
"           ...",
" ......... ...",
" ...XXX... ...",
" ..XXXXX.. XXX",
" ..XXXXX.. X.X",
" ...XXX... XXX",
" ......... ..X",
"           ..X",
"....X..    ..X",
"....X...  ...X",
"....X........X",
"....XXXXXXXXXX"};
