/* XPM */
static char *magick[] = {
/* columns rows colors chars-per-pixel */
"48 48 48 1",
"   c None",
".  c #aeaaac",
"X  c #fefafc",
"o  c #e2eeec",
"O  c #c6cecc",
"+  c #d6e2dc",
"@  c #eedaec",
"#  c #d6d2dc",
"$  c #a29cac",
"%  c #9e82a4",
"&  c #725a8c",
"*  c #52625c",
"=  c #bebebc",
"-  c #72728b",
";  c #1d1a29",
":  c #020204",
">  c #0a0a0c",
",  c #626a94",
"<  c #39324c",
"1  c #393750",
"2  c #453a58",
"3  c #423e5c",
"4  c #4c4c69",
"5  c #544d71",
"6  c #5a4d7a",
"7  c #5b5479",
"8  c #545271",
"9  c #5d5484",
"0  c #625687",
"q  c #625b8d",
"w  c #615a84",
"e  c #b6b2bc",
"r  c #565a74",
"t  c #626274",
"y  c #4a525c",
"u  c #62628c",
"i  c #625264",
"p  c #96aa9c",
"a  c #8e9a9c",
"s  c #86928c",
"d  c #928ba8",
"f  c #8e838a",
"g  c #9592b2",
"h  c #6d8a87",
"j  c #02fa24",
"k  c #6a6274",
"l  c #2f3041",
"z  c #7a7e9c",
/* pixels */
" .............................................  ",
".XoXXXXXXXXXXXXXXXXXXXXXXXXXXXXXXXXXXXXXXXXXoO. ",
".oXXXoXXXoXXXoXXXoXXXoXXXoXXX+@++######O#OOO#$% ",
".XoXoooXoooXoooXoooXoooXoooXoooo+++####+OOOOO&* ",
".XXoXXXoXXXoXXXoXXXoXXXoXXXo@+++#@#O+OOOOOO==-; ",
".XoooXoooXoooXoooXoooXoooXo+oo+++####OOOOOO==&; ",
".XXXXo::::::::::::::::::::::::::::::::>::.===,; ",
".XoXoo:<1<<1111211223232333123331211111<<X===&; ",
".XXoXX:4455678999909qwq9qqqqqwwq009788845X===w; ",
"eXoXoX:864688799909qqqqqqqqq0qww0w9r98885X==e&; ",
".XXoXo:8855588789999q9qwqqqqqwqwww0998886X=eet; ",
".XoXoo:5545656r999099wq9qqqqw0qw999979848Xe=.q; ",
".XXoXX:455558869699qwwqwqqwqqwww097976855X=eet; ",
".XoooX:8545598r99990wqwqrqq9wqww9997878y8X...u; ",
".XXXX+:6555578979000qqwqquqqqqwqw99978788Xe..t; ",
".XoXoo:76556598999909wwqqrqqwwqwww9779844Xee$6; ",
".XXoXX:7554558898900wwq9qqqqwwww007879784X...r; ",
".XoooX:9855689899990w9qwqqq0www0w9977765yX$e$i> ",
".XXXX+:955578w97990wqqqqquqqqqqw099787754X.$$8; ",
".XoXoo:r75688r896999quqqquqqwuww0w979765yX$.p7> ",
".XXoXX:w84589r999900wqwqquqqqqwqq99777768X$p$5; ",
".XoooX:9755655r899909qrq9qqq0www90967688yX$$pi> ",
".XXXX+:9845689898600wqqwqrqqqqqqwww896655X$$$4> ",
".XoXoo:96555869990909wqqqqqqqqqwqw977795yXp$a8> ",
".XXoXX:w88559898990wwqwqquqqqqww0qw777865X$a$y> ",
".XoooX:096455599699wquqqququqqwqww9rr7r8yXa$a5> ",
".XXXX+:09755659r9690qwqqquqqwwww900678888X$s%y> ",
".XXXoo:96645687890999qrq9rqqww9ww09777864Xa$s5> ",
".Xo+@+:866466689960000qqqqqqwwwww09789784X%ss4> ",
".Xooo+:5854556966990w9qqqqq9qqt0w9wr77654Xsds4> ",
".X@++#:8465666999999qwwwqqq9q9q9076787655X%ff4> ",
".X++++:fddffddddddgdgdggggggaggddddddfddfXsfh4: ",
".X#+##.XXXXXXXXXXXXXXXXXXXXXXXXXXXXXXXXXXXfff2> ",
".X#+###O#OOOOO====e=ee.e....$.$$p$a$a$y4yfhfh4: ",
".X##+O#+OOOO======eeee.....e$p$$g$aa%s4jj=fhf2> ",
".X###OOOOOOO====e=eeepe.$.$.p$p$a$a$sfs=e=hfh2> ",
".Xe-&-&-&&&w&t&tkt9tit78786875484y4y41424<4<2<: ",
".-::::::::::::::::::::::::::::::::::::::::::::: ",
"          .Xt2122l=e$aft52<l;;;;l;<ll           ",
"         .X.*t*t*41thzht8<ll>;llyt*-t;          ",
"        .X#hfffffff*i21l<l<l1y4ffffsst;         ",
"       .XXpgpgp$$$pg$.$.$.$.$.$.$.$...k;        ",
"      eXXXXXXXXXXXXXXXXXXXXXXXXXXXXXXXXt;       ",
"      .X................................:       ",
"      .X................................:       ",
"       i::::::::::::::::::::::::::::::::        ",
"                                                ",
"                                                "
};
