/* XPM */
static char * icl8_25724_xpm[] = {
/* width height ncolors chars_per_pixel */
"32 32 8 1",
/* colors */
" 	s None	c None",
".	c #99CCCC",
"X	c #CBFFFF",
"o	c #111111",
"O	c #444444",
"+	c #777777",
"@	c #659898",
"#	c #326565",
/* pixels */
"   ...................          ",
"   .XXXXXXXXXXXXXXXXX..         ",
"   .XXXXXXXXXXXXXXXXX...        ",
"   .XXoO+XOo+XXXXXXXX....       ",
"   .XXXXXXXXXXXXXXXXX.....      ",
"   .XXXo+oOo+X+XXXXXX......     ",
"   .XXXXXXXXXXXXXXXXX.......    ",
"   .XXXXXoXoO+oX+oXXXX@@@@@@    ",
"   .XXXXXXXXXXXXXXXXXX@@@@@@    ",
"   .XXoOXoO+X+oXXXXXXXXXXXX#    ",
"   .XXXXXXXXXXXXXXXXXXXXXXX#    ",
"   .XXXXO++o+oX+OXXXXXXXXXX#    ",
"   .XXXXXXXXXXXXXXXXXXXXXXX#    ",
"   .XXXXXOoXo+oOXXXXXXXXXXX#    ",
"   .XXXXXXXXXXXXXXXXXXXXXXX#    ",
"   .XXXXoO+oXOoXXXXXXXXXXXX#    ",
"   .XXXXXXXXXXXXXXXXXXXXXXX#    ",
"   .XXooXOXoOoo+XXXXXXXXXXX#    ",
"   .XXXXXXXXXXXXXXXXXXXXXXX#    ",
"   .XXXX+oOooXOoXXXXXXXXXXX#    ",
"   .XXXXXXXXXXXXXXXXXXXXXXX#    ",
"   .XXXXXXOoX+oOOoXXXXXXXXX#    ",
"   .XXXXXXXXXXXXXXXXXXXXXXX#    ",
"   .XXoo+XoOoXoXXXXXXXXXXXX#    ",
"   .XXXXXXXXXXXXXXXXXXXXXXX#    ",
"   .XXXX+o+Xo+OOoXXXXXXXXXX#    ",
"   .XXXXXXXXXXXXXXXXXXXXXXX#    ",
"   .XXXXXXOo+oOXOo+XXXXXXXX#    ",
"   .XXXXXXXXXXXXXXXXXXXXXXX#    ",
"   .XXXXXXXXXXXXXXXXXXXXXXX#    ",
"   .XXXXXXXXXXXXXXXXXXXXXXX#    ",
"   .########################    "};
