/* XPM */
static char * icl8_16143_xpm[] = {
/* width height ncolors chars_per_pixel */
"32 32 13 1",
/* colors */
" 	s None	c None",
".	c black",
"X	c #CBFFCB",
"o	c #00CBFE",
"O	c #0066FE",
"+	c #0098FE",
"@	c #659865",
"#	c #009865",
"$	c #0000AB",
"%	c #0000DC",
"&	c #000077",
"*	c #000044",
"=	c #980000",
/* pixels */
"                                ",
"                                ",
"     ...................        ",
"     .XXXXXoXXXXXXXXXXX..       ",
"     .XXXXO+O@XXXXXXXXX.#.      ",
"     .XXX$%O%$@XXXXXXXX.##.     ",
"     XXXXX$%$@@@XXXXXXX.###.    ",
"     XXoXXX$@@@+XXXXXXX.####.   ",
"     XO+O@XXX@%O%@XXXXX.......  ",
"     $%O%$@XX&$%$&@XXXXX@@@@@.  ",
"     X$%$@@@XX&$&@@@XXXX@@@@@.  ",
"   o XX$@@@+XXX&@@@OXXXXXXXXX.  ",
"  O+O@XXX@%O%@XXX@$%$@XXXXXXX.  ",
" $%O%$@XX&$%$&@XX*&$&*@XXXXXX.  ",
"  $%$@@@XX&$&@@@XX*&*@@@XXXXX.  ",
"   $ @@+XXX&@@@OXXX*@@@XXXXXX.  ",
"     @%O%@XXX@$%$@XXX@XXXXXXX.  ",
"     &$%$&@XX*&$&*@XXXXXXXXXX.  ",
"     X&$&@@@XX*&*@@@XXXXXXXXX.  ",
"     XX&@@@OXXX*@@@XXXXXXXXXX.  ",
"     XXXX@$%$@XXX@XXXXXXXXXXX.  ",
"     .XXX*&$&*@XXXXXXXXXXXXXX.  ",
"     .XXXX*&*@@@XXXXXXXXXXXXX.  ",
"     .XXXXX*@@@XX======XX===X.  ",
"     .XXXXXXX@XX=XX=XX=X=XX=X.  ",
"     .XXXXXXXXXX=X=XX=XX=XXXX.  ",
"     .XXXXXXXXXXXX===XXXX=XXX.  ",
"     .XXXXXXXXXXXX=XXXXXXX=XX.  ",
"     .XXXXXXXXXXX=XXXX=XXX=XX.  ",
"     .XXXXXXXXXX===XXXX===XXX.  ",
"     .XXXXXXXXXXXXXXXXXXXXXXX.  ",
"     .........................  "};
