/* XPM */
static char * icl8_11432_xpm[] = {
/* width height ncolors chars_per_pixel */
"32 32 5 1",
/* colors */
" 	s None	c None",
"o	c gray50",
"O	c black",
"$	c wheat",
"%	c gray85",
/* pixels */
"                                ",
"                                ",
"                                ",
"                                ",
"                                ",
"                                ",
"                                ",
"                                ",
"           oOoOo                ",
"          O     Oo              ",
"         o        O             ",
"         O        o             ",
"       OOOOO       O            ",
"       OOOOO       o            ",
"      OOOOOOO       O           ",
"    OOOOOOOOOOO     o  $       $",
"   OOOOOOOOOOOOO    O      $  $ ",
"  OOOOOOOOOOOOOOO    o  $       ",
"  OOOOOOOO%ooOOOO    O   $  $   ",
" OOOOOOOOOO%ooOOOO    o         ",
" OOOOOOOOOOOOOOOOO     OoO $ $ $",
" OOOOOOOOOOO%ooOOO              ",
" OOOOOOOOOOO%ooOOO      $   $   ",
" OOOOOOOOOOO%ooOOO        $  $  ",
" OOOOOOOOOO%ooOOOO     $        ",
" OOOOOOOOOO%ooOOOO    $   $    $",
"  OOOOOOOO%ooOOOO               ",
"  OOOOOOOOOOOOOOO         $     ",
"   OOOOOOOOOOOOO                ",
"    OOOOOOOOOOO                 ",
"      OOOOOOO                   ",
"                                "};
