/* XPM */
static char * xcalc_xpm[] = {
/*tan*/
"44 34 11 1",
" 	s None	c None",
"X	c white",
"o	c black",
"O	c gray50",
"+	c gray85",
"#	c green",
"%	c peachpuff4",
"&	c tan",
"*	c #908090",
"=	c blue",
"-	c gray",
"                    oooooooooooo            ",
"                 ooXXXXXXXXXXXXXo           ",
"                 oXXXXXXXXXoXX Xo           ",
"                OoXXXXXXXXo ooooo           ",
"               O+oXXXXXXXoO    oo           ",
"              O+-ooooXXXXo+OOOOOO           ",
"            OO--ooo#ooooooo++++++OOOOO      ",
"           O+-oooo#oo####oooooo+++++++OO    ",
"          O+-oooo#ooooo##oo###ooooo+++++OO  ",
"         O+-oooo#oooo##ooooooo#ooooooo+++%O ",
"         O+-ooo#oo###oooooo###oooooooo++%%O ",
"       OO+++++oooooo##oooooo#oooooooo+++%%O ",
"OOOOOOOOOO++++++++oooooo##oo#ooooooo+++%%%O ",
"&&&&&&&&&OOOOOO++++++++ooo##ooooooo+++%%%%O ",
"&&&&&&&&&&&&&&&OO++++++++ooooooooo+++%%%%%O ",
"&&&&&OOOOOOOOO&&&O+*+++++===+++++++++%%%%O  ",
"&&&&OO&OO-----OOO+*O++**+++====+++++%%%%%O  ",
"&&&OO&&&O***---O**O++*++*+++++==+++%%%%%O   ",
"&&&OOOOOO+*--***OO++*++*O+++++++++%%%%%O    ",
"&&OOO&&O**--*++*++++O**O+++++++++%%%%%O     ",
"&OOO&&&O---*++*O++**+OO+++++++++%%%%OO      ",
"&OO&&&&O--+O**O++*++*++++++++++%%%%O        ",
"&&&&&&&O+**+OO++*++*O+++++++++%%%%O         ",
"&&&&&&O+*++*++++O**O+++++++++%%%%O          ",
"&&&&OOO*++*O++**+OO++++++++++%%%O           ",
"&&&OO++O**O++*++*++***++++++%%%O            ",
"OOOO++++OO++*++*O+*+++*++++%%%O             ",
"---+++++++++O**O+*+++*O+++%%%O              ",
"OOO---+++++++OO+*+++*O+++%%%O               ",
"   OOO---+++++++O***O+++%%OO                ",
"      OOO---+++++OOO+++%%O                  ",
"         OOO----++++++%%O                   ",
"            OOOO---++%%O                    ",
"                OOOOOO                      "};
