/* XPM */
static char *noname[] = {
/* width height ncolors chars_per_pixel */
"60 60 6 1",
/* colors */
"` c #FFFFFFFF0000",
"a c #7F7F7F7FFFFF",
"b c #7F7FFFFF7F7F",
"c c #FFFF7F7F7F7F",
"d c #FFFF0000FFFF",
"e c #0000FFFFFFFF",
/* pixels */
"`````bbbbbeeeeeaaaaadddddccccccccccdddddaaaaaeeeeebbbbb`````",
"````bbbbbeeeeeaaaaadddddccccc``cccccdddddaaaaaeeeeebbbbb````",
"```bbbbbeeeeeaaaaadddddccccc````cccccdddddaaaaaeeeeebbbbb```",
"``bbbbbeeeeeaaaaadddddccccc``````cccccdddddaaaaaeeeeebbbbb``",
"`bbbbbeeeeeaaaaadddddccccc````````cccccdddddaaaaaeeeeebbbbb`",
"bbbbbeeeeeaaaaadddddccccc``````````cccccdddddaaaaaeeeeebbbbb",
"bbbbeeeeeaaaaadddddccccc`````bb`````cccccdddddaaaaaeeeeebbbb",
"bbbeeeeeaaaaadddddccccc`````bbbb`````cccccdddddaaaaaeeeeebbb",
"bbeeeeeaaaaadddddccccc`````bbbbbb`````cccccdddddaaaaaeeeeebb",
"beeeeeaaaaadddddccccc`````bbbbbbbb`````cccccdddddaaaaaeeeeeb",
"eeeeeaaaaadddddccccc`````bbbbbbbbbb`````cccccdddddaaaaaeeeee",
"eeeeaaaaadddddccccc`````bbbbbeebbbbb`````cccccdddddaaaaaeeee",
"eeeaaaaadddddccccc`````bbbbbeeeebbbbb`````cccccdddddaaaaaeee",
"eeaaaaadddddccccc`````bbbbbeeeeeebbbbb`````cccccdddddaaaaaee",
"eaaaaadddddccccc`````bbbbbeeeeeeeebbbbb`````cccccdddddaaaaae",
"aaaaadddddccccc`````bbbbbeeeeeeeeeebbbbb`````cccccdddddaaaaa",
"aaaadddddccccc`````bbbbbeeeeeaaeeeeebbbbb`````cccccdddddaaaa",
"aaadddddccccc`````bbbbbeeeeeaaaaeeeeebbbbb`````cccccdddddaaa",
"aadddddccccc`````bbbbbeeeeeaaaaaaeeeeebbbbb`````cccccdddddaa",
"adddddccccc`````bbbbbeeeeeaaaaaaaaeeeeebbbbb`````cccccddddda",
"dddddccccc`````bbbbbeeeeeaaaaaaaaaaeeeeebbbbb`````cccccddddd",
"ddddccccc`````bbbbbeeeeeaaaaaddaaaaaeeeeebbbbb`````cccccdddd",
"dddccccc`````bbbbbeeeeeaaaaaddddaaaaaeeeeebbbbb`````cccccddd",
"ddccccc`````bbbbbeeeeeaaaaaddddddaaaaaeeeeebbbbb`````cccccdd",
"dccccc`````bbbbbeeeeeaaaaaddddddddaaaaaeeeeebbbbb`````cccccd",
"ccccc`````bbbbbeeeeeaaaaaddddddddddaaaaaeeeeebbbbb`````ccccc",
"cccc`````bbbbbeeeeeaaaaadddddccdddddaaaaaeeeeebbbbb`````cccc",
"ccc`````bbbbbeeeeeaaaaadddddccccdddddaaaaaeeeeebbbbb`````ccc",
"cc`````bbbbbeeeeeaaaaadddddccccccdddddaaaaaeeeeebbbbb`````cc",
"c`````bbbbbeeeeeaaaaadddddccccccccdddddaaaaaeeeeebbbbb`````c",
"c`````bbbbbeeeeeaaaaadddddccccccccdddddaaaaaeeeeebbbbb`````c",
"cc`````bbbbbeeeeeaaaaadddddccccccdddddaaaaaeeeeebbbbb`````cc",
"ccc`````bbbbbeeeeeaaaaadddddccccdddddaaaaaeeeeebbbbb`````ccc",
"cccc`````bbbbbeeeeeaaaaadddddccdddddaaaaaeeeeebbbbb`````cccc",
"ccccc`````bbbbbeeeeeaaaaaddddddddddaaaaaeeeeebbbbb`````ccccc",
"dccccc`````bbbbbeeeeeaaaaaddddddddaaaaaeeeeebbbbb`````cccccd",
"ddccccc`````bbbbbeeeeeaaaaaddddddaaaaaeeeeebbbbb`````cccccdd",
"dddccccc`````bbbbbeeeeeaaaaaddddaaaaaeeeeebbbbb`````cccccddd",
"ddddccccc`````bbbbbeeeeeaaaaaddaaaaaeeeeebbbbb`````cccccdddd",
"dddddccccc`````bbbbbeeeeeaaaaaaaaaaeeeeebbbbb`````cccccddddd",
"adddddccccc`````bbbbbeeeeeaaaaaaaaeeeeebbbbb`````cccccddddda",
"aadddddccccc`````bbbbbeeeeeaaaaaaeeeeebbbbb`````cccccdddddaa",
"aaadddddccccc`````bbbbbeeeeeaaaaeeeeebbbbb`````cccccdddddaaa",
"aaaadddddccccc`````bbbbbeeeeeaaeeeeebbbbb`````cccccdddddaaaa",
"aaaaadddddccccc`````bbbbbeeeeeeeeeebbbbb`````cccccdddddaaaaa",
"eaaaaadddddccccc`````bbbbbeeeeeeeebbbbb`````cccccdddddaaaaae",
"eeaaaaadddddccccc`````bbbbbeeeeeebbbbb`````cccccdddddaaaaaee",
"eeeaaaaadddddccccc`````bbbbbeeeebbbbb`````cccccdddddaaaaaeee",
"eeeeaaaaadddddccccc`````bbbbbeebbbbb`````cccccdddddaaaaaeeee",
"eeeeeaaaaadddddccccc`````bbbbbbbbbb`````cccccdddddaaaaaeeeee",
"beeeeeaaaaadddddccccc`````bbbbbbbb`````cccccdddddaaaaaeeeeeb",
"bbeeeeeaaaaadddddccccc`````bbbbbb`````cccccdddddaaaaaeeeeebb",
"bbbeeeeeaaaaadddddccccc`````bbbb`````cccccdddddaaaaaeeeeebbb",
"bbbbeeeeeaaaaadddddccccc`````bb`````cccccdddddaaaaaeeeeebbbb",
"bbbbbeeeeeaaaaadddddccccc``````````cccccdddddaaaaaeeeeebbbbb",
"`bbbbbeeeeeaaaaadddddccccc````````cccccdddddaaaaaeeeeebbbbb`",
"``bbbbbeeeeeaaaaadddddccccc``````cccccdddddaaaaaeeeeebbbbb``",
"```bbbbbeeeeeaaaaadddddccccc````cccccdddddaaaaaeeeeebbbbb```",
"````bbbbbeeeeeaaaaadddddccccc``cccccdddddaaaaaeeeeebbbbb````",
"`````bbbbbeeeeeaaaaadddddccccccccccdddddaaaaaeeeeebbbbb`````"
};
