/* XPM */
static char* sider = {
"24 100 90 2",
"__ c #020204",
"_` c #8282b4",
"_a c #222284",
"_b c #26ea14",
"_c c #5e5ed4",
"_d c #121244",
"_e c #a2a2dc",
"_f c #36368c",
"_g c #6e6eb4",
"_h c #0a0a24",
"_i c #9a9ac4",
"_j c #4e4e9c",
"_k c #1a1a64",
"_l c #2a2aac",
"_m c #b2b2d4",
"_n c #3232cc",
"_o c #8a8ad4",
"_p c #cecee4",
"_q c #7272d4",
"_r c #babae4",
"_s c #06061c",
"_t c #6666a4",
"_u c #16165c",
"_v c #0e0e3c",
"_w c #1e1e7c",
"_x c #fefefc",
"_y c #26269c",
"_z c #9e9ed4",
"_{ c #5656b4",
"_| c #2e2ec4",
"_} c #3232dc",
"_~ c #e6e6f4",
"`_ c #060614",
"`` c #8686cc",
"`a c #4242bc",
"`b c #161654",
"`c c #3a3a9c",
"`d c #6e6ec4",
"`e c #0e0e34",
"`f c #1e1e74",
"`g c #020214",
"`h c #222294",
"`i c #121254",
"`j c #a2a2ec",
"`k c #0a0a34",
"`l c #9e9ecc",
"`m c #1a1a74",
"`n c #2e2ebc",
"`o c #8e8ee4",
"`p c #4a4adc",
"`q c #d2d2f4",
"`r c #7676dc",
"`s c #babaf4",
"`t c #3636dc",
"`u c #b6b6e4",
"`v c #6a6ab4",
"`w c #02020c",
"`x c #8686c4",
"`y c #3e3eac",
"`z c #22228c",
"`{ c #5e5edc",
"`| c #12124c",
"`} c #a2a2e4",
"`~ c #0a0a2c",
"a_ c #9a9acc",
"a` c #1a1a6c",
"aa c #2a2ab4",
"ab c #3232d4",
"ac c #8a8adc",
"ad c #4646cc",
"ae c #ceceec",
"af c #babaec",
"ag c #060624",
"ah c #161664",
"ai c #0e0e44",
"aj c #1e1e84",
"ak c #2626a4",
"al c #9e9edc",
"am c #5656bc",
"an c #2e2ecc",
"ao c #e6e6fc",
"ap c #8686d4",
"aq c #4242c4",
"ar c #3a3aa4",
"as c #7272cc",
"at c #b6b6dc",
"au c #6a6aac",
"av c #5252ac",
"aw c #7676e4",
"ax c #3636e4",
"________________________________________________", 
"________________________________________________", 
"________________________________________________", 
"________________________________________________", 
"________________________________________________", 
"`w`w`w`w`w__`w__`w__`w`w`w__`w`w`w`w`w__`w`w`w`w", 
"`w`w__`w`w`w`w`w`w`w`w`w`w`w`w`w`w`w`w`w`w`w`w`w", 
"`w`_`w`_`w`_`w`w`w`w`w`g`w`w`w`w`w`w`w`w`w`w`w`w", 
"`g`_`w`w`w`w`w`g`w`_`g`_`w`_`w`_`g`_`g`_`w`_`g`_", 
"`_`w`w`_`_`g`_`g`_`g`g`_`w`_`g`_`g`_`w`_`g`_`g`_", 
"`_`g`_`g`g`_`_`_`_`_`_`_`g`_`g`_`g`_`g`_`g`_`g`_", 
"`__s_s`_`__s`_`g`g_s`g_s`g`_`__s_s`_`_`_`_`_`_`_", 
"_s`_`__s_s`_`__s_s`_`__s`__s_s`_`__s_s_s_s_s_s_s", 
"_s_s_s_s_s_s_s_s_s_s_s_s_s_s_s_s_s_s_s_s_s_s_s_s", 
"_s_h_s_h_s_h_s_s_sag_sag_h_s_s_h_s_h_s_h_s_s_s_s", 
"ag_h_s_s_s_s_sagag_h_s_h_s_h_s_s_sag_sag_sagag_h", 
"_h_sag_h_hag_hag_h_sag_hag_hag_h_hag_hag_hag_h_s", 
"_hag_hagag_h_hag_hag_hagag_hag_hag_h_hag_hag_h_h", 
"_h`~`~_h_h`~ag`~`~_h`~_h_h`~ag_hag`~ag`~`~_h_h`~", 
"`~_h_h`~`~`~_h`~`~_h`~`~`~_h`~`~`~`~`~`~_h`~`~`~", 
"`~`~`~`~`~`~`~`~`~`~`~`~`~`~`~`~`~`~`~`~`~`~`~`~", 
"`~`e`~`e`~`e`~`~`~`~`~`~`~`e`~`~`~`~`~`~`~`e`~`e", 
"`k`e`~`k`~`k`~`k`k`e`k`e`k`e`~`k`k`e`k`e`k`e`~`~", 
"`e`~`k`e`e`k`e`k`e`k`k`e`k`e`k`e`e`k`k`e`k`e`k`e", 
"`e`k`e`k`k`e`e`k`e`k`e`k`k`e`k`e`k`e`e`k`k`e`k`e", 
"_v`e_v_v_v`e`k_v`e_v_v`e_v`e`k_v`k_v`k_v_v`e`k_v", 
"_v`e`k_v`k_v`k_v_v_v`k_v`k_v`k_v_v_v`e_v_v_v_v_v", 
"_v_v_vai_v_v_v_v_v_v_v_v_v_v_v_v_v_v_v_v_v_v_v_v", 
"_v_d_v_d_vai_v_dai_d_v_d_vaiai_dai_d_v_d_v_d_v_d", 
"ai_d_vai_vai_v_d_vai_vai_vai_v_d_v_vai_vai_v_vai", 
"_daiai_d_dai_daiai_d_dai_dai_daiai_d_dai_dai_dai", 
"_dai_daiai_d_dai_daiai_d_dai_dai_daiai_d`|ai_dai", 
"`|_d`|`|`|_dai`|`|_d`|_dai`|`|_d`|`|`|`|ai`|_d`|", 
"`|_dai`|ai`|ai`|`|`|ai`|ai`i`|`|ai`|ai`|ai`|`|`|", 
"`|`|`|`i`|`|`|`i`|`|`|`|`|`|`|`|`|`|`|`i`|`|`|`|", 
"`|`i`i`|`|`i`|`i`|`i`i`|`i`|`i`b`|`b`|`i`|`b`i`b", 
"`i`b`|`b_b_b_b`i`|`b`i`b`b`i`i`b`|`i`i`|`i`b`|`i", 
"`b`i`i_b_b_b_b_b`b`i`i`b`i`b`i`b`i`b`b`i`b`i`i`b", 
"`b`i`b_b_b_b_b_b_b`b`b`i`i_b_b`b`i_u`i`b_u`i`b`i", 
"_u`b_u_b_u_u`i_u_b_u`i_u_u_b_b_u`i_u`b`i`i_u_u`b", 
"_u_u`i_b`i_u`i_u_u_b_u_u_u_b_b_u_u_u_u_u_u_u_u_u", 
"_u_u_u_b_u_u_u_u_u_u_b_u_u_b_b_u_uah_u_u_u_u_u_u", 
"_uahah_u_b_bah_uah_uah_bah_b_bahah_u_uah_uahah_u", 
"ah_k_u_kah_bahahah_kah_b_b_b_bahahahah_uah_kahah", 
"ah_kahahahahah_k_kahah_k_b_b_b_k_kah_kah_kahah_k", 
"_kahah_k_kaha`ahaha`_kahaha`_ba`ah_ka`ah_kaha`ah", 
"a`a`a`a`aha`a`_ka`a`aha`a`_kaha`aha`aha`a`a`a`a`", 
"a`a`aha`aha`a`a`aha`aha`a`a`aha`a`a`a`a`a`a`aha`", 
"a`a`a`a`a``m`ma`a``ma``m`ma`a``m`ma`a`a`a`a`a`a`", 
"`ma``ma``ma`a``m`ma`a``ma``m`ma`a``ma``m`ma``ma`", 
"`m`f`m`f`m`f`m`ma``f`m`fa``ma``f`m`f`m`m`m`f`m`m", 
"`m`f`m`m`m`m`m`m`m`f`m_`_m_m_`_t`m`m`m`m`m`f`m`f", 
"`f`m`m_w`f`m`f`m_w`m_i_x_x_x_x_x_x_x_m`f`f`m`m_w", 
"_w_w_w_w`m_w_w_w_w_w_x_x_p_`_m_p_x_x_x_w_w`m_w_w", 
"_w_w`m_w`m_w_w_w`m_w_x_x_w`m`m_w`m_jau_w_w_w_w_w", 
"_w_w_w_w_wajaj_w_waj_~_x_faj_wajaj_w_w_w_w_waj_w", 
"aj_waj_waj_w_waj_waj_t_x_p_jaj_w_waj_wajajajaj_w", 
"aj_aaj_aaj_aajajaj_a_f_x_x_x_xata_au`cajaj_a_aaj", 
"aj_aajajajajajajaj_a_p_x_x_x_x_x_x_x_xajajajajaj", 
"_aajaj`z`zaj`zaj`zaj_x_x`vaj`vauat_p_x`z_aaj`zaj", 
"`zaj`zajaj`z`haj`zaj_x_xaj`z`zaj`z`zaj`z`zaj`z`z", 
"`z`z`z`h`z`zaj`z`z`za__xav`z`zaj`h`z`zaj`z`z`z`z", 
"`z`z`z`h`z`z`z`h`h`za__x_x`l`var`h`z`z`h`h`z`h`z", 
"`h`h`h`z`z`h`h`h`z`hat_x_x_x_x_x_xat`l`h`z`h`h`h", 
"`h_y`z_y`h_y`h`z`h`h`h`v_g_mae_x_x_x_x_y`h`h`z`h", 
"`h_y`h`z`h`h`z`h`h_y`x`c_y`h_y`h_{`vat`h`h`h_y`h", 
"_y`h`h_y_y`h_y`h_y`hat_x_zar`h_y`h_y_y`h_y`h_y`h", 
"_y`h_y`h`h_yak`h_y`h_z_x_x_x`x`h`h_y`h_y_y`h_y`h", 
"_y_yak_yak_y`h_y_y_yakavae_x_xao``_y_y`hak`hak_y", 
"_yak`hak`hak`hakak_y`hakak`y_z_x_xae_{akakakak_y", 
"ak_y_yak_yak_yakak_yavapatatatae_x_x_xak_yak_yak", 
"ak_lak_lakakak_lak_lat_x_x_x_xaeat_r``_l_lakakak", 
"ak_lakakakakak_lak_y`d_~_x_~ap_l_lakakakakakakak", 
"_lakak_l_lak_lakak_l_lak``ao_x_~``akak_l_lak_lak", 
"_lak_lakak_laaak_lakak_l_lakam_~_x_~_oakak_l_lak", 
"_l_laa_laa_lak_l_laaap_r_~_x_x_x_x_x_xaa_laaaaak", 
"_laaakaaakaaakaaaa_l`u_x_x_x_x`u_r`dasaa_l_lakaa", 
"aa_l_laaaaaa_laaaaaaalapas`aaaaaaaaa_laaaaaaaaaa", 
"aaaaaaaaaaaaaa`naa`n_ral`naaaaaaaa`n`naaaa`n_laa", 
"aa`naa`naa`naaaaaaaa`u_xaoasaaaaaa`naaaaaaaaaaaa", 
"`naaaa`naa`naa`n`naa_q_~_x_xaeaq`naaaa`n`naa`naa", 
"`naa`naaaa`naa_|aa_|`naaac_x_x_x_eaa`naaaa`n_|aa", 
"`n_|_|`n_|`naa_|aa`naa_|`naq`}_x_xao`raa_|`naa_|", 
"`n_|aa_|aa_|aaan`n_|_|_|`n_q`rae_x_x_x_|_|`n_|aa", 
"_|`n_|_|_|_|_|_|_|_|ac_x_x_x_x_x_x_xao_n`n_|_|an", 
"_|_|_|_|_|_|_|_|_|_|af_x_x_xaf`}`r_|_|_|_|_|_|_n", 
"_|_n_|_n_|_n_|adan_nac`r_c_|_n_|_|an_|_|_n_|_|_|", 
"an_n_|_n_|_n_|`s_xafan_n_|_nan_nan_n_nan_n_|an_n", 
"_n_|an_nan_nanaf_xafan_n_xao_canan_nan_n_nan_nan", 
"_n_nab_n_nananaf_x`s_n_n_x_x`r_n_n_n_nan_nan_n_n", 
"ab_nanabanab_n`s_x`s_nab_x_xaw_nanabanabab_nab_n", 
"ab_nababab_nabaf_x_x`qaf_x_xawababababababababab", 
"abab_}abababab`s_x_x_x_x_x_x_xao`s`oawababababab", 
"ab`tab`tab`t_}abab`{aw`s`q_x_x_x_x_x_x_}ab_}ab`t", 
"_}`tab_}ab_}ab_}_}`t`t_}`t_}`paw`j`s_x`t`tab`tab", 
"`t_}_}`t`t_}`t_}`t_}_}`t`t_}`t_}`t`t`t`t_}`t`t_}", 
"`t`t`tax_}`t`t`t`tax`t`t_}`t`t`t`tax_}ax_}ax`t_}", 
"ax`t_}ax_}axax`t_}ax_}ax_}axax`tax_}_}ax`tax`tax", 
"axaxaxaxaxaxaxaxaxaxaxaxaxaxaxaxaxaxaxaxaxaxaxax", 
"axaxaxaxaxaxaxaxaxaxaxaxaxaxaxaxaxaxaxaxaxaxaxax", 
} ;
