/* XPM */
static char *noname[] = {
/* width height ncolors chars_per_pixel */
"32 32 22 1",
/* colors */
"` c #220000",
"a c #986500",
"b c #FF9A9A",
"c c #440000",
"d c #EF0000",
"e c #550000",
"f c #555555",
"g c #CC9966",
"h c #111111",
"i c #000077",
"j c #888888",
"k c #000055",
"l c #663300",
"m c #FFCBCB",
"n c #000044",
"o c none",
"p c #444444",
"q c #000089",
"r c #000022",
"s c #222222",
"t c #CC6666",
"u c #653232",
/* pixels */
"ooobbbbbbbbbbbbbbbbbbtoooooooooo",
"ooobmmmmmmmmmmmmmmmmmtuooooooooo",
"ooobmmmmmmmmmmmpsmmmmtbuoooooooo",
"ooobmmmmmmmmmmmpsmmmmtbbuooooooo",
"ooobmmdmmmmmmmmpsbbmmtbbbuoooooo",
"ooobmddmmmmmmmmpsbbmmtbbbbuooooo",
"ooobmddmbmmmmmpppsbmmtuuuuuuoooo",
"ooobmdddbmmmmppmmpsmmmttttteoooo",
"ooobmddccmmmmpmmbbsbmmttttteoooo",
"ooobmdcoccmmmpmbbmsbbmmmmmmuoooo",
"ooobmdccccbmmppbmssmbmmmmmmuoooo",
"ooobmdccccjbmmppppmmbmmmmmmuoooo",
"ooobmmcccoojmmppppmbbmmmmmmuoooo",
"ooobmmmbhfoojhpmbppbmmmmmmmuoooo",
"ooobmmmmbhfohasmbppbmmmmmmmuoooo",
"ooobmmmmmmhhglabbppbbmmmmmmuoooo",
"ooobmmmmmmm`lglabpppbmmmmmmuoooo",
"ooobmmmmmmmm`lglamppbmmmmmmuoooo",
"ooobmmmmmmmms`lglaspbbmmmmmuoooo",
"ooobmmmmmmmpps`lglaspbmmmmmuoooo",
"ooobmmmmmmmppmb`lglasbmmmmmuoooo",
"ooobmmmmmmmppbbs`lglabbmmmmuoooo",
"ooobmmmmmmmmmbbbmbbbbbbmmmmuoooo",
"ooobmmmmmmmmmbbmmbbbbbbmmmmuoooo",
"ooobmmmmmmmmmmmmmmmmmmmmmmmuoooo",
"ooobmmmmmqqqmqmqqqmqqqmmmmmuoooo",
"ooobmmmmmmimmimimmmimmmmmmmuoooo",
"ooobmmmmmmkmmkmkkmmkkmmmmmmuoooo",
"ooobmmmmmmnmmnmnmmmnmmmmmmmuoooo",
"ooobmmmmmmrmmrmrmmmrmmmmmmmuoooo",
"ooobmmmmmmmmmmmmmmmmmmmmmmmuoooo",
"oootuuuuuuuuuuuuuuuuuuuuuuuuoooo"
};
