/* XPM */
static char * icl8_15467_xpm[] = {
/* width height ncolors chars_per_pixel */
"32 32 7 1",
/* colors */
" 	s None	c None",
".	c #989878786767",
"X	c tan",
"o	c wheat",
"O	c #000089",
"+	c white",
"@	c black",
/* pixels */
"       ......................   ",
"       ......................   ",
"     XXXXXXXXXXXXXXXXXXXXXX..   ",
"     XXXXXXXXXXXXXXXXXXXXXX..   ",
"   ooooooooooooooooooooooXX..   ",
"   ooooooooooooooooooooooXX..   ",
"   ooOOOOOOOOOOOoooooooooXX..   ",
"   ooOOOOOOOOOOOoooooooooXX..   ",
"   ooO+++OO+OO+OoooooooooXX..   ",
"   ooOOO+OO+OO+OoooooooooXX..   ",
"   ooOOO+OO+O+OOoooooooooXX..   ",
"   ooOOO+O++O+OOoooooooooXX..   ",
"   ooOOO++O++OOOoooooooooXX..   ",
"   ooOOO+OO+OOOOoooooooooXX..   ",
"   ooOOOOOOOOOOOoooooooooXX..   ",
"   ooooooooooooooooooooooXX..   ",
"   ooooooooooooooooooooooXX..   ",
"   ooooooooooooooooooooooXX..   ",
"   oo@@o@@@@@@o@@@o@@@oooXX..   ",
"   ooooooooooooooooooooooXX..   ",
"   oo@@@o@@@@o@@@o@@oooooXX..   ",
"   ooooooooooooooooooooooXX..   ",
"   oo@@@@@o@@@o@@@@@oooooXX..   ",
"   ooooooooooooooooooooooXX..   ",
"   oo@@@@o@@@@o@@@o@@@oooXX..   ",
"   ooooooooooooooooooooooXX..   ",
"   oo@@@@o@@@@@o@@@@oooooXX..   ",
"   ooooooooooooooooooooooXX..   ",
"   oo@@@@@o@@@o@@@@o@@oooXX     ",
"   ooooooooooooooooooooooXX     ",
"   oooooooooooooooooooooo       ",
"   oooooooooooooooooooooo       "};
