/* XPM */
static char * xcalc_xpm[] = {
/*tan*/
"64 38 14 1",
" 	s None	c None",
".	c dark slate grey",
"X	c white",
"o	c black",
"O	c #727277778585",
"+	c light yellow",
"@	c gray70",
"#	c green",
"$	c gray85",
"%	c peachpuff4",
"&	c tan",
"*	c #8B8B5B5B7A7A",
"=	c blue",
"-	c gray",
"                                         ..........             ",
"                                       ...XXXXXXXXXo            ",
"                                      ..XXXXXXXXXXooo           ",
"                                     ..XXXXXXXXXooXXo           ",
"                                     .XXXXXXXXXoXX Xo           ",
"                                    O.XXXXXXXXo .....           ",
"                                   O+.XXXXXXXoO    ..           ",
"                                  O+@....XXXXo+OOOOOO           ",
"                                OO@@...#.......++++++OOOOO      ",
"                               O+@....#..####......+++++++OO    ",
"                              O+@....#.....##..###.....+++++OO  ",
"                             O+@....#....##.......#.......++$%O ",
"                             O+@...#..###......###........+$%%O ",
"               OOOO        OO+++++......##......#........++$%%O ",
"              O&&&&OOOOOOOOOOO++++++++......##..#.......++$%%%O ",
"            OO&&&&&O&&&&&&&&&OOOOOO++++++++...##.......++$%%%%O ",
"           O&&&&&&&&&&&&&&&&&&&&&&&OO++++++++.........++$%%%%%O ",
"          O&&&&&&&&&&&&&&&&&&&&&&&&&&O**+++++++++....+++$%%%%%O ",
"        O&&&&&&&&&&&&&&&&OOOOOOOOO&&&O+*+++++===++++++++$%%%%O  ",
"       O&&&&&&&&&&&&&&&&OO&OO@@@@@OOO+*O++**+++====++++$%%%%%O  ",
"     OO&&&&&&&&&&&&&&&&OO&&&O***@@@O**O++*++*+++++==++$%%%%%O   ",
"    O&&&&&&&&&&&&&&&&&&OOOOOO+*@@***OO++*++*O++++++++$%%%%%O    ",
" OOOO&&&&&&&&&&&&&&&&&OOO&&O**@@*++*++++O**O++++++++$%%%%%O     ",
"OXXXXO&&&&&&&&&&&&&&&OOO&&&O@@@*++*O++**+OO++++++++$%%%%OO      ",
"oooXXXO&&&&&&&&&&&&&&OO&&&&O@@+O**O++*++*+++++++++$%%%%O        ",
"ooooXXX&&&&&&&&&&&&&&&&&&&&O+**+OO++*++*O++++++++$%%%%O         ",
"oooooXXO&&&&&&&&&&&&&&&&&&O+*++*++++O**O++++++++$%%%%O          ",
"ooooooXX&&&&&&&&&&&&&&&&OOO*++*O++**+OO+++++++++$%%%O           ",
"ooooooXXO&&&&&&&&&&&&&&OO++O**O++*++*++***+++++$%%%O            ",
"oooooooXXO&&&&&&&&&&OOOO++++OO++*++*O+*+++*+++$%%%O             ",
"oooooooXXO&&&&OOOOOO---$$$++++++O**O+*+++*O++$%%%O              ",
"ooooooooXXOOOOO     OOO---$$$++++OO+*+++*O++$%%%O               ",
"ooooooooXXO            OOO---$$$++++O***O++$%%OO                ",
"ooooooooXXO               OOO---$$$$+OOO++$%%O                  ",
"ooooooooXXO                  OOO----$$$++$%%O                   ",
"ooooooooXXO                     OOOO---$$%%O                    ",
"ooooooooXO                          OOO-%%O                     ",
"ooooooooO                              OOO                      "};
