/* XPM */
static char * xlock_xpm[] = {
"32 32 7 1",
" 	c #909080809090",
".	c #F5F5DEDEB3B3",
"X	c #BFBFBFBFBFBF",
"o	c #737373737373",
"O	c #000000000000",
"+	c #8C8C8C8C8C8C",
"@	c #D2D2B4B48C8C",
"                                ",
"                          ..... ",
"     XXXXXXXXXX            .... ",
"    XXXXXXXXXXXX          ..... ",
"   XXXXXXXXXXXXXXX           .. ",
"   XXXX        XXXX          .. ",
"  XXXX          XXX          .. ",
"  XXX           XXX          .. ",
"  XXX           XXX          .. ",
"  XXX           XXX          .. ",
"  XXX           XXX          .. ",
"  XXX           XXX          .. ",
"  XXX           XXX          .. ",
"  XXX           XXX          ...",
" XXXXXXXXXXXXXXXXXXXo      .....",
" XXXXXXXXXXXXXXXXXXOo     ......",
" XX+++++++++++++++OOO     ..  ..",
" XX+++++++++++++++OOO     ..  ..",
" XX+++++++++++++++OOO     ..  ..",
" XX++++++OOO++++++OOO     ..  ..",
" XX+++++O@@XX+++++OOO     ......",
" XX+++++OO@@X+++++OOO      .....",
" XX++++++O@@X+++++OOO           ",
" XX++++++O@@X+++++OOO           ",
" XX++++++O@@X+++++OOO           ",
" XX++++++O@@X+++++OOO           ",
" XX++++++O@@X+++++OOO           ",
" XX+++++OO@@X+++++OOO           ",
" XX+++++++++++++++OOO           ",
"  X+++++++++++++++OOO           ",
"  OOOOOOOOOOOOOOOOOO            ",
"                                "};
