/* XPM */
static char * xpaint_xpm[] = {
"31 24 18 1",
" 	c #965882079658",
".	c #D75CB6DA8E38",
"X	c #00000000FFFF",
"o	c #000000000000",
"O	c #8E38596579E7",
"+	c #B6DAB2CAB6DA",
"@	c #FFFF00000000",
"#	c #FFFFFFFF0000",
"$	c #0000FFFF0000",
"%	c #8E3875D66185",
"&	c #79E77DF779E7",
"*	c #BEFBBEFBBEFB",
"=	c #EFBE8207EFBE",
"-	c #0000FFFFFFFF",
";	c #FFFFFFFFFFFF",
":	c #DF7DDB6CDF7D",
"?	c #71C675D68617",
">	c #49244D344924",
"               .........       ",
"             .............     ",
"            ......XXXX.....    ",
"oO+     ....@@@@..XXXXX.....   ",
" oO+   .....@@@@....XX......   ",
"  oO+ .......................  ",
"    oO+###...........$$$$$$..  ",
"     oO+##...........$$$$$$..  ",
"     ..OO+...................  ",
"    %..oOO+.................   ",
"    %&..oOO+................   ",
"    ..&&**oOO+.....=====...%   ",
"    %..&&**oOO+...======..%    ",
"    %...&&..oOO+..======..%    ",
"     .....&&&-o;;:......%      ",
"    ........&&-:;;:.....%      ",
" ....ooooo....&&-:;;:.%        ",
" ...oooooo.....&&o:;;:*???     ",
"%....ooooo.......&o:;;>+:+     ",
"%................%% o?>>>>:?   ",
"%%............%%%%    >>+?:?   ",
"  %%....%%%%%%%%      >>>>??   ",
"                       >>??>   ",
"                       >>>>    "};
