/* XPM */
static char* xpm = {
"58 72 159 2",
"__ c None",
"_` c #fef2e1",
"_a c #fdd8a6",
"_b c #fde5c3",
"_c c #fef6eb",
"_d c #feedd7",
"_e c #fccb88",
"_f c #fcd47f",
"_g c #fddc93",
"_h c #fde5a7",
"_i c #fcd49c",
"_j c #fddcaf",
"_k c #feedbb",
"_l c #fef6b2",
"_m c #ffffc6",
"_n c #ffffe2",
"_o c #fccb4f",
"_p c #fcd447",
"_q c #fcd463",
"_r c #fccb6c",
"_s c #fbc358",
"_t c #fbba44",
"_u c #fbc374",
"_v c #fddc77",
"_w c #fde58b",
"_x c #feed9e",
"_y c #ffffaa",
"_z c #fef6ce",
"_{ c #fbba60",
"_| c #fcd42a",
"_} c #fde519",
"_~ c #fddc22",
"`_ c #fbc33b",
"`` c #fde552",
"`a c #fef65d",
"`b c #fde56e",
"`c c #fccb33",
"`d c #feed11",
"`e c #fef608",
"`f c #ffff00",
"`g c #fef679",
"`h c #fddc3e",
"`i c #e0b37e",
"`j c #dfaa6a",
"`k c #dfa256",
"`l c #002591",
"`m c #002597",
"`n c #0024a5",
"`o c #e0c4a5",
"`p c #0024a4",
"`q c #0023a7",
"`r c #00259f",
"`s c #0022ac",
"`t c #00259d",
"`u c #0024a6",
"`v c #feed2d",
"`w c #001fb3",
"`x c #001fb5",
"`y c #0023a8",
"`z c #004cd5",
"`{ c #3575e1",
"`| c #001dc0",
"`} c #fde536",
"`~ c #e1cd29",
"a_ c #e2e648",
"a` c #001fc4",
"aa c #a1bff2",
"ab c #b2caf4",
"ac c #0a58d9",
"ad c #003ad0",
"ae c #7ba5ec",
"af c #0023c7",
"ag c #ffff55",
"ah c #ffff1c",
"ai c #fef641",
"aj c #feed82",
"ak c #fbb24d",
"al c #e2e664",
"am c #0021b0",
"an c #001cbe",
"ao c #ffff71",
"ap c #4580e3",
"aq c #0028c9",
"ar c #f3f7fd",
"as c #001dba",
"at c #0026c8",
"au c #256ade",
"av c #5c90e7",
"aw c #0023a9",
"ax c #0045d3",
"ay c #002fcc",
"az c #0022ad",
"a{ c #000000",
"a| c #0041d2",
"a} c #fef696",
"a~ c #fddc5a",
"b_ c #001cbf",
"b` c #002596",
"ba c #002484",
"bb c #0020b3",
"bc c #002489",
"bd c #00258b",
"be c #002aca",
"bf c #ffff38",
"bg c #002485",
"bh c #032174",
"bi c #002382",
"bj c #00237e",
"bk c #00259e",
"bl c #002590",
"bm c #00259a",
"bn c #00258c",
"bo c #0035ce",
"bp c #001db9",
"bq c #002592",
"br c #001dc1",
"bs c #e2e60d",
"bt c #e2e629",
"bu c #e2e67e",
"bv c #002595",
"bw c #c6cd1a",
"bx c #c6cd52",
"by c #004ad5",
"bz c #002598",
"b{ c #00259b",
"b| c #c6c522",
"b} c #c6c577",
"b~ c #00237f",
"c_ c #022177",
"c` c #e1cc26",
"ca c #e2d573",
"cb c #1c1c7a",
"cc c #01227b",
"cd c #051e69",
"ce c #002487",
"cf c #00258f",
"cg c #feed66",
"ch c #93ddff",
"ci c #0a2bad",
"cj c #0024a2",
"ck c #0020b2",
"cl c #5151fb",
"cm c #0024a3",
"cn c #001cbd",
"co c #001eb8",
"cp c #001dbb",
"cq c #0020b1",
"cr c #001ec3",
"cs c #0020c5",
"ct c #0029ca",
"cu c #001cc0",
"cv c #0027c9",
"cw c #001dc2",
"cx c #051f6b",
"cy c #001eb7",
"cz c #071b5c",
"c{ c #07164b",
"c| c #002594",
"c} c #0021ae",
"_______________________________________`_b_a_b_`_b_a_a_`____________________________________________________________", 
"_______________________c_d_d_c_n_m_l_k_j_i_e_i_h_g_f_e_b_d_d_d_c____________________________________________________", 
"_______________c_z_l_y_x_g_i_j_h_w_v_f_u_s_t_s_r_q_p_o_f_i_i_i_b_c__________________________________________________", 
"_______________d_h`b`a``_o_{_u_r_o`_`_`__|_|_|_|_~_}_|_o_{_{_{_e_b_c________________________________________________", 
"_______________b_f_|`d`d_~`c`c`c`c`c_|_~`d`d`d_}`d`e`d_~`c`c`__s_e_h_z_n____________________________________________", 
"_______________b_e`c_}`e`d_}_}_}_}_}`d`e`f`f`f`f`f`f`e`d_}_}_~`c_s_r_g_x_l_m_n______________________________________", 
"___________c_d_i_u`c_}`f`f`f`f`e`e`e`f`f`f`e`e`e`f`f`f`f`f`f`e_~`__t_s_q`b`g_y_n____________________________________", 
"___________d_j_u_s_|_}`e`e`f`f`d_}_~_}_}_}_~_~_~`d`e`f`f`f`f`f`d_~`c`_`_`c`h`b_h_d_c________________________________", 
"___________b_e_t`c_}_}_}_~`d`d_~`c`_`c`c`c`_`_`__|_}`d`e`e`f`f`e`d_}_~_|_|_|_p_r_i_j_d_c____________________________", 
"___________b_e`__~`e_}_|`__|_|`c_t`k`j`i_e_e_e_u_s`c_|_~_}`e`f`f`f`f`d_}_~_~_|`__s_u_i_b_c__________________________", 
"___________b_e`__~`e`d_~`_`__t_t_{`i`o`n`l`m`m`l_e_s_t`__|`d`e`e`e`f`d_}_}`d`d_~_|`__s_e_b_c________________________", 
"___________b_e_t`c_}`d`d_~_|`c_o_f`n`u`t`m`s`r`q`p_i_r_o_~_}_}_~_}`e_}_|`c_}`e`e`d_~`c_s_e_b_c______________________", 
"_____________j_e_q`}`e`f`e`d`}`b`y`|`{`z`y`s`u`x`w`n`f`b`v_}_|`c_~`e_}`c_t`c_}`e`f`e_}`c_s_e_b_c____________________", 
"_________________hajaiah`fahag`yafabaead`s`wacabaaa``n`fa_`~`c`__~`e`d_~`c_|_}`d`e`e`e_~`__{_i_d____________________", 
"__________________`f`faoagao`uanababaean`wacababababam`nal`~`c`c_}`f`e`d_}_}`d_}_}_}`e_}`cak_e_b____________________", 
"____________________________am`{abaeapamafababababab`|`fal`~`c`c_}`f`f`f`f`f`f_}_|`c_}_~`cak_e_b____________________", 
"__________________________`tafababaeaqasaaababababaraq`fag_}`c`c_}`f`f`f`f`f`f`d_|`_`c_|`c_t_e_b____________________", 
"__________________________awavauababanatababababababad`pag_}`c`__~`e`f`f`f`f`e`d_~`c`_`_`__t_r_h_n__________________", 
"________________________asana|a{afabazayauabababababax`qag`d_|`_`c_}`e`f`f`f`d_}_~_~_|`c`_`__q_x_n__________________", 
"______________________abb`b_a{a{a{ad`mana{a{abarababay`pag`e_}`c`_`c_~_}_}_}_|`c_|_}_}`c_t`_a~a}_n__________________", 
"______________________bebdbca{a{a{bbbaana{a{abababara``raoah`e_~`__t`_`c`c`c`__t`__|_~`c_t_o_w_m____________________", 
"____________________abbk`mbjbha{a{bibhbga{a{aaabababan`r`fbf`f`d_~`c`c`c`__t_t_t`_`_`__t_t_q_x_n____________________", 
"__________________aabbbm`rbdbhbhbiblbjbja{a{abararaaaz`p`faoah`e`d_}_}_}_|`_`_`c_|`c`__t_t_f_k______________________", 
"__________________brbq`r`r`ma{bl`l`mbjbhbgbparababbobk`p`mbnbf`f`f`f`f`f_}`c`_`c_|`c`__t_s_g_z______________________", 
"__________________`tbvbvbma{a{bv`l`mbdbjbcacababapbb`r`r`l`lbubtbs`f`f`f`d_|`_`_`c`c`_`__r_h_c______________________", 
"________________aabdb{bvbma{bvblbz`lblbj`paqbyaqawblbk`mbc`lbdbxbw`f`f`f`e_}_|`c`c`c_o_q_h_z________________________", 
"________________aabdbzbvbma{bqbz`mblc_c_`m`t`t`lbcbn`mbcb~bdb~b}b|`e`f`e`e`d`d_}_}_~a~_w_z_n________________________", 
"__________________`p`mbmbm`la{a{babha{bh`m`r`p`rb{b{b{bvbnb~bicac`_}`e`d_}_~_}_}_}_~a~_h_c__________________________", 
"__________________atbdbnbdbd`la{a{a{a{cc`m`r`rb{bvbvb{blbnb~bi`b_|_|`d_}_|`_`c`c`c`__r_j_ccbcb______________________", 
"__________________arbrblbdc_ba`m`m`m`m`mbmbvbvbzbvbqbnb~b~ccbh_w_o`c_}_}`cakak_t`_`c_q_hcbcbcbcb____________________", 
"______________akakakaraybkblbicebc`mbmbmbmbmcf`l`lcececebic_c_cd_f_o_|_~_|`c`c_|_~`}ajcbcbcbcbcb____________________", 
"____________ak`f`f`f`fararata{a{b~`m`m`m`l`m`lbabja{a{bjbhc_bhbhak_g_q_p_pa~`bcg`aaocbcbcbcbcbcb____________________", 
"__________akakakak`f`f`faaaraaa{a{a{a{a{a{a{a{a{a{a{c_c_bjbjbic_akakak_g_wa}_y_y_ycbcbcbcbcbcbcb____________________", 
"__________akakak__ar`f`f`f`favarayb`bjbibibjccbacecec_c_bjbic_bj`maccicicich____cbchcbcbcbcbcbcb____________________", 
"__________________cjbdakak`f`f`faravasceb~bab~bhc_bjc_bhc_bjbjbjadcicicicichchchcbcbcbcbcicbcbcb____________________", 
"________________ckbjb~blakakak`f`f`farazbdc_bhcdc_bicecebiccbjbdavcicicicbcbcbcbcbcbcbcbcbcicbcb____________________", 
"________________aabdccbnb~bh`fakak`f`f`f`f`lbc`f`f`f`fcfcfbdbi`ladcicbcbcbcbcbcbcbcbcbcbciclcbch____________________", 
"________________br`mbnbabhcd`fafak`fak`f`f`f`f`f`f`f`f`fbz`mbjbjchcbcbcbcbcbcbcicbcicbciciciclcb____________________", 
"________________b`bzbvcfb~`fbjbj`fbj`fakak`f`f`fakak`f`fbq`mbibj`lcbcicbcbcicicicicicicicicbclcb____________________", 
"______________aacebvbvcfba`fbjak`fbh`fa{a{`f`f`fakbdak`fbc`lcebjbaaxcicicicicicicicicicicicbcicbcb__________________", 
"________________bkbdbccc`fakbh`fc_`fa{bz`ra{bla{ccccakakce`lbibibibrcicicicicicbcicicicicicbclcbcb__________________", 
"________________`f`fbjbh`fakc_`fcd`fccbzbzbvbvbqa{c_c_bjc_ceccccc_`xcicicicicicbcicicicicicicbclcbcb________________", 
"________________`f`f`f`m`fbhc_`fbh`fb~blblbvblbz`mbdbibjc_ccccccc_cjcbclcicicicbclcicicicicicbclclcbcb______________", 
"________________`f`fak`fakaz`fbj`fakblblblblblbqbccebibdbjbjccccccbdcbclcicicicbclclciciclcicbcbcbcbcbcb____________", 
"________________`f`fak`fakaa`fc_`fbqblbqbvbvcfbcbhc_bjbjbjc_ccccbibdcbclclcicicbcbclclclclcicbcbcbcbcbcbcb__________", 
"______________`f`fak`fak__`fak`fakb~bccfbk`lb~bhbhc_c_cdbjccccccccbacbciclclcicbcicbcicbcicbcicicbcicicicbcbch______", 
"______________`f`fak`fak__`f__`fakbjccbibiccc_bhbhcdbhc_ccccc_bhc_`pcbcbcbcbcbcbcicicbcbcbcicicicbcbclcicbcbcbcbchch", 
"____________`f`fakak`fak__`f__`fbja{bjbjbjc_bhcdbhcdc_c_biccbhc_cdafcbclcicbcbcbcicicicicbciciclcicbciclcicbcicbcbch", 
"____________`f`fak`f__ak`fak`fakbqa{a{a{a{c_bhbhbhcdcdcdbhcccdcdbhaxcbclcicbchclclcicicicbcbcbclciclclclcicbcicbcbch", 
"____________`f`fak`fak__`fak`fakblbqbc`fa{a{a{a{cdcdcdcdcdcdc_cdbjaycbclclclcbcbclcbcicicbcbcbclclclcbcbcbcbcbcbcb__", 
"____________`f`fak`fak__`f__`fakblbvbv`f`fakbhcdcdcdcdcdcdcdbhc_bjas__cbcbcbchcbclcbcicbcbchcbcbclclcbcbcbcbchcbcb__", 
"____________`f`f`fakak`fak`fakbbbqbv`f`f`fakccbjbjbhbjbhcdcdcdbhbj`m__cbcbcbcbcbcbclcbcbclchcbcbcbcbcb__cbcbcbcbcb__", 
"____________`f`f`fakak`fak`fakaybdbz`f`f`fakbccec_bhc_c_cdcdcdcdcdbj____cbcbcb____cbclclcb__cbcbcbcb________________", 
"____________`f`f`fak`f__`f__ak__bb`l`f`fakcfbcb~bic_c_cdbhcdcdcdcdbh________________clcl________cbcb________________", 
"____________`f`f`fak`fak`f__ak__aa`f`f`fak`lceccc_c_c_ccbhc_c_cdcdc_________________________________________________", 
"______________`f`f`f`fak`fak`f`f`f`f`fakakbhbjc_bhbjbhc_bhbhcdbhbhc_________________________________________________", 
"______________`fak`f`f`f`fak`f`f`f`fakakbjc_cdbhbhbjcdbhbhc_bhbjbjbh________________________________________________", 
"________________akak`f`f`f`f`fakakakb``tbdc_a{c_cebibjbjbhbjccbjba__________________________________________________", 
"__________________akakakakakak__axbabkawa{a{c_bkcm`pcebhccbhbhbja{__________________________________________________", 
"______________aaaaaaauaxayafcn`yb``pbba{a{babjbdblbiblbiccbh`pbza{a{________________________________________________", 
"______aaadbrcpcocpcobzbdb`awaw`wawbba{a{bdbc`lbdbkbkbkbjbhbd`sbzbja{ar______________________________________________", 
"__acafb_afctaycscrbpcqa{a{b`bkcj`pbda{bz`mb`bdbdc_bhc_bic_bjb`bdbia{aaabaaava`bk____________________________________", 
"aucpcwctctaycvcrcucp`xa{coafayboadafcna{a{ceblcececebiccccccc_cccca{a{brbeadacacadas`lbh____________________________", 
"bebrafcsafcrcwanancya{a{aya|bobocvcscrbpbza{bdceb~biceccccccb~ccbia{a{cx`mcjcqcqcq`xcq`xco`s`m`l____________________", 
"`{b_cvctaycvcsancpbpa{ctcvcvcvcscucpcy`s`ua{ccccccccb~b~b~ccbhba`lb`bjc{czbh`mbc`l`m`pcq`xasbradauay________________", 
"__`{ctcscwancpcycqcqa{cwcwanancp`xcq`s`nbkbdbabibibdbibd`l`lb`b{b{b{bhc{c{cz`mbc`m`m`y`x`xasa`axau`{________________", 
"________abaa`{auay`scwcsafafcrcycq`s`n`rb{c|b{b{b{b{`r`n`n`r`rc|bhc{c{c{czczbabc`mcj`scocnafac`{`{ac________________", 
"__________________aub_cpcwcwancy`xc}c}`n`n`r`r`r`r`r`rb{c|bjczczc{czc{c{cxcxbabcbc`y`scna`axauaa`{__________________", 
"______________________avayb_bbcm`scmbkc|c|bgbgbgbjbhbhczcxczc{czcxcxcxcxbcbcbc`mcj`scna`axavaaax____________________", 
"______________________________avaubeb_cocjbacxcxczcxcxbhbacxbjbabababcbc`m`y`s`xcoafacavaaauco______________________", 
"________________________________________aa`{axaybeafbrcnbranb_b_b_brafbeaxauauavavaaabadco__________________________", 
"______________________________________________________aa__aaaaabaaab____________ab__________________________________", 
} ;
