/* XPM */
static char * image_name [] = {
/**/
"64 38 8 1",
/**/
" 	s mask	c none",
".	c gray70",
"X	c gray85",
"o	c gray50",
"O	c #bb0000",
"+	c darkolivegreen",
"@	c white",
"#	c black",
"                                                                ",
"                                                                ",
"                          ...........................           ",
"                         .XXXXXXXXXXXXXXXXXXXXXXXXXXX.          ",
"                        .XXXXXXXXXXXXXXXXXXXXXXXXXXXXXoo        ",
"   OO    OOOOOO   OOOOOOOOO+++++++++++++++++++++++XXXXoo        ",
"  OO OO  OO OOOO OOOO OOOOOO+++++++++++++++++++++++XXXooo       ",
" OOO   OOO   OOOOOOO  OO.XOO+@@+@++@+@@@@++@+++++++XXXooo       ",
" OOO   OOO    OOOOO   OO.XOO+++++++++++++++++++++++XXXoooo      ",
" OOO   OO      OOO    OOOOOO+@@@@+@@+@@@+++++++++++XXXoooo      ",
" OOO   OO     OOOOO   OOOOO++++++++++++++++++++++++XXXooooo     ",
" OOO  OOO    OOOOOOO  OO.XX++@@@@@@@@@@+@@@@@++++++XXXooooo     ",
"  OO OO OO  OOOO OOOO OO.XX++++++++++++++++++++++++XXXooooo     ",
"   OOO   O OOOO   OOOOOO.XX++@@@+@@@@+@@++@@@++++++XXXooooo     ",
"         OOOOOO         .XX++++++++++++++++++++++++XXXooooo     ",
"          OOO           .XX++@+++++++++++++++++++++XXXooooo     ",
"                        .XX++++++++++++++++++++++++XXXooooo     ",
"                        .XX++@@@@+@+@@@+@++++++++++XXXooooo     ",
"                        .XX++++++++++++++++++++++++XXXooooo     ",
"                        .XX++@+@@@@++++++++++++++++XXXooooo     ",
"                        .XXX++++++++++++++++++++++XXXXoooo      ",
"                        .XXXXXXXXXXXXXXXXXXXXXXXXXXXXXooo       ",
"                         .XXXXXXXXXXXXXXXXXXXXXXXXXXXooo        ",
"                            ooooooooooooooooooooooooo...oo      ",
"                             ..........................ooo      ",
"                            oooooooooooooooooooooooooooooo      ",
"                          oXXXXXXXXXXXXXXXXXXXXXXXXXXXoooo.. .. ",
"                          oXXXXXXXXXXXXXXXXXX#######XXoooo  .  .",
"                        oooooooooooooooooooooooooooXXXooo     . ",
"                       oXXXXXXXXXXXXXXXXXXXXXXXXXXooooo      .  ",
"                      oXXXXXXXXXXXXXXXXXXXXXXXXXXoo      oooooo ",
"                      oXX@@@@@@@@@@@@@@@@@@@XXXXXoo   ooooo...o ",
"                     oXXXXXXXXXXXXXXXXXXXXXXXXXXoo   ooXXXoo..o ",
"                    oXX@@@@@@@@@@@@@@@@@@@@XXXXoo    oXXXXX..o  ",
"                   oXXXXXXXXXXXXXXXXXXXXXXXXXXoo     o.....oo   ",
"                   oooooooooooooooooooooooooooo      ooooooo    ",
"                                                                ",
"                                                                "};
