/* XPM */
static char * xterm-sgi_xpm[] = {
"64 38 8 1",
" 	s None	c None",
".	c gray70",
"X	c #71717171C6C6",
"o	c gray85",
"O	c gray50",
"+	c darkolivegreen",
"@	c white",
"#	c black",
"                                                                ",
"                                                                ",
"                          ...........................           ",
"                  XX XX  .ooooooooooooooooooooooooooo.          ",
"                 XXX XXX.oooooooooooooooooooooooooooooOO        ",
"                XX X X XXoo+++++++++++++++++++++++ooooOO        ",
"               XX  X X  XXo++++++++++++++++++++++++oooOOO       ",
"               XX  X X  XXo++@@+@++@+@@@@++@+++++++oooOOO       ",
"             XX XX X X XXoXX+++++++++++++++++++++++oooOOOO      ",
"            XXXX XXX XXX.XXXX@@@@+@@+@@@+++++++++++oooOOOO      ",
"            XX XX XXXXX XXoXX++++++++++++++++++++++oooOOOOO     ",
"            XX  XXXXXXXXXooXX@@@@@@@@@@+@@@@@++++++oooOOOOO     ",
"            XX  XXXXXXXXXooXX++++++++++++++++++++++oooOOOOO     ",
"            XX XX XXXXX XXoXX@@@+@@@@+@@++@@@++++++oooOOOOO     ",
"            XXXX XXX XXX.XXXX++++++++++++++++++++++oooOOOOO     ",
"             XX XX X X XXoXX+@+++++++++++++++++++++oooOOOOO     ",
"               XX  X X  XXo++++++++++++++++++++++++oooOOOOO     ",
"               XX  X X  XXo++@@@@+@+@@@+@++++++++++oooOOOOO     ",
"                XX X X XXoo++++++++++++++++++++++++oooOOOOO     ",
"                 XXX XXX.oo++@+@@@@++++++++++++++++oooOOOOO     ",
"                  XX XX .ooo++++++++++++++++++++++ooooOOOO      ",
"                        .oooooooooooooooooooooooooooooOOO       ",
"                         .oooooooooooooooooooooooooooOOO        ",
"                            OOOOOOOOOOOOOOOOOOOOOOOOO...OO      ",
"                             ..........................OOO      ",
"                            OOOOOOOOOOOOOOOOOOOOOOOOOOOOOO      ",
"                          OoooooooooooooooooooooooooooOOOO.. .. ",
"                          Ooooooooooooooooooo#######ooOOOO  .  .",
"                        OOOOOOOOOOOOOOOOOOOOOOOOOOOoooOOO     . ",
"                       OooooooooooooooooooooooooooOOOOO      .  ",
"                      OooooooooooooooooooooooooooOO      OOOOOO ",
"                      Ooo@@@@@@@@@@@@@@@@@@@oooooOO   OOOOO...O ",
"                     OooooooooooooooooooooooooooOO   OOoooOO..O ",
"                    Ooo@@@@@@@@@@@@@@@@@@@@ooooOO    Oooooo..O  ",
"                   OooooooooooooooooooooooooooOO     O.....OO   ",
"                   OOOOOOOOOOOOOOOOOOOOOOOOOOOO      OOOOOOO    ",
"                                                                ",
"                                                                "};
