/* XPM */
static char * xterm-sol_xpm[] = {
"64 38 8 1",
" 	s None	c None",
".	c gray70",
"X	c white",
"o	c red",
"O	c black",
"+	c gray85",
"@	c gray50",
"#	c darkolivegreen",
"                                                                ",
"                      .                                         ",
"          XXXXoOO.OOO..   ...........................           ",
"        oXXXXXoOO.OOO.O  .+++++++++++++++++++++++++++.          ",
"       XXoXXXXXOO.OOO.OOO+++++++++++++++++++++++++++++@@        ",
"      XXXXXXXXXO...O...O.O+#######################++++@@        ",
"     XXXXXXXXXX.......O..O+#.######################+++@@@       ",
"    XXXXXXXXXXX.........O.O.#XX#X##X#XXXX##X#######+++@@@       ",
"   XoXXXXXXXXXXooooooooo...O#######################+++@@@@      ",
"   XXoXXXXXXX..XXooooooo..OO#XXXX#XX#XXX###########+++@@@@      ",
"  XXXXXXXX.....XXXXXoooo...OO######################+++@@@@@     ",
"  XXXXXXX......XXXXXXooo.....XXXXXXXXXX#XXXXX######+++@@@@@     ",
"  XXXXXX.......XXXXXXXoo...OO######################+++@@@@@     ",
"  XXXXXX.......XXXXXXXoo..OOO..X#XXXX#XX##XXX######+++@@@@@     ",
"  ooXXXX.......XXXXXXXoo.....######################+++@@@@@     ",
" XXXXXXX.......XXXXXXXoo.....X#####################+++@@@@@     ",
"  XXXXXX.......XXXXXXXoo...OO######################+++@@@@@     ",
"  XXXXXX.......XXXXXXXoo..OOOXXXX#X#XXX#X##########+++@@@@@     ",
"  XXXXXX.......XXXXXXXoo....O######################+++@@@@@     ",
"  XXXXXXX......XXXXXXooo.....X#XXXX################+++@@@@@     ",
"  XXOXXXXX.....XXXXXoooo....O#####################++++@@@@      ",
"   OXXXXXXXXX..XXooooooo.O.O++++++++++++++++++++++++++@@@       ",
"   XXXXXXXXXXXXooooooooo..OO+++++++++++++++++++++++++@@@        ",
"    XXXXXXXXXXX...........O @@@@@@@@@@@@@@@@@@@@@@@@@...@@      ",
"     XXXOXXXXXX........................................@@@      ",
"      XOXXXXXXX....O...O.O  @@@@@@@@@@@@@@@@@@@@@@@@@@@@@@      ",
"       XXXXXXXX...OOO..OO @+++++++++++++++++++++++++++@@@@.. .. ",
"        XXXOXXXO.OOOO..   @++++++++++++++++++OOOOOOO++@@@@  .  .",
"          XOXXXO.OOO  . @@@@@@@@@@@@@@@@@@@@@@@@@@@+++@@@     . ",
"                       .++++++++++++++++++++++++++@@@@@      .  ",
"                      @++++++++++++++++++++++++++@@      @@@@@@ ",
"                      @++XXXXXXXXXXXXXXXXXXX+++++@@   @@@@@...@ ",
"                     @++++++++++++++++++++++++++@@   @@+++@@..@ ",
"                    @++XXXXXXXXXXXXXXXXXXXX++++@@    @+++++..@  ",
"                   @++++++++++++++++++++++++++@@     @.....@@   ",
"                   @@@@@@@@@@@@@@@@@@@@@@@@@@@@      @@@@@@@    ",
"                                                                ",
"                                                                "};
