/* XPM */
static char *xv2[] = {
/* width height num_colors chars_per_pixel */
"    53    36        5            1",
/* colors */
". s None c None",
"# c #ff8000",
"a c #300000",
"b c #ff0000",
"c c #d5001c",
/* pixels */
".....................................................",
".....................................................",
".....................................####............",
"..............###............###a..######......###...",
"............#####..........####aa.#######.....#####..",
"...........######........#####aaa########....#####...",
"...........######a.....######aaa#########...######...",
"...........######a....######aaaaa#######...#######...",
"...........######a...######aaa.aaa######...######....",
"...........######a..######aaa.aaa######...######.....",
"...........######a.######aaa..aaa######...######.....",
"...........#############aaa.....#######..#######....#",
"...........############aaa.....#######..a#######..###",
"............##########aaa......######...aaa#########.",
"............#########aaa......#######...aaa########..",
"............########aaa.......######.....aa########..",
"............########aa.......#######.....aa######a...",
"............#######aa.......#######......a###aaaa....",
"...........#######aa...aaa..######.......a###aa......",
"..........#######aa#bbbbcac#######......a###.........",
".........########aabbcbaaa########......####.........",
"........#########abbaaaaa########......a###..........",
".......##########a..aaaa#########.....a###...........",
"......###########a.....#########......####...........",
".....############a...###########.....a###............",
"....#######a#####...#####a######....a####............",
"....######aa#####..#####aa######...a####.............",
"...######aaa###########aa.#######a#####......aa......",
"..######aaa.##########aa..############...abbbaa......",
"..#####aa...#########aa...###########a.ab.bbbbbb..a..",
".#####aaa...########aa....a##########.acbbbbbbbbbca..",
"..###aaa....#######aa.....a#########...acbaabbcbcca..",
"..###aa......#####aa.......a#######.....acaacacacaa..",
"...aaa.........aaa..........a####...........aa....a..",
".............................................a.......",
"....................................................."
};
