#define fedview_14_width 16
#define fedview_14_height 16
static char fedview_14_bits[] = {
   0x00, 0x00, 0x78, 0x00, 0xfc, 0x00, 0xfe, 0x01, 0xfe, 0x01, 0xfe, 0x05,
   0xfe, 0x08, 0xfc, 0x11, 0x80, 0x3f, 0x00, 0x47, 0x20, 0x8f, 0xc0, 0x04,
   0x80, 0x00, 0x00, 0x01, 0x00, 0x02, 0x00, 0x04};
