/* XPM */
static char * my_kill_xpm[] = {
"16 16 2 1",
" 	c None",
".	c #000000000000",
" ..         ..  ",
"...         ... ",
".... ..... .... ",
"   ...   ...    ",
"  .         .   ",
"  . ... ... .   ",
"  . ... ... .   ",
"  ..   .   ..   ",
"   ..     ..    ",
"    .     .     ",
"  .... . ....   ",
"...  .. ..  ... ",
"..   .   .   .. ",
" .    ...    .  ",
"                ",
"                "};
