/* XPM */
static char * window_resize_xpm[] = {
"16 16 6 1",
" 	c None",
".	c #000000000000",
"X	c #000000002222",
"o	c #000000008080",
"O	c #000000006E6E",
"+	c #FFFFFFFFFFFF",
"                ",
"....XXX.... . . ",
".oooOoOooo.     ",
".oooOOOooo.   . ",
".+++++++++.     ",
".+++++++++.   . ",
".+++++++++.     ",
".+++++++.+.   . ",
".++++++++..     ",
"........... . . ",
"           ..   ",
".         ... . ",
"                ",
". . . . . . . . ",
"                ",
"                "};
