/* XPM */
static char *my_sidepic[] = {
/* width height num_colors chars_per_pixel */
"    23   100       90            2",
/* colors */
".. c #020204",
".# c #8282b4",
".a c #222284",
".b c #26ea14",
".c c #5e5ed4",
".d c #121244",
".e c #a2a2dc",
".f c #36368c",
".g c #6e6eb4",
".h c #0a0a24",
".i c #9a9ac4",
".j c #4e4e9c",
".k c #1a1a64",
".l c #2a2aac",
".m c #b2b2d4",
".n c #3232cc",
".o c #8a8ad4",
".p c #cecee4",
".q c #7272d4",
".r c #babae4",
".s c #06061c",
".t c #6666a4",
".u c #16165c",
".v c #0e0e3c",
".w c #1e1e7c",
".x c #fefefc",
".y c #26269c",
".z c #9e9ed4",
".A c #5656b4",
".B c #2e2ec4",
".C c #3232dc",
".D c #e6e6f4",
".E c #060614",
".F c #8686cc",
".G c #4242bc",
".H c #161654",
".I c #3a3a9c",
".J c #6e6ec4",
".K c #0e0e34",
".L c #1e1e74",
".M c #020214",
".N c #222294",
".O c #121254",
".P c #a2a2ec",
".Q c #0a0a34",
".R c #9e9ecc",
".S c #1a1a74",
".T c #2e2ebc",
".U c #8e8ee4",
".V c #4a4adc",
".W c #d2d2f4",
".X c #7676dc",
".Y c #babaf4",
".Z c #3636dc",
".0 c #b6b6e4",
".1 c #6a6ab4",
".2 c #02020c",
".3 c #8686c4",
".4 c #3e3eac",
".5 c #22228c",
".6 c #5e5edc",
".7 c #12124c",
".8 c #a2a2e4",
".9 c #0a0a2c",
"#. c #9a9acc",
"## c #1a1a6c",
"#a c #2a2ab4",
"#b c #3232d4",
"#c c #8a8adc",
"#d c #4646cc",
"#e c #ceceec",
"#f c #babaec",
"#g c #060624",
"#h c #161664",
"#i c #0e0e44",
"#j c #1e1e84",
"#k c #2626a4",
"#l c #9e9edc",
"#m c #5656bc",
"#n c #2e2ecc",
"#o c #e6e6fc",
"#p c #8686d4",
"#q c #4242c4",
"#r c #3a3aa4",
"#s c #7272cc",
"#t c #b6b6dc",
"#u c #6a6aac",
"#v c #5252ac",
"#w c #7676e4",
"#x c #3636e4",
/* pixels */
"..............................................",
"..............................................",
"..............................................",
"..............................................",
"..............................................",
".2.2.2.2.2...2...2...2.2.2...2.2.2.2.2...2.2.2",
".2.2...2.2.2.2.2.2.2.2.2.2.2.2.2.2.2.2.2.2.2.2",
".2.E.2.E.2.E.2.2.2.2.2.M.2.2.2.2.2.2.2.2.2.2.2",
".M.E.2.2.2.2.2.M.2.E.M.E.2.E.2.E.M.E.M.E.2.E.M",
".E.2.2.E.E.M.E.M.E.M.M.E.2.E.M.E.M.E.2.E.M.E.M",
".E.M.E.M.M.E.E.E.E.E.E.E.M.E.M.E.M.E.M.E.M.E.M",
".E.s.s.E.E.s.E.M.M.s.M.s.M.E.E.s.s.E.E.E.E.E.E",
".s.E.E.s.s.E.E.s.s.E.E.s.E.s.s.E.E.s.s.s.s.s.s",
".s.s.s.s.s.s.s.s.s.s.s.s.s.s.s.s.s.s.s.s.s.s.s",
".s.h.s.h.s.h.s.s.s#g.s#g.h.s.s.h.s.h.s.h.s.s.s",
"#g.h.s.s.s.s.s#g#g.h.s.h.s.h.s.s.s#g.s#g.s#g#g",
".h.s#g.h.h#g.h#g.h.s#g.h#g.h#g.h.h#g.h#g.h#g.h",
".h#g.h#g#g.h.h#g.h#g.h#g#g.h#g.h#g.h.h#g.h#g.h",
".h.9.9.h.h.9#g.9.9.h.9.h.h.9#g.h#g.9#g.9.9.h.h",
".9.h.h.9.9.9.h.9.9.h.9.9.9.h.9.9.9.9.9.9.h.9.9",
".9.9.9.9.9.9.9.9.9.9.9.9.9.9.9.9.9.9.9.9.9.9.9",
".9.K.9.K.9.K.9.9.9.9.9.9.9.K.9.9.9.9.9.9.9.K.9",
".Q.K.9.Q.9.Q.9.Q.Q.K.Q.K.Q.K.9.Q.Q.K.Q.K.Q.K.9",
".K.9.Q.K.K.Q.K.Q.K.Q.Q.K.Q.K.Q.K.K.Q.Q.K.Q.K.Q",
".K.Q.K.Q.Q.K.K.Q.K.Q.K.Q.Q.K.Q.K.Q.K.K.Q.Q.K.Q",
".v.K.v.v.v.K.Q.v.K.v.v.K.v.K.Q.v.Q.v.Q.v.v.K.Q",
".v.K.Q.v.Q.v.Q.v.v.v.Q.v.Q.v.Q.v.v.v.K.v.v.v.v",
".v.v.v#i.v.v.v.v.v.v.v.v.v.v.v.v.v.v.v.v.v.v.v",
".v.d.v.d.v#i.v.d#i.d.v.d.v#i#i.d#i.d.v.d.v.d.v",
"#i.d.v#i.v#i.v.d.v#i.v#i.v#i.v.d.v.v#i.v#i.v.v",
".d#i#i.d.d#i.d#i#i.d.d#i.d#i.d#i#i.d.d#i.d#i.d",
".d#i.d#i#i.d.d#i.d#i#i.d.d#i.d#i.d#i#i.d.7#i.d",
".7.d.7.7.7.d#i.7.7.d.7.d#i.7.7.d.7.7.7.7#i.7.d",
".7.d#i.7#i.7#i.7.7.7#i.7#i.O.7.7#i.7#i.7#i.7.7",
".7.7.7.O.7.7.7.O.7.7.7.7.7.7.7.7.7.7.7.O.7.7.7",
".7.O.O.7.7.O.7.O.7.O.O.7.O.7.O.H.7.H.7.O.7.H.O",
".O.H.7.H.b.b.b.O.7.H.O.H.H.O.O.H.7.O.O.7.O.H.7",
".H.O.O.b.b.b.b.b.H.O.O.H.O.H.O.H.O.H.H.O.H.O.O",
".H.O.H.b.b.b.b.b.b.H.H.O.O.b.b.H.O.u.O.H.u.O.H",
".u.H.u.b.u.u.O.u.b.u.O.u.u.b.b.u.O.u.H.O.O.u.u",
".u.u.O.b.O.u.O.u.u.b.u.u.u.b.b.u.u.u.u.u.u.u.u",
".u.u.u.b.u.u.u.u.u.u.b.u.u.b.b.u.u#h.u.u.u.u.u",
".u#h#h.u.b.b#h.u#h.u#h.b#h.b.b#h#h.u.u#h.u#h#h",
"#h.k.u.k#h.b#h#h#h.k#h.b.b.b.b#h#h#h#h.u#h.k#h",
"#h.k#h#h#h#h#h.k.k#h#h.k.b.b.b.k.k#h.k#h.k#h#h",
".k#h#h.k.k#h###h#h##.k#h#h##.b###h.k###h.k#h##",
"#########h####.k#####h####.k#h###h###h########",
"#####h###h#######h###h#######h###############h",
"##########.S.S####.S##.S.S####.S.S############",
".S##.S##.S####.S.S####.S##.S.S####.S##.S.S##.S",
".S.L.S.L.S.L.S.S##.L.S.L##.S##.L.S.L.S.S.S.L.S",
".S.L.S.S.S.S.S.S.S.L.S.#.m.m.#.t.S.S.S.S.S.L.S",
".L.S.S.w.L.S.L.S.w.S.i.x.x.x.x.x.x.x.m.L.L.S.S",
".w.w.w.w.S.w.w.w.w.w.x.x.p.#.m.p.x.x.x.w.w.S.w",
".w.w.S.w.S.w.w.w.S.w.x.x.w.S.S.w.S.j#u.w.w.w.w",
".w.w.w.w.w#j#j.w.w#j.D.x.f#j.w#j#j.w.w.w.w.w#j",
"#j.w#j.w#j.w.w#j.w#j.t.x.p.j#j.w.w#j.w#j#j#j#j",
"#j.a#j.a#j.a#j#j#j.a.f.x.x.x.x#t#.#u.I#j#j.a.a",
"#j.a#j#j#j#j#j#j#j.a.p.x.x.x.x.x.x.x.x#j#j#j#j",
".a#j#j.5.5#j.5#j.5#j.x.x.1#j.1#u#t.p.x.5.a#j.5",
".5#j.5#j#j.5.N#j.5#j.x.x#j.5.5#j.5.5#j.5.5#j.5",
".5.5.5.N.5.5#j.5.5.5#..x#v.5.5#j.N.5.5#j.5.5.5",
".5.5.5.N.5.5.5.N.N.5#..x.x.R.1#r.N.5.5.N.N.5.N",
".N.N.N.5.5.N.N.N.5.N#t.x.x.x.x.x.x#t.R.N.5.N.N",
".N.y.5.y.N.y.N.5.N.N.N.1.g.m#e.x.x.x.x.y.N.N.5",
".N.y.N.5.N.N.5.N.N.y.3.I.y.N.y.N.A.1#t.N.N.N.y",
".y.N.N.y.y.N.y.N.y.N#t.x.z#r.N.y.N.y.y.N.y.N.y",
".y.N.y.N.N.y#k.N.y.N.z.x.x.x.3.N.N.y.N.y.y.N.y",
".y.y#k.y#k.y.N.y.y.y#k#v#e.x.x#o.F.y.y.N#k.N#k",
".y#k.N#k.N#k.N#k#k.y.N#k#k.4.z.x.x#e.A#k#k#k#k",
"#k.y.y#k.y#k.y#k#k.y#v#p#t#t#t#e.x.x.x#k.y#k.y",
"#k.l#k.l#k#k#k.l#k.l#t.x.x.x.x#e#t.r.F.l.l#k#k",
"#k.l#k#k#k#k#k.l#k.y.J.D.x.D#p.l.l#k#k#k#k#k#k",
".l#k#k.l.l#k.l#k#k.l.l#k.F#o.x.D.F#k#k.l.l#k.l",
".l#k.l#k#k.l#a#k.l#k#k.l.l#k#m.D.x.D.o#k#k.l.l",
".l.l#a.l#a.l#k.l.l#a#p.r.D.x.x.x.x.x.x#a.l#a#a",
".l#a#k#a#k#a#k#a#a.l.0.x.x.x.x.0.r.J#s#a.l.l#k",
"#a.l.l#a#a#a.l#a#a#a#l#p#s.G#a#a#a#a.l#a#a#a#a",
"#a#a#a#a#a#a#a.T#a.T.r#l.T#a#a#a#a.T.T#a#a.T.l",
"#a.T#a.T#a.T#a#a#a#a.0.x#o#s#a#a#a.T#a#a#a#a#a",
".T#a#a.T#a.T#a.T.T#a.q.D.x.x#e#q.T#a#a.T.T#a.T",
".T#a.T#a#a.T#a.B#a.B.T#a#c.x.x.x.e#a.T#a#a.T.B",
".T.B.B.T.B.T#a.B#a.T#a.B.T#q.8.x.x#o.X#a.B.T#a",
".T.B#a.B#a.B#a#n.T.B.B.B.T.q.X#e.x.x.x.B.B.T.B",
".B.T.B.B.B.B.B.B.B.B#c.x.x.x.x.x.x.x#o.n.T.B.B",
".B.B.B.B.B.B.B.B.B.B#f.x.x.x#f.8.X.B.B.B.B.B.B",
".B.n.B.n.B.n.B#d#n.n#c.X.c.B.n.B.B#n.B.B.n.B.B",
"#n.n.B.n.B.n.B.Y.x#f#n.n.B.n#n.n#n.n.n#n.n.B#n",
".n.B#n.n#n.n#n#f.x#f#n.n.x#o.c#n#n.n#n.n.n#n.n",
".n.n#b.n.n#n#n#f.x.Y.n.n.x.x.X.n.n.n.n#n.n#n.n",
"#b.n#n#b#n#b.n.Y.x.Y.n#b.x.x#w.n#n#b#n#b#b.n#b",
"#b.n#b#b#b.n#b#f.x.x.W#f.x.x#w#b#b#b#b#b#b#b#b",
"#b#b.C#b#b#b#b.Y.x.x.x.x.x.x.x#o.Y.U#w#b#b#b#b",
"#b.Z#b.Z#b.Z.C#b#b.6#w.Y.W.x.x.x.x.x.x.C#b.C#b",
".C.Z#b.C#b.C#b.C.C.Z.Z.C.Z.C.V#w.P.Y.x.Z.Z#b.Z",
".Z.C.C.Z.Z.C.Z.C.Z.C.C.Z.Z.C.Z.C.Z.Z.Z.Z.C.Z.Z",
".Z.Z.Z#x.C.Z.Z.Z.Z#x.Z.Z.C.Z.Z.Z.Z#x.C#x.C#x.Z",
"#x.Z.C#x.C#x#x.Z.C#x.C#x.C#x#x.Z#x.C.C#x.Z#x.Z",
"#x#x#x#x#x#x#x#x#x#x#x#x#x#x#x#x#x#x#x#x#x#x#x",
"#x#x#x#x#x#x#x#x#x#x#x#x#x#x#x#x#x#x#x#x#x#x#x"
};
