/* XPM */
static char * menu_xpm[] = {
"56 46 5 1",
" 	c None",
".	c #FFFFFFFFFFFF",
"X	c #DEDEDBDBDEDE",
"o	c #8C8C8E8E8C8C",
"O	c #000000000000",
"                                                        ",
"                                                        ",
"     .................................................  ",
"     .XXXXXXXXXXXXXoXXXXXXXXXXXXXXXXXXXXXXXXXXXXXXXXXX  ",
"     .XXXXooooXXXoXXXoXXXXXXXXXXXXXXXXXXXXXXXXXXXXXXXX  ",
"     .XXXXXoXXXXooXoXooXXXXXXXXXXXXXXXXXXXXXXXXXXXXXXX  ",
"     .XXXXXooXXoXoXoXoXXXXXXXXXXXXXXXXXXXXXXXXXXXXXXXX  ",
"     .XXXXXoXXXoXoXoXoXXXXXXXXXXXXXXXXXXXXXXXXXXXXXXXX  ",
"     .XXXXooooXXooXoXXoXXXXXXXXXXXXXXXXXXXXXXXXXXXXXXX  ",
"     .XXXXXXXXXXXXXXXXXXXXXXXXXXXXXXXXXXXXXXXXXXXXXXXX  ",
"     ooooooooooooooooooooooooooooooooooooooooooooooooo  ",
"        ............................                    ",
"        .XXXXXXXXXXXXXXXXXXXXXXXXXXo                    ",
"        .XXXoooXXXXXXoXXXXXXXXXXXXXo                    ",
"        .XXoXXXoXoXoXooXXXXXXXXXXXXo                    ",
"        .XXoXXXXXoXoXoXXXXXXXXXXXXXo                    ",
"        .XXoXXXoXoXoXoXXXXXXXXXXXXXo                    ",
"        .XXXoooXXXooXXoXXXXXXXXXXXXo                    ",
"        .XXXXXXXXXXXXXXXXXXXXXXXXXXo                    ",
"        ...........................o                    ",
"        ..XXoooXXXXXXXXXXXXXXXXXXXoo                    ",
"        ..XoXXXoXXoXXooXXoXoXXXXXXoo                    ",
"        ..XoXXXXXoXoXoXoXoXoXXXXXXoo                    ",
"        ..XoXXXoXoXoXoXoXoXoXXXOOOOOOO                  ",
"        ..XXoooXXXoXXooXXXoXXXXXOOOOO                   ",
"        ..XXXXXXXXXXXoXXXXoXXXXXXOOOOO                  ",
"        ..XXXXXXXXXXXoXXXoXXXXXXXXOO OOO                ",
"        ..oooooooooooooooooooooooooO   OO               ",
"        .XXXXXXXXXXXXXXXXXXXXXXXXXXo                    ",
"        .XXooooXXXXXXXoXXXXXXXXXXXXo                    ",
"        .XXXoXXooXXooXooXXoXXXXXXXXo                    ",
"        .XXXoooXXoXoXXoXXoooXXXXXXXo                    ",
"        .XXXoXXXooXXoXoXXoXXXXXXXXXo                    ",
"        .XXooXXXooXooXXoXXoXXXXXXXXo                    ",
"        .XXXXXXXXXXXXXXXXXXXXXXXXXXo                    ",
"        .XXXXXXXXXXXXXXXXXXXXXXXXXXo                    ",
"        .XXXXXXXXXXXXXXXXXXXXXXXXXXo                    ",
"        .XXXoooXXoXXXXXXXXXXXXXXXXXo                    ",
"        .XXoXXXoXoXXXoXXoXXoXoXXXXXo                    ",
"        .XXoXXXXXoXXoooXXoXooXXXXXXo                    ",
"        .XXoXXXoXoXXoXXXooXoXXXXXXXo                    ",
"        .XXXoooXXoXXXoXXooXoXXXXXXXo                    ",
"        .XXXXXXXXXXXXXXXXXXXXXXXXXXo                    ",
"        .ooooooooooooooooooooooooooo                    ",
"                                                        ",
"                                                        "};
