/* XPM */
static char * pointer_xpm[] = {
"56 46 13 1",
" 	c None",
".	c #000000000000",
"X	c #BDBDBABABDBD",
"o	c #ADADAAAAADAD",
"O	c #ADADAEAEADAD",
"+	c #E7E7E7E7EFEF",
"@	c #7B7B86869C9C",
"#	c #080804040808",
"$	c #94949696ADAD",
"%	c #737379798484",
"&	c #7B7B9292B5B5",
"*	c #BDBDC3C3BDBD",
"=	c #000000001010",
"                                                        ",
"                                                        ",
"                                                        ",
"                                                        ",
"                                                        ",
"                                                        ",
"                                                        ",
"               .  .  . ....                             ",
"                           .                            ",
"                            .                           ",
"                             .                          ",
"                             .                          ",
"                           ....                         ",
"                           XoXO                         ",
"                          ......                        ",
"                         .++++++.                       ",
"                     ....++++++++....                   ",
"                    .+++++++++++++++@.                  ",
"                    .+++..........+@@.                  ",
"                    .+...++++++++..#@.                  ",
"                    .+.X..........X.@.                  ",
"                    .+.+.@@@@@@@@.+.@.                  ",
"                    .+.X.@@@$%&@@#X.@.                  ",
"                    .+.X.#####....X#@.                  ",
"                    .+.+XX+XXX+XX+X.@.                  ",
"                    .+.*X*XX+*X*X*X#@.                  ",
"                    .+.X+X*XXX*+XX+.@#                  ",
"                    .+.*XX*X*+XXX*X.@.                  ",
"                    .+.X+X+XXX*X+X*.@.                  ",
"                    .+.X*X*X*X+X*XX#@.                  ",
"                    .+.X+X*+X*X*+X+.@#                  ",
"                    .+.*X*XXX+*XX*X#@.                  ",
"                    .+.+XX+*XXX+XX*.@.                  ",
"                    .+.XX*XX*X*X*X+#@.                  ",
"                    .+.*+X*+X+XX*+X.@#                  ",
"                    .+@....#..#...#@@.                  ",
"                    .@@@@@@@@@@@@@@@@#                  ",
"                    .$%&%$@@@@&%$%&@@.                  ",
"                     .=.######.=##..#                   ",
"                                                        ",
"                                                        ",
"                                                        ",
"                                                        ",
"                                                        ",
"                                                        ",
"                                                        "};
