/* XPM */
static char * image_name[] = {
"20 20 63 1",
" 	c #DCDCDCDCDCDC",
".	c #D7D7D3D3D7D7",
"X	c #9E9E9A9A9E9E",
"o	c #CFCFC7C7CFCF",
"O	c #B6B6AEAEB6B6",
"+	c #BEBEB6B6BEBE",
"@	c #C7C7BABAC7C7",
"#	c #AEAEAEAEB6B6",
"$	c #8E8E8A8A8E8E",
"%	c #AEAEB2B2CFCF",
"&	c #C4C4C4C4C4C4",
"*	c #B6B6B2B2B6B6",
"=	c #717175757171",
"-	c #717179798686",
";	c #181820202020",
":	c #000000000000",
">	c #797986869E9E",
",	c #515171718E8E",
"<	c #2F2F4F4F5050",
"1	c #000000001010",
"2	c #080804040808",
"3	c #000000001818",
"4	c #28282C2C3030",
"5	c #B0B0B0B0B0B0",
"6	c #B9B9B9B9B9B9",
"7	c #202028285151",
"8	c #2B2B2B2B2B2B",
"9	c #5F5F5F5F5F5F",
"0	c #96969696AEAE",
"q	c #494949495151",
"w	c #000008080808",
"e	c #69698686BEBE",
"r	c #696969697171",
"t	c #A6A6A6A6A6A6",
"y	c #BEBEBEBEBEBE",
"u	c #A6A6A2A2A6A6",
"i	c #AEAEA6A6AEAE",
"p	c #969692929696",
"a	c #999999999999",
"s	c #6B6B69696B6B",
"d	c #202020202020",
"f	c #555555555555",
"g	c #A9A9A9A9A9A9",
"h	c #79799292B6B6",
"j	c #5959A2A2D7D7",
"k	c #616161616161",
"l	c #A6A69E9EA6A6",
"z	c #D2D2B4B48C8C",
"x	c #F7F7B2B2AEAE",
"c	c #F5F5DEDEB3B3",
"v	c #FFFFE7E7BEBE",
"b	c #F0F0F0F0F0F0",
"n	c #FFFFFBFBFFFF",
"m	c #797979797979",
"M	c #BEBEBABABEBE",
"N	c #F7F7F3F3F7F7",
"B	c #FFFFFFFFFFFF",
"V	c #D7D7DFDFE7E7",
"C	c #525252525252",
"Z	c #666666666666",
"A	c #AEAEAAAAAEAE",
"S	c #909090909090",
"D	c #303034343030",
" ..................X",
"oO+++@#$%&++**++*Oo=",
"oO+@#-;:;>&&+*++++o=",
"oO+#,<122345o*++*+o=",
"o+6-<<;74::8o+O**Oo=",
"o+-<,9:;2:;10@OOOOo=",
"&+,,,q,,3we7qoOOOOor",
"@tee,q,,,:9<qyOOOO%r",
"@u0uipas7d%eq+OOO#@s",
"@u+o%%%0d9%>f+iigO+7",
"@i#0heej:9h,k+iilz,9",
"@l+xxx@o2l%r$Og0x90s",
"@0icxvb.7n%=Oiu@m-os",
"Mll#NBVC:C0uOX#$,O+Z",
"+Xuai=:::p0iur7r#u*Z",
"+XllA07q>u,*r,;*ul*Z",
"6XlllO-S0#0072mOll*Z",
"*plXXArrAX077SAl0lOk",
"+iOOO6#0*O*Oy6OOOO@Z",
"mffffffffffffffffffD"};
