/* XPM */
static char * image_name[] = {
"20 20 47 1",
" 	c #E9E9E9E9E9E9",
".	c #D7D7D3D3D7D7",
"X	c #DCDCD8D8DCDC",
"o	c #96969696AEAE",
"O	c #CCCCCCCCCCCC",
"+	c #B9B9B9B9B9B9",
"@	c #B6B6B2B2B6B6",
"#	c #797979797979",
"$	c #D3D3D3D3D3D3",
"%	c #BEBEBABABEBE",
"&	c #C4C4C4C4C4C4",
"*	c #C7C7BABAC7C7",
"=	c #CFCFD3D3CFCF",
"-	c #717175757171",
";	c #404042424040",
":	c #A6A69E9EA6A6",
">	c #666666666666",
",	c #6B6B69696B6B",
"<	c #555555555555",
"1	c #A6A6A6A6A6A6",
"2	c #BEBEBEBEBEBE",
"3	c #B0B0B0B0B0B0",
"4	c #A6A6A2A2A6A6",
"5	c #5F5F5F5F5F5F",
"6	c #8E8E8A8A8E8E",
"7	c #AEAEAEAEB6B6",
"8	c #AEAEB2B2CFCF",
"9	c #B6B6AEAEB6B6",
"0	c #9E9E9A9A9E9E",
"q	c #717179798686",
"w	c #AEAEAAAAAEAE",
"e	c #999999999999",
"r	c #909090909090",
"t	c #303034343030",
"y	c #AAAAAAAAAAAA",
"u	c #969696969696",
"i	c #494949495151",
"p	c #696969697171",
"a	c #A9A9A9A9A9A9",
"s	c #AEAEAEAEAEAE",
"d	c #2F2F4F4F4F4F",
"f	c #969692929696",
"g	c #BEBEB6B6BEBE",
"h	c #696908080808",
"j	c #515155554949",
"k	c #404040400000",
"l	c #202028285151",
" .................Xo",
"O++@++@++++++++++@O#",
"O@++++++++++++++++$#",
"O@@%+@&&&&&&&**%@+=-",
"O@+@++%;:>-,<<12+3O-",
"O@@@+%456#1788#3+@O-",
"&9@@@%0#6<,,<-6q*@&-",
"&w999@+;e+*rt2,-%9&-",
"&y999@@;r%%ui%+@@9&p",
"&awws@+df%gud+@www&p",
"*4wyy@uh,88,hf@wwy*p",
"&4awa8jhh77khj8aay%p",
"*4aaa8jhk77kh<8aaa%p",
"%4aaa8<hk77kh<8a4a%p",
"%:444+jhk77khj+444+,",
"+04:4@jhh11khj@44:@>",
"+0:::y6h>77,h6y:::@>",
"@e00::ao4444ea:0009>",
"%w9@@9@@@@9@+3@@9@&>",
"q<<<<<<<<<<<<<<<<<<l"};
