/* XPM */
static char * cd_xpm[] = {
"43 22 19 1",
" 	c None",
".	c #EFBEAEBAA699",
"X	c #B6DAB2CAB6DA",
"o	c #B6DAB6DAB6DA",
"O	c #F7DEF7DEF7DE",
"+	c #F7DEF3CEF7DE",
"@	c #965892489658",
"#	c #61858207B6DA",
"$	c #9E7996589E79",
"%	c #A699A289A699",
"&	c #FFFFFBEEFFFF",
"*	c #69A671C68E38",
"=	c #000000000000",
"-	c #B6DAAEBAB6DA",
";	c #AEBAAAAA8E38",
":	c #000000001040",
">	c #082004100820",
",	c #A6999E79A699",
"<	c #B6DABAEAC71B",
"                                           ",
"                                           ",
"                                           ",
"             .X.o.X..O.O.O.                ",
"         ..X+@O@+#+$..O.+oO.O.X%.     .    ",
"       .OOO+#+#+#+#+.&.Oo+#+o+++X+X. +     ",
"     .+++++++X+#+#+$..Oo+#+@+o+XO.+++X     ",
"    .O.O.O++++++X+#+.OXO*O@+X+X+.O+++.     ",
"   .O.O.O.O.+.+++XO@.o+#Oo+XO.O.O.+++o     ",
"   O.O.O.O.O.O.O+++OOO.Oo+.O.OOOOOO+++     ",
"  .OoOoOoOoOoOo++X===oO.O.++O++++++++o     ",
"  +@O@O@O@O-OXO+X#%%%#o+.O.O.O.O.O.O.o     ",
"  .+#O*O-OX++++++X##*o+o.o.oOoOXOXOoO=     ",
"  .O+#Oo++++X+;+.O+OOO.Oo.oo-XXXX.oO-=     ",
"  @++++++X+#O*O*O#o.O%O.Oo.oXXXXX-OX==     ",
"   #++X+#+#+#O#O#XXO%+%O.Oo.oXXX.OX=:      ",
"    #++X+#+#+#O#XX+@+%+%O.Oo.o.OO@=>       ",
"     #X+++X+#+#oo+@+%+%+%O.OOOO-===        ",
"       #XX+.O.+.+X+X+%+%O,O.<*===          ",
"         ###XX%X%X%X%X%o,o=====            ",
"            ##=#===========                ",
"                                           "};
