/* XPM */
static char * image_name[] = {
"56 46 19 1",
" 	c #F7F7F3F3F7F7",
".	c #B6B6B2B2B6B6",
"X	c #000000000000",
"o	c #A6A6A2A2A6A6",
"O	c #969692929696",
"+	c #61618282B6B6",
"@	c #EFEFAEAEA6A6",
"#	c #B6B6B6B6B6B6",
"$	c #F7F7F7F7F7F7",
"%	c #9E9E96969E9E",
"&	c #FFFFFBFBFFFF",
"*	c #696971718E8E",
"=	c #B6B6AEAEB6B6",
"-	c #AEAEAAAA8E8E",
";	c #000000001010",
":	c #080804040808",
">	c #A6A69E9EA6A6",
",	c #B6B6BABAC7C7",
"<	c #96969A9AAEAE",
"                                                       .",
" ......................................................X",
" ......................................................X",
" ......................................................X",
" o...o...o...o...o...o...o...o...o...o...o...o...o...o.X",
" ......................................................X",
" o.o.o.o.o.o.o.o...........................o.o.o.o.o.o.X",
" .....o.......o...OXO.o+X+OXOXOX++X+OXO+o.....o.......oX",
" o.o.o.o.o.o.o.o..X X.oOOOOOOOOOOOOOOOOOo..o.o.o.o.o.o.X",
" ...o...o...o.....X X.......................o...o...o..X",
" o.o.o.o.o.o..OXXXX Xo+X+oOXXXXXOoOXXXXXO..o.o.o.o.o.o.X",
" .o...o.o.o...X.    X.X X.X.    X.X.   .X.o...o.o.o...oX",
" o.o.o.o.o.o..X +X+ XoX XoX XXXXOoX XXX X..o.o.o.o.o.o.X",
" .o.o.o.o.o.o.X X.X X.X X.X X+++..X X.XXX.o.o.o.o.o.o.oX",
" o.o.o.o.o.o..X X.X XoX XoX.   .XoX X......o.o.o.o.o.o.X",
" oo.ooo.ooo.o.X X.X XoX Xo.++XX XoX X.XXX.o.ooo.ooo.oooX",
" o.o.o.o.o.o..X +X+ XoX XoOXXXX XoX XXX X..o.o.o.o.o.o.X",
" oooooooooooo.X.    XoX XoX    .XoX.   .X.oooooooooooooX",
" o.o.o.o.o.o..OXXXXXOo+X+oOXXXXXOoOXXXXXO..o.o.o.o.o.o.X",
" ooooooooooooo...........................ooooooooooooooX",
" ooo.ooo.ooooooooooooooooooooooooooooooooooo.ooo.ooo.ooX",
" ooooooooooooooooooooooooooooooooooooooooooooooooooooooX",
" ooooooooooooooooo...@.@#@.@@$@$@$@..oo.ooo.ooo.oooooooX",
" ooooooooooooooo#@@. O$O + %@@$@ #$@$@.o@oo.oo@.oooooooX",
" OoooOoooOoooO.@$$$ + + + + @&@$# + #   . .@. .ooOoooOoX",
" oooooooooooo@       . + + %@@$# + O # .$@   .oooooooooX",
" ooOoOoOoooO@$@$@$      . + @$.$*$O . . @$   @#..ooOoOoX",
" oooooooooo@$@$@$@$@ @   .$O@# +$# .$@$@$@   #oooooooooX",
" OoOoOoOoO.$@$@$@$@$@$@$   $$$@$# @$@$$$$$$   oooOoOoOoX",
" ooooooooo@$#$#$#$#$#$#  .XXX#$@$@  $        #@ooooooooX",
" OoOoOoOoO O$O$O$O$=$.$ .+ooo+# @$@$@$@$@$@$@#o#oOoOoOoX",
" oOoooOooO@ +$*$=$.      .++*# #@#@#$#$.$.$#$+OoooOoooOX",
" OoOoOoOoO@$ +$#    . - @$ $$$@$#@##=....@#$=+OOoOoOoOoX",
" oOoOoOoOOO      . +$*$*$+#@$o$@$#@#.....=$.++OoOoOoOoOX",
" OoOoOoOoOo+  . + + +$+$+..$o o$@$#@#...@$.*;oOOoOoOoOoX",
" OOoOOOoOOOo+  . + + +$+.. O o o$@$#@#@$$O+:oOOoOOOoOOOX",
" OoOoOoOoOoOo+.   . + +## O o o o$@$$$$=+X+oOOoOoOoOoOoX",
" OOOOOOOOOOOOoO+.. @$@ @ . . o o$>$@,*XX+OoOOOOOOOOOOOOX",
" OoOoOoOoOoOoOooO+++..o.o.o.o.o#>#+XX+<>ooOOoOoOoOoOoOoX",
" OOOOOOOOOOOOOOOoooO++X+XXXXXXXX+X+OoooOOOOOOOOOOOOOOOOX",
" OOOoOOOoOOOoOOOoOOoooooooooooooooooOOOOoOOOoOOOoOOOoOOX",
" OOOOOOOOOOOOOOOOOOOOOOOOOOOOOOOOOOOOOOOOOOOOOOOOOOOOOOX",
" OoOOOOOOOoOOOOOOOoOOOOOOOoOOOOOOOoOOOOOOOoOOOOOOOoOOOOX",
" OOOOOOOOOOOOOOOOOOOOOOOOOOOOOOOOOOOOOOOOOOOOOOOOOOOOOOX",
" OOOOOOOOOOOOOOOOOOOOOOOOOOOOOOOOOOOOOOOOOOOOOOOOOOOOOOX",
".XXXXXXXXXXXXXXXXXXXXXXXXXXXXXXXXXXXXXXXXXXXXXXXXXXXXXXX"};
