/* XPM */
static char *cut[] = {
/* width height ncolors chars_per_pixel */
"9 14 3 1",
/* colors */
"@ c #000000",
". s none m none c none",
"X c #000080",
/* pixels */
"..@...@..",
"..@...@..",
"..@...@..",
"..@@.@@..",
"...@.@...",
"...@@@...",
"....@....",
"...X@X...",
"...X.XXX.",
".XXX.X..X",
"X..X.X..X",
"X..X.X..X",
"X..X..XX.",
".XX......",
};

