/* XPM */
static char * dec_xpm[] = {
"36 15 2 1",
" 	c #A69900000000",
".	c #FFFFFFFFFFFF",
"                                    ",
"     .. ..        ..   .         .. ",
"     .. ..        ..  ..         .. ",
"     ..               ..         .. ",
"  ..... ..  ... . .. .... .... . .. ",
" ...... .. ...... .. .... ...... .. ",
" ..  .. .. ..  .. ..  ..  ..  .. .. ",
" ..  .. .. ..  .. ..  ..  ..  .. .. ",
" ..  .. .. ..  .. ..  ..  ..  .. .. ",
" ..  .. .. ...... ..  ... ...... .. ",
"  ..... ..  ..... ..   .. ...... .. ",
"               ..                   ",
"           ......                   ",
"            ....                    ",
"                                    "};
