/* XPM */
static char * icl8_11471_xpm[] = {
/* width height ncolors chars_per_pixel */
"32 32 6 1",
/* colors */
" 	s None	c None",
".	c black",
"X	c grey85",
"o	c grey70",
"O	c #FE0000",
"+	c #000077",
/* pixels */
"   ....................         ",
"   .XXXXXXXXXXXXXXXXXX..        ",
"   .XXXXXXXXXXXXXXXXXX.o.       ",
"   .XXXXOXXXXXXXXXXXXX.oo.      ",
"   .XXXOXXXXXXXXXXXXXX.ooo.     ",
"   .XXXOXXXXXXXXXXXXXX.oooo.    ",
"   .XXXOXX+++++++++XXX.......   ",
"   .XXOXXXXXXXXXXXXXXXXooooo.   ",
"   .XXXOXX+++++++++++XXooooo.   ",
"   .XXXOXXXXXXXXXXXXXXXXXXXX.   ",
"   .XXXOXXXX+++++++++XXXXXXX.   ",
"   .XXXXOXXXXXXXXXXXXXXXXXXX.   ",
"   .XXXXXXXXXX+++++++++XXXXX.   ",
"   .XXXXXXXXXXXXXXXXXXXXXXXX.   ",
"   .XXXXXXXXXX++++++++XXXXXX.   ",
"   .XXXXXXXXXXXXXXXXXXXXXXXX.   ",
"   .XXXXXXXX++++++++++++XXXX.   ",
"   .XXXXXXXXXXXXXXXXXXXXXXXX.   ",
"   .XXXXXX+++++++++++++++XXX.   ",
"   .XXXXXXXXXXXXXXXXXXXXXXXX.   ",
"   .XXXXXXXX+++++++++XXXXXXX.   ",
"   .XXXOXXXXXXXXXXXXXXXXXXXX.   ",
"   .XXXXOXXXXX++++++++++++XX.   ",
"   .XXXXOXXXXXXXXXXXXXXXXXXX.   ",
"   .XXXXOXXXXXXX+++++++XXXXX.   ",
"   .XXXXXOXXXXXXXXXXXXXXXXXX.   ",
"   .XXXXOXXX+++++++++++++XXX.   ",
"   .XXXXOXXXXXXXXXXXXXXXXXXX.   ",
"   .XXXXOXXXXXXXXXXXXXXXXXXX.   ",
"   .XXXOXXXXXXXXXXXXXXXXXXXX.   ",
"   .XXXXXXXXXXXXXXXXXXXXXXXX.   ",
"   ..........................   "};
