/* XPM */
static char *gnu2[] = {
/* width height num_colors chars_per_pixel */
"    25    25        6            1",
/* colors */
". c #000000",
"# c #44406c",
"a c #8b4513",
"b c None",
"c c #bebebe",
"d c #e9967a",
/* pixels */
"bbbbbbbbbbbbbbbbbbbbbbbbb",
"bbbbbbbbbbbbbbbbbb.bbbbbb",
"bbbbbbbbbbbbbbbbbbb..bbbb",
"bbbbbbbbbbbbbbbbbbbbb.bbb",
"bbbbb.bbbbb......bbbb..bb",
"bbbb.bbb...cc.ccc.bbb.cbb",
"bbb..bbb..ccccccccbb.c.bb",
"bb.c.bb..c.aa.......cc.bb",
"bb.c.b..cc...aaa..aaa..bb",
"bb.cc.b.c..aa...........b",
"bbb.cccc.aa.a......bbbbbb",
"bbbb...aa..a#.a.....bbbbb",
"bbbbb.aa.a.a........bbbbb",
"bbb......a.aaaa.....bbbbb",
"bbbbbb.....aa.a.....bbbbb",
"bbbbb...aaaaaaaa.....bbbb",
"bbbbb..a..a.a.aaa....bbbb",
"bbbbb..a..a.aaadd..ddbbbb",
"bbbbb....a.a...d.d.d.bbbb",
"bbbbbb....a.a...d.d..bbbb",
"bbbbbb...a.a....a....bbbb",
"bbbbbbb...a.a.a..aa.bbbbb",
"bbbbbbbbb...a..bb..bbbbbb",
"bbbbbbbbbb....bbbbbbbbbbb",
"bbbbbbbbbbbbbbbbbbbbbbbbb"
};
