/* XPM */
static char * mini_cross_up_xpm[] = {
"18 17 4 1",
"^	c #58B4F8",
".	c #204058",
" 	c steelblue",
"o	c black",
"^^^^^^^^^^^^^^^^^^",
"^^^^^^^^^^^^^^^^^.",
"^^              ..",
"^^      oo      ..",
"^^      oo      ..",
"^^      oo      ..",
"^^  oooooooooo  ..",
"^^  oooooooooo  ..",
"^^      oo      ..",
"^^      oo      ..",
"^^      oo      ..",
"^^      oo      ..",
"^^      oo      ..",
"^^      oo      ..",
"^^              ..",
"^^................",
"^................."};
