/* XPM */
static char * mini-cdlabel_xpm[] = {
"16 14 3 1",
" 	c None s None",
".	c black",
"X	c gray50",
"  ... X.X.X.X.X ",
"  . . .X.X.X.X. ",
"  . .           ",
" .. ..X...X...  ",
".   . .   .   . ",
". . . . ..X . . ",
". . . . XXX . . ",
". . . .   . ..X ",
". . . ... . . . ",
". . . .XX . . . ",
".   . .   .   . ",
" .........X...  ",
"                ",
"                "};
