/* XPM */
static char * netscape1 [] = {
/* width height ncolors cpp [x_hot y_hot] */
"64 64 28 1 -1 -1",
/* colors */
" 	c #E0E0E0E0E0E0",
".	c #656565656565",
"X	c #000000000000",
"o	c #888888888888",
"O	c #555555555555",
"+	c #111111111111",
"@	c #333366666666",
"#	c #222222222222",
"$	c #9999FFFFFFFF",
"%	c #FFFFFFFF0000",
"&	c #444444444444",
"*	c #66666666CCCC",
"=	c #777777777777",
"-	s iconColor2	m white	c white",
";	c #AAAAAAAAAAAA",
":	c #FFFFCCCC9999",
"?	c #CCCCCCCCFFFF",
">	c #333333336666",
",	c #BBBBBBBBBBBB",
"<	c #333399996666",
"1	c #3333FFFF9999",
"2	c #999966669999",
"3	c #CCCC99996666",
"4	c #99999999FFFF",
"5	c #DDDDDDDDDDDD",
"6	s topShadowColor	m white	c #c8c8c8c8c8c8",
"7	c #00009999FFFF",
"8	c #EEEEEEEEEEEE",
/* pixels */
"                                                                ",
"                                                               .",
"  XXXXXXoXXXXXXXXXXXXXXXXXXoXXXXXXXXXXXXXXXXXoXXXXXXXXXXXXXXXX..",
"  XO+XXXXXXXXXXXXXXO+XXXXXXXXXXXXXXXXXXXO+XXXXXXXXXXXXXXoXXXXX..",
"  ++XXO+XXXXXXXXXX++XXXX+XXXXXX@XX+#XXXX+X+XXXXXXXXX$XXXXXXXXX..",
"  XXX+++++XX%XXXXXXXXXX#&#XXXXXXXX#*+X+++++#+XXXXXXXXXXXXXX$XX..",
"  XXXX+&=#+XXXXXX$XXXX+&-&XXXXXXoXX+X++####;+XXXXXXXXXXX+XXXXX..",
"  XoXX+=:O+XX+X+XX+X+XX#O#+XXXXo?o++#&&$&&##++X++%X+X++XX+++++..",
"  XX+X+#=#++##++++X+++++++XX@+X+o##&@@@@&##+++++X+X+++=-+##&&#..",
"  +++X++++++@=++X+++++-+X+X++++#&@@=o=@@##+++-X+++++++&&&&O=OO..",
"  +X$++++++++++++O+++++++++++#>@=oo*,<>##+++X++++###&&&Ooooo=O..",
"  ++++++++++++++++++++++++##@@o;1*1=@>#++++++++++&&&O23,,,;2=&..",
"  ++++++++#+#++++++++++#=&@=;$;4;o@>##+++++++++++&33,:556,2=&#..",
"  ++++#+#+o##7$------5>&@=;$;$;1@@&#++@$$-------$@888886,2O&++..",
"  ++++#########=,-----5o;$$;$<*@>#++++#++@,$-$,#&O;8-86;2&#$++..",
"  ++#+#+####&#&#&,-----6$$;;<*&##++#+++++++$-1##&O;5562O&#++#+..",
"  +#%#><##&&&&&OO=,-----6;1*@$#+#+#+#+#+##+$-,##&&=232&&###+++..",
"  #####>#&#&OO==;,,------6@##+##+#####+####$-,####&&&&#&#++###..",
"  ########&&O2;658<-------,########@#######$-,>+##&&&&####o###..",
"  ######>&&O=,8--8<-------$,##########O####$-,####O######o-o##..",
"  ####>##@-O=6---8<--,-----$,##############$-,#######>####o###..",
"  ##>##>@O===,8856<--<,-----$;###<+#######>$-,##>####@&#>#####..",
"  #>#@>@&@OO=2;,;=<--#<,-----$;######@>####$-,#>##>##>####>###..",
"  #>####>#>&OO==OO<--#><,-----$;+#>##>#>#>#$-,#####>##>#>###>#..",
"  #$>#@#>#>&&O=OOO<--#>#<6-----$;>##>###>#>$-,#>@>##>##>#@o>##..",
"  #>#>#>#@#>&>OO&&<--##>#<6-----$;#>##>##>#$-,>#@>#@#@#@#>@#>#..",
"  ##>#@#><>#@#>@>@<--#@#@><6-----$o>#>#>6#>$-,#>#@>#>@>#>#>##>..",
"  >#@#>#@>#@#@>&>><--##>>#@<6-----$o>##>#>#$-,>@#@#@>;>@#@#@#>..",
"  #>#>#@#@>@#@#<@@<--><>>#>#<6-----$o>#>#@>$-,#@>&O&O&&#@#>>#>..",
"  >#@>@#>#@#@@@>@><--#>@#@>#@<5-----$o#@#%>$-,>@@OO=OOO>>@#@>#..",
"  >@#@>@@@#@<>>@@@<-->@#@#@>#><5-----$=#@>#$-,>&O=2o2=OO>#@#@>..",
"  #>@<@@#@@@*@#@#@<-->#@@@#@<>><5-----$=>@>$-,@&O268:2=O@;>@#@..",
"  >@>@@@@>>@#@>@@@<--#>@@@<>>>#><5-----$=@>$-,>@=o8-82OO>@>@>#..",
"  >#@>@>>@@#@>@>@@<-->@#@@>@>@>@><8-----1=@$-,@O=2;5;2OO@@>@>@..",
"  @>@>>@@#@@6@><@@<-->>@>@>@#@>#@><8-----1@$-,@>O=o2=OO@>@#@>>..",
"  >@#@>#@@@>@@@@>@<--@@@<@@@7@@@@@@=8-----1$-,@@@O=O=OO@%>@>o@..",
"  >@>@@%>@>@@>@@@@<--@@@@@7@@@@@@@@<=8-----$-,@@@@@=@=@@@@@@@>..",
"  @>@>@>@>@@@;@@@@<--<@7<<<<<7<*<7<*<=-------,@@@@@@@@@@@@>@@>..",
"  >@@>@@@@@@@@<7<*<--@@@>>##+XX+XXXXXX=$$$$$$,<*<*<*<@@@@@@@@@..",
"  @>@@@@@@@7<7<@@@<--XXX+XXXXXXXXXXXX+XX++++X++&@@<*<7<7@@@@@@..",
"  @@@@@@7<<@@#+++X<--X+X+XXXXXXXXXXXXXXX+XX+++++++++#>@@<7<@@@..",
"  @@<7<<@>+++XXXX+,--@XXX+XXXXXXXXXXXXXXXXX+X+#+++++++X+>@<7@7..",
"  <7@@@++++XXXXXX@8--,XXXXXXXXXXXXXXXXXXXXXX++++X+X++++XXXX>@<..",
"  <@#++X+XXXXX----------$8+XXXXXXXXXXXXXXXXX+++XXX+X+++XXXXXX+..",
"  ++XXXXXXXXXXXXXXXXXXXXXXXXXXXXXXXXXXXXXXX+++++XXX++++XXXXXXX..",
"  XX++X++++++XXXXXXXXXXXXXXXXXXXXXXXXXXXXXXX+++XXXXX+++XXXXXXX..",
"  XXXXXXXX++++X+XXXXXXXXXXXXXXXXXXXXXXXXXXX+++++X+X++++XXXXXXX..",
"  XXXXXXX+XX+++XXXXXXXXXXXXXXXXXXXXXXXXXXXXX+++X++++++XXXXXXXX..",
"  XXXXXX+XXXXX+++XXXXXXXXXXXXXXXXXXXXXXXXXXX+X++++X+++XXXXXXXX..",
"  XXXXXXXXXXXX+XX+XXXXXXXXXXXXXXXXXXXXXXXXXX+XXX++++XXXXXXXXXX..",
"  XXXXX+XXXXXXX++XXXXXXXXXXXXXXXXXXXXXXXXXXX+XXXXXXXXXXXXXXXXX..",
"  XXXXXX+XXXXXX+++XXXXXXXXXXXXXXXXXXXXXXXXXXX+XXXXXXXXXXXXXXXX..",
"  XXXXXXXXXXXXXX++XXXXXXXXXXXXXXXXXXXXXXXXXXX+XXXXXXXXXXXXXXXX..",
"  XXXXXX+XXXXXX++XXXXXXXXXXXXXXXXXXXXXXXXXXXXX+XXXXXXXXXXXXXXX..",
"  XXXXXXX+X+X+X++XXXXXXXXXXXXXXXXXXXXXXXXXXXXX++XXXXXXXXXXXXXX..",
"  XXXXXXXXX+X+XX+XXXXXXXXXXXXXXXXXXXXXXXXXXXXXXX+XXXXXXXXXXX+X..",
"  XXXXXXXXXXXXXX+XXXXXXXXXXXXXXXXXXXXXXXXXXXXXXXX++XXXXXXX++XX..",
"  XXXXXXXXXXXXXXXXXXXXXXXXXXXXXXXXXXXXXXXXXXXXXXXXX+++++++XXXX..",
"  XXXXXXXXXXXXXX+XXXXXXXXXXXXXXXXXXXXXXXXXXXXXXXXXXXXXXXXXXXXX..",
"  XXXXXXXXXXXXXXXXXXXXXXXXXXXXXXXXXXXXXXXXXXXXXXXXXXXXXXXXXXXX..",
"  XXXXXXXXXXXXX+XXXXXXXXXXXXXXXXXXXXXXXXXXXXXXXXXXXXXXXXXXXXXX..",
"  XXXXXXXXXXXXXXXXXXXXXXXXXXXXXXXXXXXXXXXXXXXXXXXXXXXXXXXXXXXX..",
"  ..............................................................",
" ..............................................................."};
