/* XPM */
static char * netscape2 [] = {
/* width height ncolors cpp [x_hot y_hot] */
"64 40 27 1 0 0",
/* colors */
" 	c #E0E0E0E0E0E0",
".	c #656565656565",
"X	c #111111111111",
"o	c #000000000000",
"O	c #9999FFFFFFFF",
"+	c #555555555555",
"@	c #222222222222",
"#	c #333333336666",
"$	c #333366666666",
"%	c #777777777777",
"&	c #888888888888",
"*	c #66666666CCCC",
"=	c #BBBBBBBBBBBB",
"-	c #333399996666",
";	c #444444444444",
":	c #AAAAAAAAAAAA",
"?	c #3333FFFF9999",
">	c #999966669999",
",	c #CCCC99996666",
"<	c #99999999FFFF",
"1	c #FFFFCCCC9999",
"2	c #DDDDDDDDDDDD",
"3	s topShadowColor	m white	c #c8c8c8c8c8c8",
"4	c #00009999FFFF",
"5	s iconColor2	m white	c white",
"6	c #EEEEEEEEEEEE",
"7	c #FFFFFFFF0000",
/* pixels */
"                                                                ",
"                                                               .",
"  XoOXXXXXXXXXXXX+XXXXXXXXXXX@#$%&&*=-#@@XXXoXXXX@@@;;;+&&&&%+..",
"  XXXXXXXXXXXXXXXXXXXXXXXX@@$$&:?*?%$#@XXXXXXXXXX;;;+>,===:>%;..",
"  XXXXXXXX@X@XXXXXXXXXX@%;$%:O:<:&$#@@XXXXXXXXXXX;,,=1223=>%;@..",
"  XXXX@X@X&@@4O5555552#;$%:O:O:?$$;@XX$OO5555555O$666663=>+;XX..",
"  XXXX@@@@@@@@@%=555552&:OO:O-*$#@XXXX@XX$=O5O=@;+:6563:>;@OXX..",
"  XX@X@X@@@@;@;@;=555553OO::-*;@@XX@XXXXXXXO5?@@;+:223>+;@XX@X..",
"  X@7@#-@@;;;;;++%=555553:?*$O@X@X@X@X@X@@XO5=@@;;%>,>;;@@@XXX..",
"  @@@@@#@;@;++%%:==5555553$@@X@@X@@@@@X@@@@O5=@@@@;;;;@;@XX@@@..",
"  @@@@@@@@;;+>:326-5555555=@@@@@@@@$@@@@@@@O5=#X@@;;;;@@@@&@@@..",
"  @@@@@@#;;+%=6556-5555555O=@@@@@@@@@@+@@@@O5=@@@@+@@@@@@&5&@@..",
"  @@@@#@@$5+%35556-55=55555O=@@@@@@@@@@@@@@O5=@@@@@@@#@@@@&@@@..",
"  @@#@@#$+%%%=6623-55-=55555O:@@@-X@@@@@@@#O5=@@#@@@@$;@#@@@@@..",
"  @#@$#$;$++%>:=:%-55@-=55555O:@@@@@@$#@@@@O5=@#@@#@@#@@@@#@@@..",
"  @#@@@@#@#;++%%++-55@#-=55555O:X@#@@#@#@#@O5=@@@@@#@@#@#@@@#@..",
"  @O#@$@#@#;;+%+++-55@#@-355555O:#@@#@@@#@#O5=@#$#@@#@@#@$&#@@..",
"  @#@#@#@$@#;#++;;-55@@#@-355555O:@#@@#@@#@O5=#@$#@$@$@$@#$@#@..",
"  @@#@$@#-#@$@#$#$-55@$@$#-355555O&#@#@#3@#O5=@#@$#@#$#@#@#@@#..",
"  #@$@#@$#@$@$#;##-55@@##@$-355555O&#@@#@#@O5=#$@$@$#:#$@$@$@#..",
"  @#@#@$@$#$@$@-$$-55#-##@#@-355555O&#@#@$#O5=@$#;+;+;;@$@##@#..",
"  #@$#$@#@$@$$$#$#-55@#$@$#@$-255555O&@$@7#O5=#$$++%+++##$@$#@..",
"  #$@$#$$$@$-##$$$-55#$@$@$#@#-255555O%@$#@O5=#;+%>&>%++#@$@$#..",
"  @#$-$$@$$$*$@$@$-55#@$$$@$-##-255555O%#$#O5=$;+>361>%+$:#$@$..",
"  #$#$$$$##$@$#$$$-55@#$$$-###@#-255555O%$#O5=#$%&656>++#$#$#@..",
"  #@$#$##$$@$#$#$$-55#$@$$#$#$#$#-655555?%$O5=$+%>:2:>++$$#$#$..",
"  $#$##$$@$$3$#-$$-55##$#$#$@$#@$#-655555?$O5=$#+%&>%++$#$@$##..",
"  #$@$#@$$$#$$$$#$-55$$$-$$$4$$$$$$%655555?O5=$$$+%+%++$7#$#&$..",
"  #$#$$7#$#$$#$$$$-55$$$$$4$$$$$$$$-%655555O5=$$$$$%$%$$$$$$$#..",
"  $#$#$#$#$$$:$$$$-55-$4-----4-*-4-*-%5555555=$$$$$$$$$$$$#$$#..",
"  #$$#$$$$$$$$-4-*-55$$$##@@XooXoooooo%OOOOOO=-*-*-*-$$$$$$$$$..",
"  $#$$$$$$$4-4-$$$-55oooXooooooooooooXooXXXXoXX;$$-*-4-4$$$$$$..",
"  $$$$$$4--$$@XXXo-55oXoXoooooooooooooooXooXXXXXXXXX@#$$-4-$$$..",
"  $$-4--$#XXXooooX=55$oooXoooooooooooooooooXoX@XXXXXXXoX#$-4$4..",
"  -4$$$XXXXoooooo$655=ooooooooooooooooooooooXXXXoXoXXXXoooo#$-..",
"  -$@XXoXooooo5555555555O6XoooooooooooooooooXXXoooXoXXXooooooX..",
"  XXoooooooooooooooooooooooooooooooooooooooXXXXXoooXXXXooooooo..",
"  ooXXoXXXXXXoooooooooooooooooooooooooooooooXXXoooooXXXooooooo..",
"  ..............................................................",
" ..............................................................."};
