/* XPM */
static char * netscape3_xpm[] = {
"51 40 27 1",
" 	c #E0E0E0E0E0E0",
".	c #656565656565",
"X	c #111111111111",
"o	c #555555555555",
"O	c #222222222222",
"+	c #333333336666",
"@	c #333366666666",
"#	c #777777777777",
"$	c #888888888888",
"%	c #66666666CCCC",
"&	c #BBBBBBBBBBBB",
"*	c #333399996666",
"=	c #000000000000",
"-	c #444444444444",
";	c #AAAAAAAAAAAA",
":	c #3333FFFF9999",
">	c #999966669999",
",	c #CCCC99996666",
"<	c #9999FFFFFFFF",
"1	c #99999999FFFF",
"2	c #FFFFCCCC9999",
"3	c #DDDDDDDDDDDD",
"4	c #00009999FFFF",
"5	c #FFFFFFFFFFFF",
"6	c #EEEEEEEEEEEE",
"7	c #C8C8C8C8C8C8",
"8	c #FFFFFFFF0000",
"                                                   ",
"                                                  .",
"  XXXXXXXXXoXXXXXXXXXXXO+@#$$%&*+OOXXX=XXXXOOO---..",
"  XXXXXXXXXXXXXXXXXXOO@@$;:%:#@+OXXXXXXXXXX---o>,..",
"  XXOXOXXXXXXXXXXO#-@#;<;1;$@+OOXXXXXXXXXXX-,,&23..",
"  OX$OO4<5555553+-@#;<;<;:@@-OXX@<<5555555<@66666..",
"  OOOOOOO#&555553$;<<;<*%@+OXXXXOXX@&<5<&O-o;6567..",
"  OOOO-O-O-&555557<<;;*%-OOXXOXXXXXXX<5:OO-o;337>..",
"  OO-----oo#&555557;:%@<OXOXOXOXOXOOX<5&OO--#>,>-..",
"  O-O-oo##;&&5555557@OOXOOXOOOOOXOOOO<5&OOOO----O..",
"  OO--o>;736*5555555&OOOOOOOO@OOOOOOO<5&+XOO----O..",
"  +--o#&6556*5555555<&OOOOOOOOOOoOOOO<5&OOOOoOOOO..",
"  O@5o#75556*55&55555<&OOOOOOOOOOOOOO<5&OOOOOOO+O..",
"  @o###&6637*55*&55555<;OOO*XOOOOOOO+<5&OO+OOOO@-..",
"  -@oo#>;&;#*55O*&55555<;OOOOOO@+OOOO<5&O+OO+OO+O..",
"  +O+-oo##oo*55O+*&55555<;XO+OO+O+O+O<5&OOOOO+OO+..",
"  +O+--o#ooo*55O+O*755555<;+OO+OOO+O+<5&O+@+OO+OO..",
"  O@O+-+oo--*55OO+O*755555<;O+OO+OO+O<5&+O@+O@O@O..",
"  +*+O@O+@+@*55O@O@+*755555<$+O+O+7O+<5&O+O@+O+@+..",
"  @+O@O@+-++*55OO++O@*755555<$+OO+O+O<5&+@O@O@+;+..",
"  O@+@O@O*@@*55+*++O+O*755555<$+O+O@+<5&O@+-o-o--..",
"  +O@O@@@+@+*55O+@O@+O@*355555<$O@O8+<5&+@@oo#ooo..",
"  @@O@*++@@@*55+@O@O@+O+*355555<#O@+O<5&+-o#>$>#o..",
"  O@@@%@O@O@*55+O@@@O@*++*355555<#+@+<5&@-o>762>#..",
"  @++@O@+@@@*55O+@@@*+++O+*355555<#@+<5&+@#$656>o..",
"  +@@O@+@+@@*55+@O@@+@+@+@+*655555:#@<5&@o#>;3;>o..",
"  @O@@7@+*@@*55++@+@+@O@+O@+*655555:@<5&@+o#$>#oo..",
"  @@@+@@@@+@*55@@@*@@@4@@@@@@#655555:<5&@@@o#o#oo..",
"  +@+@@+@@@@*55@@@@@4@@@@@@@@*#655555<5&@@@@@#@#@..",
"  @+@@@;@@@@*55*@4*****4*%*4*%*#5555555&@@@@@@@@@..",
"  @@@@@@*4*%*55@@@++OOX==X======#<<<<<<&*%*%*%*@@..",
"  @@@4*4*@@@*55===X============X==XXXX=XX-@@*%*4*..",
"  4**@@OXXX=*55=X=X===============X==XXXXXXXXXO+@..",
"  @+XXX====X&55@===X=================X=XOXXXXXXX=..",
"  XXX======@655&======================XXXX=X=XXXX..",
"  X=====5555555555<6X=================XXX===X=XXX..",
"  ===================================XXXXX===XXXX..",
"  XXXXX===============================XXX=====XXX..",
"  .................................................",
" .................................................."};
