/* XPM */
static char * net_xpm[] = {
"33 32 53 1",
" 	c #000028A230C2",
".	c #000030C238E3",
"X	c #000038E34103",
"o	c #000041034924",
"O	c #000049245965",
"+	c #000038E34924",
"@	c #000051445965",
"#	c #000041035144",
"$	c #30C251445144",
"%	c #0000596569A6",
"&	c #0000618571C6",
"*	c #00004D346185",
"=	c #1040596571C6",
"-	c #5144A699BEFB",
";	c #69A6BEFBCF3C",
":	c #B6DAC30BC71B",
">	c #9658AEBAB6DA",
",	c #69A6A699B6DA",
"<	c #0000596571C6",
"1	c #28A28E389658",
"2	c #6185B2CAC71B",
"3	c #8617C71BCF3C",
"4	c #9658CF3CD75C",
"5	c #410371C671C6",
"6	c #38E38A289658",
"7	c #EFBEFBEEFFFF",
"8	c #DF7DEFBEF7DE",
"9	c #71C692489658",
"0	c #000069A68617",
"q	c #0000618579E7",
"w	c #CF3CE38DDF7D",
"e	c #FFFFFBEEFFFF",
"r	c #FFFFF3CEF7DE",
"t	c #000071C68617",
"y	c #AEBADB6CE79D",
"u	c #BEFBE38DEFBE",
"i	c #000079E79658",
"p	c #000079E78E38",
"a	c #00006DB68E38",
"s	c #104082079658",
"d	c #000082079E79",
"f	c #08209248A699",
"g	c #000086179E79",
"h	c #20818E38AEBA",
"j	c #5144B2CAC71B",
"k	c #F7DEFBEEFFFF",
"l	c #28A29A69B6DA",
"z	c #41039E79B6DA",
"x	c #4103AAAAB6DA",
"c	c #30C238E34103",
"v	c #30C238E330C2",
"b	c #000000000000",
"n	c #082010401040",
"    ..X.ooXXoooooXooX.oXX.....  .",
"  .. .XXXXXXXXoXooXXooXXX.XXX...X",
"  XXXoooXoooooooOoOoo+ooooXXXX..X",
".+oXooOooOOoOOOOOOO@O@OoOooooooXX",
"XooOOOOOO@@@@@O@O@@@OOO@o@O@O#ooO",
"+@O@@O@$O@@@%&@%O%@@%@OO@@O@@O@O@",
"**@@%=-;:>,$@&%<*&%1234>3-=%%@*@O",
"@*%&%@56:789@&&&0q%=59we65O%=%%@%",
"%&%&&&&&=r786&tq0000&&;y&&&&&%&%<",
"&&0&00q0qw8ew1q000t00%-:00000&0&<",
"&000ttttqu,ueu10iqpta0,4t0ttt000q",
"00ttatapsys68rw1apdpaa2ytaattat0t",
"qptiiidisufq-7e:1adgda24iiiiqipap",
"qdqdidddswhggj8ku1qdgdjyddddidqdp",
"ddddggggfuhggs;r741dgg;:ggggddddd",
"dggggfffhul1lf1urk4hfh;:fffgggdgg",
"ffffl1ll9u-lz6xz:ee:zl4:z6lh1ffgs",
"lhlzzzzz-y2xjjx-,y77>-3wz6z6zlhlh",
"6zz---xj2u3x22j2j;we84:yjjx-xxzzl",
"xjj,2;22;833334443:wek8w22;j2j-jx",
"x2;;;343:7>99959559>::u84>3>;;;2;",
"334>95$cv8$bbbbbbbbbbbnnnc59,>>4>",
"95$nbbbn>r:vnbbbbbbbbbbbbbbbbn$55",
"bbbbbb$>>>:>9bnbnbbbbbbbbbbbbbbbb",
"bbbbbbbbbbbbbbbbbbbbbbbbbbbbbbbbb",
"bbbbbbbbbbbbbbbbbbbbbbbbbbbbbbbbb",
"bbbbbbbbbbbbbbbbbbbbbbbbbbbbbbbbb",
"bbbbbbbbbbbbbbbbbbbbbbbbbbbbbbbbb",
"bbbbbbbbbbbbbbbbbbbbbbbbbbbbbbbbb",
"bbbbbbbbbbbbbbbbbbbbbbbbbbbbbbbbb",
"bbbbbbbbbbbbbbbbbbbbbbbbbbbbbbbbb",
"bbbbbbbbbbbbbbbbbbbbbbbbbbbbbbbbb"};
