/* XPM */
static char * nh30_xpm[] = {
"30 28 4 1",
" 	c None",
".	c #000000000000",
"X	c #FFFF14514103",
"O	c #FFFFFFFF0000",
"                     .  .     ",
"   .  . .  .         ....     ",
"   .. . .  .          ..      ",
"   .... ....          ..      ",
"   . .. .  .          ..      ",
"   .  . .  .          ..      ",
"                    ......    ",
"   ...     .       .  ..  .   ",
"      .   ..          ..      ",
"    ..     .          ..      ",
"      .    .          ..      ",
"   ...  . ...    X    ..      ",
"                XXX   ..      ",
"                 X    ..      ",
"   ..  ..  ..         ..      ",
"   ..........         ..      ",
"   ..........    X    ..      ",
"   ...O..O...   XXX   ..      ",
"   ..OOOOOO..    X    ..      ",
"   ...O..O...         ..      ",
"   ...O..O...         ..      ",
"   ..OOOOOO..    X    ..      ",
"   ...O..O...   XXX   ..      ",
"   ..........    X    ..      ",
"    ........          ..      ",
"     ......           ..      ",
"      ....            ..      ",
"       ..              .      "};
