/* XPM */
static char * nh56_xpm[] = {
"52 52 7 1",
" 	c #000000000000",
".	c #FFFFFFFFFFFF",
"X	c #D5D5D5D5D4D4",
"o	c #FAFA13134040",
"O	c #FFFFFFFF0000",
"+	c #51515151FBFB",
",      s None c None",
",,,,,,,,,,,,,,,,,,,,,,,,,,,,,,,,,,,,,,,,,,,,,,,,,,,,",
",,,,,,,,,,,,,,,,,,,,,,,,,,,,,,,,,,,,,,,,,,,,,,,,,,,,",
",,,,,,,,,,,,,,,,,,,,,,,,,,,,,,,,,,,,,,,,,,,,,,,,,,,,",
",,,,,,,,,,,,,,,,,,,,,,,,,,,,,,,,,,,,,,,,,,,,,,,,,,,,",
",,,,,,,,,,,,,,,,,,,,,,,,,,,,,,,,,,,,,,,,,,,,,,,,,,,,",
",,,,,,,,,,,,,,,,,,,,,,,,,,,,,,,,,,,,,,,,,,,,,,,,,,,,",
",,,,,,,,,,,,,,,,,,  ,,,,,   ,,,,,  ,,,,,,,,,,,,,,,,,",
",,,,,,,,,,,,,,,,, XX ,,,, . ,,,, XX ,,,,,,,,,,,,,,,,",
",,,,,,,,,,,,,,,,, XXX ,,  .  ,, XXX ,,,,,,,,,,,,,,,,",
",,,,,,,,,,,,,,,,, XXXX , . . , XXXX ,,,,,,,,,,,,,,,,",
",,, ,,, ,,, ,,,, XXXXXX  ...  XXXXXX ,,,, ,,, ,,, ,,",
",,,, ,,,,, ,,,,, XXXXXXX . . XXXXXXX ,,,,, ,,,,, ,,,",
",,,,,,   ,,,,,, XXXXXXXX ... XXXXXXXX ,,,,,,   ,,,,,",
",,,,, ooo ,,,,, XXXXXXXX . . XXXXXXXX ,,,,, ooo ,,,,",
",,, , ooo , ,,, XXXXXXXX ... XXXXXXXX ,,, , ooo , ,,",
",,,,, ooo ,,,,, XXXXXXXX . . XXXXXXXX ,,,,, ooo ,,,,",
",,,,,,   ,,,,,, XXXXXXXX ... XXXXXXXX ,,,,,,   ,,,,,",
",,,, ,,,,, ,,,,, XXXXXXX . . XXXXXXX ,,,,, ,,,,, ,,,",
",,, ,,, ,,, ,,,, XXXXXX  ...  XXXXXX ,,,, ,,, ,,, ,,",
",,,,,,,,,,,,,,,,, XXXX , . . , XXXX ,,,,,,,,,,,,,,,,",
",,,,,,,,,,,,,,,,, XXX ,, ... ,, XXX ,,,,,,,,,,,,,,,,",
",,,,,,,,,,,,,,,,, XX ,,, . . ,,, XX ,,,,,,,,,,,,,,,,",
",,,,,,,,,,,,,,,,,,  ,,,,  .  ,,,,  ,,,,,,,,,,,,,,,,,",
",,,,,,,,,,,,,,,,,,,,,,,,  .  ,,,,,,,,,,,,,,,,,,,,,,,",
",,,,,,,,,,,,,,,,,,,,,,,,,   ,,,,,,,,,,,,,,,,,,,,,,,,",
",,,,,,,,,,,,,,,,,,,,,,,,,   ,,,,,,,,,,,,,,,,,,,,,,,,",
",,,,,,,,,,,,,,,,,,,,,,,,,   ,,,,,,,,,,,,,,,,,,,,,,,,",
",,,,,,,,,,,,,,,,,,,,,,,,,   ,,,,,,,,,,,,,,,,,,,,,,,,",
",,,,,,,,,,,,,,,,,,,,,,,,,   ,,,,,,,,,,,,,,,,,,,,,,,,",
",,,,,,,,,,,,,,,,,,,,,,,,,   ,,,,,,,,,,,,,,,,,,,,,,,,",
",,,,,,,,,,,,,,,,,,,,,,,,,   ,,,,,,,,,,,,,,,,,,,,,,,,",
",,,, ,,,,, ,,, ,,,, ,,,,,   ,,,,,,   ,,,,,,,, ,,,,,,",
",,,,  ,,,, ,,, ,,,, ,,,,,   ,,,,, ,,, ,,,,,,  ,,,,,,",
",,,,  ,,,, ,,, ,,,, ,,,,,   ,,,,,,,,, ,,,,,,, ,,,,,,",
",,,, , ,,, ,,, ,,,, ,,,,,   ,,,,,,,,, ,,,,,,, ,,,,,,",
",,,, ,, ,, ,,,      ,,,,,   ,,,,,,   ,,,,,,,, ,,,,,,",
",,,, ,, ,, ,,, ,,,, ,,,,,   ,,,,,,,,, ,,,,,,, ,,,,,,",
",,,, ,,, , ,,, ,,,, ,,,,,   ,,,,,,,,, ,,,,,,, ,,,,,,",
",,,, ,,,,  ,,, ,,,, ,,,,,   ,,,,,,,,, ,,,,,,, ,,,,,,",
",,,, ,,,,  ,,, ,,,, ,,,,,   ,,,,, ,,, ,,  ,,, ,,,,,,",
",,,, ,,,,, ,,, ,,,, ,,,,,   ,,,,,,   ,,,  ,,   ,,,,,",
",,,,,,,,,,,,,,,,,,,,,,,,,   ,,,,,,,,,,,,,,,,,,,,,,,,",
",,,,,,,,,,,,,,,,,,,,,,,,,   ,,,,,,,,,,,,,,,,,,,,,,,,",
",                      ,,   ,,                     ,",
", OOOOOOOOOOOOOOOOOOO ,,     ,, ++++++++++++++++++ ,",
", OOOOOOOOOOOOOOOOOOO ,   .   , ++++++++++++++++++ ,",
",                     ,  . .  ,                    ,",
", +++++++++++++++++++ , . . . , OOOOOOOOOOOOOOOOOO ,",
", +++++++++++++++++++ ,, . . ,, OOOOOOOOOOOOOOOOOO ,",
",                      ,,   ,,                     ,",
",,,,,,,,,,,,,,,,,,,,,,,,,,,,,,,,,,,,,,,,,,,,,,,,,,,,",
",,,,,,,,,,,,,,,,,,,,,,,,,,,,,,,,,,,,,,,,,,,,,,,,,,,,"};
