/* XPM */
static char * sun_xpm[] = {
"29 29 2 1",
" 	c None",
".	c #41030000BEFB",
"             ...             ",
"            .....            ",
"            .. ...           ",
"          . ... ...          ",
"         ... ... ...         ",
"        . ... ... ...        ",
"       ... ... ... ...       ",
"      . ... ... ... . .      ",
"     ... ... ... ... ...     ",
"    ... . ... ... . ... .    ",
"   ... ... ... ..  ... ...   ",
"  ... ...   ..... ... ...    ",
" ... ... ... ... ... ... ... ",
"... ... .....   ... ... .....",
".. ... ... ..   .. ... ... ..",
"..... ... ...   ..... ... ...",
" ... ... ... ... ... ... ... ",
"    ... ... .....   ... ...  ",
"   ... ...  .. ... ... ...   ",
"    . ... . ... ... . ...    ",
"     ... ... ... ... ...     ",
"      . . ... ... ... .      ",
"       ... ... ... ...       ",
"        ... ... ... .        ",
"         ... ... ...         ",
"          ... ... .          ",
"           ... ..            ",
"            .....            ",
"             ...             "};
