/* XPM */
static char * tina_xpm[] = {
"50 32 7 1",
" 	c None",
".	c #000000000000",
"X	c #FFFFFFFFFFFF",
"o	c #51445144FFFF",
"O	c #FFFF14514103",
"+	c #BEFBBEFBBEFB",
"@	c #D75CD34CD75C",
"                                                  ",
"                                                  ",
"                                                  ",
"                                                  ",
"     ..XXXXXXXXXXXX.                              ",
"   ..XXXXXXXXXXXXXXXX.                            ",
"   .XXXXXXXXXXXXXXXXX.                            ",
"   .X...............X.                            ",
"   .X.ooooooooooooo.X.                  ....      ",
"   .X.oOOOOooooooOo.X.                 .  ...     ",
"   .X.ooOOOOooooOoo.X.                .    ..     ",
"   .X.oooOOOOooOooo.X.                .    ..     ",
"   .X.ooooOOOoOoooo.X.      .    .         ..     ",
"   .X.oooooOoOOoooo.X.     ...  ..        ..      ",
"   .X.ooooOoOOOOooo.X.     ... . .        .       ",
"   .X.oooOoooOOOOoo.X.     . . . .       .        ",
"   .X.ooOoooooOOOOo.X.       ..         .         ",
"   .X.ooooooooooooo.X.       ..        .          ",
"   .X.XXXXXXXXXXXXXXX.      ...       .           ",
"   .XXXXXXXXXXXXXXXXX.   .  . . .   ..            ",
"    XXX...........XXXX   . .  ...  .........      ",
"    ......++++++.....    ..   ..   ........       ",
"   .XX.........XXXXXXX                            ",
"  .XX...........XX@@XXX                           ",
" .XX...@@@@@@@@..XX@@XXX                          ",
" .@@@@@@@@@@@@@@@@@@@@@.                          ",
" .......................                          ",
"                                                  ",
"                                                  ",
"                                                  ",
"                                                  ",
"                                                  "};
