/* XPM */
static char * xterm_xpm[] = {
"64 56 10 1",
" 	s none c none",
".	s bottomShadowColor	m black	c black",
"X	s iconGray1	m white	c white",
"o	s iconColor2	m white	c white",
"O	s iconGray2	m white	c white",
"+	s iconGray3	m white	c lightgray",
"@	s iconGray7	m black	c lightblue",
"#	c red",
"$	s iconGray4	m white	c lightgray",
"%	s iconGray5	m black	c gray",
"                                                                ",
"                                                                ",
"                                                                ",
"                                                                ",
"                                                                ",
"                    .........................                   ",
"                  ...XooooooooooooooooooooooO..                 ",
"                ...XoXoXoXoXoXoXoXoXoXoXoXoXoXO..               ",
"              ...XX+X+X+X+X+X+X+X+X+X+X+X+X+X+X+O..             ",
"              .XoooooooooooooooooooooooooooooooooO.O            ",
"              .oOOOOOOOOOOOOOOOOOOOOOOOOOOOOOOOOOO.O            ",
"              .oOOOOOOOOOOOOOOOOOOOOOOOOOOOOOOOOOO.O            ",
"              .oOO..............................OO.O            ",
"              .oOO.............................oOO.O            ",
"              .oOO..@@@@@@@@@@@@@@@@@@@@@@@@@@.oOO.O            ",
"              .oOO..@@@@@@@@@@@@@@@@@@@@@@@@@@.oOO.O            ",
"              .oOO..@@#######@@@@@@@@@@@@@#@@@.oOO.O            ",
"              .oOO..@@@#######@@@@@@@@@@@#@@@@.oOO.O            ",
"              .oOO..@@@@#######@@@@@@@@@#@@@@@.oOO.O            ",
"              .oOO..@@@@@#######@@@@@@@#@@@@@@.oOO.O            ",
"              .oOO..@@@@@@#######@@@@@#@@@@@@@.oOO.O            ",
"              .oOO..@@@@@@@#######@@@#@@@@@@@@.oOO.O            ",
"              .oOO..@@@@@@@@#####@@@#@@@@@@@@@.oOO.O            ",
"              .oOO..@@@@@@@@@###@@@#@@@@@@@@@@.oOO.O            ",
"              .oOO..@@@@@@@@@@#@@@###@@@@@@@@@.oOO.O            ",
"              .oOO..@@@@@@@@@#@@@#####@@@@@@@@.oOO.O            ",
"              .oOO..@@@@@@@@#@@@#######@@@@@@@.oOO.O            ",
"              .oOO..@@@@@@@#@@@@@#######@@@@@@.oOO.O            ",
"              .oOO..@@@@@@#@@@@@@@#######@@@@@.oOO.O            ",
"              .oOO..@@@@@#@@@@@@@@@#######@@@@.oOO.O            ",
"              .oOO..@@@@#@@@@@@@@@@@#######@@@.oOO.O            ",
"              .oOO..@@@#@@@@@@@@@@@@@#######@@.oOO.O            ",
"              .oOO..@@@@@@@@@@@@@@@@@@@@@@@@@@.oOO.O            ",
"              .oOO.............................oOO.O            ",
"              .oOO.oooooooooooooooooooooooooooooOO.O            ",
"              .oOOOOOOOOOOOOOOOOOOOOOOOOOOOOOOOOOO.O            ",
"              .OOOOOOOOOOOOOOOOOOOOOOOOOOOOOOOOOOO.O            ",
"              ....................................OO            ",
"               OOOOOOO......................OOOOOOO             ",
"                     ........$$$$$$$$$......O                   ",
"                ............%%%%%%%%%%%..........               ",
"               ..ooooooooooooooooooooooooooooooo.O              ",
"              ..oXXX.X.X.X.X.X.X.X.X.XXXX.X.X.XXo.O             ",
"             ..oXXX.+.+.+.+.+.+.+.+.+.+XXX.+.+.XXo.O            ",
"            ..oXXX.+.+.+.+.+.+.+.+.+.+.+XXX.+.+.XXo.O           ",
"           ..oXXX.+.+.+.+.+.+.+.+.+.+.+.+XXX.+.+.XXo.O          ",
"          ..oXXX.+.+.+++++++++++++++++.+.XXXX.+.+.XXo.O         ",
"          .+XXXXXXXXXXXXXXXXXXXXXXXXXXXXXXXXXXXXXXXXXX.O        ",
"          .$$$$$$$$$$$$$$$$$$$$$$$$$$$$$$$$$$$$$$$$$$$.O        ",
"          .$$$$$$$$$$$$$$$$$$$$$$$$$$$$$$$$$$$$$$$$$$$.O        ",
"          .............................................O        ",
"          .OOOOOOOOOOOOOOOOOOOOOOOOOOOOOOOOOOOOOOOOOOOOO        ",
"                                                                ",
"                                                                ",
"                                                                ",
"                                                                "
};
