/* XPM */
static char *arena[] = {
/* width height num_colors chars_per_pixel */
"    92    71        3            1",
/* colors */
". c #dcd1ba",
"# c #e6dac2",
"a c #d2c7b1",
/* pixels */
"#..##..##a##..aa#...#.#a###aa#a#.a..#.#.....a..#a.a#.###.#a..#a##..##..##a##..aa#...#.#a###a",
"#a.##aa.#.##.a####a##.aaaa.#a.#a##.a..a#a#.###aaa##a####a.#.#a#a#a.##aa.#.##.a####a##.aaaa.#",
"a#a.aa###.a#a#.a.aaaa#.a.#.#a..a###a...##a.a###..##.a####.a...#.a#a.aa###.a#a#.a.aaaa#.a.#.#",
"a#.#aa.#aa.a##aa#a.#a.aa#aa#a#..#a##aa.a#a..a#a#...#..#.aaaa#.aaa#.#aa.#aa.a##aa#a.#a.aa#aa#",
"#a##.##.#aa#.aa###.#aa#.#a###a#.a#.#aa.#a....aa.##...a.##.#aa##a#a##.##.#aa#.aa###.#aa#.#a##",
"aaa##a##.#a..#..#a#..a.aa.a..#.#aa###a#a.a#..##..##.##a###..a...aaa##a##.#a..#..#a#..a.aa.a.",
"aaa..a...a#.#a.a.#a#aa.###a#a#a#a#a#.#.#.a.#aaa###..aaa.a.##.###aaa..a...a#.#a.a.#a#aa.###a#",
"a#a..aa.a.#....a.a...a#aaaa..##a.#.a..aaa.a##.....###.a...#..aa#a#a..aa.a.#....a.a...a#aaaa.",
".##...a.aa#....#aa...###aa.a..a.#.#a...aaaa..aa#.#.a#..aa.###.#a.##...a.aa#....#aa...###aa.a",
"aa.a..aaa.aa#a....a.a#a#..##a.a..##.#a.aa..##a#a.aa...#.a##a.a..aa.a..aaa.aa#a....a.a#a#..##",
"#..a..aaa##.aa.a..aaa..a....##a.#.a.#.#.aa#.#a#.#a#.a##.a.##..###..a..aaa##.aa.a..aaa..a....",
"....##..#a..#....a##a.#a#aa.a.aa####a#.#a.a##aaaaa#a##aaa##.##a#....##..#a..#....a##a.#a#aa.",
"...#.##aa#.a.#a..a.#..a####a..a.aaa.aa....a.a#a#a##a.##aaa.##.#a...#.##aa#.a.#a..a.#..a####a",
"a...a#a.#.#.aaa..#a####.aa.a####..aa#a#aa#a##a...##a..##a#..#aa.a...a#a.#.#.aaa..#a####.aa.a",
"#a..a#a.a#.a#.#...a..#.##a###..#####.##.#..a#.##aaa###a####aa#.a#a..a#a.a#.a#.#...a..#.##a##",
"a.#a.##.aaa#aaa.a#.a#..#a##aa.aa#.aa.....##.#a##a#..a#a#.a.##.a#a.#a.##.aaa#aaa.a#.a#..#a##a",
"##.a##..#a.#a.aa#.#.aa.#a#a###.##.#aaaa.##....#a.#a.##.#.aa.a#.a##.a##..#a.#a.aa#.#.aa.#a#a#",
"#..a##a.####.a###aa.aa#aaa##a#.##aaa.##.#a.a.a#a#.#.....#.a#a.#.#..a##a.####.a###aa.aa#aaa##",
"aa..a..aa.##a.a##.#a#a.##a#a##aaaa.aa.#..a.a..##...#####aa#aa.a.aa..a..aa.##a.a##.#a#a.##a#a",
"a#a..a##a##aaaa##aa...#..aa..#.#.#aa.#.##a#aa#aaa..a#..a.#..aaaaa#a..a##a##aaaa##aa...#..aa.",
"a..#a..a##a.a###..a#.#a..#.a#a##.##a#..a.#..#.aaa.a.#.##.a.#.###a..#a..a##a.a###..a#.#a..#.a",
".#aa.#..#a#.aa#aaa#####...aaaa#a..a#..a#.#a...aa##a.aa#.a#.a#.a#.#aa.#..#a#.aa#aaa#####...aa",
"#a#a##.a.#aa###aaa.a.####...#..#aaaaaa..a..#a####.a..#aaa...a.a.#a#a##.a.#aa###aaa.a.####...",
"a.##.#aa#aa#a#.aaaa#..#a#.aa#aa##.#.aa#a.#aaa#aa#..a...aaa....#aa.##.#aa#aa#a#.aaaa#..#a#.aa",
".#..#a#####aaa.a..#.a####..a#aa.aa.a##.####a##aa#a##.a.a.aa#..a..#..#a#####aaa.a..#.a####..a",
"#..#.a#a.#a#.aa#a#aa....#a#..a##aa.a#..#a#..####.##.##.#a.#aaa#.#..#.a#a.#a#.aa#a#aa....#a#.",
"..a..#...#.a#.a.a#a.a#a##.a.#.#.aaa..aa.a.##.a##aaa.aa.a##.#aaa...a..#...#.a#.a.a#a.a#a##.a.",
"a#a.#....aaa#a#aaa.a#.#..a...#.#a##a..#a##.a#a...a#.#..###a##...a#a.#....aaa#a#aaa.a#.#..a..",
".a.#a.a.a#a..##a#.a#a...a.##a.#..a#a.a#aa#.aaa...##...#a#a####a..a.#a.a.a#a..##a#.a#a...a.##",
"a...#a...a###a#a#.#.####..#.##.#..aa..a.a##aa......a#.###.#a##.#a...#a...a###a#a#.#.####..#.",
"a#.#aa...a##.a#aa#.a#a##.#a#..a#.#.a#...#..a#aaaa..##aa#a#aaa.#.a#.#aa...a##.a#aa#.a#a##.#a#",
"#aa#aa#..a#.##aa.#a##.#..#a#.a#a#.a.##.##.a.###a.#a#..a##aa##.#a#aa#aa#..a#.##aa.#a##.#..#a#",
".a..#..a...#a###aa.###.a.a#.aaaa#..#a..a....#..aa#.#a##a##a#a##..a..#..a...#a###aa.###.a.a#.",
"..#a#a#.#a###.#.aaa#.aaaaa#aa#a.aa.aaaa#aa#.aa....a.#..a.#.#a##a..#a#a#.#a###.#.aaa#.aaaaa#a",
".#aaaa#.aaaa#.a.a.#a..aa.#aaa.aa.a.a#aaa#a.a#.a#.#..a#aaa.#a.a...#aaaa#.aaaa#.a.a.#a..aa.#aa",
"aa.aa.a..##.a..a#.a.a###.a##.###...a####..##aa#.###a.#aa#a#.a#.#aa.aa.a..##.a..a#.a.a###.a##",
"#aa...a##aa#a.a.#a.#.a#.#a#.##.a#.#aa.###aa.##..##.aa##aaa#.....#aa...a##aa#a.a.#a.#.a#.#a#.",
".#.a.aaa####..##a.###aaa...a.##.#a##..#aa.a#.##aa.#.a.#.aa.a.a...#.a.aaa####..##a.###aaa...a",
"#a#.##a#..a##a###aa#a#..a#a.#.##a.aaa..aaa#.a..a#aa#...aa.aa.a.a#a#.##a#..a##a###aa#a#..a#a.",
"a...#.#..#.#.##a..#a#a#.a.###.#...aa..##..a.a....a...aa##a#.aa##a...#.#..#.#.##a..#a#a#.a.##",
".a.aa#a..aaaa##.a#a.#aa.a..###.#.aaa#a###.a.#a#.##.#.#.#a##aaaa#.a.aa#a..aaaa##.a#a.#aa.a..#",
"#..#.a.#.###...#aa.#..#aa##a#a#a###.#......#..a#.###a...a..###a##..#.a.#.###...#aa.#..#aa##a",
".#aaaaaaa.#.#..#...#....#aa#a##..aaa..####..#..aa.##.aa..a.a#....#aaaaaaa.#.#..#...#....#aa#",
"..#aaa.#a.##aaa.a#..a##a.a##.aa#a#aa.#aaaa.#.aaa#.aa.a#a.a##a#aa..#aaa.#a.##aaa.a#..a##a.a##",
".aa#aaaa.a.#aa##aaa#aaa#.###.#a#aa##.aa#a##.a#####..a#a#a#a#.a#a.aa#aaaa.a.#aa##aaa#aaa#.###",
"aa.##a.#..####a##.a..a##aa##....a#a#a#a..aaa.aa.###a#a.a#.a.#.a#aa.##a.#..####a##.a..a##aa##",
"#.##a.#.#...a.a.##a##a.##.##.a#a#a##a#..#...##..#a#a.a##aaaaa#..#.##a.#.#...a.a.##a##a.##.##",
".a#aaa#a##.aa#..aa##.#a..##a#a.#a#.#..#...aaa#.##.##aa##a##...##.a#aaa#a##.aa#..aa##.#a..##a",
"#aaa.a.a.aaaaa#a.a.###.##aa.#.#a###a###.##.##.a##.aaaa##aa...#a.#aaa.a.a.aaaaa#a.a.###.##aa.",
".a#.a.aa#.a#.#.#a##.a..#....a.a.#.a..#aa#.##.a...#a.#aa#.a##a..a.a#.a.aa#.a#.#.#a##.a..#....",
"..aa##..a.aa.aaaaa#aa..aa#a#aa....a...#..#a.##.a.aa#aa..#a#.#..#..aa##..a.aa.aaaaa#aa..aa#a#",
"...#a.#a#a###a...a####.a..##a.aa##aa#.##.a.#.###a#.##a.aaaa.#.#a...#a.#a#a###a...a####.a..##",
"#a###a.#aa...a#a.a.##.a..a#a#...#..##.#.aa.#aa#a..#aa.aa..aa###.#a###a.#aa...a#a.a.##.a..a#a",
"##.a..aa.a#aa.a#.a.#....#####.a#######.#.a###.a#.a##a.#a#.##aa..##.a..aa.a#aa.a#.a.#....####",
".a####.....###a#a#.a#aa#a##.aaa#.a##.a.#aa#.##...a##.a#a#.a.a#a..a####.....###a#a#.a#aa#a##.",
".#a..#.a..aaa#.a##a##.#aa##....a.a..a..#a.a#.aa.#...#a..##aa#a.#.#a..#.a..aaa#.a##a##.#aa##.",
"aaa.aa.a#.#.##.a.#a##aa..a####a.a..#aa#aa.#a.a.##..#a.aa.##.a.#.aaa.aa.a#.#.##.a.#a##aa..a##",
"##.##.aa.aaa.a..aaa#a#aaa##aa#a.##aaa#a#..###aa.#a##a.#..aaa.#..##.##.aa.aaa.a..aaa#a#aaa##a",
"..#.#a.##.aaaa.aa.#a#a#.##a##.a###...a#.aa#.a.aa##a#..aa..a.#.a#..#.#a.##.aaaa.aa.#a#a#.##a#",
"##..#####a##a##.a.aaaa..##a#...a.aaa##a.####a.....a..aa#aa#a..a.##..#####a##a##.a.aaaa..##a#",
"a#a#..a.####a.#..##a.##a.#a.a.a#aaa#a##a.#.##.a##a#a#aaa.#.aa#.#a#a#..a.####a.#..##a.##a.#a.",
".#.a###aa..a#a##a##a#aaaa..#a..a#a#.#####.##.a#.a###a.##.aa#..##.#.a###aa..a#a##a##a#aaaa..#",
".a#.a.##a#.a#.a...#a...#.a.##aaa..a####.##a##a.#.#.#.a#..a...aa..a#.a.##a#.a#.a...#a...#.a.#",
".##aaa#.a#.a####.#aa#a##.aaa#.a#a.a###......#..a..#.aa#.a.a##a##.##aaa#.a#.a####.#aa#a##.aaa",
"#..##..##a##..aa#...#.#a###aa#a#.a..#.#.....a..#a.a#.###.#a..#a##..##..##a##..aa#...#.#a###a",
"#a.##aa.#.##.a####a##.aaaa.#a.#a##.a..a#a#.###aaa##a####a.#.#a#a#a.##aa.#.##.a####a##.aaaa.#",
"a#a.aa###.a#a#.a.aaaa#.a.#.#a..a###a...##a.a###..##.a####.a...#.a#a.aa###.a#a#.a.aaaa#.a.#.#",
"a#.#aa.#aa.a##aa#a.#a.aa#aa#a#..#a##aa.a#a..a#a#...#..#.aaaa#.aaa#.#aa.#aa.a##aa#a.#a.aa#aa#",
"#a##.##.#aa#.aa###.#aa#.#a###a#.a#.#aa.#a....aa.##...a.##.#aa##a#a##.##.#aa#.aa###.#aa#.#a##",
"aaa##a##.#a..#..#a#..a.aa.a..#.#aa###a#a.a#..##..##.##a###..a...aaa##a##.#a..#..#a#..a.aa.a.",
"aaa..a...a#.#a.a.#a#aa.###a#a#a#a#a#.#.#.a.#aaa###..aaa.a.##.###aaa..a...a#.#a.a.#a#aa.###a#"
};
