/* XPM */
static char * background5_xpm[] = {
"128 128 10 1",
" 	c #292908083939",
".	c #1C1C07072424",
"X	c #212108083131",
"o	c #393910104A4A",
"O	c #424210105252",
"+	c #525218186B6B",
"@	c #5A5A1E1E7171",
"#	c #6D6D2A2A8888",
"$	c #636321217C7C",
"%	c #424218185A5A",
"     ........  X......    ooO+@###$++%%OOO%%++@##@%oo   oooo   oo%%%%%%Ooooooo%$#@%oooooooooooooooo%%Oo X.X     oo%++@$####$+%oo",
"     ........  X......     o%+$###$@+%%OOO%%+@##$+Oo    ooo    oO%%+%%OoOO%ooo%@$+OO%%%oooooooooo oo%%o  ..X     oO%+@$#$###$+%o",
"     X.......   ........X  o%+$###$++%%O%%%++###+%oo     oo   oo%%+%%ooo%%%OoO+@@%OO%+%%Ooooooooo  ooOOo  XX     oo%+@$$$####$+o",
"o     .......   X........ oo%+@$##@++%%%%%%+$##@%Ooo          oO%++%Oooo%+%ooO+@+%O%+++%%ooooooo    oO%oo         oO+@########+O",
"o     .......X      X.... oO%++@#$@++%%%%%+@##@+%ooo         oo%+++OoooO%+%oo%@@+%%%+++%%Ooooooo    oo%Ooo     oo oo%@$###$$$#@%",
"o  XXX.......X      X.... ooO%+@$@+++%%%%++$#$+%ooo         oo%+++%oooo%%%%oo+#$+%%%+++%%Oooooo      oo%Ooo   ooo  o%+@#$$@@@#$+",
"O  XXX.......  oooo X.... ooo%+@@++%%%++++$##@%OoooooooooooooO%++%Oo oO%%OooO+#$+%O%%++%%%Oooooo     ooO%Oo   ooooooo%+@@@++@$$+",
"%o  X........X oooo X...    oO+@@+%%%%+++$##$+%oooooooooooooO%%+%oo ooO%OoooO@#$+%OO%%%%%%%OOooo     ooo%%o   oooooooO+++++++$$+",
"%oo  ........  oooo         oO++++%%%%++@###+%%ooooooooooOO%%%%%Ooooooooo  o%@#$+%OO%%%%%%%%%%Ooo ooooooO%oo  oooooooo%+++++@$$+",
"%Oo  ...X....   ooo      .X oO+++%%O%%+@###@+%OoooooooO%%%%%%%%Ooooooooo   o%@$$+%%OO%%%+++++%%oooooooooO%Oo  ooO%Oooo%%++++@$$+",
"+%o  X..XX..X    oooooo  X  o%++%%%%%%+$##@+%%%OooOOO%%%%%++%%Ooooooooo   oo%@$@++%OOO%%++++++%oooooOooO%%Oo  oO%%%oooO%++@@@$@+",
"+%oo X..XXXX     oooooo  X  o%+%%O%%%++$$@+%%%%%%%%%%%%%%+++%Ooooooooo    oo%@$@+++%OO%%+@@$@+%oooO%%%%%%%Oo  oO%%%OooO%++@$$$@+",
"%Oo  X.....X    ooooooo    oo%%%OOO%%+@$@+%%%O%%%+++%%%%%%+%Ooooooooo     oo%@$@+++%%O%++$$$$+%ooo%+++++++%o  oO%%%OooO%+@$$$$@+",
"%oo  X.....X   ooooooo     ooOOoooO%%@$$+%%OOO%+++++%%%O%%%%oo  oooo      oo%+$@+++%%%%+@$##$+%ooO+@@@@+++%o  oO%%%Ooo%%+@$$$$@+",
"%oo  X......  ooooooo o ooooooooooO%+@#$+%%OO%%+@@++%OOO%%%oo   oooo      oo%+@@+++%%%%+@###@+Ooo%+@@@@@@+%ooooo%%%ooo%+@$$#$$@+",
"Oo   X......  ooOOoo  ooooOoooooooO%+@$++%%O%%++@++%%OO%%%ooo   oo      oooo%+@@@++%%%%+@###+%ooO+@@++@@@+%oooooO%Oooo%+@$##$@+%",
"oo   X......  oo%Ooo  oooOOoooooOO%++@++%%%%%++@@++%%%%%%%oo         ooooooo%++@@++%%%%+@$$@+ooo%+@++%+++++%oooooooooo%+@$##$@+%",
"oo    X.....   o%%oo  oo%%OoooooO%+++++%%%%%++@@@@++%%%%%Ooo        oooooooo%%++@++%%O%%+@@+%ooo%+++%%%++++%Oooooooooo%++$##@++O",
"o      XXXXX   o%%oooooO%%oooooO%++@++%%%%++++@$@@+++%%%%Ooo       oooooooooO%++@+++%OO%++++%ooo%++%%%%+++++%ooooooooo%++$#$@+%o",
"o          X   o%Oooooo%+%ooooo%++@@+%%%%++++@@@@@++++%%%oooo   oooooooooooooO%+++++%OOO%%%%oooo%%%OOO%%+++++%oooooooO%++$$$++%o",
"o             ooooooooO%+%ooooO%+@@+++++++++++@+++++++%%%OoooooooooooooooooooO%+++++%%OOO%%oooo%+%OoooO%++@@++%OOOOO%%%++$$@+%Oo",
"             ooooooooo%++%oooo%+@@++++++++++++++++++++%%%%%Oooooooooo   oooooo%%+++++%%OOoooooO%+%ooooo%++@$$@++%%%%%%++@@@+%Ooo",
"            oooooooooO%++%OoO%++@++%+++@@@+++++++++@++%%%%%%%OOoooooo     oooO%%%++++%%%%OOoOO%++%ooooo%+@$#$$@++++++++@$@+%%ooo",
"          oooooooooooO%+++%%%+@@++%%++@@$@+++%%+++@@++%%%%%+%%%Ooooo      oooO%%%%%+++%%%%%O%%%++%oo  oO+@$#$$$$@+++++@$$@%%oooo",
"         ooooooooooooO%++++++@$@++%+++@$$@+++%%++@@@++%OO%%%%+%%ooo    X  ooo%%%O%%%+++++++%%%+++%oo  oo%@#$@@@$$$@+@@$$@+%ooooo",
"     X   ooooooooooOOO%%+++++@@++%+++@$$$@++%%%++$$@+%%ooO%%%++%oo   XXX   oO%%ooo%%+++++++++++++Ooo  oo%@#$++@$#######$+%Oooooo",
"        ooo    oooOOOOO%%%%++++++++++@$$@@+++%++@$$@+%OoOOO%%++%oo  X.X.   o%%OoooO%+++++@@@@@@+%Oooo oo%+$$+++@######$@+%oooooo",
"        oo      ooO%%OOooOO%%%%%++++@@$$@@+++++@$$@+%%OoooO%+++%o  .....X  o%%ooooo%+++@$$$$$$@+%ooooooo%+@@+++@$####$@+%ooooooo",
"       ooo      ooOOOoooooooooO%%++@@$$@@@@+@@$$$@++%%%O%%%+++%Oo  X....   o%Oooooo%%+@$$$@@@++%%Ooooooo%++@+++++@@@+++%Oooooooo",
"       oo  XXX   ooOoooo  oooooO%++@@$@@@@$$$$$$@++%%%%%%++++%%oo  X....   oOooooooO%+@$@++++++%%OooooooO%++++++++%%%%%OOooooooo",
"o     ooo  XX.   oooooo    oooO%%+++@@@@$$$##$$@+++%%%%+++++%%Oooo  XXXX   ooooooooO%+@@++%%%%%%%%Ooooooo%++++%%%%%OOOOOOOoooooo",
"o    oooo  ...X             oooO%%++++@@$###$@@++++%%%++@@++%Ooooo         ooooooooo%+@++%OoooO%%%%OoooooO%++%OooOO%%O%%%OOooooo",
"o    oooo  X...X           oooOO%%%%+++$##$$@@+++++++++@$$+%%OOoooo       ooo    ooo%+++%OoooooO%%%%oooooo%+%OoooO%++%%%%%Oooooo",
"o    oOoo  X....X          ooOOOOOO%%++$$#$@@+++++++++@$$@+%%OOOooooo    oooo     oo%+++%ooooooo%%%%Oooooo%+%oooo%+++++%%%OOOOoo",
"o   ooOo   XX.XX   ooooo   oo%%OOooo%++@@@@@++++++@+@@$$$@++%%%%Ooooooooooooo     ooO+++OoooooooO%%%OooooO%%oooo%++++++%%%OOOOOo",
"oooooooo  XXXX    oooooo   oO%%OooooO%++++++++++@@@@$$#$@@+++%%%%%Ooooooooooo  X   oo%+%oooooooooOOOooooo%%Ooooo%+++++++%%OOOOOo",
"ooooooo  XX.    oooOOooo  ooO%%%ooooo%++++++++++@@$$$###$@+++++++%%ooooooo%Oo  XX  oo%+%ooooooooooooooooOOoooooo%+++++++%%OooOoo",
"oooO%Oo  ...  ooo%%%%oo   ooo%%OoooooO%%%%%+++@@@$$######$@+++++++%OoooooO%%o XX    o%%Oooooooooooooooo%%Oo   oo%%++++++%%Oooooo",
"ooO%+%o X...  oO%++%%oo   oooOOOooooooOOO%%+++@@$$$$#######$@++++%%Oooooo%%oo       o%%OooooooooooooooO%Ooo    oo%%++++%%%Oooooo",
"ooO++%o X.XX oo%++++%oo   oooooOoooooooooo%%++@@$$$$$$$$###$@+++%%%Ooooo%%Oo       oo%%oo oooooooooooO%%oo      oO%%++%%%Ooooooo",
"oo%++o  XX   oo%++++%oo   ooooooOooOOoooooO%++@@@@@@@@@$$###$++%%OOOooo%%%o        o%+%OooooooooooooO%%Oooo     ooO%%%%%Oooooooo",
"oO%+%o      ooo%++++%oo   oooooooooO%oooooo%%++@@@@++++@$###$++%OooooO%+%o        oo%+%%oooooooooooO%%Oooo       oo%%%%Ooooooooo",
"o%+%oo    ooooo%%++%%oo    ooooOOOO%%OoooooO%%+++++++++@$###$+%Oooooo%+%o    oo   oO+++%OoooooooooO%+%oooooo      ooOOOooooooooo",
"o%+%o    oooooo%%%%%Ooo    ooO%%%OO%%OooooooO%%+++++++++$###@+%OooooO%%o   oooo   o%+++++%OooooooO%++%Ooooooo       oooooooooooo",
"%+%Oo   ooooooO%%%%%Ooo    oo%%%%OO%%OooooooooO%%%+++++@$###@+%OoooO%Oo   oooo   oO%+++@++%%OooooO%%%%%Oooooo        ooooooooooO",
"++Oo    oooooooO%%%%Ooo    oo%%%%OOOOOooooooooooO%%%+++$###$++%OOoO%%o   ooOoo  oo%++++++++%%ooooO%%%%%%%Oooo        oooooooooO%",
"+%o     oooooooO%%%%Ooo    oO%%Oooooooooooo   oooO%++@@####@+%%%%%%%O   ooooo  oo%+++%%%++++%%OOOO%%%%%++%Ooo    ooooooooooooO%+",
"%oo     oooooooO%%%%Ooo  X o%%oooooooooooo    oooo%++$####$@+%%%%+++o   oOOoo oo%+++%%%%%+$@+%%%%%%OOOO%+%Ooo  oooO%%OOoooooO%++",
"ooo     oooooooOO%%%Ooo  X o%oo oooooooooo ooooooo%+@#####$@+++%+@$%o oooOo   o%+++%%OOO%+$$+++%%%OooooO%%OoooooO%+++%%OOoOO%++%",
"oo       oooooooO%%Ooo  XX ooo    oooooooooooooooo%+$####$$@@+++@$@%o ooooo  oO+++%OoooO%@#$+++%%%oooooo%%OoooO%%%+++++%OO%%%%%o",
"o       oooooooooOOOoo     oo      oooo  ooooooooo+@$#$$##$$$@@$$@+ooooooo   o%++%OooooO%@##@++%%OoooooO%%Ooo%%%%%O%%+++%%%%%ooo",
"         oooooooooooooo   oo   X          oooooooO+@$@@@########$+%oo ooo   oo%%%OoooooO+$##@++%%OoooooO%%%%%%%%OooO%++++%%oo   ",
"         ooooooooooooooooooo X..X         ooooooo%+@@+@@$#######@+%oooooo  oooO%OooooooO+$##@++%%OooooO%%%%%%ooooooo%%++%Oo     ",
"         oooooooooO%%%OOOOoo ....X         oooooO%+@@@@@$$#####$@+%ooooooooooooooooooooO+##$++%%%OOooO%%%%%oooo ooooO%%%Ooo  X  ",
"          ooooooO%+++++%%%o X.....XX          oo%++@@@@@@@@@@$@@++%%Ooooooooooooooooooo%@#$@+%%%%%%%%%%%%Ooo    ooooOOoooo  X.X ",
"           oooo%+@@@+++++%o ........XX        oo%+++@++++++++@@+++++%%OOooooo   ooooooO+##@+%%%%%++++++%Ooo      oooooooo  XX.X ",
"           ooO%+$$$@+++++%o ........X        ooo%%+++++++++++++++++++++%%Ooo    oooooo%$#$+%%%%%++@$@++%o        oooooooo   XX  ",
" XX       ooO+@$$$@++%%%%Oo ........X        oooO%%%+++%+++++++++++@@@++%Oo    oooooo%@#$+%%%%%++$##$@+oo        oooooooo   XX  ",
" XXX    oooO%@$$@++%%OOooo  ........X  oooooooooooO%%%++++++++@+++@@@@@+%Oo   oooooo%@$@+%%%%%++$####@%o    oo   oooooOOoo  X   ",
" X..   ooO%%++@++%%%Ooooo  X........  ooooooo oooooO%%+++++@@@@+++@@@$@+%Oo   ooo o%+@++%%%%%++$#####@%o    ooo  ooooO%%Oo  XX  ",
"  XX   oo%++%%%%%%%Ooooo   X........  ooOOooo   oooO%%++++++@@@+++++@@++%oooooo ooO+++%OOO%%++$#####$@%oo   oooooooo%%++%o  XX  ",
"      ooO%%%OOoooooooooo     .......  oO%%ooo    ooo%++++++++@++++++++++%oooo ooo%++%OoooO%++@######@+%ooooooooooooo%+++%o  XX  ",
"     oooooooooooooooooooooo  X.....X ooO%%Ooo    ooO%++%%%%+++++%%%++++%Oooooooo%++%oooooO%+@$#####$@+%OooooooooooO%%+++%oo     ",
"     ooooooooooooooO%%%%Ooo  X....X  oooOOOOooo ooo%%%%ooo%%+++%%%%%%%%OOooooo%+++%ooooooO++$######@++%OooooooooO%%%++++%oo     ",
"o           ooooooO%++++%Ooo X...X  ooooOO%%OoooooO%%%oooo%+++%%OoOO%%OOOooO%%+++%ooooooo%+@######$@++%%Oooooooo%%++++++%oo   oo",
"o            ooooO%++@@@+%oo ...X  oooooo%%%%%OooooOooooooO%++%OooooOOOooO%++@++Ooooooooo%+@######$@+++%%ooooooO%++@+++%Oo  oooo",
"o            oo%%%+@$#$$+%o  ...  ooooooO%%%OoooooooooooooO%++%ooooooOOOO%+@@+%oooooooooO%+$#######$@+++%%oooooO%++@@++%oooooO%O",
"o            o%+++$#####+%o  ... oooO%%%%%Oooooo    oooooo%%%%OoooooooO%+++++%oooooooooo%%+$#######$@+++%%%oooo%+++@++%OooooO%%O",
"oo          oO++$######$+%o  ..X ooO%%++%Oo         ooooO%%%OooooooooO%+++%ooooooooooooo%++$#######$$@+++%%OooO%%+++++%OoooO%%Oo",
"oooo     X  o%+$######$@+Oo X..X oo%++++%o  X...X   oooO%%%%ooooooooo%%+%%ooooooOOOooooo%+@$########$@++++%%OOO%%++%%%%OO%%%%Ooo",
"oooooo     oO+$######$++%oo X.X  oo%+++%oo  X....X  ooo%%+%%Ooooooooo%%Oooo  ooOO%OooooO%+@$########$@@++++%%O%%%%%%OO%%+++++Ooo",
"ooooooo    o%@######$++%oo  X.X  oO+++%Ooo   X....  ooo%%+%%Ooooooooooooo   oooO%%OooooO%+@$########$$$$@@++%OOOOO%%%%++@#$@+Ooo",
"ooooooo   oO+$#####$+%%ooo  X..  o%%%%ooooooo  ...  ooO%%%%%Oooooooooo      oooOO%OoooO%%+@$############$$@+%%OoOO%%++@$###$+%oo",
"ooooooo   o%+#####$+%Ooooo  X..  o%%Oooooooooo ...  oooOOO%OOooo  o         ooooOOOoooO%%+@$$$$######$@@@$$@+%%O%%+@$######$+%Oo",
"ooooooo   o%+$###$+%%oooo   X.. oOOooooooO%Ooo X..  oooooooooooo     XX.X   oooooOooooO%%+@$$$$#####$++%+@#$+++%++$########$++%O",
"%oooooo   o%+@$#$++%ooo      .. oOoo  oo%%%%Oo  XX  ooooooooooo   X......X   oooooooooO%%++@$$$$###$@+%%%+$$@++@#####$$$##$$@++%",
"%OOooooo ooO%++@++%Ooo      X.X ooo  oo%%++%%oo      oooooooooo  X.......X    ooooooooO%%++@$$$$$$@++%%O%%+@$$$###@++++@$$##$@+%",
"%%OOooooooooO%+++%%ooo     XX. ooo   oO+++++%oo           oooo  X........X    oooooooooO%++@$@@@@++%%OOoO%++$$$##@+%%%++@$##$@+%",
"%%%%%OOooooooO%%%%Ooooo    ..X oo   oo%+++++%oo            oo   X........X     ooooooooO%++@@@+++%%OoooooO%++@+++%%%%%++@$###@++",
"%%%%%%++%OoooooOOOooooo   X..X oo   oO%++@++%Oo                 .........X     ooooooooo%++@@++%%OooooooooO%%%%%OoOOO%%+@$###@+%",
"%%%+++@@+++%Oooooooooooo  ...Xoo   oo%%+++++%%oo                X........X     ooooooooo%+@@++%%Oooo  ooooooOOooooOoOO%+@$##$@++",
"%%+@$$$@@@@+%Ooooooooooo  ... o X oo%%++++++%%ooo                X.......X      oooooooo%+$@+%%ooo     oooooooooooOooO%++$$$@@++",
"++@###@++@$$+%Ooooooooooo X.. o . o%%+++++++%%Ooo   oo           XX.......XX    oooooooo%@$@%%Oooo     oooooOO%%%%OooO%++@@@@+++",
"+@###@++++@#$+%ooooooooo        . o%++%%%%%%%%Oooo  oo          X...........X   oooooooO+@@+%Oooooo     oooO%%%%%%%oooO%++++++++",
"@###++%%%%+$#$+%ooooooo    ooo    o%+%%OOOO%%%Ooooooooo       .......X.......   ooo  oo%++++%ooooooo    ooO%%%%%%%%oooO%%+++++++",
"###@+%OOO%+$##+%Ooooooo   ooOo X oo%%%OoooooOOOooooooo       .......XX........       oo%+++%Oooooooo    ooO%%+++%%OoooooO%%%%%+@",
"##@+%OOoOO%+$#$+%%OOooooooO%%o   oo%%Oooooooooooooooooo     X.......X X.......X    oooO++++%OoooOoooo   oooO%%%%%%OOoooooOO%%%+#",
"#$+%OOOOOO%%+$#$+%%%%OOoO%++O    oooooooooooooooooooooo  oo ........  X.......X   oooO%++++%OoooOOooo    oooO%%%%%OooooooooO%+@#",
"++%%OO%%%%O%+@##@++++%++++++o     ooooooo oooooooooooooooo X........   ......   oooO%%%++++%OooO%Oooo     ooo%%%%%%OOooooooO%+@@",
"%%%OO%+++%%O%+$##$@@@@@@@@+%o        oo     ooooooooooooOo .........  X.....X ooooO%%%%+++%%oooO%%oo       ooo%%%%%OOOoooooo%+@+",
"OoOO%+++++%%O%+$###$$##$@+%%oo         oooooo     ooooo%%oX.........  .....X ooooooO%%%+++%OoooO%%oo        ooO%%%%%%OOooooO%+++",
"ooo%++@@@@+%O%++$#####$@++%%Ooo       ooooooo      oo%%+O ..........  ...X  oooooooo%%%+++%OoooOOOo          oo%%+%%%OoooooO+++%",
"ooo%+@$$$$++%%%++@$$$@+++%%%%Oooo    oooooooooo   ooo%+%o .........   X.X oooo    oooO%%+%%Oooooooo     oo    o%%++%%OoooooO+++O",
"ooO+@$###$@+%%O%+++++++%%%+++%%Oooooooooooooooo   oo%++%o .........       ooo  X  oooOO%%%Ooooooooo   oooo    o%%+++%Oooo oO++%o",
"oo%+@#####$++%OO%%++++++%+++++++%%Ooooooooooooooooo%++%o  ........X oooo          oooOoooOOooooooooooooooo    oO%+++%Oooo oO++%o",
"oo%+$#####$@+%%OO%%%%%%%+++@$$$@++%%OoooooooooooO%%%%Ooo X........X oo   .....X   ooooooooooooooooOOOOoooo  X  o%++%%oo   oO++Oo",
"o%+@$######@++%OOO%%%%%+++@$###$$@++%OooooooOO%%+++%ooo   .........    X......X  oooooooooooOO%%%%%%%%%ooo  X  oo%%%Ooo   o%+%oo",
"o%+$$######$++%%OOOO%%%++@$#####$$@+%OooooooO%+@++%oo     X..........XXX......   oooooooooo%%+++++++++%Ooo  X.  ooOOooo   o%+%oo",
"O%+$$$$####$++%%OOOO%%%++@####$$$$$++%OooooO%+$$+%ooo      X..........X   X...  ooooooooooO%+++%%++++++%ooo  ..  oooooo  oo%+ooo",
"O++@@@@$$#$@++%OOOO%%%%++$###$$$$#$@+%OoooO%+$@+%Ooo  oooo  X........X     ..X  oooooooooo%+%%%OO%%+++++%oo  X..  ooo    oo%%o o",
"o%++++++@@@++%%ooO%%%%%++$###$$$$#$@+%%OO%%@$$+%OO%oooooOoo X.......X  oo  X   oooooo ooo%+%OoooooO%%+++%%oo   XX       ooO%Oo  ",
"oO%+++++++++%OoooO%%%%%++$##$$$$###@++%%++$#$+%%%%%ooo%%Ooo X.......  ooo     oooo    ooo%%%ooooooooO%%%%%%oo   X    X  oO%%o   ",
"oooO%%%%++%%OoooO%%%%%%%+@###$$$###$@+++@##$+%%%++%Oo%+%oo   .....X   oo     oooo     ooo%%OoooooooooooOO%%Ooo     XXX  o%+%o   ",
"  oooOO%%%%ooooooO%%OO%%+@$##$$$#######$$$@+%%%+++%O%++%oo   .....         ooooo      ooO%%ooooo    ooooooOOOooo   XX.  o%+%o   ",
"    oooO%OoooooooOOOOOO%++$##$$$########@+%O%%+++%%%+++%ooo  ....      X  oooooo      oo%%%oooo       oooooooOOooo   X  o%+%oo  ",
"      oooooo  ooooooOoOO%+$##$$$$#####@+%%%%%+++%%%%+@+%ooo  ...     X..  ooooo      ooo%%%Ooo           oooooO%Ooo     oo%%Ooo ",
"oo     oooo    oooooOOO%%+$##$$@$$$$@++%O%%++++%%%%+$$+%OOo  ..X    X..  ooooo      oooo%%%Ooo    ooo     ooooo%%%oo     oO%%Ooo",
"Ooo  X  oo        oooOO%+@$##$@@@@@+%%%%%%+++%%O%%+@#$@+%%O X.X    ...  ooooo      oooooO%%Oo    ooooo      oooo%%%oo    ooOO%O%",
"%Oo  XX           oooo%%+@###$@@+++%%%%++++++%OO%++$##$++%O  X    XX  oooooo      oooooO%%%Oo   oooOoooo    ooooo%%Oo      oooO%",
"oOoo XXX           ooO%++$###$@+++%%%%++@$++%O%%++@$###$@+Oo XXX XX  ooOooo   XX  ooooO%%%Ooo   oooOOOooo   ooooo%%%oo       ooo",
"oooo  X.XXXX      ooo%++@$###$@++%%%%+@$$@+%%%%+++@@$###@+Oo   X   ooO%%Ooo  X.X  ooO%%%+%ooo   oooO%%Ooo   oooooO%%Ooo  XXX    ",
" ooo  X......X   ooo%++@$#####$++%%%+@##$@+%%%++@@@@@$$$@+Ooo     oo%%%%Oo  X...  ooO%+++%oo    oooO%%%%oo   oooOO%%%oo X.....  ",
"  oo   .......  ooO%++@$$$####$++%%+@###$+%%%++@@@+++@@@++%ooooooo%%%%%%Oo  X...  oo%+++%Oo     oooo%%%%Ooo  ooO%%%+%Oo X......X",
"X  o   .......  o%+++@$$$$$$###+%%++####@+%%%+@$$@+++++++%%%%O%%++++%%%%Oo  X...  oO%++%Ooo      oooO%++%Oo  oo%%%+++Oo X.......",
".      X...... oo%+++@$$@+++@##+%%+$####@%O%+@$$$@+++%%++%+%++++@++%%%++%oo  .XX  o%+%Oooooo      ooO%++%Oo  oo%+++++Oo  .......",
"..  oo   ....X oo%%%+@$@+++++##+%%+####$+%O%+$$$$@++%%%%%+++++++++++++++%oo  XX  oo%%%ooooooo      oo%++%Oo  oO%+@$@+%o  X......",
"...       X..  ooooO%+@+%%%%+##+O%@####@+%%+@$$$$@+%%OOO%+@@+++++%+++++++%oo     oO%Ooooooooooo XX  o%%+%ooo oO%+@$@+%oo   X....",
"....X      XXX    oo%++%OO%%+$#+O%$###$+%%%+@$$$@++%%ooO%+++++%%%%+++++@++%o     o%%ooo ooooOOo  .X oo%%Ooo ooO%+@$@+%Oooo   X..",
"......X   X....X  oO%%OoooO%+$$+%%$###@%%%++$$$$@++%OooO%%%%%%%%%%++++@@@++Oo   oO%%ooooooo%%%Oo X.X ooOooo ooO%+@@@++%%Ooooo X.",
"................  ooooooooo%+$@%%+@#$@+%O%+@$$$$++%%OOO%%OooooO%%%+++++@@@+%%oooo%%%oooooO%++++OoX..  ooooo  oo%+@@++++++++%oo .",
"................ oooo   ooO+@$+%%%+@@++%%%+@$$$@++%%%%%%oooooooO%%+++++++++++%OO%%%OooooO%+++++%o ..X   ooo  oo%+@@@++@@$@++%o .",
"...............  oo  X   oO+#$+%O%+++%%O%%+@@@@++%%%%%+%o    ooO%%+++++++++++++++%%%OO%%+++++++%o X...X       oO+@$$@@$$$@@@+o .",
"...............     X..X o%@#$+%O%%%%%OO%+++@@++%%%%%++Oo    ooo%%%++++++++++++++++%%%++++%%%%+%%o ....X      oo%@$$$$$@@++@+o .",
"..............X   X..... o%@$@+%OO%%%OO%%+++++++%%%%++%o      ooO%%%+++++%%%++++++++%%%%%%OOOO%+%Oo ....X     oo%+@$$$@@++@@+o X",
" X............   ......X o+++++%%%%%%%%%%%++++++%%%+++Oo      ooO%%%++++%%%%%%%++@@+%OoooooooOO%+%o  ....     oo%++@@@++@@$$+o  ",
"  X..........X  ....... oO%%%%+++%%%%%%%%%%++++++++++%oo       ooO%%+++%%OooO%%+@@+%Ooooooooooo%%+%o X....     oo%++++++@###+o  ",
"   X.........   ....... oooO%%++++++%%%%%%%%+++++++%Oooooo     ooO%%+++%%ooooO%+$@+%ooooooooooooO%%%o  ...     ooO%+++@@$###+Oo ",
"    .........  X......X ooooO%+@$$@++%%%OO%%+++@$$+Oo   ooo    ooO%%++%%oooooo%@#@%Ooooooooooooooo%%Oo ...X     oo%+++@$###$+%oo"};
