/* XPM */
static char *blue7mrb[] = {
/* width height num_colors chars_per_pixel */
"    64    64       14            1",
/* colors */
". c #00006a",
"# c #00356a",
"a c #00356a",
"b c #002d87",
"c c #002d87",
"d c #002d87",
"e c #0029a5",
"f c #0029a5",
"g c #0027c3",
"h c #004ec3",
"i c #004ec3",
"j c #004be1",
"k c #004be1",
"l c #004be1",
/* pixels */
"dcbfeedbbcdefeeedcdfc#bca#adfggdbbcee###...###effdbabhjeccb###ac",
"debcdefca#bddddeeecccba#bccdeeffedabeecb#..#abdghdb##chfdcdb#abb",
"#cdbcdefb#acddcbcdecbcbabccdgecdeffbbeggda##abdfgfddcacfeccdbbcb",
"b#abbbcdfcabdddccbcedddcbcddffdcdhigbcfhfdaba#aeeffefdabebacdcbd",
"dbbbaaccdecbdedddcbdfeedccccddefeghedcdfggdb#.#dffecddb#bd##bb#a",
"bcbabaabdefdddeeedcdegfedcbbddceffffecbdeffgc#bcgifcbbba#ab####a",
"abb#abbabdeeeeddeeddeggffecbcdcbefefhfbbcdefgdabejjfcb####a###aa",
"cbbbaabcbbdefgeegfeeffggffebbdb#bdefggd#acdcdfcadhgfeec####a###b",
"bbbbb#abcabdeefghffeffggfffcacabbccdegfaacdccfgbbefgggedbaabcb#a",
"bbba###abcabddegffgeffegfefc#aabedcbcddaabcdbdhgddgifeeecbccccba",
"cccb####acbbceffgeefgfefgefea###dfgfdba###bdb#dfeegfdddddcbbbdcc",
"cdddccca#bdc#adhgeeffffeeeefdaba#ceffebbbabcc#bdffffedccddbbbcdd",
"dcdfeeeebbfhdaacfggfeffffedeeccba#bdeeddedcbddcejgggiifdcdcaabdd",
"dbbdddglfcfkjgdccdffgfeffedddcbbccceeeddefdbcdccfjjfgkkgdccbbbbd",
"baaccbdihddgjjhfb#acfeefgeddebaacddffeeefigcaaa#befddfggfcbbacca",
"aa##aa#cfdcefghgdbbacddegeddedbaadeeeddgijjfc####acbabdefebaabec",
"dcca##.#cdcdefggdcdcbdddeeeddec##cedeedgkhihea#bccbbaaadeedbbacf",
"effgebabaaacdeggedddccdddeeeeedb##cdceffigffgebbcbcdddbadggdaabc",
"dfhffeefdbbbaadefecddacdeedffeecaacdcdfeefefgfeca##dgeedbcfebbbc",
"dfgdbcdfgfedbabcddccdabeffddegfdbbdefffddegifddb###cfeeeecbccbcc",
"efgfca#abcdeefecbbcbcbadeffcdffecacggeeedcdeid##abbcfeddefcaaabc",
"bdfffd##abbbehggec##bcaceffdceffecadefecdca#ceda#abacfeefhgb#aa#",
"aadefgd##aaacggfggdaabbaefffeeeefecbdgebab#.aaddbbbaacfggeeda#cb",
"fbadddfecaa##djjjkid#ab#beffffeeffdbaeedbaa####dfdcba#dfgecdb#df",
"gfcbccdeeb##.#cgjjkhcabbaceffggeeeebacefca#a####egfcbabdeedddbbf",
"fgfdbbbdfgdaa##beiigebabbbcddfggghfc#affdbaa##.#bfhgdbbcddccedac",
"efegdbbaceeedbbbcefffdbabbbcbcefggfeaacefdb##..#addfgdcbbbabbca#",
"cfeefedcbceghfeddeeeedcbbbabcccdeeefdcadeed#..##accbdffdb#bb####",
"dgfdefffcbdfgffffffddcb#aa#acccddefgfcaadijc.#abbdeddgkfccefcaac",
"dggefhjiebbeeeedefgfeca#acbbbbccccfhfccbadgfcba#ceeeefeb##cecabc",
"cdffghffecaceedcbdfggdc#bedcbbbbbbcfecccaabefd#.aedcddb#aa#ddabb",
"cdefefffgecbceedcbdhkfdcbcecbdcaaabddba###adfjc##cedcba#dgbbdc#a",
"cdfffggggfdbabegedcehgedbaccacdcbcccc######begfca#egecb#bhgcbdbb",
"bdefhigeeedbaaaeggedefedcbacaacdcbceec#aca##adeedcejgcb##fkgda#a",
"aceeffffeedbbcbdfgeddefedabcb##becbdeeb#dfcabcdeefggeb##afhfgdba",
"dbcedddeffecbddefeddddeeebacdc##dfcbdefcadedcccdgiedc##cdhhddeee",
"fdbcddcccfifbcdeeeeeddefge#acedabgfa#befcaccddcehfeddb#bfjhedcdf",
"dedbccdcabghcbccegfeefgfghda#acdbdfc###cdaabdedegffffeb#bhgeeddc",
"cdedbaadb#beca#adhgffgggeggdb##acceda##abbaabeebdfghhfdb#efddeed",
"dbefdcbbbbbbbbbadfffffgggifccc##bddbaaaabba##cda#dededccbceedcde",
"dcceeeecbbb#adeddeffhffgihda#aa#afgdaba#bdb##becabccbbaabacffdcd",
"fdcdddffdbbbacffdegfhggggfea.#a#afkfdb##aefcacgiedddcb##a##ceede",
"ffeedbcddcccaadfffgggfefgfeb###bacfeedaaacffdefggggggeb##aabbdff",
"dcefcabbbbbbaabdefffffddffda###bbbdeegffdcfigifccffgiifbbbbbb#cf",
"dbcgdacdcca#bcbcegfeegfcdea#cc##aacggggffgfhijgdbbdffffecbbbba#c",
"b##cfbacddcbbbcabffffggddc#bfgeb##dffedeegighhhfcccdeeeeddb#abaa",
"b###ccabcbbcbabaacegfeedddbahfeecacgfdcefdfhggifcccbbcdeeddbaabc",
"db###bbcddbccb#aabdffeeeeedadfddfddgjfcaffceefgebbccabcefddcbabc",
"ddcbb#aceedbcbababdffffeeffc#eedghefjjd#aeeefggecbcdcbadfdccbcbc",
"fedddcb#beeb#aabcceifddeeffeaaeggffggjeaacdefffgfdceecacedcbadfe",
"feeffeedbaba#bbbdeggfdcdeeded#afefhgfgebccabcccdefeeigcbefccabgg",
"edffgfeeedbacdddefddddcabcbcfc#bcdeffeecbdbaccbbbefgifecegccdach",
"geffefeefeedddffhfaabccbaaa#cgcbabdfededcba#deda#bbefeeeefbbdcad",
"eggfddeeddcddcdfifbaaabbaa###deaaaadffedbaa#bdebaaabdedggecaccbb",
"bdeedccbabbbbbbcefeba##abba##afd##acffeecabbbcddaabbadefffdbaaba",
"abdfeddcaaccaabbbceeb##abcb#.#deaabcddeecbbdddeecbbccbdeeeec#aaa",
"b##ceddcaaddccccbabdecbbbcddcbbedbbceeefecbbceggecbcbacdgeegccaa",
"ac##abca#deeeeefgfcbefdcdddefeefdaadffeeeeeda#cefdbcbacdfgfgfec#",
"acc###aaadedeeefeeecadffeeeedbddbbbefddcceggd#acggcbbaabcegfggec",
"b#cdb##bbbdecddccbdfdacgeeefdaabcccfedddceecfda#didbbcabbceeeeed",
"b#cefdbbcccdffedcabdeeacedfiebbcefegfccddfiddedaaeebaaabbcdedddd",
"bbcefeeeefdbddeeecbcefdbcceffdbaejgjgb##aefeeedc#bedbbaaabcddcdd",
"bcededdefggebbbbdeddeeedaacdeec#ahkgeb#..#dddefdcbcdddca##acdccd",
"ccdeeecbdeffedcbbdefedfeb.#dffda#cgfc##...#aabgeecbcdfeb#aa##bcd"
};
SIMPLE  =                    T                                                  BITPIX  =                    8                                                  NAXIS   =                    2                                                  NAXIS1  =                   64                                                  NAXIS2  =                   64                                                  HISTORY Written by XV 3.10a                                                     END                                                                                                                                                                                                                                                                                                                                                                                                                                                                                                                                                                                                                                                                                                                                                                                                                                                                                                                                                                                                                                                                                                                                                                                                                                                                                                                                                                                                                                                                                                                                                                                                                                                                                                                                                                                                                                                                                                                                                                                                                                                                                                                                                                                                                                                                                                                                                                                                                                                                                             +++...+++....+++++...+..+++..++++1.+++++++1..++++..+++++++++++.+.++..11.+++++.++...+++++..+++EH1.++++++..++++++++++++++++++++.......++++...+++..++++...+++.H1H1++++.....++++.++++++++++++++++..+++++++...+++++..++.+.E.+++...1.++++.E++.+++..++++++++.+++++++++++++++.+++++++.+++1....+++++++..++++..+.++++E++++++++.....+++++++++++.+.......+++......+++++++..++++.11++++11+++++++.1.11.+++++++++++......1.++..+++++.....++++.......++++..+++++++.1.1..++++++.+++++++++++++++.++++++++++.++++.....++++.11.+++++++1..1+++++++..+++++++++++++..++++++++++.++++++..++++++..+++++++....+++++++..++++++++++++...+++++++++++.+++++....++++++++++++++....++++++.11.++..+++++++.E.++++++++++++.+++++...+++++++.++++++.+11.++++++1..........+++..E.+++++++++++1+++++..+.++++++.+++++.......++++++.+..1....+++++++..++++++++++.+++++.....++++++++++..1E..+.1+++++E.......++++++++++.11.+++..+.+++...E1.1.+++++++++....E1++..++++11..+++++++..+++++++.E.++.....++.11..11H.++++....1.++..+++.+++++..++++++++..+++++++++........++..+1E..HH+++....11.++++++++.++++++++++++++++++++++++++.......+++.++.++1H.++..+...1.+++++++..+++++++++++++++++++++++++.1...+++++E...+++1.++..+.E11E.+++++++..+++++++++++.++++++++++++....11+++++.1.++++...+..1E1EEE.++++....+++++++++++1++++++++++++.1...1.++.+++++++++1111..1.EEH1++++.....++++++++++..++++++++++++......++..+++++++++..1..++.E1E.++..1EE.++++++++.....+++++++++++...111...1..+++++++...+++++..+..111111.++++++++...+++++..++++++..+.1.E1111..+++++.H.+++++..+++1E.+++++++++++..+.+++....+++++++.++...E..1EE+++++++.1+++++++++++.++++++++++++..+++++..+++++++++++++.....111E.+++++++++++++++++++++++.+.+++++..+++.++.++++++++.+++++E1..111.11+++++++.++++++++++..++.1EE.+++..++..++.++++++++1E++++.1....1.1E++++++++.++++++++++.+.1.....+++E1..+++.++++++++.E.+++.....++..1.+++.+++1.+++..+++++++.E..+++++.HE.+++.+++.+++....++++...++++...++++++++.+++..+++.+++++1E.++++++EE++...++........++++++.1.++...++++++++.+++..+++.+++++...11.++++.E.1+++++..EE1...+++++.11.+...++++++++++++..+++++++++..++.H1++++.H1++++++...1111.++++.1.++.E1.+++++++++++++++++++++.1.+++.1.++++E1+++++++......1.+++..++++EH.++++.+++++++++++++++++.H++++.++++++1++++++++..1E...+++..++++.11++++.+++++++++..++++++..+++.+++++++++++++++11..EHE.++....+..1..+++++++++++++.E.+++++1.+++++......++++.+++++1.+....+++.1......++++++++++++++..1.++++EH++++++.++1H.++..+++++.....++++.1E..++....+++++++++++....++++..+++++++++..+++++++++...1+++++...+++++....+++++++++..11..+++..++++++++.1+++++++++++.1.+++++.1++++++.EE1.++++++++.111E.+++..++++++++.E1++++++++.+++1.+++++..+++++1HHHE++++++...11....+++..++++++++.1.+++++..+++++..+++++..++++++HHHHE++++++.........+++..+++++++++.++++++.1.+++++.+++..1+++++++11.11++++++..........+++1.++++++++++++++.11..+++++++...+++++++.E11.+++++++...++....+++...++++++.+++++++....E1+++++..1.+++++++....+++++++++...++...+++11...+++.E+++++++..++..+++++++.1++++.1..++++++++++++...++.1.++++....++.1E.+++++++.....++++++++.E.....+++++++...++++++..+....+++++++......1..+++++1..+++..++++...1.++++++++.11.++++++++.....+++++++...E1..1.+++++++++++11++++++++++++++++..11++++++++...++.++++.+..+1HEEE.+++++++++++..+++++.++++++++.++..1E1+++++++.1.++.+++++...++1EHH.+++++++++++...++++.++++++++EE++1HHE.++++....1.++.++++++......E1++++++..++.11.+++++++++++++1H.+.HH1++++..1.....+++++++++...++..++++++.HH.1HH1+++++++++++.....++.E++++.11.......+..+++++++..++.++++++.H111EE.++++++++++++++++++++++++E1...........++++++....++++++++++.....++++++++++++++++++++++++...1...1...1...+++++.1.+++++++++++...1.++++++++++++++++++++++++++.1..1....1...+++++.+++++++++++++E1++1E....++++++++++++++++++++...1E.....11...+++++++++.1.++++++.1++..111.++++++++++++++++++++..1..1.....11...+++++++..11+++++++.+++E1...++++++++++++++++++++....++..++.11...++++++....E.++++..1+++.HH.+++++++++++++++++++++..+++...+++.1..+++++++......+++...1++++1E.++++++++++++++++++++++.+++.++++++...+++++++...1E.+++.11+++++...+++++++++++++++++++++.++++++++++.++++++++..+++EE1++.E.++++++......+++.+++++++++++++..++++++++++.+++++++++1.++...++.11+++++++.1.+++++..++++++++.+++..++++++++...++++++++++.....+++..+++++++1E+++++E.+++++++++++...+++++.....+++.++++++++.11++++..++++++...++++EH.++++++++                                                                                                                                                                                                                                                                                                                                                                                                                                                                                                                                                                                                                                                                                                                                                                                                                                                                                                                                                                                                                                                                                                                                                                                                                                                                                                                                                                                                                                                                                                                                                                                                                                                                                                                                