/* XPM */
static char *cloth[] = {
/* width height ncolors chars_per_pixel */
"128 128 16 1",
/* colors */
"` c #6D342C",
"a c #AC8263",
"b c #B19F7B",
"c c #2E0E18",
"d c #8C4F3C",
"e c #85694C",
"f c #5F1920",
"g c #7C503C",
"h c #6B4B38",
"i c #9E7456",
"j c #9E6B4F",
"k c #936C4E",
"l c #080007",
"m c #998060",
"n c #AB8F6E",
"o c #905A43",
/* pixels */
"g`clfknbbbofegennnbbnefggabnk`ghonanbad`dmbbohgmegc`oikkhcfhkmbnnefdkkmdhekefgggibn`hhoeiaabbmh`egabh`gko`godnkfc`oibmmnam`hning",
"c`lchmabnnof`dkeaabbnecggmkmfcfokiaanaefgaai`l`enhcfdohmcll`hinkkfl`ko`lf`mllhdgibhlffe`hmnjmafckdboc`doefdgokoclfomjkiinechoief",
"fhlckimamgflcdkkkibbncch`eghllfkomjiaadchkkollfmmllfooghlllhgaaaollhggfllmellhgkiecllhelgnnanglcdgkllloifl`dgecllcomamdkbolfoefl",
"hellganbnjhcfeaoeanbaccdgikgllgemiiikag`okimhl`bmlc`kgokellogmbniclkohhcfbklfhomnkflcmeldbbnb`ccgomclfnnclg`oi`flfombaeobef`kmcc",
"ek``oabbnbi``inkjknbjddgnnniccggoenaomd`omnno`dbiccgekmmelfggeman`hjgikh`aacgomabmkffimchibankfgiajel`an```omkaeffemnkokbn`hkim`",
"ie``gknmnimg`kmoojaaj`enannmgcdjekmioaggekajedgndc``eoiaeffdeikkahkjjkngfmkhhoiminmf`kifoknmim`oommjf`bng`gkiabif`onnojiadgdimig",
"eehfgiiiiikhgkikjkjiofknanmicfgkgdnjjkc`eiiikfgmfcfhoekkgffdoikogf`koko`codf`ggdimgchkg`eabjjah`dgnef`ba``gkenaec`knijidmofgkde`",
"ghf`gkjkoegc`oakojokfc`kgkiiclhghkagm`l`iohmcl``lll`okgellceokggflchgoglchflchfenk`l`ghgeabiojfcogkglfkellggdiklchknjko`gllggohl",
"`llfoejejjllfoeoookgllhmfmbnll```kogdllgaoddll`flll`nmogllfdfo`ecllgiihllhllfffojoflc`dokkmjk`lleonhlloclcgggbgll`iigohocllhomfl",
"lllfgmanjmccdejgkjiolcomdnbncl`ghakgellankokffholllgnadk`lf`hmgnfllkaioc`gclhh`ookfcddoiaaanndlciibjl`kclcidobjcfgikdkgm`lckinhf",
"cclcoomjabdhojkiiabag`kjonbahfognannef`iikjnhoieeffhaidn`f`hedanne`gnao`gmgfoo`ddogdhiioibbbbmo`abba`oehf`kdobahhimimganmk`nnba`",
"gof`hdoiabkogemanbbnigokjbboghhommkne``okjmnookem`coaoond`hggkkbbifokikdgegfog`fji``eokiinnnnnmdaaandeoo`fdodaih`kmkknambmgbnnne",
"jkh`odgojaidoojbbmaaid`ojabadhgoekmokg`diknndokmmffgadjafh`heknjak`kjie`gid`gdf`ka```odjkiannnjdiiaaghgogfgooai`hjjiimannmdnabed",
"ee`o`dddkang`gmjmamni``iinbaohohikkkmefgiknmgkhmeffdiokj`hhhkbmeabfejikode``g`cgamgdgogejannbkd`jjanddgkgfddobi``ekmkannnoeiibjh",
"gf`hd``domkogdeaakanefoiiabihc`kokeek`chigk``hegflfgioggccfhdkoom`fedohfgflfof`eaifchgokeibbmo`fkkamh`gmffgoibhf`hmokkiim``oindo",
"clf`e`dgkmo``dkgokmm`foajabellfgchhgglcgg`dllfnellcdmgffllc``ddm`llhfgllcflchfhingllcgdhdinooglfiom`ccgflfoomnclc`oj`kek`lfgaoff",
"flc`d``dkiflch```onefcgamiihll`honmoelce`chll`bkllldmfffllfodegalll``hll`hllhcgiecll`emooanan`lldeelldmllfogaelll`mkomiaclcdkflc",
"hlcfg``gimllfhd`hkmicfeejmk`llo`knbemlfkhhkllgijclcji`omllgkdjjnhlcgogllamlfg`oji`llhaanoabnb`lfhohlleallfgdaglllebimajbelfgiclh",
"ecf`dogkni`cfohodebif`edknkmgfeokaaamchmjkmhfgjjgfhmkinnhfoodminkfhkaig`mmfhdeinieccombndibbbdchgie`fiihc`hjam`lfknnaiabmfgemifg",
"m``heoamabmffeadoabngkkanmknn`doomikohemmmmihfdkgffekanne`gkjikbehokiikemkf`gonmae``inbndanbjkdegimo`oij`gokmni`fenaikjbmoomnmjo",
"k``ghanimna`hkkoeabbokemnanigfgi`mmomcfekjghffdoclcgmiekhfhoamon`c``gkhfe`c`geomkhfhonbainnnjoheeek`fdm`gggkomefgmaikijbkgmejiek",
"g```dojokogcdke`kiai`fhmjimglcokdakghlloeo`cllhollfomekecc`oekkolllo`eflgclcggeke`f`oknminnniclfgo`lf`eog`gfdifcgamkjimno`h``gge",
"goegdoddoifl`ed`hin`lfg`kn`hll`ggnojfllekghllldgllhimmiglldogeg`llcghmlcjihfegenmhf`okmkmnnaill`dekll`degffcomclgmidimam`cefdhfh",
"gemefkeoielloiie`aahll`jmijolcikkaincl`ekggllhjhlckmiojglfdoikbklloggec`abn`f`oik`f`oinaaannelfhoandl`bbkchgdjdfhekkokikf`nmio``",
"dinkhkkobagckkajoibj``kaamim``kaniabhfheeegfldael`imjinnf`ooiibihokkeegoabnd`oiaiff`eanniinnafgiinnhcgnbnohdooad`hekdokedibbnkg`",
"ombkokiinbkoeomidjbbheoiiabbo`jnajabk`okkiagf`am`okiaabn`djikkbbogojemooibaooeibi`fgiabnjinbmgomnnajhiinbmkjianah`oiogdeianbnnag",
"hane`kkmmnk`gkakdabkddgjenbnohmaaiin`ddjmmigc`nadddkannn`oiiignaf`ghgdhhkno`ookikffeianajinbmdhdkaigokjnbnoeaabng`ekd``okibbaeme",
"giiffgkkejfcgkmkdan`cfgkiiaeffankoiocfhokmkllgmellhonnk`cgiakoigll`oh`cfej`chgongcfkkmmojibn`c`gdke`dhknnd`oenbmffeofgdoiimmohdf",
"higlcokobolcdojoknmllcomanndcfojojkcll`eebelchicllhnnkefl`jooeiflldmikcfogccggnbocfokmjdkabillom`mmhf`mnolcgeabklc`d``gakoamoglc",
"omfl`imibellhdh`inklllamibbilcoodjkgllgmibillkkclloaokbflhgogjn`lfeimmf`eocfeoabkf`djkggiabklfikoabhchaahc`edbbkll`d`h`okeokjm`c",
"oaeffjbabml`hhombbme`fmiibabh`okimamcfkaabmchjihffemmaagfgkjennmgfkiia`hem``eonbodjokjinannmhfiokbbefgkbmf`i`abmccgoeeeikegokbol",
"knof`mbamj```dkanbakffjkaninghoinnaef`jmiiefhkmelfeiooi`chooianmffemoeffkg`gdenaddoddiijinbnffooennof`ibmfdioibe`f`okeanikfhkn`g",
"kndl`inoaclfh`einba`lceabokmcfkiinnkcfmkgkclfnbclcejo`ecl`ooajbalcg`ghlcdogggkkmfgdfeanaenbjlfhdgmnclfnboc`ioendcchikjkbb`cgomcc",
"mb`fgmmakllfhdmmabaflcimiji`lckknbamffk`dglldnallfok`eellfmiknbjlci`ohlcoaegoeigdo`fibbnobbm``geanjllebbdlomdkaflfmniojbnffokdll",
"abo`ombbnkfhegaiabag`ojmnangfhonbnbm`gjgokg``nicfdkiabmhcdmjnabnggeejg``ankdekmokk``jbbnjabnediannih`inbidkiknam`dmakoibnehane``",
"abikoabbnnookknoojbjooknmnajg`obbninkokiinn`dja``ekabbnefejjbaanohdiiao`inoheikommgdkabkjannkoeiimaijmaaiookmnnbkeiiijdibiannnid",
"oonkejamnbbkjajiooabogoimaijdf`kbbnkioegkmbefdooh`dknbbmd`ddnadn`fhgjke`dig`oiiianidjianiiibkgdkkaaiamijniookanbnndoijddaajkinba",
"edmogeoknabkdgojdoandgoijako`fhnbbadk`feojmfc`jgcc`giinmdfdhamjilchokeefdi`fgkajmkjoiianajibe`ggiaainmdjaogekmabbn`gooodmaoojibn",
"foe`fdggjmid`okoddaih`danioo`lhabbddhlcjoiklldgfllfkjdim`cdokjeellfhkkgf`of`oojhf`djiianaoandccookkan`fom`lfhoiabi`gookgadffhkam",
"c``llfkoko`cdood`oifcf`mbaeeccdanihgflfmjnnll`kfll`jkdkofl`oi`ihlllgiimlfglekjmelfjeaajijjnmclcgdainng`egllfedknmffgdokoeflcgkmf",
"cgfllgkjkifchoof`imflc`abmnahcgaeoma`l`janm`ldiocfhkidjgffgkeinkhlckanmffoikkkkil`kiiajiianigc`eenjabmdohclhiinbhlfd`diimfl`kibf",
"`oeffokjnmfhgeaoonnk`cioiaanihokanabkfhijiahdkakh`hojdao`djkomnbohfmnaagokeikkkeogjiiaiiaanbm``iaiabbnogo`gbbabbgf`gjaanaidgmnbo",
"ogmo`gjkankoimijabnmidkdjnbbmkejnbbne`daooaeeajihfhgdojoh`oiminnmd`knaaogkgmkkkemh`kiaiaaanbm`oajimnbbkkhgjabanbj`oembnbbkjkibbi",
"omie`ooonaegedimaanbjgkdmnbbnokiabnagfgjdaaojmemo``dkjjoggokimnnagfaiindhkgikekmm``jiaaaannbjhkaajanbnnoh`eaianbodeiannnaaooaaba",
"monkfdoaano`oekiiinbidgganbbbookimaidfdjeaahookkgffhjojojgokmmiamdfakmbgoghokjok`lfoiaaaianbg`knkiibbnoggodeikmaogoeinnaingoaobb",
"jgg`f`jnnk`c`djdomaagf`oabbba`hkokio`c`edmofl`g`llfgeo`doh`oodmifc`kjekfl`cgekgjclf`iaaaiiagf`miiainbodoefcookaj`h`gkkkkikffojab",
"``hlc`inaflcf`geinbiflhkbbbbmlfgjigj`lgdcjflc`kcll`gg`fdhc`giokmflfj`eclhffekoomflcdkaaaakmgl`oominnjcfeolch`kkgclfkoggok`lchonn",
"lggcf`mikcllh``dmbballhonbbbhl`ibaoi`l``h`flljallld`df`g``kimdmbfl`gdkllgogkkkkoell`giaaaimkcfgkonnifleakcl`ookcll`nggokb`ll`omd",
"faicfkkjm`llmh`hibbbfceonbbaclgjnambklfg`jglcinflc`d``gd`daejgibochakefcnmiekkkiichgojaaainnffokabnjccknnflhddnfllmnjedebellhoe`",
"`nnghkakbmg`edhokabbgokoabbnh`ojknnbm`dhkhnh`ingc`eokmkihomoegibkeianahdmmgokkkik`dooiiaaaabooeibbbnkdonbofoonbefhdjaadabkfgkiko",
"knnjdeanbbmgohdgjanaokikibbbaoodiabbiedkkenm`kbohgdmmaanogjkoimbkoemnaoojk`okkkkofjddkoaiinnehkabbbbmoobbadokabbo``jbijibnookkni",
"`abdgokiabmgkdkdkmngdggokabbn``odkabkdejkaeefinof`ooaiaa`dooeaaag`hkamd`edfoieiijdhddojinonn``hjaaimk`obbehgkmangf`anbdinad`ojmi",
"`mif`gkiioffdekdjjk`ff`kkkaa`cokejam`c`hgeocckiflcgkodkoffdgokaollfoeicfdfchiiiio`l`jiiianbkclfgkiajffibmffeokn`cchiamooniffggef",
"ceflfknna`lfgdkdgokclcginjbaflegkjeollfd`m`lfdhllcemodo`cfdooenfllfemmcf`lloiiibbflfiaingaa`llhgemb`lhnb`lfeommclcimmi`onglcgohl",
"locl`inbbdccgooeonkllfknbibbgfg`kaiollhogmgcloollhanodk`c`knoabgflhiamcgollkkjnbbclemmaiganflfogabmfcgnnclfaibbclfemjmennhl`kmmf",
"oehfhjabno`hkkiiabieegenikbbeggoimakh`eeomh`dogh`enak`jg`gikanbagfgmnmfoe`fegknbaf`hjnnnnbnih`hdana`fjnbe``iknnflgkmmjbbbahdkan`",
"hegf`knnidgookjknnam`hobokan``hokmaahfkggk`c`oohc`ijgdo`lfgeiann`lgikgchkffg`knbhcf`kannbbnncff`mnmhf`mbm``koaocfgekjinnbnghdjmg",
"cehc`mbaof`feo`hdnagcf`kooaellhgikjnfcghgolllgmclfoidddclfkokinnclodgflfkcf`deniclloiaabbab`ll``jiicl`jbkcgkdollcfgookinbiffdkdl",
"fm`c`iiik`l`eoidonbfcfok`kahllokiojbh`ohjo`lfmafl`kmike`fgoeoabbf`koefcebhffdinjclcominbbbbolfdokakfl`mbkcdkkkfllceoddabbicgemcl",
"dbh`omabnkggkomjjnbjfdkjmabmh`gjidknkgigkaeh`ib``hmnmankfdokaibbmoimnk`kbghoknaie``mijbbbbba`oeaabnh`hnbaommnbmef`me`gjbbndoinm`",
"jmohkkanbbkgkoimdbbkoekeiannkfojohinedeekka``mnhhgieanno``ejgannioenbn`ebogemnnnm``emoabbbbmddmaabna`dabmokabbbk`oio`oiabnjkinbj",
"gmdhdokaabagmdijmanghooiiamn``ooedakh`hgekkfciif`gdimaaclgogoanaf`oojofgo`dokijnifcejoabbabjfgjjkiam``iaodhmanik`gm`gkiaaaoginbm",
"hocc`dejim`dkgooimgfc`ggoinilfk`ggaelcghgi`lledll`kmaaelco``emadllgnoccgfllhgdke`lfoidabakmcl`ghoii`lhjgfchdokmffeih`ikongf`kkif",
"hcllfgoia`lho`ooialllfdddnb`l`ghddk`llgkenclcdcllfnnnbklch`hdjmcllmbncl`llckf`djhlcoo`aaoadlllddbbkll`gfllcgom`lfgg`gokaillhok`l",
"hcll`dambhchh`ddmk`lchidkbbhlgejkibelfjeabglfh`clkabnbbfch`omam`l`bbn`cgcloiffoakcfggooiaigllhgibbnclfoehlgmiigc`gddgjjiihfikngc",
"egcl`ibbbkgeeokknnnmfkidjbnogkkkabbmh`kakaahggm``kaaabb`ogknabamodbnbe`ek`ekffdan`gokknbaiam`gkannn`fombkckajneggejkkaiabneeknk`",
"am`fdjnbbnekkmamnabndjmokmnkgoeiamimogjkoanieoefhjaajaijgkkoaimnijanbjdei`kkcfdnbkdkinnbjaangdnmabnjjomak`kijbidggiananbnbdikmng",
"jme`femnbbajkoimjanbj`eaiokniggkjiiomhfoodmbike`hdmmjkiagokkmkikmddbanogke`dof`kanoegaaaiikaadkioonbjekmok`ooobi`gokiniannidoink",
"geef`obanbndgkkkkinnodooahoanogikoimm`fj`ebieedgggoijokioodojkokkfkbandhg`foo`djnaddkjmajoanjfaodinbikkjeofdoibjggeomiibmae`jinj",
"hgff`manankhgogggmmmfceom`ibmfhokkok`lfddnbgffhgf`okmjihccgoo`hg`fhnkgcchlceofomie``gikookigf`kooibnd`gog`f`gin`fdhjkomiik`fkoag",
"c`cchinabndcfhhfgeadlf``jgknhlcgeogjclffkbnfllgflhoikkjclfekmf`eflkihfllflfo`dkem`l`omooookhlfogjjbell`hfllkoegllcgikmadkglcgkgc",
"chlchiaiikllfegg`anell`dkhiiclfeiaomflcdgiollfm`lfgeioecleamncom`lhdoclcelfe`dkaoclfmbkkokn`l`gddna`llgiflledmfll`kiabmdmellfk`l",
"hmcc`okijefc`mdg`ibiffgikkiillgeaminell`hkkllgagl`ejkkn`leinn`eb`ldgmol`jlcgooiikclfnanmjangffdomnbo`ckaflfkka`lc`oaabadbalcgkgc",
"kbg`gkioabn`gkeodobndeinkoaagfiemaebichgommgfdai`ggainbo`kokkhimd`eibefdn`dkkjbnmohgiaaobjakf`iiaabbk`oaofhiinihfgmaamoobn``knng",
"ibkogeiinbngdgko`abakjmaiaibn`goimjak`oeeanef`nndggeaanod`oieoinogoaao`obggkknbiamo`imknaoajhokkanbba`dioggemnmo`omiaijjbagoonn`",
"end`hkinanj`hoodomnjohogkkiao``gookk`f`deko`cfniffodeimdc`dkmoenfc`oo`fkmffhdiiajgcomniajdjk`hokiaanefond``ookg`hkibikkinofoekof",
"eglcggnnjagc`kggdnahcf`gaooa`lfgmdkjclcgghhllfahllhinioflhhongiell`kgfce`llfhgnigfcgimaikdm`lfodamni``oahlcgg`fcekaaoeoim`ccde`f",
"g`lchmbknbolcgh`oanflcgdamjn`lfoegkolllk`ikllfjfllemakbfl`fkjfmgllmkidlefll``injafcoemjkdgiclldanbbm`fnmllcigglchkmk`kokill`gkcl",
"ghlfdabjnbkl`gg`ibahlfeobdabgchoioimfl`mommllgkhlcdnajbof`oiiomhclejmgfikfcgokjib`cekiingak`cfgianba`gnmflhmjeflhkikeioie`feimgc",
"ie``onijibmfhddkmbbm`gmioonbdcgekjnnhcdmomecfeogh`oniibo`oemmiike``kigfjm`f`gionb`fgijaaiammhc`kmnaedmmnmh`ikm`c`gejanaannhkjagf",
"fecfebadiahcfhokkbbkc`mkdgkill`ekaab`leefn`lcgkhlconema`c`oiaejgflgkofceaffg`oknolc`eakeakmecldonmgffdmnic`kokflc`iojeiibifooecf",
"gel`enidjgclf`gmkbbglfeodhidllgmokbbclg`gmcllgaflcgikoofl`gkbimmllhd`lcancc`foin`ll`imoikobglchikiflchmb`lcdoecllhijoodmbgfhghcl",
"eef`kajoikflfeomonbgccdiijbeffekinab``oknmk`cjnhlfjmimmgfoonbniaccgogf`inhh`goankll`jikaijbgchkkamd`cenbccejii`llgomea`abi`gomlc",
"iadoikjmbbk`dekmdaaa``gamnbmndhkinimj`inimke`hai`goiimbo`goibnibg`gg`h`iboohmannamh`oijkijajhhkabame`gnihgjmakmof`oiajoabakmmahh",
"midgejkibbn``kgiooiaookiiaankfgjmkgmegeimnkef`nkfgokkmnofeojbaabhhhgikfmneokoiimamdfimgokdkmodkinbbo`gaegdkijangf`anakonbaokmmkg",
"okhdookabnifeogoooag`dkkoikifcokkgdkefomojehl`a`lhgkmmifckeeioma`hhoo`femfcdgdojjicfmiojo`iofhdgini`fdohf`hoeoeffdnnajinne`dgkoh",
"e`cf`gjoamffohdh`oefffhgnobklcgok``gcckjgmhll`glcemnbmellh`go`j`ll`a`clhhllhghgdoflhoggjddeclcgomadlch`cccd`g`clfkannajiifchdgcf",
"`ll``oajmnfchghf`keflfojbmbkllehdfgflhamgbollffl`nbbnnalcof`h`kfllgnj`lhclleggddj`lfdffmggdllcmdnbhlcgfllfg`khll`jannniiocfeoecc",
"flf`diminnff`ho`imm`l`manabic``gggg`feabkbjllg`cknbnibbf`h`kkkah`fonmkch`lfmog`dj`c`edgijik`fhmjnbec`kocl`koaocldekabnaae`gmmmf`",
"gh``diaaaaooggoombbmh`naanbidgkjikeggekannigde``iknainbogoknminii`onna`hgk`kdd`djdfgminiiankdoikmbaddkmoc`ijiih`geiaannnaoiaabkg",
"kegd`kimaamogoejmanbodnaaabiooimijkjggoiaaiokoeogiaajnnogiiiiannngonnahgeidkdg`djo`oannannnmkikdannookikfgiojjohgkkkiaabbaiiinie",
"odggdoiamjiakokkjmanjkjonaajiiekemaeghgojnnankikmmkonajnideokeinnojnaadoeoik`g`foodokkeajanniag`manaiookfdkgkkeggogekijaaakoojaa",
"h``hdkiiikiniokkkaanimeoeiiiaioojimoh```ianbnikmimogmaeajoeodiinnkiaaaoeoeki``fgoooohoejaianai`fkiiaighk`dddoooggdoejjkiiio``iaj",
"fff`giiijimiiokekimnamghediinegdeeko`cfhjmbbnaokekcdoaokg`ggedimniiimakegomgfffdojjd`hoekeiaakcfojiagfhkhddgggghhdgkkjikik`f`omg",
"clffoiiikkaegggoooinaef`egmaahc`fh``fllfdibbnocfgclfkihoflfdhgeimikoiakg``dclf`djioccfeodojiiglcgoia`lfkgd`gh`hf```oeikokeflfoef",
"lclfhkjoomkflfggdonnnocffheieclc`cfllllcokbbbflcollfko`dllle`ekkmkf`kogfcf`llf`kja`ll`oa`dkkmclchdjiclfog`fgfh`lllhemajkkkflckhl",
"lcffgkoojoecc`ikejabbklf`dkjgll`h`dllllfjbnbnflhnflfk``gllfihmniaglcghgllg`llf`dai`llgbbodjkafllhdjicl`igffgfoglllombnbninflfg`c",
"`offggomoai`fkmokknbbafogeomk`fogdh`fllhknbbagckbhlhjdinhlhgdnbnbolfgenhcmklfgoaankg`kbbooiib`lfgdki`l`aof`keme`cghibbnbkaofhdk`",
"dmgghkiaanndgkohoinnbneekimnbmhoggjd`cc`mmabnkgibk`oenabkf``onbbbi`gmbag`nm``giaianbgonmoiaibdfhgoime``ii`giinnmmhgabaamkjaodkkk",
"gmkheoiaanjehdegooanbkoikkekbkhohoeoff`gkminnm`kbigeiknbgc``dnbbbidekmkh`bi`hdkamanbhdnmdinibghgdkimk``nakhoemmno`gmniiadmbegggg",
"`k`chkkmbjo`f`gdhkabi`f`ggooef`g`ek``fcf`dkkegfdmdhhhjieccf`gmbbbf``ooh`cigcch`giin`ceaiganaaccfhekaefdimf``dgi`fhgkkjajdam`c`h`",
"lhclhmjnnoo`l`gggoibdclcf`omdl`hhigfhcllfkmhocc`oclfojd`llc`ombbmllcg`olleflcfffkbafljmkoaaikllc`giagl`e`lckoohllfg`gkioindlf`hf",
"fflcembbban`l`oo`onnocl`gdib`l`dkkohjcllobidgclghllckidgllc`oabbaclfkhmflhlllhc`abbcfejgiaiioclleenagcoeclgbokhll````obanmll`kkl",
"hgf`dibbbmnhc`hkokaamgf`gdibglghekkmmaefkbbkoh`g`hlfijeellf`ginbbkffijbgcedl`d`onbb``kokaammaec`konbk`gm`cgaomgllcd`fkbbbkccejih",
"ghf`hinbbka`c`gokiianofehdimffcgkoiabngcgnnegk`higc`mkimcl`homnnbkffkobffhecfe`mnbbf``ominiknmcfkeobefomgc`mdngll`h`gjanbngfgem`",
"`hlfoeinajkclfddiojja`fh`omkclc`keembncfgmafofl`mfl`njeellcdgkmnifl`dgdllgklh``ibbdllggaandkb`l`hdkm`ldb`l`oomlllc`gdjaamnclhegl",
"eeffhjanankcl`kkiddjaofgdjaellfgoeobbb`foiggmclgbclgieadllfdoknnnll`gigllmkl`hombnhlfhabnndnbgl`oemkclmb`cgdoecllf`eoinmbncchoff",
"mafhgkmnnnmhlhkkkddkamooinnngfhhhoknbbioikomaefonffoinanhc`kkknamhfgonnfcni`gdmnbngkgdmbnadibighomaigggbd`oomikhlfgkionana`hhke`",
"mm`gokabanigfdjkeddjbnokmbnbgfffdgobbbaeooinai`oad`oainnkl`ieoanbohokmkg`mm`hkimamab`dmbnadibademammmdgnkoekkbbjffdaamaaiaodkiio",
"aio`kjijnnbe`dmok`dabaejanamgffg`gkannieoiknma`di`heiimngf`idinjbegoekkgdiagddkiokmk`kbbnaddbm`ojmnnm`dnkdokibbof`gmaaimanjmmnik",
"mkhhgkimanbm`jmme`gnbe`eoneefchogeikamghgkmkihcok`hdgiamhl`ieiimnghhgjegcoic`hggeiif`mbbaidondc`kekmocoa``cgmnifc`innjajaigkmaad",
"egffgdkmianhfgmogoknkffg`ooglldd`oiko`lfjaddglcg`lfgekooclcmogikdlc`hddllhlllhheoefl`mbijkejkclfhoiolch`ll`ggoclfoibbjikm`f`ok`c",
"`clc`diaajkclgkgddka`lckgenkll`fghodgll`nn`eglcollchkoekll``fjdofllfeooll`llf`hinkclfje`oooooll``kbkllhflldojellchinakokdll`kmcc",
"fllfdkiamnglfgoekiakfcemoaanlfhghkgek`cmbbobec`gllfhiomnfchdoiomeclejkkcfhllhddmaahchedginjkn`chdibnccodllijincll`oajkkmd`fkmnhc",
"`hf`gejaibk``ommabbbghimjbnbe`d`kkmanhhkbambkfemeffjkikahg`inkinmofomjnhejhc`hkaij``ekoanninnkdkoibbdgmmffejmnfl`giammannmfknnkc",
"goed`kkkiibi``miaabbbmoijjbnbo`geoiinngdkaniaogomahg`ining`ogemnbnh`oijmiokmf``dikdogookmniannafemobbioaahfainag`gdimnanbbidkabk",
"gokgoekidankhdjiiianbngojibnbohgooiinmecdibakedkiihhhknkjgg`geiming`kikakoeif`hgjogkghoamkaaimk`aieabbiimf`kibn``ggokknanbo`aaae",
"o```gdjodibj`ojkkeambi`doibnae`ekkjmkkgf`kaodg`okef`giikoh`hhgekme`fmoikhoghcfgog`dgf`ojaaaiikefmadnbbkdkfgkjbadf`eoigknank`mnke",
"``cfgdkooaao`geookjamhcdkkbikc`mooggggcl`kk`gfl`oclfgmmd`llf`foodhlfodoflfgcl````dkclcggemedkefckdokba``ccgijmofc`hkeekoii``ioog",
"cccff`odjaiccf`hgiiijcldkjmm`lebbioggellckg`ollghllhkmoffllfo`moollco``llcgll``f`ghllc`diao`dkll`cdiboccflfodeflllgkk`hkkhl`ddhl",
"l`ll```ddigclfhdoeimollhkkghlfennenmenllfghohllbillginh`cllhhgnnmcll`dhllfillcffdj`llfgonnodimllcfgenflmcllodklllcgidhoebflf```l",
"fefcffgddiollfmgkkknmclomikm`feiiinnmmclhkhikc`bmllhkjgehlcooknabol`kem`lmmclghiaagflgdgiakonncl``dnkccnklfgon`llcenidmibdlfdmgl",
"hmgf`gooibbgfgmajodabffeinbamhheimnbanh`oeiing`nbffgkekni`fkkonknm`egmnofkbkcgkkbbie`geekjjobnhhodkbaf`nk`hknbj`ccknjkombo`enaof",
"gmkhdeejabbkfenamddabohokbbmnhhkaiaambohgdjmm``naffhooemmd`ikgiinegojamefkn``gojmani`oegdjkdbmggekaimkfim`gkmbnef`iakjaanjhmnnmo",
"dme`hdooibmh`kbaodgnadhgannkgffknoaaimcc`egdhcfmdccfggeggcfiojioiff`geeflgglf`gginnfckgogoeenhf`gokeoffioc`domi`ldmajoomagfgako`",
"`eflc`oaba`lfonmiojn`cfhkiak`lfkjemmikllkmooolckhllldagfllfegjieollcokillhflldfhabnllgofoo`gkclcogkicl`o`llodigcl`okoggkeclfgdhc",
"f`llfhanba`lfgjoidamclledinbhl`koonejhlconibklfodllfamfjclcddikoill`kmmllhfllecombmlc`fgdjodollcmombflcoclfegm`llfdj`odkgllfoefl",
"h`llciabbbelceojinbbeclhimbbel`kgknnbifcoanbil`joll`magmflc`knnmm`lgmnncfegc`hdknbncfd`gamajnolfkgbbflgdcl`koaeclfoijajnegfhkimf"
};
