/* XPM */
static char *gree5mra[] = {
/* width height num_colors chars_per_pixel */
"    64    64       13            1",
/* colors */
". c #074120",
"# c #074120",
"a c #074120",
"b c #0b612f",
"c c #0b612f",
"d c #0f813f",
"e c #0f813f",
"f c #13a14f",
"g c #13a14f",
"h c #13a14f",
"i c #17c360",
"j c #17c360",
"k c #17c360",
/* pixels */
"cbbeddcbbbcdedddcbceb#bba#aceffcbbbdd###...###deecbabgidbbb###ab",
"cdbbcdeba#bccccdddbbbba#bbbcddeedcabddbb#..#abcfgcb##bgecbcb#abb",
"#bcbbcdeb#abccbbbcdbbbbabbbcfdbcdeebbdffca##abcefeccbabedbbcbbbb",
"b#abbbbcebabcccbbbbdcccbbbcceecbcghfbbegecaba#addeedecabdbabcbbc",
"cbbbaabbcdbbcdcccbbceddcbbbbccdedfgdcbceffcb#.#ceedbccb#bc##bb#a",
"bbbabaabcdecccdddcbcdfedcbbbccbdeeeedbbcdeefb#bbfhebbbba#ab####a",
"abb#abbabcddddccddccdffeedbbbcbbdedegebbbcdefcabdiiebb####a###aa",
"bbbbaabbbbcdefddfeddeeffeedbbcb#bcdeffc#abcbcebacgfeddb####a###b",
"bbbbb#abbabcddefgeedeeffeeebababbbbcdfeaabcbbefbbdefffdcbaabbb#a",
"bbba###abbabccdfeefdeedfedeb#aabdcbbbccaabbcbcgfccfhedddbbbbbbba",
"bbbb####abbbbdeefddefedefdeda###cefecba###bcb#ceddfecccccbbbbcbb",
"bcccbbba#bcb#acgfddeeeeddddecaba#bdeedbbbabbb#bceeeedcbbccbbbbcc",
"cbceddddbbegcaabeffedeeeedcddbbba#bcddccdcbbccbdifffhhecbcbaabcc",
"cbbcccfkebejifcbbceefedeedcccbbbbbbdddccdecbbcbbeiiefjjfcbbbbbbc",
"baabbbchgccfiigeb#abeddefdccdbaabcceedddehfbaaa#bdecceffebbbabba",
"aa##aa#becbdefgfcbbabccdfdccdcbaacdddccfhiieb####abbabcdedbaabdb",
"cbba##.#bcbcdeffcbcbbcccdddccdb##bdcddcfjghgda#bbbbbaaacddcbbabe",
"deefdbabaaabcdffdcccbbcccdddddcb##bcbdeehfeefdbbbbbcccbacffcaabb",
"cegeeddecbbbaacdedbccabcddceeddbaabcbceddedefedba##cfddcbbedbbbb",
"cefcbbcefedcbabbccbbcabdeeccdfecbbcdeeeccdfheccb###beddddbbbbbbb",
"defeba#abbcddedbbbbbbbacdeebceedbabffdddcbcdhc##abbbedccdebaaabb",
"bceeec##abbbdgffdb##bbabdeecbdeedbacdedbcba#bdca#ababeddegfb#aa#",
"aacdefc##aaabffeffcaabbadeeeddddedbbcfdbab#.aaccbbbaabeffddca#bb",
"ebacccedbaa##ciiijhc#ab#bdeeeeddeecbaddcbaa####cecbba#cefdbcb#ce",
"febbbbcddb##.#bfiijgbabbabdeeffddddbabdeba#a####dfebbabcddcccbbe",
"efecbbbcefcaa##bdhhfdbabbbbccefffgeb#aeecbaa##.#begfcbbbccbbdcab",
"dedfcbbabdddcbbbbdeeecbabbbbbbdeffedaabdecb##..#accefcbbbbabbba#",
"beddedcbbbdfgedccddddcbbbbabbbbcdddecbacddc#..##abbbceecb#bb####",
"cfecdeeebbcefeeeeeeccbb#aa#abbbccdefebaachib.#abbcdccfjebbdebaab",
"cffdegihdbbddddcdefedba#abbbbbbbbbegebbbacfebba#bddddedb##bdbabb",
"bceefgeedbabddcbbceffcb#bdcbbbbbbbbedbbbaabdec#.adcbccb#aa#ccabb",
"bcdedeeefdbbbddcbbcgjecbbbdbbcbaaabccba###aceib##bdcbba#cfbbcb#a",
"bceeeffffecbabdfdcbdgfdcbabbabcbbbbbb######bdfeba#dfdbb#bgfbbcbb",
"bcdeghfdddcbaaadffdcdedcbbabaabcbbbddb#aba##acddcbdifbb##ejfca#a",
"abddeeeeddcbbbbcefdccdedcabbb##bdbbcddb#cebabbcddeffdb##aegefcba",
"cbbdcccdeedbbccdedccccdddbabcb##cebbcdebacdcbbbcfhdcb##bcggccddd",
"ecbbccbbbehebbcdddddccdefd#abdcabfea#bdebabbccbdgedccb#beigdcbce",
"cdcbbbcbabfgbbbbdfeddefefgca#abcbceb###bcaabcdcdfeeeedb#bgfddccb",
"bcdcbaacb#bdba#acgfeefffdffcb##abbdca##abbaabddbcefggecb#deccddc",
"cbdecbbbbbbbbbbaceeeeefffhebbb##bccbaaaabba##bca#cdcdcbbbbddcbcd",
"cbbddddbbbb#acdccdeegeefhgca#aa#aefcaba#bcb##bdbabbbbbaababeecbc",
"ecbccceecbbbabeecdfegffffeda.#a#aejecb##adebabfhdcccbb##a##bddcd",
"eeddcbbccbbbaaceeefffedefedb###babeddcaaabeecdeffffffdb##aabbcee",
"cbdebabbbbbbaabcdeeeeecceeca###bbbcddfeecbehfhebbeefhhebbbbbb#be",
"cbbfcabcbba#bbbbdfeddfebcda#bb##aabffffeefeghifcbbceeeedbbbbba#b",
"b##bebabccbbbbbabeeeeffccb#befdb##ceedcddfhfgggebbbcddddccb#abaa",
"b###bbabbbbbbabaabdfeddcccbageddbabfecbdecegffhebbbbbbcddccbaabb",
"cb###bbbccbbbb#aabceedddddcacecceccfiebaeebddefdbbbbabbdeccbbabb",
"ccbbb#abddcbbbababceeeeddeeb#ddcfgdeiic#adddeffdbbbcbbacecbbbbbb",
"edcccbb#bddb#aabbbdheccddeedaadffeeffidaabcdeeefecbddbabdcbbaced",
"eddeeddcbaba#bbbcdffecbcddcdc#aedegfefdbbbabbbbcdeddhfbbdebbabff",
"dceefedddcbabcccdeccccbabbbbeb#bbcdeeddbbcbabbbbbdefhedbdfbbcabg",
"fdeededdeddccceegeaabbbbaaa#bfbbabcedcdcbba#cdca#bbdeddddebbcbac",
"dffeccddccbccbcehebaaabbaa###cdaaaaceedcbaa#bcdbaaabcdcffdbabbbb",
"bcddcbbbabbbbbbbdedba##abba##aec##abeeddbabbbbccaabbacdeeecbaaba",
"abcedccbaabbaabbbbddb##abbb#.#cdaabbccddbbbcccddbbbbbbcddddb#aaa",
"b##bdccbaaccbbbbbabcdbbbbbccbbbdcbbbdddedbbbbdffdbbbbabcfddfbbaa",
"ab##abba#cdddddefebbdecbcccdeddecaaceedddddca#bdecbbbabcefefedb#",
"abb###aaacdcdddedddbaceeddddcbccbbbdeccbbdffc#abffbbbaabbdfeffdb",
"b#bcb##bbbcdbccbbbcecabfdddecaabbbbedcccbddbeca#chcbbbabbbdddddc",
"b#bdecbbbbbceedcbabcddabdcehdbbbdedfebbccehccdcaaddbaaabbbcdcccc",
"bbbdeddddecbccdddbbbdecbbbdeecbadififb##adedddcb#bdcbbaaabbccbcc",
"bbdcdccdeffdbbbbcdccdddcaabcddb#agjfdb#..#cccdecbbbcccba##abcbbc",
"bbcdddbbcdeedcbbbcdedcedb.#ceeca#bfeb##...#aabfddbbbcedb#aa##bbc"
};
SIMPLE  =                    T                                                  BITPIX  =                    8                                                  NAXIS   =                    2                                                  NAXIS1  =                   64                                                  NAXIS2  =                   64                                                  HISTORY Written by XV 3.10a                                                     END                                                                                                                                                                                                                                                                                                                                                                                                                                                                                                                                                                                                                                                                                                                                                                                                                                                                                                                                                                                                                                                                                                                                                                                                                                                                                                                                                                                                                                                                                                                                                                                                                                                                                                                                                                                                                                                                                                                                                                                                                                                                                                                                                                                                                                                                                                                                                                                                                                                                                             ;;;OOO;;;OOOO;;;;;OOO;OO;'';OO;'';cO;'''''''';cOO;;;;OO;''''';;;;;O;O;;OOccO;;;;;O;;OOO;'';;OO;''cxcO;'''';;;OO;;;;;;;;'''';;;;;;;;OOOOOOO;;;;OOO;;;OO;;;;OOO;;'Oxcxc;'''OOOOO;;';O;;;''';;;;;;;;';OO;;;;;;;OOO;;';;OO';O;OcO;;;OOOcO;;;;Oc;;O;''OO;''';;;;O;;;;;';;;'';;;;O;;;;;;;O;';cOOOO;'';;;;OO;;;;OO;O;'';c;;;;';;;OOOOO;';;'''''';O;OOOOOOO;';OOOOOO;;;;;;;OO;;;;Occ;'';cc;;;'';;OcOccO;';''';;'';OOOOOOcO;;OO;;;;;OOOOO;'';OOOOOOO;'';OO;;;;';;OcOcOO;';'';O;;;'';;;;;;;';;O;;;;;;;;;;O;;;;OOOOO;;;;OccO;;;;';;cOOc;;''';;OO;;;'';;'';;;;OO;''';;;''';O'';;;;OO;;;;;;OO;;;;;;;OOOO;'''';;OO;;;;';;;;;;;OOO;'''';;''''O;''';OOOO;';;;;;;'';;';OOOO;;'';'OccO;;OO;;;;;;;OcO;''';;''''';O'''';OOO;;''';;O;''';;O;ccO;';;;;cOOOOOOOOOO;;;OOcO'';;;;'''';c;;';;OO;O;;;'';O;'';;OOOOOOO;;;;';O;OOcOOOO;;';;;;OO;;;;;';;;;O;';;;OOOOO;;;;';;;;;OOccOO;Oc;;;';cOOOOOOO;;';'';;;;OccO;;;OO;O;''OOOccOcO;;;';;;;;OOOOcc;;OO;;';ccOO;;;;;';OO;''';;;OcO;;OOOOO''OccOOccxO'';;OOOOcO;;OO;';O;;;';OO;;;;;'';OO;;;;';';;OOOOOOOO;'OO;ccOOxx;''OOOOccO;;;;;;';O;;;;;;;;;''';;;;;;;;;''';;OOOOOOO;';O;;O;;cxO;'OO;OOOcO;;;;';;OO;;;;';;;''';;';;;;;;';'';OcOOO;;;;'cOOO;';cO;;OO;OccccO;;;;;;;OO;;;'';;;'';O;';;;;;;;;';OOOOcc;;;';OcO;'';OOO;OOccccccO;;;;OOOO;;;'';'';;;c;';;;;'';;;;OcOOOcO;;O'';;'''';ccccOOcOccxc;;;;OOOOO;;;;;'';;;OO;';;;;;;'';;OOOOOO;;OO;'''';;;;OOcOO;;OcccO;;OOcccO;;;;;;';OOOOO;;;;;;;;'';OOOcccOOOcOO;''';';OOO;''';OO;OOccccccO;'''';;;OOO;;;;;OO;;;;';OO;OcOcccccOO''''''OxO;;'''OO;';ccO;;;;;''''';OO;O;;;OOOO;;;;'';O;;OOOcOOccc;''''''Oc;';'';;;'';O;';;;;;'';';OO;;;;;OO;;;;;;;;;;;';OOOOOccccO;;;'';;;;'''';;''';;'';O;O;;;;;OO;;;O;;O;;'';;';O;''';ccOOcccOcc;;''';;O;'''';;'';OO;;OcccO;;'OO;;OO;;O;;;;;;';cc;;;;OcOOOOcOcc;''';;;;O;''';;'';;O;OcOOOOO;';ccOO;;;O;;;;;;;;OcO;;;OOOOO;;OOcO'';O;';cO'';OO;';;;;;OcOO;;;';OxcO;;;O;;;O;;;OOOO;;;;OOO;;;;OOO;';;;'';O;;;OO;';O;;;;;ccO;;'';;cc;;OOO';OOOOOOOO;;;;;;OcO;;OOO;';;;'';O;;;OO;';O;';;;OOOccO;'''OcOc;;';;OOcccOOO;;'''OccO;OOO;;;';'';;;;;OO;'';'''';OO;;Oxc;;''Oxc;''';;OOOccccO;;';OcO;;OccO;;';;';;;;;;;;'''''';OcO;''OcO;;';cc;;;;;;;OOOOOOcO;;;OO;;;;cxO;;;;O;;;;''';;;;''''';Ox;'';O;;;'';c;;;;'';;OOccOOO;';OO;;;;Occ;;';O;;;;;;;;;OO;;;'';OO;'''O;;;;;'''';;';;;ccOOcxcO;;OOOO;OOcOO;''';;;;;;;;;OcO;;;';cO;;'';OOOOOO;'';O;';;;cO;OOOO;;;OcOOOOOO;;;;''''';;;;;OOcO;'';cx;''';;;O;;cxO;;OO;'';;OOOOO;;;;OccOO;;OOOO;;;;;';;;;;OOOO;;';OO;'''''';;;;OO;;';;''''OOOc;;;';OOO;;;;;OOOO;;';;;;;;OOccOO'';OO;;'''''';;Oc;;;;;';;;''OcO;;;;;Oc;'''';OcccO;';;;;;;OccccO;''OO;;'''''';Occ;;;;;;;;O;';cO;;;;;OO;'''';cxxxc;';;';OOOccOOOO;';OO;'''''''OcO;;';;OO;;;;;OO;';;;OO;'''';xxxxc;'';';OOOOOOOOO;;'OO;;'''''';O;;;'';OcO;;;';O'';OOc;''''';ccOcc;'';;'OOOOOOOOOO;;;cO;';'''';;;;;'';OccOO;'';;;;OOO;''';;;OcccO;'';;';OOO;;OOOO;';OOO;;;'';O;''';';OOOOcc;''''OOcO;''';;;OOOO;;;;;;;';OOO;;OOO;';ccOOO;;;Oc;''';;;OO;;OO;''';;;Oc;;;;OcOO;;';;;;;;;';OOO;;OcO;;;;OOOO;;OccO;;;''';OOOOO;;;;;;;;OcOOOOO;;;;'';OOO;;;';;OO;OOOO;'';;;;OOOOOOcOO;''';cOO;;;OO;;;;OOOcO;';''';;OccO;;;;;;;;OOOOO;;'';;;OOOccOOcO;;;;;;;;;';cc;'';;;;;''''';;;;OOcc;;;;;;;;OOO;;O;'';O;OO;cxcccO'';;;;;''';OO;;;';O''''''';O;;OOccc;;;';;;OcO;;O;;'';OOO;;ccxxO;''''';;';;OOO;'';O;;'';;;;cc;;cxxcO;'';OOOOcO;;O;'';;;OOOOOOcc;'''';OO;;OccO;;;';;';;;;;;cxO;Oxxc;;;;OOcOOOOO;;;;;;;;;OOO;;OO;;;;;;OxxOcxxc;;;;;;;;;;;OOOOO;;Oc;'';OccOOOOOOO;OO;;;'';;OO;;O;;;;;;OxcccccO;;;;'';;;;;;;;;;'';;;'';ccOOOOOOOOOOO;';'';OOOO;;;';;;';;OOOOO;;;;;;;;;;;;;;;''''';;;;OOOcOOOcOOOcOOO'''';OcO;;'''';;;';OOOcO;;;;;;;;;;;;;;;''''';;';;;OcOOcOOOOcOOO;''';O;;;;;;'';;;;;cc;;ccOOOO;;;;;;;';;;;;'';;';;OOOccOOOOOccOOO;';';;;;;OcO'';;;;Oc;;OOcccO;;'';;;'';;;;'';;;;;OOcOOcOOOOOccOOO;;;;';;OOcc;'';;;;O;';ccOOO;'''''''';';;'';;';;OOOO;;OO;;OccOOO;;;;;;OOOOcO;;;;OOc;';OxxO;;'''''''''';;;';'';;OO;;;OOO;;;OcOO;;;;;;;OOOOOO;;;OOOc;';;ccO;;;;''';''''';;;;'';;;O;;;O;;;;;;OOO;;;;;;;OOOccO;;;Occ;;''';OOO;;;;';;'';;'';'';;;;;O;';;;;;;;;O;;;;;;;;OO;;;ccc;;OcO;';'''OOOOOO;';O;';;;;;';;;;;OO;'';;;;;;;O;;;;';;;;cO;;OOO;;Occ;'''';;OcO;;;';OO;;;;;;;;O;;;OO;'';;;;;OOO;;;;'';;;;OOOOO;';OO;;''''';;cc;;'';cO;;;;'';;;;;OOO;;;;;OOOOO;;;O;';;''';Occ;;;;OO'''''''''OOO;;';cxO;;;'''';                                                                                                                                                                                                                                                                                                                                                                                                                                                                                                                                                                                                                                                                                                                                                                                                                                                                                                                                                                                                                                                                                                                                                                                                                                                                                                                                                                                                                                                                                                                                                                                                                                                                                                                                