/* XPM */
static char *marbled2[] = {
/* width height num_colors chars_per_pixel */
"   128   128        7            1",
/* colors */
". c #4e4e4e",
"# c #3e3e3e",
"a c #606060",
"b c #353535",
"c c #1e1e1e",
"d c #7a7a7a",
"e c #8d8d8d",
/* pixels */
"..###aaaa.a..#####...aaaa.a...#.####..aa.####...#bcccb#.aaaaa.##bbb#.aa..#ccccccccccccbbccc#.aaa...#####..aaaa.######ccccccb##..",
"..###.aaa.a...####.#..aaaa.a.....####.a..#bb##.##ccc#b#.aaadda.##b##..a..##cbcbcccccccc#cbc#.aaaa...##b##.addaa.######bcbcbc###.",
"...###..a.aa..#######...a.a...a.a..#...a.#bbb#########...aaaaaa.######.aa.##bbccccccccbc#cb#..aaaa.###cbc#aded...#.###bcbcbbbb#.",
"....###....a...##bb###.........aa...#...####bbbb#####.#.a.aaaaaa..#####..a.####bccccccc#bbb##.aaaa..##bcbb#adaaa..#..###c#c#b###",
"#....###....aa.#bccc###.....#........###.####bbc###.#....a...aa.a...###b#.aa...##ccccccc#b##..addda.###bbc##aaaa..#...###bbb###b",
"b##..####....aa.#bcbc###....####......########bbb#.#.#..aa.......aa.a.#b##.aaaaa.#bbccbcbb###.aadaa..#####b#..aa...##..##b#####b",
"cbb########....a.#bc#b##.....###.#.#....###.####b##.#...aaa..#....aaaaa####.aaaaa.##bbbbbb###..aaaaaa.....####.aa.###...########",
"#cbb########....a.###b###....#.#.####....#.#.#######....aaaa..#...addaaa.b#.aaada..##b#bbbbb##.a.a.aaaaaaa.####....####..#.###.#",
"#.bcb####b####.....##b##.......#.#####.a.......####.#.#..aa....#..addaaa.##..aaaaa..##bbbcccc#..a.aaaa..a.a.#bb#..##bb##.#.####.",
".###b###bbbb#.#...a.#####.........####..a....a..##.#.#.#....a.a..aaddaaa..#..aaaaaaa.##bbcccc#...aaaa..#....##cb##.#bcc#####bbb#",
".########bb###.#...a.###...a........##..aaa.a....#.####.......aaa.addaa...###.aaaaaaa..#bcccb##.aaaaa..##.####bcb####bccbbbbccbb",
"##.###b#bbbb####...aa...#....a.a.....#...aaaa.....#.####....#..aaaaadaaa...##...aaaaaaa..bccb##.aaddaa########bbcb###bcbcccbcbc#",
"######bb##bbbc###...a.........a.a........aaaaaa....######...#.#aaaaaaaaaaa.####....aaadaa##b###.aaddaa.######bbbbcc#b#bccbccbbbb",
"b####bcbb###b#b###...a...........a.......aaaaaaaa...#####....###.aa.a.aaaaa.####.....aadaa.##b##.adddda.####bcbbccbcbbcbccbcbbbb",
"b######bbb#b###b###..a.aaa.a......aa....aaaaadaaaaa..#####..####..a.a.aaadaa#######...aaaaa##bb#.addddaa..###bccbcccbcbccbcbbbbb",
"#######bbbb######b##..aaaaaaa...aaaa.a.a.aaaaadaaaaa..####...#bb#...a.aaaaaa.##bb###...#..a..#b##aadddaa....#bbcbcbcbcbbcbbcbbb#",
"#########bbb######b##...aaaaa..aaaaa.a.aaaaaadaaaaaaa.#####.#bc####..aaaaaaaa.bcb##.#..#..aa..###.aaaaaaaaa..###bbcccbb##bc#cbb#",
"##########bcbb##.##b##..aaaaaaaaddaaa.aaaaaaaadaaaaaa..#######b#####...a.aaaa.#bbb##...#...ad.####aaaaaaaaaaa..####bbb#####bbc##",
"#####b###bcbc#b####b###......aadaaaaaaa.aaaaaaaaaa.aaa###b###b####.####..aaaa.#bb###...###aada.###..aaadaaaaa...#bb###b#####bbbb",
"#####bbbcbccbbbb########.....adaaaaadaa.aaaaaaadaaa.aa.#bbb#bbb#....####......#bbb###...##.aada..#..addadaaa.a..#########.####bb",
"#######cbccbcbc#b###bbb#....aaaaaaaaaaaaaaaaaaadda.aa..#bcbbbbb#......#.###..##bc####...###.aadaa..aaddaaa.......####.####..###b",
"#######bcbcbbc#c#####bb##...aaaaaaaaaaaaaaaaa.adaaa.aa..#bcbbcb##.aaaaa..#####cbcbbb##.###bb.aaaaa.aaada..........########.#.###",
"#.#.#.##bb#bbbbbc#########..aaaaaaa...aaaaaaa.aaaa.a.aa.#bbc#bcb#..aaaaa...#bbcbcbcbb#.##bcc#.....aaaaaa.....#.....########..#.#",
".#.#..#.######bcbc###.##b###.aadaaa...aaaaaaaa.aaaa..aaa###bb#bcb#..aa.aaa.##bbb#bbbb##.##cbb#...aaaaaaa.....#.....########.....",
".#........#.#.##cbb#...##cbb#.aada.a.aaaa.aaaa..aa....aa..######cbb##..aaa...##########.#.#b##..aaaaaaaaaa.a..#.....##b#####....",
"..##..a.........#bb#.aaa.#bc##.aaaaaaaaa.aaaaaaaaaa....a..######bcbb##..a.a...#...######..####.addaaaaaaadaaaa......##bbbb##....",
".####..aa.a.aaaa.###aaddaa#.#b##.aadaaaaa.aaaaaaaaa........#######bb##...a...........###....#..adaaddadaddedda...#..###bb####...",
"..####......aaeda.#..ddeeaaa.###..aaaaaaaaaaaaaaaaa........###########..a.......aaa..####....#..aadeddaadaeeddaa..#.#.########..",
"..#b###.....adedaa...adddedaa..#####..aaaaa.a.aaaa.a......########.#.#.aa.a......aaaa.#####.####.addddaaaaddedda..#.#.#########.",
"###bb##.#.#..addda....adddedada.#bb###..aaa.a.aaaa.a......##bb###.#....aaa.aa.a.aaadaa.#bb###bb##.aaaa...aadadaaa..######b######",
"bbbbbb#######.aadaa#..aadddddaaa##bbbb##......aaaaa.....a.##bbbb##.....aa....aaaaaddda.##bbbcbcc#b#.a....#.aaaaaaa.####bbb##.##c",
"bbbbcbbbb#bbb#.aaa..#..aaaadaaaa.##bbb###......aaaa........##bbbb##....aa.....aadddedaa.##bcbcbcbc###.#####...aaaaa###bbbbb#..##",
"##bbbcbcc#bcbc##.a..#...aaaadaaa..########......aaaa.....a..##bcb##.a....a....adddddedda.##cbc#bb#b#####bb###...aa..#####b###...",
"######bcbcbcbcc##...#...a.aaadaa..#.#.####.......a.a.........#bbcb#......aa...adeddddddaa.#bcbb#########bbb###..a.a..#####bb#.a.",
"......##bccbccb###.#.#...a.aaaaaa.#.#.#####.......a.a.....a..##cbc##...#...a..adeeadadaaa..bcb###.#.########bb#...a.a.###bbb##.a",
"a.aa.a...##cbbbb#######...a.aadaa..#....###.......a..a..a.a...##cbc##...#..aaa.ddddaaaaaaa..#bb#.####.#.#.###bb#..aaa..#bbbbb#..",
"..aaaaddaa.#####bbc#bb##...aadaaa...#....###.......a.a.aaa.a..###bbb#...#..aaa.aadaaaaaadaa..#########......###b#.aaaa..#bbb###.",
"..aadaadaaa.....###b#b#####..aaaaa.......####.....a...aaaa.a...#bbc###...#.aaa.aaaaa.aaaadaa..####bc###.aa.....###.aaaa###b#####",
".#aadaa.a.a.aaaaaa.######bcb#...aaa.#....####....a.....a.a.a...######.......a.....a.aaaaaaaa...##bc#c##.aaaa.a..####aa..######.#",
"...aaa..##...aadaaa....##bbbb#...a...##...#b##..a.a......aaaa..######...aaaa.a.....aaadaaa.....#bc#c#c#.aaa.a.a...##.#.#.######.",
"...aaaa.#####...a.a..a.a.########...#.#...##b#.a.aaa..#..aaaaa..####...aaaaaaa.......aadaa.#.##bbbbbbb#..aa.a.aa.a..##########.#",
"..aaada..###bb###.#...a.a.a.a.#######.########..aaaaa..#..aaaa..#####.aaaaaaa.a..#....aaaa.##bcbc#b##b#..a.......aa.#####bbb###.",
"..aaaaaa.##bbcbb###.#.#..aaaaaa..########.##b##...aaaa.#...aaaa..##b#.aaaaa..a.....##...ada.bbbb#bb#####.aa......aaaa.#bc#bbb###",
"#...aaaa...#cbcc########.aadaaaa..##bbbb#####b#..aaaaa..#..aaaaa...#b#.aa.aa......######.a..###bbbbb####..aa....a.adaa#bcbbbbbb#",
"###..aaaaaa.#cccbb####b#.aaadaaaa..##cbbb#.#bb##.aaaa.a....aaaaaaa.####..aaaa.##.#.##cbcb#....##bc#b###b##.aa.aaaaadaa.#bc#b#bcb",
"bb##..a.aaaa.#cbcbb#bbb##.adaaaaaaaa.#bbb####b##.aaa.aa.....a.aaaa...###..aaa.#######cccc###.a.#######bbb#..aaaadaaaa..##cbb###b",
"##bb#....aaaa.##bc#b#bbb#.aadaaaaddaa.#bbb####b##.a.aaaaa.aa.a.aaaaa.####.aaa.##bb##bccc#bcbb#...######bbb##.aadaaa.....#bc##.##",
"..####.....aaa..##bbbbbc#b.adddddeedda.#bbb###bb#..aaaaaaa.aa.a.aaaa..####.a...###b#bbbcbbbcbb#aa..#.###bbb#..aadaa.#..##bc#...a",
"aa.##b#..#.#.a...##bcbbccc#.adeeddeedda.#cbb##bc##..aaaaaaaaa.a.aaa...##b#...a..##bbbbbbcbcbcb#..a..#.###bbb#..aaaa..#..##bb#.aa",
"aaa.####..#...a.a.#bbccbccc#.adddedeedaa##bb####b##..aaaaaaaaa.a.a.a..##b##...a..##bc#b#bcbc#cc#.aaa..#.###bb#..a.a..#...##b##aa",
"aaaaa####.#.#...a..#bbcccccc##.aadededda.##bb####b##..aa.aaaaaaa.a.a...#bb#..aaa.##bbc#bcbcbccbc..aada..##bb##...a........####.a",
"aaaaa..#######..aaaa##bbcbcbcb#.aaddddaaa.#bbb####b#......aadaaaaaaaa..#bc##.aaa..#bbbbbbbcccccbb.aadaaa.##b###......#.....##b#.",
"aaaaaaa.###b###..aaaa.#####ccbb#..adaaaaa..#bb########.....aaaadadddaa.#bcc#.aaa..##bbbbcbcccccc##.aaadaa.######....####....#bb#",
"aaaa.aaa.###b###...a....#####b###.aaaaaaaa.##bb########.##...aaadaddaa.##bb##.a.a..##bbcbccccccbc#...aaaaa..##############.##cbb",
".aaa..aaa.####bb##...aa.a..#####...aaaaaaa..##b####bb##.####..aaaaaaaaa.#####..aaa..##bcccccccbc###....aaaa...####bbbbb###b#bbcb",
"..aa..aaaa...######..aaaaaa.........aa.aa..#########b######.#...a.a.aaaa.#.####.a.a..#ccccccbbcbc###..#..aaa.a.##bbc###bcbbcbbcb",
"#.aaa...a.a....#####..aadaaaaa...aaa.a......####b#bbbc###.#.#....a.a..aa..###b#..a.a..#ccccccbbb###.#.##..aaaaa.##b###.##bbbbbbb",
"..aaa....a.aaa...###..aaaaaaaaaaaaaaaa....#.##bc#bbbbbb###.#.#......aaaaa...#cb#.aaada.bcccc#bb#b##...#.#.aaedaa.###.....#bbbb##",
"..adaa...aaaaada.####..aaaaaa.aaaaaaaa....###bbbc##bbbb##.#.#.#....aaadaa..###b##.dddda#bcbbb#b###..a.....addaa.####..a..##bb###",
"..aada..aaaadddaa.####aaaa.a.a...aaaaaaa...##bbc#####b#######.#.#.#.aadda..####b##.aadaa##b#bbbb#..aa.a.aaaaaa.##bb##....##bb##.",
"..aaaaaaaadddddaa.####..a.a........aaaaaa..##bbbb##.##########.#####.aaaaa#..###bb#.aaa...###ccb#.......a.a...#cbcbc##...#bb###.",
"#...aaaaaaddaaaaa..#b##..a.....###.aaaaaaa..##bcb#..#.#.#############.aaa..#.#.#bc####.a...#bbccb#..........##bcbbbbc#...##b####",
".#...aaaaaaaaaaa...####..aa.....###..aadad..###bb#....########b###b##..a...######bbb##...aa.#cccc#.a..#.#.#.#bbb#####b#..####b##",
"#....aaaaaaaaa.aaa..####..a.....####..adeda...#####.a..###..##bb#b#b##....####bbbbbc##...aaa.#cbbb#.a...#.###bbb#.a.####..##bc##",
".#...aaa.aaaaaaaaaa..#####..aa....##..adddaa..###b##...####..##bbb#b###..##bccccbcbbb##.aadda##bcbb#.....####bc##.aa.###...##bb#",
"#....aaaaaaaadadadaa.###b###.aaa....#..adddaa...#bc#.#.#b###..##########.#bcbc#cbbcbc###.aada..##bc#.aaa...###bc#.ada.####.#####",
".#..aaaaaaaadaaaaaa...#bbbb##.aaaa......aaaaa...######.#b####..#####.##.###bcbc#c#bc#cb#..aaaa.##bb#..aaa...##bc#.aadda####.####",
"##..aaaaaddaaaaaa.a...##bbbb##.aaaaa....aaaaa....##bb####b####..#####.....##cc#####bbccbb#...aa..###.addaa.###bcc#addeaa####bb##",
"##....aaadddaaa..a.a.###b#b#b#..aaaaa....aaaaa...##bb####bbb###..####..aa..##cc#####cbccc#....a......addaa.##bcbc#.dddada.#ccbcb",
"###..a.aaaaaaaa..aa...########..aadaaa.....aaa...##bb####bbcbb##..####.a.a..#bc##...#bcb###....a...aaadaa..#cbcbc#.ddaadda###bbb",
"b###..a.aaaaaaaaa.a.a#####.#.#..aaaaa.....a.a.a...####.###bbccb#.a..##....a..##b#.aa.#####.#....aaaaaaaaa.#bcbbb##adda.aaaa..###",
"#####..........aaaaa...###......aa..........a.a...##b##..##bcbcb#.a..###......####.....#.#.#.....adaaaa..##cbc###.adda....aa....",
"..####..........aaaaaa.#b#......a.a..........a.a.a##bb#.....#bcb#.aa..####..aa..#b#.....#.#.#...addaa....#bbb##...adda.......a.a",
"a..###......##.##aaaada.###....a.a..........a.aaaa.#bbb##....##b##aaa.#bb##..a...bb##.#....#.#.aadaa.....##bbb##.adedaa.......aa",
"aa..####.#.#.#.###.aadaa####.....a.aa.a.....aaaaada.#cbb##....####.aaa#bc#b##.a..#bb###.....#..adaaaaa....##bcb#.aaedaa.........",
"..a..####.#.#.#####.adaa.#####....aaaa.a.aaaaaaaadda.#bbbbb##..###.aaa.##cbc###..##bb####......aaaaaaaaa.a..#bc##.addaaa........",
"......######.#.#bbb#.aaa.#######.aaaaaa.aaaaaaaaaaaaa.##bcbc###.##...a.##bbcbc##.##bb####..a....aaaa.aaaaaa..##c##aaaaa.aa......",
"##..a..#######.##bcb#.aa.##bbb##..adaaaaaaaadaaaaaadaa.##bcbcb###.#..a.##cbbbbbb####bb#b##..a##..aaaaaadadaa..#bc#.aaa..........",
".#......###bb##.#bbc##..###bbbb##aadaaaaaaaaadaaaaadda..###bccbb###....##bbbbc####bb#bbbb#.a..###.aaadadaaa..###bc.aaa..........",
"..##.aa.####################bbb##.aaaaaaaaaadaadaaadaa.#.####ccbb#....##bbbb##b###b#bbbcbb#...#bb#.aaaa.aa....#####.a.....#.....",
".###..aa...#.#########b#####.####.aaaaaaaaaaaadaaddda.######bbcbb#....##bbb#bbbb#####bbbcb##..#bc###........########.a.a..#.#...",
"...#...a......#######bcbb##...#.....aaaaaaaaaaaddddaa##bbb#bbbbcb#.aaa.##b##bbbbb####bbcbc##..###b###.###############.aa...#.#..",
"..#.#...a..a.a..#######bb#...a.....aaaaaddaaaaadddaa..bccbc#bbccb#.adda.##bbbcbc##...#bccbb..a..####..######bbc#b#bb##.aaa..#...",
"...#.#......aaa..######b###.aaa....aaaaaaddaaadadaaa..#bcccbbbcbc#adeeaa###bc#bbb#..a.##c##.aaaa.......#####bcbcbbcbc##.a.......",
"aa..#........a.a..######bb#..aaa...aaaaadaaadaaaaaaaa.#bccccbcbc##.adaaa..##bcbc###aaa..###.aaddaa....a...##bbccbbbcbc##...a..aa",
"aaaa...a.###.#....###.###bb#..aaaaaaadaaaadaaaaaadaa..#bcbcbbbb#bb#aaa..a..#bbbbbb#.aaa....aaadddaaaaaaaaa..#bcbcbbbbb####..aaaa",
"a.aaa..a.#######.#..#.###c###..aaaaaaadaaaaa.aaaaaaa..##ccbcbbb##b#.a....a..###b#b#..aaaa.aaaaa.aaadaaadadaa.#bbbbb#b######..aaa",
"..#.aaa..#bb#b############bb##...aaaaaaaaaaa....aaaa..#bbcbccb###b##..a..aaaa...###..adaaaadaa....aadaaddddaa.#bb#########b##.aa",
"..#...aa.#b########b##b#bb#bb##..aaaaaaaaaaa.....aa..#bc###bcc#b####..aaa.aaadaaaa..aadddaddda.##...aaaadadaaa.##########bcb##.a",
".####.aaa#b###.#.###bbc#b######..aaaa.a.a.aaa..#..a.#bc#b###bcbbb#b##.aaaaaadadaaaaaaaadddddda.#####..aaaaaaaa..#########bbcb##.",
".##b##aaa.#b#...#.####bbb#######..aaaa.a.aadaa......#c###..##bcbcbb##.aadadaaaaaaaaaaaddddddda..####...aaaaaaaa...###bb#b###c###",
"##bcbb#.a.#bb#.#....########.####.aaaaa.aaaadaa....##bb#.aaa..#bbcbb#.aaaaaa..a..aaddaaadaddada..####....a.a.aa...#.##c#b####bb#",
"##cbcc##.a.bc###.#.#.#########bbb#.a.aaaaaaaaa....###cb#aaaa...##bc##.aaaa.....aa.aaddadadaadaaa#.#.#.#.....a.......##bbbbb##b##",
"##bcccc##..#bb###.####.###bb###c###..aaaaa.a........##b#aaaaa...#####.aaa......aaa..aaddaadaddaa###.#.####....aa.....##bbbbb####",
"##bcbcbc#####b##.######.##b#bb##bb##.aaaa.a.a.......##b#aaa...a..####.aaaa..##..aa..aaaadaadada..###.#######...aa.....##bb#####.",
".###cbccc########..#########bbbbbb##..aaaa.a.a.a.....###.aa........##.aadaaa####aaa...aaaaaadaa.#####.######...aaa.....##bb###.#",
"..###bbb#bb#####....####.##bcbbbbb##...aaaa.a...aa.a..###.aa....aaa...adedaa.#b#.aaa#....a.aaaa.######.##b####.aaa....####bb###.",
"...###b###cbb##...a..####.##bb#bbbb##.aaaaaaaa...aaaa..#b#.a....adaaa.aaeddda#bc#.a.....aaaaaaa..####.#.####b#..a....#.########.",
".....######c#b##...a.#######bb######..aaaaaaaaa...aaaa.#bc#.a...aada.aaadeeda##bc#..a..aaddaaaaa.####....###bb#..a.#.#######.#.#",
".a.....#.#####bb#..a..#bb###bb######.aaaaa...a...aaaa...#b#..aaaaaaaaaaaaddda.bbbb#...aaaddaaaaaa..#.#.a..##b##.....#.#####.....",
"aaaa........##bcb#....#bcbbbbbb##....addaa..#..aaaa.a.a.#bb#..adaaaaaadaaadda.#b#####.....aaaaaaaa..#...aa.####..a...###bb#.aaaa",
"aa.a..aa.a....##bb#####bcbb##b##....aaaaaa..#....a.a.....#bc#.aaaaaaadaaaaaaa.######b###..##...aa.a....aadaa####..a..####c#.aaaa",
"a.a.a.aaaaaa.....##bbbbbb######...aaaaaaaa..###......#....bcc#.a...aaaaaaaaaa.####.##b#########...aaa..aadda.###.aaa#..###b#aada",
"....aaaaaaa.a.a...##bbbb##....#...aa........######.####..a##cb##...aaaaaaaaa..####..##b##########..aaaaaddaa..##.aaa.#...#b##aaa",
"a...aaaaaaaaa...a.a.#####........aaa.##......###########.aa##c#####...aaa......###.###b#...####b###.aaaddaa.a....aaa####.##bb.aa",
"aa..aaaaaaaaa...aaa.....#...a.aaaaa.######.#.####b#b#bcb#aaa########..aaa....a.#.####bb##.a..##bc####.aaaa.a.a...aaa####..##b#.a",
"adaa.aaa.aa..aaaaa...........aaaadaa#bbb#####.##bbbbbcccb#aa.###bbb##..aaa......####bbcb#..a..#bbbb#b##aa.a....aaaa.#####.#####.",
"aadaaaaa......a.a....#........aadaaa#bbbbbb######bbbcbccc##aa.#bbbbb##..aaa..a..##bbbbbc##....##bbbbc###......aaaa...#####.#####",
"..aaaaa..........#.#####.##.#..aadaa.#bbbbbb#b###bbbbcbcbb#.a.#bc#bbb##.aaaaa...##bbbbb####....#b#bb###b#..a..addaa..#bb########",
"##..aaa......#################..aaaa..#bbbbcbbb####bbbbbc###.a.#bbbc#b#.aaaa.a...#b##bb####....##bbb###b##..a.aaaa.a.##b#b####b#",
"###..a.a...#..###bb#######b#####...a.a##bbbbcbbb####bbccbcc#.a.#bc#bb##..a.a.aa.##b########.....#bb######b#..a.aaaaa..##bbbb#bbb",
"b###...a.....#.#bbbb#####bb#######...a.##bcbbcbb####bbbccccb#a..#bbb####......a..######.#.....a..###########...a.a.a..##bbc#bbc#",
"bbb##..aa.....###bb##.####b#########.....##c#bbbb#####bccccb#...##b#b##......a...###b##......a.a.######.#####...a.a..a.##b##bbbb",
"#bcbc#..a......##bb##..#.######.##b###....##bb#b###..######b##.a.####b##......aa..######....aaaa..#####.#####...aaa..aa.#####cb#",
"##bcbbb#......##bbb#....#.#.#..#.#####..a..#######.#......####....#####..a.a.aaaa..#######..aaaa...###.####b##..aaa..aaaa#.##bc#",
"####bccbb###.##bbb#............aa.a.####.aa..#.#.......aa.a...aa..##b#..aaa.a.a.aa.....##b##..aaaa.###.####b#...aaaaaaaaaa..##bb",
"b####bccbbb####bbb#.a.a.aaa.a.aadaaa.###..aa...........aa...aaa..##bb#..aaa.a......aaaa.#ccbb#.aaaa#######bb##...aaaaaaaaaaa..#c",
"b##.##bcbcbbb#bbb##......aaa.aaaaaaa..####..a.a.a.....aa..#..aa.###b##.aaa......#..aaaaa.#cc###.aaaa#######bb###...aaaaaaaaaa.##",
"#b#####bbbbcbc#bbb#.a.....a.a.a......a..#b#..aaaaa.aa.a...############.aa.....#.#...aaaa...#bb##aada.######bbb###..aaaaaaaaaa..#",
"##bb#.###bbbcbb#####..........#..###..aa.#b##aaaa.a.a.a..##bb#######...a.......#.#....#.aa.##bbb.aada########bb####..aaaaaa.a...",
"#bc##....#bbbc######..a.......#.#####..a..##b#aa.a.a.a.a..##b####...#..aa..........aa..#.aa###bb#.aaa.##b####b#####.........a...",
"##bb##.a..#######.###....a.....####b###.a..####.....aaaaa.######...a..aaa..#.......aaa....a..##bb#.aa.##b#b#b#######............",
"#bb##...aaa..###....###.aaaa.a...##b###..a..####.....adda.##b###.aaaaaadd..####...aadaa.......#bbb#...##bbbbbb#b###.#....#.....#",
"b####...aaa..........###..a..aa...#####...aa.###.#...adaaa.##b##.addaaddda##bb####.aaaa...a..###bc#....###bbbbbbb####.....##....",
"####.#..aa....aa.aaaa.#####......a.####..a.a..######.aa..aa###bb#adddddeaa##cbcccb#.aa.a.a.....##bb#....#####bbbbb#b##....#.#..#",
"###...........aaaaaaaa..########.a...#...a.a...##b###....a..##bcb#adeddaa.##bcccccb#.......aa...####.....#.###bbcbcbb##....#.#..",
"###......a...#..aaaaaaa..#########......a.a.a...#bbc##..a.a..##c##.dedaaa.#bcccccccc##.#...aaa...#####.......#bbbbccb####.#.#.#.",
"####..a..a...###..a.aaaa...####b###.a.aa....aa..#bccb#..aa.a.###bb#adaaa.#bcbccccccccb#####.aaa...#####....a..#bbc#bbbbb#####..."
};
