/* XPM */
static char * marbled_xpm[] = {
"128 128 16 1",
" 	c #4E4E4E4E4E4E",
".	c #464646464646",
"X	c #3E3E3E3E3E3E",
"o	c #606060606060",
"O	c #696969696969",
"+	c #575757575757",
"@	c #353535353535",
"#	c #262626262626",
"$	c #1E1E1E1E1E1E",
"%	c #2E2E2E2E2E2E",
"&	c #717171717171",
"*	c #7A7A7A7A7A7A",
"=	c #8D8D8D8D8D8D",
"-	c #848484848484",
";	c #969696969696",
":	c #9E9E9E9E9E9E",
" .XX oOo++++ XXX..  +ooo++++ ....XX. +o+.X@.   .X#$#%@ oooO&o.XX%@X +oo .@#####$$$$$#%@@##%.ooo++  XXXX. +OOO+ XXXXX@%####%@X.  ",
"  .@X oo++++ .XXX... ++ooo++++++  .X +o+.@%@X...@%%@@X +ooO*Oo .XXXX. +o+X%%#%#$$$$$$#%%##%.++ooo+ .X@@@X+&=-o+ ....X@####%%@X. ",
" + .XX ++++++ XXXXXX. ++++   +ooo+ .. ++.X@@@XXXXXX... ++ooOO&o  .X@X. oo .X@@%#$$$$$#%@%%@. +ooo+ .X@##%.o--o++ .. .X@%%%%@@X. ",
" ++ XX.  +++o+.@@%%@X.       ++++++ .....XXX@@%@X..... +++++ooo++  X@XX.+o+ ..X@#$$$$#%@@@X. +O*&o .X@%%#@.o&Oo+ ..  .X@%%@@XXXX",
"X + .XX.    oo+X%###@X.    ....   ++ .X..XXXX@%%X..... +o+    +++++  .%%.+ooo++ X%%#$$#%@@X. +O--O+ .XXX@%@.ooo+ ...  .X@@@XXX@@",
"%@.  XXX..  ++o+X%#%@@..   ..XX...  + ..XX..XX@@X....  +OO+..   +oooo+X@X.+oOOOo X@@%%%%@XX. +oOOoo+    .X@X.+oo+ ...  .XXXX..X@",
"%#%X.XXXX...  +o+X@@@@X.    ........ + .......XX@X..   +O&o  ..  oO&&Oo X@.+ooOO+ XX@X@@@@XX. ++++oOo+++o+.XXX o+ XX..  ...X....",
"X@%%@XXXXXX..  +o .X@@X.     .....XX. ++ .    .XXX..    ooo+  .. o&**OOoX@.+oO&Oo+ X@XX@@@%%@ ++++oOo++ooo .@@X + X@@X.  ...X.  ",
" .@%@XXX@@@X... +++.XXX.        ...XX.+o+   ++ .X......  +++++   +O*&ooo .. +OOOOo+.XX@@%#$$%. +++oOo   +++ X@%X. .@%%@....X@@X.",
" .X@XXXX@@@X...  +++.XX.  ++      ..X. oo+++++  .......    +++oo++O=&o++ ... oooOOOo .X@%$$$%. +oooO+ ..   .X@%%X. X%##@XXX@%%@.",
"...XXXXX@@@XX..   +o+... ++++++++   .. ++oo+++   ...XX..      oOo+O-O++++ .X.+++ooOOo+ .%$$#@X +OO&Oo XXX..XXX%#%X..@%###%@%##%X",
"X...X@@XX@@@@@X.  +oo+ .    +++++   ..  +OOoo++   ..XXX.   ...+Oo+oOooo+++.@X   ++oooOOo.%#@XX.+OO*&o .XXXXXX@@%%%@XX@######%%@@",
"@X..X@%@XXX@%%@.. +++++     +++++++     oOOOoo+++  .XXXX.   ...+oo++ooooOo XXX.    +oO-*o.XXXXX oO-*&o .XXXX@@@@%#%@@@%#####%@@@",
"@XXXX@%@@XXXXX@XX.  ++++++++    ++++   ++oOOOOooo++ ..XX.   .XX.+oo+++oO&&o XXX..   +ooOOo X@@X.+O-*-&o ..XX%#%%#$#%@%%####%@@@@",
"XXXXXX@@@@@X..X@@@. ++oooooo+  ++oo++++++oooO&Ooooo+ .XX.   .@@X ++++++o&OO+.X@XXX.     +o+.X@@.+O**-&o+   .@%#%###%%%###%%@@@@X",
".XXXXXXX@@@XX...X@X. ++oooOO+ +oOOo++++oooooO*Oooooo+.XXX.  X@%@X. +++ooOoOo X%%@X..  .  oo+.X@X o&&OOoo+++ .@%%%%###%@@%%%%%@XX",
"..XXXXXXX@@@@X...X@X.  +ooOo++oO&&oo++ooooooO&Ooooooo XXXX..X%@XXX. +ooo+ooo+.%%@X..  ..  oOo.XX.+oOooooooo++ .XX@%#%@XXX@%%%%X.",
"XXXXXXXXX@%%@@X..X@@X. +++++ooO&&OoOo++oooooOOOoo+ooo .X@X..@@X.XX...  ++oOOo.@@@X..  ... o-O XXX.+oooOOOOOo+  .X@@X@@X..XX@%%@X",
"XXXX@@XX@%#%%@@XXXXXXX. +   oO*&ooo&Oo+++ooooOOOo++oo+.X@@XX@@X.  ..@@X ++oo+.X@@XX.   .X.o&&o .X. oOO&&OOoo++  X@X..XX....X@@@@",
"XXXXXX@%####%@@@XX.X@@X     +OOooooOOo++oooo+oO*o++oo+.X%%@X@@X ++  .XX...   .@@@XX..  .XX o&&Oo   +O**Ooo+++++ .XX....X. ..XX@@",
"XXXX.X@####%%%%@XX.X@%X   ++oooooooooooooOoo++&=O+++o+ X%%%@%%@. ++oo++ .XX..X@%%@XX.  .XXX o&&Oo++oO-&o++    ++ ..X..XXX. ..XXX",
"......X%%%%%%%%%@X..X@XX. +oooooOO++++oOOOoo++oOO+++oo+.@%%@%%%X +oOOoo+ .XX@%##%%%@X. .X%#@ +o++++oOOo+          .XX.XXX.  ....",
".... ..XXXXX@@%%%@X...XXX. +oOOOOO+  +oOOoooo++ooo+++oo X@%@@@%%X +ooo+o++.X%%%%%%%%X...X%#%X    +ooOoo+    ..    ..XXXX...   ..",
"..      ......@%#%X.  .@%@@X o&&Oo+ ++ooo+oOo++++o+ +oo+ X@@XX@%%X. ++oooo+.X@XXX@@@X....@%@X. +ooooooo+++  ...    .X@XXXX.     ",
" ..  +++      .@%%X +++ @%#%X+OOo++oooo+++oOoo++oo+  ++o+ XXXXX@%%@X. ++o++  ......XXX.  .XXX.+O&OooooooOooo+ .     X@@X@@X     ",
" ... +oo+++++++ X@X oO&o X@@@X.+oOOOOOo+++oooooooo+  ++++ ....XX@%%@X. ++++     +  ..XX    ...+*-OOOOOO&***&o+  .   .X@@@XX.    ",
" .XX. ++++++oO&o XX o*=-&o+ X@X.+O*OOooooooooooooo+   +   ..XXXXXX@XX. +++     +o++ .XX. +  ..+OOO&-*OO&**--*O+  .....X@X.XX.   ",
" .X@X. +   +O=;&o . o*==-*Oo ..X.  +oooOOOo++ooooo++      .XXXXX......++++++   ++oo+ .XX.   ...+oO-=-OoOO*===*O+ .....XXX.XXX.  ",
" .@@X..     o-=&o+  +O&&*-*OOo .@@@.. +oOo+++oooo+++     .X@@XXX....  +Oo++++++++oOOo X@@X..X@@. o**&o+++O**-*Oo+ ....XXXXX.XXX ",
"XX@@@X....X. o**&o . +O&---*&Oo X%%@@X.+o+++++oOOo++   ++ X@@@@X..    oOo+++++++oO**O+.X@@@@@%%@X +oo+   +oOOOOoo .XXXXX@@...X@@",
"%@@@@@XXXX@@X oO&o .. oO&&&&OOo+ X@@%@X.  +   oO&o+   +++ .X@@@@X.    oo+   +ooOO*-*&o+.X@@%%##%%%X    ... +++ooOo X@X@@%@X  .@#",
"@@@%%%%%@@@%%@.+oo .. +ooOOO&OO+ .XXXX@X.     +oOo++   +++ .X@@@@. ++ ++++   oO***---&o .X%##%%%%%@X..XX@XX. ++ooo+.XX@X@@X.++.@",
".X@@@%##%@@%%%@.   ..  ++ooOOOo+ .....XXX      ++oo+    ++  .@%%%X ++   +o+  +O--***-*Oo .@##@@@XXXXXXX@@@XX. +++++ .XXXXX@X ++ ",
" ....X@%####$#%X.  ..  +++ooOOOo ... ..XX.      +++++    ++ .X%%#@. +  .+o+  +O==*&&*-&o+ @%#@X.....XXXX@@@@@X +++++ XXXX@@@.+o+",
"+++++  X@%###%@XX..... +++++oOOo+ ...  .XX.     ++++++ +++++ .@%#%@.++ . ++o++o-=*&OOOOOo+.@%@X............X%%X ++oo+ XX@@%@X.++",
"+oooooOo+.X@@XX@@@@@@X.  ++oO*Oo+  .    .X.      ++++++o++++  X@%%%X.  .. +Oo+o**&OooooOOo+ X@X...XX.    . .X@@X oOOO+ X@@@@XX.+",
" +o&&O*-&o   ..X@%%@@@X.. +oO&Ooo+ .    .XX.     +++++oOo+++  .X@%%@.   ..+Oo++oOOo+++o&&Oo+.XX..X@@X. ++     X%X+ooOo .X@@XXX. ",
"  o*&ooOoo+++oo+ .XXXXXX@@@X ++ooo+ .    X@X.   +++  +ooo++++ .X@@@X.   .. oo++++oo++ooOOooo+ .X@@%%%X oOo++++ .XX.+oo+.XXXXX...",
". o&O+ .. ++oO&*Oo+  ..X@%#%X  +oo+ ..   .X@.  +++++   +++oo+ ..XXX..  +++++++   +++oOOOo+++++.X@%%%%@.oOOo+++++.XX ++ ..XXXX...",
"  oOOo .X..  +oOOoo+++  XX@XX... +  ...   @@X ++o+o+ .  +oOoo  .XXX.  +oooooo+    ++O&*Oo+    X@%%%@%@.+oo+++++++ ..X....XXX....",
" ++oOO+ .XXXXX..    +oo++    .XX.  ..... .XXX ++oooo+ ..+OOoo+ .XXX. +oOOooooo+ .   +oOOo .XX@@%%@@X@@. ++++++++oo+.XXX.XX@XX.  ",
"++ooOOo .X@@%%@XX...  +++ooo++..XXXX..XX..X@@. +++oOo .. +oooo+ .X@X.+OOOo+++++   ..  +O*O X%%%@@@XXXX. oo+     +oo+.X@@@@@@XX. ",
" ++ooOo+ .X@%%%@XX..X.. +O&OOoo+ XX@@XXX...X@X  ++oOo+ .. +oooo+  @@X ooo+++++    ..X..+OO+.@@@@@@@XX.X.oOo    +++O&o.@%%@@@@@X.",
"X. +ooooo+ @####@XXXX@X +O&OOOOo+ .@%%%@X..X@@. +oooo+  . +ooooo++.X@X +++oo+ .   .X@@%@. +  .@@%@@@XX@@.+oo+ +ooo&*O+X%#@@@@%%@",
"@X. ++ooOOo.@#$#%@XXX@@X oOOOoooo++ X%%@X..X@XX +Oo++o++  +oo+ooo++ X@X +oOO+.XX...X@###%X.+o+.@@@@XXX@@X.+Oo+oO&OOoo+ X%%@XX@%@",
"@@@X +++ooOo X%%%%@X@@@X.+O&OoooOOOo X@@@XXXX@@.+oo+ooo++++++++ooo++.XX. +OO+.X@@XXX%$$#@@@X + .XXX.X@@@@X.+ooO&OO++++ .@#%...X@",
".X@@.     oOO+.X@@@X@@@@X o&&OOO*--Oo X@@@XXX@@X ++ooooo+++++++oooo+ ..X. oo+ .X@@XX@##%@%%#@.+o ....XX@%@@.+o&&Oo+..  .@#%.    ",
"o XX@X   . +oo+ .X@@@@%%%@ O---*--=-*o X%%@XXX%%X +ooooooooo+++oooo+  X@@.++++ .XX@@@@%%%%%%%@ oo  ...XX@@%X +oOOo+...  X%%X +oo",
"Oo .X@.  ... +++ .@%%%%#$#@ O-=------&o @%@XXX@@@.+++ooooOOoo+++o+++  X@@.  +++ .X@@@@@@%#%%%%@ oo+ ....XX@@X ++oo+ ..  .X@@.+oO",
"Ooo+.@X.. .. ++o+ X@###$$$#@.oO&----=*&+.@@@XXXX@@. +oooooOOOo+++++++ X@@X. +oo .X@%%@@@%#%%%#%X+oOoo ..XX@@X. ++++  .   .X@X oO",
"ooO&+.X......  +oo+.@%######%X oO*---&Oo .@@@X..X@X  +++++oO&Oo++ooo+ .X@@. +OO+ .@%%@@%%%###$#@.+O**o+ .X@@X.  ++      + .X@X+o",
"ooOOo+ .XXXXX. +oOOo X@@@@%##%X.+O***OOo+ X@@XX.X@X..    +ooOOOOOO&Oo .@##@ oOo+ .X@@@@@%%#$$$#%X oO&&Oo .XXXX.     ... ++ .@@.+",
"oOo oOo.XX@@@X. ++oo+ ..XX@%%@X. +OOOoooo+.X@@@XXXXXX.  . +++oO***-*o+.X%#%.+oo++ .X@@@%%%#$$$#%X. +oo&O+ ..XXX.   ..X..   .@%@.",
"+Oo +OOo .XXX@@X. +++++  .XXXXX.. +oooooo+ .X@@XXXX@X...XX. +ooOOOOooo+.@X@X. +oo+  X@%###$#$##%@.   +oOO+  ..XXXXX@@@XXXX.X@%#@",
" oO+ +OOo   .X@@X.  +oooo+  ...   ++ooooo+ .XXXXXXX@XX..XX.. +++o+++oOo ...X..+oo++ .@#$$$$#%%#%@X.    +oOo+  X@@@%%@@@@@@@@%%#@",
".ooo+ +oo++   .XXX. +oOO&Oo+++   ++++++++  ..XXXXXX@@@X......  ++++++oo+ ..X@@ +++++ X#$$$$#%%%%@X....X. ooooo .X@%@X.X@%%%%%@%@",
" +oO+  +++++++ .XXX. +oOOOOoooo+ooooo+     ..X@@@@X@%%@......  +++++++oo+ ..%%X +oooo %$$$$#%@@@X........ oO*Oo .XX. +  X@@@@@XX",
" +O&o   +oooooo+.XX. +oOOooooooooOooo+   ...X@%%@@@@%%@X.....     +oooOOo ..@%@. O*&-O.%$#%@@XXXX. ++    +O-=&o+.X. ++o+.X@@@X..",
" o&&o+ ++ooO&*&o .XX. oOo+++++++ooooooo+ ..X@@%%@XXX@@XX.......    oO**O+ ..XX@@.oO&-*o.%%@@X@@X. +oo++++oO*O+  XXX. ++ .XX@@X. ",
" +O&O+++oO&*--*o+ XXX +o++++++  ++oOOOo++ .X@@%%@...XXXXXXXX....... oO&Oo ....X@@. oOOo+.XXX@%%@.++++++++oo++ X@%@%@.++ .X@@X...",
". +oooooO&***&Oo+ .@@. ++++    .. +OOoooo+ .X@%%@. .....XXXXX...XXX. +ooo .....@%%X   +++ XX@##%.++    +++  .X%##%%%@   .X@@X...",
".  +ooooO&&Oooo++ .X@X. +o++  ..XX +ooOOOo ..X%%X +  ...XXXXX@XXX@XX.+oo+ .....X@%@XX ++o+ X%#$#@ ++ ..    .X@%%@X@%%X   X@XXXX.",
".   +ooooooo++++++ .XX. +oo+   ..XX +o&**O+ ..@@X. ++ .X.. .X@@XXX@X. +++ ..XXXX@@@@X.  +oo @###%X+o+ ......@@%X + .@@.  .XX@@@X",
".   +oo++oooooooOo+ .XX.. ++++  ..X. +&-=&o  ..XXX.++ .XX.  .X@@@X@@X.   .X@@%%%%@%%@.  oO-O.@%%%%.+++  ..XX@@%X oO+X@X.  .X%%@.",
".   +ooo+ooOOO&O&Oo .X@XX.  ooo+  ... o&-*Oo   .@%@   .@@X.  .X@@XXXXX...X@%####%%%%@X.+oo**+.X@@%@.+o+  ...X@%@.o&o .X.   X@@X.",
".  +ooooooOOOOO&Ooo+ .X@@@X.+oOo+  .. +o&*Oo+   X%@X. .@@X..  .XXX...X...X%##%%%%%%%%@X +oOOo+.X@%%.+oOo+ ..XX%%Xo&OO+.XX. .XXX.",
". ++ooooOOOOOoooo+++ .X@@@@X. oOOo++   +oOOo++  .XX@X..XXXXX.  ..X.. ..  .@%#%@@@@@%%%%X. ++oo+.X@X. o&&o+..XX%#@+O*=*+X@X..XXX.",
"X. ++ooO&**&Oo++++++ .X@@@@@@.+oOOOo+  ++ooo++  ..X@@X.X@@@X..  .XXX.++++ .@##@X.X@%%###@.  +o++ .. +O-*O+.XX@##% o*=*Oo X@%%@@@",
"X.  ++oOO&&OOo+ +oo+ .XXXXXXX. +oO&Oo+  ++ooo++ ..@@@..X@@@@@X.+ .@@.+ooo+ .%#%X  .X%#$#@..  ++++  +o&*Oo .X@%##%.o-&o*-O @##%%@",
"@X. +++oooooooo+++++ .XXX...X. +oOOo++   ++oo++  .@@X...X@%%#%X ++.XX. ++++ X%%@ oo .@@@X...  ++++ooO&Oo+ X%%%%%@.o-&+o&O+ .X@@@",
"XXX. +++++++++oOo++o+.XX.      +oo+++    +++++++ .XXX....X@###%.+++ ...  +++ .@@X+o+ .......   ++oOOOoo+ .@##@@XX O=&+ ++oOo+...",
" .XX. +       +oooo+++.@X     ++o++        ++++++ X@@X.   .X%##@ oo+.XX.  ++o+.X@. ++  ......  +O**o+   .X%%%X.  +&-&+   ++++++ ",
"+ .XX       ....oOo+O& @@.   ++++++        +++++o+.@%X.   + X@%@.+OO+X@@X. +o++ @%X       ...  o&*O+    .X@@@X. +o*-&o      ++oo",
"o+ .XX.    ....X.+oo**o.XX.   ++++++++++   +++ooOO+X%%@X. ++ .@@X OOo @%%XX.+oo+.@@X...    .. +O&Ooo+    .X@%%X oO--&o++  .  +oo",
"+o+ .XX........XXX+O*Oo+XXX..   ++oo+++++++ooooO**O X%%@XX.   .XX.+oo+.@@@%@X ++ X@@XX..    . o&Oooooo++  .X%#%. o*-&oo++       ",
" +++ XXX.... ..X@@X+OO&o.XXX... +oOOoo+++oooOoooO&&o X@@%%@@.  .X. +o+.X%%%%%@.  .@@@XX. +++  +OOoo+oooooo+ X@%@X+&*Oo++++    . ",
".. ++ XXX.X.. .X@%%X oOo X@@@X.. oO&Oo++ooOOOOo+ooOOo .X%%##@X.... +o+ X@%%@%%@X..X@@XXX. ++ ..+oOo++oOO&Oo+ .@%% oOo+++++      ",
".. +++ XXX@@@. .X%#%X + .X@@%@@. o&&OoooooOOOOOo+oO-O+ .X@%%#%@X... ++ .@%%@%%@XXXX@@@@@X +o+.X. oooO&&&&Oo+ .X%#X+Oo+   ++++   ",
" .. +o+.XX@@@X..X@@@X. ..X@@@@@X oOOooooooOOOOOOooO-O  ...X@%##@X.    .X@@@@@@XXX@@XX@@%@.++ .@@X oO*&Oooo+  ..X%@.oo+      ++  ",
" .X.+oo  ...XXXXXXXXXXXXXXX.X@@X +oooooOoooOOOOOOO*&o .....X%##@X.   .X@@@@X@@@XXXXX@@%%%@.  .@%%X +++  ++  ....XX. +++  ...  + ",
" ... +o++    .XXXXXXX@%@@X.  .X. +++oooOOoooOOOO&--O .XXXXX@@%%%@.+++ .X@@XX@@@@X..X@@%%%%X   X@%@X.....  ..XXX.XXX.++o+  ... ++",
" .... +o+++++ .XXXXXX@%@@.  ++    ++oooO&OoooOO&**&o X@%%@@@@@##@ oOOo X@XX@@@%@X. .X@%##%X + .X@XX....XXXXX@@@XXX@X.+ooo+ ..  +",
"  ... +++ ++oo+ .XXXXX@@X. +oo+   +ooooO*&Oooo&-*Oo+ .%###%@@%##@ o*:-o.XX@%%%%@X. + .%##@.+oo+ ...   .XXXX@@%%@@@%%@. oo+  .  +",
"o+ ..  +   +ooo+ .XXX.XX@X.+ooo+  +OOooO&&OOOOOOOOo++.@#$##%@%#%@.o==Oo+ .X%%%%%@.+oo+.@@X.+O&*O+      ..XX@%##%@@%#%@. ++++  +o",
"Oo+ . ++ ..  +++  .X...X@@X +ooo++oOOOoOOOOOOOOooOoo+ X%###%%%%@@X+&O +o+ .@%@%@@X +oo+ .. oO&--O++++oo++ .X@%##%%%%%@X.. +oo+oO",
"oooo+ ++ XXX..   ......X@%@. +ooo+ooO&OoOOoo+oooOOo++ X%###%%@XX@@.oo+++++ X@@@@@@.+oOo+  +oooOOOOOOOOOOOo+ X@#%%@@@@@XXX. +oooo",
"  +oo+++.@@X@@X........X@@@X. ++ooooO&OooOo+ ++oOOo+ .X@###%@@XX@@X ++  +oo+ .XXXX. oOOoooOOo+  +O&*OOO*-&Oo X@@@XXXXXXXXXX.+oo+",
" ..++oo+.@@XXXXXXXXXXXXX@@@@X. ++oooooooooo+   +ooo+ X@%%@%##@XXXXX. o+ +oOoooo+  . o&*&OO**o+...+ooooO****Oo XXXXXXXXXXX@%@.+o+",
" .X. oOo.@@......X@@@@@@XXX@@X. +ooo+++++ooo+ . +++ X@%%@.X%#%@XXXX. oOOo+oO***Ooo++oO**&O*-O+..XX. +oOOOOOOO+ ..XXXXXXX@%%%@.++",
" .XX.+OO X@X.  ....X@%%@X..XXX. +oOoo++++oO&o+.. ++.@#%X...@%#%@@@@X.+O&OOOOOOoooOOOoO&-*&--O+ .XXX. +oooooooo+ ..XXX@XXX@@%%@. ",
".X@%@.+oo.@@X      ..X@@X....XX. oOooo+++o&&Oo     .%%X. ++ .@%%#%@X +oO&&Oo+++++oO&OoO**&**&o+ .XX.. ++++++oo+  ...X@@@XXXX@@XX",
"X@%##@.+o+X%@...   ..XXXXXX..X@@X ooooo+ooOOOo    .X%%X oOOo+ X@%%%X +oooo++ +++++O**OO&&&&&&Oo ......  +++++o+    .X@%@@XXX@@@X",
"X@##$#@.++.%%XX.........X@@XXX@%@. ++oooo+++++    ..@%@+OOo+++ .X@@X +Oo+    +ooo++O&&&&OOOO&&o ........   ++++++   .@@@@@@XXX.X",
"X@####%@. .X@@X...XXX...X@@@XX@@@X. +oOoo+++++     .X@@+&Oo++++ .X@X.+Ooo+ .. +Oo+ +oO&&OOO&*Oo .X....XXX..  ++o+    .X@@@@XX...",
".X@%%%##%X.XX@X....XX...XXXX@@@X@XX +oOo+++++++++   XX@ oO+  +++ .XX.+OOOo+ XX.+oo+  ooOOOO&&O+ XXX....XXX..  +oo     .X@XXX....",
" .X@%%#%%@XXXX..   .XX....X@%@@@@@X. +ooo++++ ++++++ .@X oo    +o+ . +O*-Oo+.@@.o&o.. ++++ooOo+.XXXX...X@@X.. +Oo+    .XX@@XX.. ",
"  ..@@@XX@@@X..  ++ .XX...X%%@@@@@X. ++ooooo++++++oo+ X@X+o+   +O&o+++O--&&o X%X+&o .  ++++ooo+ .XXX....XXXXX.+oo+    ..XX@XX.. ",
"   ..XXXX@%%@X. ++++ XXX. X@@XXX@@X. +oooooooo+ ++ooo+.@%X+o+  +O-&o++o*---& X%%@ +++ +ooOOOOo+ .XXX.   ..X@@X +o+ ....XXX..XX. ",
" ++   ..XX@@@XX. +o+ .@@X..X@XX.XXX  oOOo+++oo+ ++ooo+ X%%.o++++OOo++ooO*-=&+X%%#@ +++oO*--OOoOo .X.. ++ .X@@X  ++ ...XXX..     ",
"oo++      ..X@%%X +++.X%%@@@@@X.... +O*Oo+   ++++oo+o++.@%@ +oOOOooooOOoO&-&+X@@@X.. +++oOooooOOo+ .. ++++.@@X. ++ ...X@@X oo+++",
"oo++ ++++++ .X%%%X   .X%#%@@@@X.   +oO&Oo+ .. ++oo+++++ .@@X o*&o+oO&&OooO&O+.XX..X@X.       +ooo+  . ++OO+.XX. +++ ..XX%%.oOooo",
"o+++++oooo+++  .X@@@XX@%%XX.XXX  ++oOOOoo+ ... +++++  ++ X##@+oo++oO&OOoooOo+.X@. .@@XXX.....  ++ooo+ +o*-O+.XX +oo ....@%X+O&Oo",
"++++oooOoo++++++ .@%%@%@X   ...  +ooo+++o+ .XXX.    X. ++.%#%X   ++ooooooooo+ X@X  .X@@XXXX@XX.. +O*o +O*&o+ .X.+&O ..  X@@.o&O+",
"+  +ooooOOo+++++++ .XX@@.       +oo+ .   +  .X@XX...XX. oo.%#@X..  ++oooo++++ .@X  .X@@....XXXXXX.+oooO-*Oo++ ..+&O ...  X@@.O&o",
"o  +oOooO&Oo+  ++o+   ... ++++++oOo .XX..   .XXXXXXXX@@X+Oo.@@XXXX.. +oo+   ++......X@X.+++ .X@@@@X. O-&O+++++  +Oo XXX.  @%@ OO",
"OO+ oOo++oo++++ooo+ ++     +oooo&&o.@@@XX.....XX@@@@@%#%.oO+.XXX@@X. +oo++  ++ ..XXX@%%X +++ .@%%@XXX.+oo++++++++oo X@X.  .@@X o",
"O-O+oOo+   ++oooo++         +ooO&Oo @%@@@@X...XX@@@@%#$#%Xoo .XX@@@X. +ooo+ ++  X@@X@%%@X +++ X@@@@@%@. +++  +oooo+ .XXX....XX. ",
"+OOoOOo     ++++   ...    .. +oO*Oo+X@@@@@@XXXXX@@@%%###%X o+.@%@@@@@. +oOo+++  X@@@@%%@X.  + X@@X@%@XXX +++ +O*O++ .X@X....XXX.",
". +ooo+      ......XX@X...... +oOoo+ X@@@@@@@@XXXX@%%@%%@X.+o X%%X@%@X +oOo++++ X@@X@@@XXX.   .XXX@@XX@@X ++++O*O+++.X@@XXXXXXXX",
"X. ++o++  . ..XX@@XXXXXXXXXXXX. ++oo+ X@@@%%%@@XXXX@@@%%%@@.oo @%@%@@X. ooo++++ .@@XXXXXXX.    .@@@XXXXX@X +++oOo+o+ XXX@@@XX@@@",
"@.. +++++    ..X@@@X..XX@@@XX@X.. ++o+.@@%%%%%@XXXX@@%#$$$#X+o+X@%@@XX. +++++++ .XXX...X..  +++ X@X.X@..X@. +++++ooo+.XX@%@@@@%@",
"@@X. +oo+    ..X@@@X...X@@@XXXXXXX. +++.X@%%%%@@XX.XX@#$$$#@ ++.@@@XXX..    +++ .XXXX.      ++++.XX.XX. .@X.  +++++++ .@%@@X@%@@",
"@@%@X +oo+    .XX@@X.....XXXX...X@X.. ++ X@@%@@@X....X@%#%%X. ++.X@X@X.     ++++ .X@@X.    ++oo+ ..XX.....XX. ++o++ +o+.@XXX@%@X",
"X@##%X. ++    .X@@@.   .........XX@XX. o+ .XXXXXX..     ..XXX.+o .XXXX. +++++ooo+ .XXXX.. ++OOO++ .XX...X.@@.  +OO+ +OO+...X@#@X",
"XX@%%%@X.    .X@%@X +             .XX..+o+ .......    ++++ .. ++ .XXX. +oo++++ooo+  ..X@X.. oOo+++.X. .XXXXX.  +O&o++OOo+  .@%@X",
"@..X%##%@@XX..@@%X +++++++++++oOOOo .XX.+oo+ ..      ++oo++++oo+ .@@@. oooo+++++++++++ X@%%X.++ooo XX..XXX@@.   oOOoooOOoo++.X%%",
"@...X%#%%%@@XX@@@X +++++ooo++oO&*OOo .XX. oo+  +++   +oo+  oOOo .X@@@.+oo++++    ++oO&O+X#$%@. oOo+.X....X@@X..  +oOOoooOOoo+ @#",
"@X...@%%%%%@@@@@@X ++   +o+++ooo++++++.X@X +oooo++++++++ .X.   .XXXXX.+oo+ +  ... +oOoOo @%%@X.+O&O+.XXXXX@@@XX.. +OOoooOOOo+ .@",
"X@@. .X@@@@%%%@X@X.++    ++++   ... +oo @%@ +oOo+++oo+++ X@@@XXXXX... +o+     ...  +   +o+.X@@@.o&*o XXXXXXX@@X... +ooooooo+++ .",
"X@%@.  .X@%%#%XXXXX. ++ .    ....XX. +oo X@@.oOo++++++o+ X@X@XXX..... oo+      .. +++ . oo X@@%@ o*O XX@XX.X@@X.XX. ++++++++++  ",
"X@%@. ++ X@@@XX...X. oo       ..XXXXX. +o+.@@.++++++++oo+XXXXX..     +oO+ .       +oo+..+o+ .X@@X oo+.X@XXXXXXXXXX.  ++    +++ .",
"X@%X. ++o+ .XXX.. .... +ooo+++ ..X@@X. ++++.@@. +  +oO*O+.XXXX. +ooo++O&o ...    +o&*o   ++  .@%@X+o+ XX@@@@@XXXXX..  +  .     .",
"@@X..  +ooo+ ..  +  X@X+ooo+oo+ ..X@XX. ++o+.XX     o**oo X@@XX.+&*Ooo&-O XX@X..  oO&o+  ++  .XX%@.++ .X@@@@@@@@XX..     ..    .",
"XXX...+ooo++++++++o+ XX.    +++++ .XXX. ++o+ .XX... +&o+oo XXX@X+&-&OO--O X@%@%@@.+ooo+++++  ..X%%X +  .XXX@@@@@@XXX.    ...   .",
"XX.    +++   ooooooOO+.X@X....  oo ...  +++++ .X@X.. o+ +o+.XX%%.o**---*o X@%#$$$%. +++++++++  .@@X     ....X@@@@@@@X.    ...  .",
"XX. +   ++    +oooOOOo+.XXXXXXXX +++ . +++++++ X@@@X.   +o+ .X%#@ &==&Oo+.X@##$$$$%X      +oo+  .XX..      ..@@%%%##@X.   .... .",
"XX. ++  +o+ ... +oo+ooo+ ..XXX@@X. ++ +o++++o+ .X@#%@.++o++ .X@@@Xo--oo+ X@%##$$$$$#@X....+OOo+  .XXX.    +  X@@%%%%@XXX......  ",
".... o+++++ .XX.  ++oooo++ ..XXXXX ++oo++  +o++ X#$#%X oo+oo X@@%@.oOOo .@%###$$$$$$#%@@@@X+Oo+++ .XX..  +oo+ X@%@@@@@%%%@XX..  "};
