/* XPM */
static char *worm_xpm[] = {
/* width height ncolors chars_per_pixel */
"64 64 13 1",
/* colors */
"` c #999999",
"a c #777777",
"b c #555555",
"c c #EEEEEE",
"d c #333333",
"e c #CCCCCC",
"f c #AAAAAA",
"g c #888888",
"h c #666666",
"i c #444444",
"j c #DDDDDD",
"k c #222222",
"l c #BBBBBB",
/* pixels */
"jejce`fej`idbh`fffllgballleegbgjefgfeef`gfffleelllllee`a`elllffe",
"elll`gfllhihf``f``gaiigjjjjehi`jef`ljl`gggagleeellffeeghlelffffl",
"ff``ggfllgb`ellef``aagejjllgihecefljjl````aaffffff``llaalejelfff",
"f`````ffefa`jeejefleeeje`hbib`jcefejef`````ffgbibgg`fgbhgfeeffff",
"fflllf`fl`h`jjeellecjelfahha`ecjl`ljfgagfllee`hbh`f``ghaag`gg`ff",
"ffllf``fl`gljjlf`fleelfffflejccjf`eeaihfeeeellffejjlf`fllffggfff",
"fffffllfleejjl`g`fflllleeeeejccef`lfidgjcjlgaaagejjlf`flleeeeeel",
"fflffeelljjef`gg`ffffllejelllel`ggghihece`biiaaageefg`lllllejjjl",
"``ffg`lffeefggg`ffffllllff`gahhbbbahafjj`idi`llfljeffeeelffffeel",
"`gf`hhfffeef```ffflejjefhbbbbaaaaa`feejlaihfjcelleelejjelfllfflf",
"ggf`gagf``ffffffflejjefhdiagflellleellelaalccjlf`g`llff```ejlff`",
"`fllf```ghhhg`ffejcclghibfejeelleeelllllggjccl`gghafabiiafjjell`",
"fejelfflfgaha`fljcjefgagejcef``leellejje`fjjlgg``gaaidibhfeeeelf",
"fjjeeffleef`fllejjf`ffleeelf````flffllelfljlga`llf`ghhfl``lllllf",
"ljjelf`fllf`ljjeel`g`lff````````gahhaaa`lelga`lelfffljccl``ff```",
"llfff``fllf`ljlfllgg`f`ggg`f``````aaaagfjlahgljef`lleccjlflfghh`",
"lf`llffejelflef`ffggfff``fleeelleeelllejjfbbfeefg`llljjlffll`agl",
"jfljelljjeffleelff``flelfejjjjeejjeeeeecjfbhlefggfelfee`a`flleej",
"ffflllelf`g`ljjlllffleelfejeeeeejeleeeeej`ball``fejelefhh`ffllll",
"hhha`llf``g`fef`flf`ljeflje``flflllflfg`fgiallffejjl`abihflfffga",
"gaagfef`ff`aaaag`fgafeeleefggffaa``ahbibghiaeefljegbiiihfeelff`g",
"eeeeje`gf`hibg`ffffgaflllfgg`ffhigghbhag`hbfjefejlhiha`ejjefffle",
"jjeeelfffaib`ejeleefag`aaaagflfabgfg`lejelljjl`lefgfejjcjef`ffej",
"eelfflff`hifjcjllejfahabihafllf``lelllejjejjef`f``fjjjelf``lelle",
"ef``f`ghbiaecefffee`ahagggfeef`ffljefffll``llfffgafllfghbgljjlfe",
"l`gfllgabb`je`g`fle`gg`ejejjl``fflllllff`g`fleelf`g`gahiiaeel`fe",
"`gfejeelffjjl`flllel`fejjeee``fllleeeeelf`ffleeel`ggaaaha``f`gfl",
"``ejeffffjcceejjeejeleeellllfffllfejjeelffffllfffff`fff`fl`lf`ll",
"`fejfhbagleelfleellf`flf`fleelffff`flllf`fllllf```fleeeeeelejlel",
"``fl`bia`g`gbib`f`abhh```fejelffffgh``agfejjjjlff``fflljjllejjje",
"`ahhaihll`ahiihg`hbhgg`lfleeff`fffgagaballleejeleeelfflejllleeel",
"fhbhhhgelf```fllfhb`eejjellf`fffflf``fg`fahag`flleeeelllellllffl",
"fhhfllejlflejcccjfa`lejjlff`fef`leeejjee`gahhhg`abgflllllelelffl",
"fbaejjcjeejjccccel`g`fff`ggleef`ejjjjjjllllf`aahiibag`fleeelf`fl",
"aiaeeeeffejjejjelf````gaagfejfgfjelflellleellf`gagfgaah`eef`gg`f",
"gafel`ahafl`g`flfgg`flf`fllel`gljefllellleeellleejeef`ga``gggg`f",
"eeeefgaagffhbh`l`agffejjjelffggffffeelfffleeeeeejeeeeel`````ffle",
"jelfffflllf``fee`g`ffljcjf```ggaaagf`aaggg``flllleeeeefgfellejjj",
"l`gfllleeffejjjlggfflleefgg`ffffff`abihabbbhhhg`flllll`gljeejjee",
"ga`leeeeeleccelf```flejl`g`fffllffghbgllaaggaaaaaahglefflelfff``",
"g`fejelfflleellffaaa`ljellell`gahbhafjcefleelll`gagfjjelll``gggg",
"ffljjlabbbbh`ff`aaag`ljeleellfgaaa`ejcjf`fffflleelljcjelfff```ff",
"lfllfghbbiiaffhhhafeejjl`````fflejjjeefgg`ghafleellejjelfffggfee",
"lfff`gg`f``flgbh`feeeellf``gg``ljcjeeefg``gaafelfffejef`gahbaljj",
"`g`f``flleeel``ejjelfffllllff``gfeeeeef`fffffljeeeejclhiiiibfjce",
"ah`fffeeeeleeeeeelleelllllllfffgafeelga`lllllejjeejjefbihagljjjl",
"bhflfljjeffflllghhgfeeef``f```f`a`l`aibfe`ah`lf`fllff``feeejjeef",
"hgeeejje`gg`ff`gahhagflf````gfl`aagbddallhibaghhfe`aha`ejelllllg",
"gejjjcjfaagg`fffllfgag```ffffel`gaahhgflgihff`gfee`ghba`llflllf`",
"leeeel`abbhaglejjjelfffflejeel`g`lleejje`gfjjeeejlf`gahh````fff`",
"f`gaahbiibg`fjcjjjeeejjjjjjel```lejjcceleeeeel`fflfahag``ghhaagf",
"l`aaaaaaafeelllffffleccjjlff``flejeljjlllfflefah`fgbigfllfgaag`l",
"eeeeellllllgaaaahhg`fleefhbag`lffllljjelf``fefahg`hbgleeeeelllej",
"ejjjlffgaahba`````gahh`lgdkbg``gha`ljeelf`fllf```ghgejelllllllee",
"lllfggabbaag`lf`lllghafe`idh``aagaalefflffflellffffljelfllllfffl",
"fffgaggafleeel`aaffaafejlghgf`hgll`lef`flllejelf`ljjelfleeelfffl",
"eel```fljjellllfg`gbhljeef`fe`alcj`fel`flllejeghafeeelljjjeghgle",
"eeelfflljjlfleelflfgfejeef`fjeejce`gejfffffll`hihfelllejef`bi`ee",
"flllllfljjlfleelfleejjeeefgfjjccce`afelfff``abibgej`aa`fghbihlel",
"fflllf`fel``ljjffflejjejjf`ljeleeefhhlllf```ahagljegbbaahbhafjef",
"ga`ll`gfllffeelf`ffleelee``llggfeelgh`llf`ffffleejlggff`g```fjlf",
"ghaffggfeeelelff``flefgfl``lgbaljel`g`lelf`fejeelf`ffllf``aglelf",
"f``elggljjlflf````lelga`f``l`bgejlfggfejel`fejelf``ffllgg``fejll",
"elece``ejeaibgff`fejlahff`fefh`eel`gfeelellleeelfffflelggleejlfe"
};
