/* XPM */
static char *background9_xpm[] = {
/* width height ncolors chars_per_pixel */
"128 128 20 1",
/* colors */
"` c #35354E",
"a c #DADADF",
"b c #9090A0",
"c c #00000F",
"d c #0F0F2E",
"e c #242442",
"f c #A4A4B2",
"g c #7D7D8F",
"h c #080829",
"i c #4A4A63",
"j c #080818",
"k c #6E6E7F",
"l c #55556D",
"m c #101029",
"n c #080821",
"o c #616174",
"p c #40405A",
"q c #2B2B4C",
"r c #191937",
"s c #6B6B84",
/* pixels */
"fffoiobfbsllossgbbbfffffffffbbbbgggskkkoolollipp`i`qeerq`mmhhhnnnhhnjjjnnjjnhnjjnnnnnhdhnhdpphnnnhhhhmdddrekbblddddeedhhhhhhhhhl",
"ffoer`kgkllokkggbbbfffffffbbbbbgggsksoolllliipp`lpqeer`iqmhhhnnnhhnnnnnjnnnhhnjjnnnnnnnjnh`ehnnnhhhhmdddrr`ffb`ddd`l`rhhhhhhhh`f",
"afpreqlsolokksggbbbffffffbbbbbgggskskolllllippplp`eerrpprhhhhnnnhnnhmmnjjnnnnjjjjnnnnjjjhe`hnnnhhhhmdddrrrlffordddil`mhhhhhhhhba",
"afpeq`ikolossggbbbffffffbbbbbgggsskkoollllippp```qerreqedmhhnnnnhhhhnhhnjjnnjnnjjjjjjjjhe`dnnnnhhhmdddrrrrgabedddrlimhhhhhhhh`aa",
"abpq`plgkossggbbbbfffffbbbbbgggskskoolllliipp```qeerermddrmnnnhnnhmnjhdnccjjnnnjjjjccjh`l`hnnnhhhmdddrrrr`bfodddde`dhhhhhhhhrfaa",
"agq`pplbskkgggbbbbbbbbbbbbggggkkskolllllippp```qeee`edmdeemnnnnnnnnnnmdjccjnnnjjnnnjjn`oldnnhhhhmmddrrrrelbb`dddddmmhhhhhhh`faaa",
"fl``pikbkssggfbbbbbbbbbbbggggkkskoolllliipp````ee`p`dmme`dnnnnjjjjjnmdhjcjhmhjcnmdhhheliehnhhhhmmddrrreeelsordddddmmmmmhhdoaaaaa",
"l``pilboskggaabbbbbbbbbbggggkskooolllliippp```qe`l`rmhdqennnnjjjnnnhhhnccnrmnjjheqrdrpidnnhhhhhmddrrreeee`iprddddmmmmhmmpbaaaaaf",
"``pillsssggfaabbbbbbbbgggggkkkkoollllliipp```qee`qrmhhdrhnnnjjjnnhhhnjjjjmqnjjmq``eeq`rnnhedhhmddrrreeeeee`prddddmmmmelbfaaaaaag",
"`pillokkggbaabbbbbbbbgggggkkskolllllliipp```qeerrdmhhhhhnnnjnnhhmhnjjcjjnmmnjn`i`````rhnnhqmhmddrreeeeeeeeileddddmmrobfaaaaaaafp",
"pillokssggaaabbbbbbbgggggkkskoollllliipp```qeerddmmhhhnnnnnnnhdrmnccccjnnnnjnmii````emhhhddhmddrreeeeeeee`ssedddddibaaaaaaaaafl`",
"illokskggbaabbbbbbgggggkkskkolllllliipp````eerrdmmhhhnnnnnhhmrdhnjccccjjjjjnhr``qpll`mhhhmhmmddreeeeeeeeelbordddpgfaaaaaaaaaag`p",
"llooskggggfbbbbbbgggggkkskkoollllliiipp```qeerddmhhhhnnnnhhdddhjccccjjjcccjnmreq`lol`dhhhhhmddrreeeeeeee`gb`rdesfaaaaaaaaaaag`pi",
"llokskggggggbgggggggskskkoolllllliippp```qeeqedmhhhhnnnnnnhmhnjccccjjjccccjnhdepogskirhhhhmddrreeeeeeeeesfgerdkfaaaaaaaaaafo`pil",
"loksksgggggggggggggskskkooollllliiipp```qeee``mhhhhnnnnjjjnnnjccccjjjjccccjnhrigbbkl`mhhhmddrreeeqqqqeeeggirr`bfffbbffaaabp`pill",
"kfbkggggggggggggggkkskooolllllliiipp```qeerpiqmhhhnnnnjjjjjjjccccjjnnjccjjjndigfffk`mhhmeddrreeeqqqqqeeigprrrigfbggbfaaas``pilll",
"ffgggggggggggggggkkskkoollllllliippp```eereoirhhhnnnnjjjjjccccccjnnhnnjjnnhdigfafg`hhhhd`drreeqq````qeeolrrrelkskosfaaak``pilllg",
"fksgggggggggggskkkskooolllllliiippp```qeerigihhhnnnnjjjjjcccccccjhhnjjnhmr`lbfafblmnhhhdddreeq``````qe`perrrpooologfaaf``ppillof",
"skgggggggggggskkkskoolllllliiiippp```qeerdog`hhhnnnnjjjjjccccccjnhhjcnepiogffafbimnhhhmddreeq```````qqeeeer`okkllogfafl`ppillokg",
"ksggggggggggsksskkoolllllliiiippp```qeerdegkdhhnnnnjjjjjjccccccnhnjcjrgbbffaafgimnhhhmddreeeq``````qqeeeerigbbkiplkffg`ppillooks",
"sggggggggggkkskkkoolllllliiiippp```qeerrdpsihhnnnnjjnnnjjcccccjhhjcjebaafffafgpmnnhhmmdreeq`````````qqeeeigfbslqe`lbg`ppillookkk",
"sggggggggkksskooolllllliiiipppp````eerrddiirhnnnnjnnnnjjjccccjnnncchgaaafffbkphnnhhhmddreeq`````````qqqepkbbkpeeeqiklppilllokkkk",
"sggggggskkskkoolllllllliiipppp````qeerdddqrhnnnnnnnnjjjjjjcjnnnjcjnlfaaafslpehnnhhhmddreeqlsi````````qq`lolpeeeq``poppilllookskk",
"ssgggskkskkoollllllllliiipppp````eeerddmhdmmhnnnjjjjjjjnnnjnhnjccnqfaaafbspdnnnhhhmddreeqibbp```````qqq```eeeeqq``ilpilllookskkk",
"gggsskksskooolllllllliiipppp````qeerddmhhhhdmnnjjjjjjjjnnnnhhjccndofaaffgo`hnnnhhmddreeqlffs`````````qqeeeeeqq````ipilllooksksgg",
"skkkksskkoollllllliiiiipppp````qeerddmhhhhnhnnjjjjjjjjjnhmhnjcjndigfaaffgimnnnhhhmdrreq`gaf````````````qqqqq`````ppilllloksgksss",
"kkkkskkkoolllllllliiiipppp````qeerrddmhhhnnnnnnnnnnnnjjnhdhjccheiokbffffkennnhhhmdrree``bfs`````````````````````ppilllloogbskkkk",
"kksskkooollllliiiiiiipppp`````eerrdemhhhnnhhhhhhhnnjjccnrmncjn`kkolkbffblhnnhhhmddreeq`lffi```````````````````ppiillllokfffkkkkk",
"ksskkoolllllliiiiiippppp`````eerrderhhhnnhr``rhhnjjcccjhqhjjmpkslpplgffg`nnnhhmmdreeq``lbsppppp`````````````pppiillllgbfffkkkkkk",
"skkooollllliiiiiippppp````l`qeerddehhhhnhepl`rhjjcjjjjnrpnjnlgkiedeisfbornnhhhmdrreq```ogpppppppp`````````ppppiilllgfaffbskkkkks",
"kkooollllliiipppppppp````k`qeerddmhhhhnmepp`dhjcccjnnnheqhnegbirhhrigfblrnhhhmdrreq````iopppppppppp```p`ppppiiillgfffbgksskkkssk",
"ooolllllliiiipppppppp```oiqeerddmhhhhnhq``rmhnjcccnjjh`mnnmlbk`mhhdpkfbo`dhhmddreq````ppppppppppp```lppppppiiilloffgokkksskssssk",
"oollllllliiiipppppp````ipqeerrdmmhhhnnmrdhnnnjjcjjjjjhphjhlbgo`eerqlgfbgiqdmddreq```ppppppppppppppikipppppiilllllookkssssskssskk",
"olllllliipppppppp``````iqeerdddmhhhnnhmhnjnnnjjjjccccnddroffbgsllllkbffblmhmdree```pppppipppppppppgopppppiiilllllookksssssskkkko",
"llllliiiippppp`lp``````qeerrddmhhhhnnhhjjjnhhnjjjcccjnmofaaafffbgggbffboehmdrre```ppppiiiiiiippppolpppiiiillllllookkkkskkkkkkooo",
"lllliiipppppplgk`````qqeerrddmhhhnnnnnjjjjne`nccjjjndpgaaaaaaaffbgbffflhhmddreq```pppiiiiiiiiiipiiipiiiillllllloookkkkkkkkkooool",
"llliiippppppoffl`````qeerrddmhhhhnnnnjjjjnmiinccnhdpgaaaaaaaafbsookbbkrhhmr`ee```pppiiiigkiiiiiiiiiiillllllllloookkkkkkkkkooooll",
"liiiippppp`oaaf````qq`errddmhhhhnnnnjjjjjhplenjn`kbaaaaaaaaafbop`iloidhhmdreeq``pppiiiigfsllliiillllllllllllloooookkkkkoooolllll",
"iippppp`p`pfaal```q`eeerddmmhhhnnnnnjjjjjml`hheofaaaaaafffffs`dhmr`emhhmdrreq``pppiilllfflllllllllllllllllllooooookkkoooolllllll",
"ppppp`````faag```q`l`rrddmmhhhhnnhnjjjjjjm`rm`faaaaaafbbbbgidnjjnnnhhhhdrree``ppiiiillfabllllllllllllllllloookooookoooolllllllii",
"ppppp````kaaa```q```erddmmhhhhnhhnjjjjjjnhmdpfaaaaafglilllqhnjjnnnnhme`eree``ppiilllllfflllllllllllllllloooookkkkkkoooolllllliip",
"ppp``````faao`qqei`rrddmmhhhhnmrhnjjjjjcjnhpbaaaaabl`rddmhnjjjjnnnhme``eee```piilllllsfglllllllllllllllloooooooooogoolllllliiiip",
"p```````safo`qqeeerrdd`lpdhhhmdhnjjjjjcccn`faaaaflehhhhnnjjjjjhr`ppp``qreq``ppillllllsglllllllllllllllooooooooooooglllllliiiiipp",
"```````lbfgqqeeeerrddlbgehhnhmhnjjjjjcccnegaaaabphnjjjjjjjjjnrisklp`eq`````ppiillllllollllllllllllooooooooooooooollllllliiiippp`",
"```````kgk`qeeeerrddsfg`hhnnnnnjjjjjjjnhpbaaaagqhjjjjjjjjnnd`kgglqdmdqpi``ppiillllllooooooooooooooooooooooooooooolllllliipppppp`",
"``````iol`eeeeerrddpkihhhnnnnnnjjjjjnhrofaaaakmjjcccjjnnnnm`ogkpdhmdrpl```ppillllllooooooooooooooooooooooooooollllllliiippp`````",
"``````ii`eeeerrrddd`rhhhhnnnnnjjjjnnmeofaaaflhjcccccnhhmhmrplprhhhdd`lp``piillllooooookkkkkkkkkoookoooooooooollllllliiippp``````",
"`q`qqpp`eeeerrrddmmhhhhnnnnnnjjjnnnheigfafsenjcccccjhddddre`qmhhhmd`l```piilllloooookkkkkkkkkkkokkkkkkkooooollllloliipip````````",
"`q`qq`qeeeerrrdddmhhhhhnnnnnjjjnnnhd`lkbgphjccjcccjndeddmddmhhhhmdrip``pilllllookkkkkkkkkfbkkkkkkkkkkkkkoooollllkbklppp`````````",
"qqqeeeeeeerrrddmmhhhhhnnnnnjjjnnnnhrlggldnnjccccccjndeedhhhnnhhhddqe``ppilllooookkkkssssfabkkkkkkkkkkkoooollllllffgoip`````````q",
"qeeeeeeeerrrdddmmhhhhnnnnnnjjjnnnnh`kfgenjnnjcccccjnd``dhnnnhhhmdreq``pillloookksssskkgffbssssskkkkssoooollllllsaaglp``````````q",
"eeeeeeerrrdddmmhhhhhnnnnnnjjjjjjjjmoffshccjnnjccccjh`lidnnnhhhmdreq``plilllokkkskkkkkgffbkksssskkkkbgooolllllllaaagoi````qqqqqqq",
"eeeeeerrrdddmmhhhhhnnnnnnjjjjjjjjn`fafinjjnnnnjccjnelkphnnhhhmdree``plllllokkskkffgkkkkkkkkkksssskkfgoollllllifaafop`````qqqqqqe",
"eeeerrrrdddmmhhhmhnnnnnnjjjjjjjcjdgaafenjnnnjjjccjmlgsennnhhhmdreq`ppollookkskkfafgsssskkkkkksskkkffkolllllilfaaag````qeeeeeeeee",
"errrrrrdddmmhhhhmnnnnnnjjjjjjjjchkaaakmnnhhnjjjjjneskihnnhhhmdreq`ppillloksskkgffgggggggskkkksskkgffollllliigfffbi```qqeeeeeeeee",
"errrerdddmmhhhhhnnnnnnjjjjjjjjcj`faaaihjnnhhhnnjnmpoimnnhhhmddee`ppilllokskksgfafgggggggskkkksskkfabllllliipobbbl`qeeeeeeeeeeeee",
"rrre`dddmmhhhhhnnnnhhnjjjjjjjjjmbaaabrnjjnnr`rhnnmqqmnnnhhmddre``pillookskksggfaggggggggskkkksskgffollllliipp`ii`qqeqii`eeeeeeee",
"rrrpqddmmhhhhhnnnnhhnjjjjjjjjcnlaaaalnjcjndil`hnnhhhnnnhhhmdre``pilllokskkggggafggggggggskkksskkkbglllliipp````qqee`lieeeeeeeeer",
"rd`pddmmhhhhhnnnnhhnnjjjjjjjjjdfaaafdjccjhpsoqnjjjnnnnhhhmdree`pilllokkkggggggfggggggggggkkkskkookollliipp`````qeee`eeeeereeeerr",
"ddpemmmhhhhhnnnnnhnjjjjjjjjjcnoaaaaoncccnrlbkqnjjjnnnnhhmmdre``pillokskggggggggggggggggggkkgskkookklliipp`````qeeeeeeeerrrrrrrrr",
"ddemmhhhhhhnnnnnnnnjjjjjjjjjjrfaaafejcjjh`kbornjnnnnnhhhmdre``pillokskggggggbbbbbggggggggkbbkkoolbblliipp````qeeeeerrrrrrrrpprrd",
"dmmmhhhhhhhnnnnnnnjjjjjjjjjcnoaaaalnccjjhpgfomjjnnnnhhhmdreq`pilloksksggggbbbbbbbgggggggsffbkooloffiipo````qeeeerrrrrrrrrr``rddd",
"mmmhhhhhhhhnnnhnnjjjjjjjjjjn`faaaghjjcjjhlbflhjnnnnhhhmdreqi`pllooskggggbbbbbbbbbbgggggssafkoollbfsippl```qeeeqrrrrrrrrrrrrddddd",
"mhhhhhhhdrmhhhnnjjjjjjjjnnnqbaaaaqjcjccjhkffinnnnnnhhhddr`l`pillkskggggbbbbbbbbbbggggggkfafkollgfsipp````eeeeperrrrrrrrddddddddd",
"mhhhhhhmeedmhnnnjjjjjjnnhhegaaaaknccjcjjrbffejnnnnhhhmdr`l`pllokksggggbbbbbbbbbbbgggggggafkoollbgippp```qeee`prrrrrrrddddddddddm",
"hhhhhhmq`ehnnnnjjnnnnhdreeifaaaghjccjcjn`ffgmnnnnhhhmdre``pillossgggbbbbbbbbbbbbbggggskffboolllkipp````qeeeei`rddddddddddddddmmm",
"hhhhhhr`ednnnnnhmmhhde```eifaafejcjcjjjhlfflhnnnhhhmdreq`pilloskgggbbbbbbbbbbbbbbggggkkbgoollllipp````qeeeepprrddddddddddddmmmmh",
"hhhhhhmhhhhnnndq`errrrrddeifaasnccccjjjdsfb`nnnnhhhmdre`pillokkgggbbbbbbbbbbbbbbggggskskolllllipp````qeeer`leddddddddddddmmmmhhh",
"hhhhhhhnnnhmdeeermhhhnnnhribfgenccjjjjn`gfgdnnnhhhmdre``pllokkggbbbbbbbbbbbbbbbbggggkskkolllolipp```qeeee`lirddddddddddmmmmhhhhh",
"hhnhhhhnnnnnhhhnnjjjjjjnhelggldjjjjjjjhigflnnnnhhmdree`pilloskggbbbbbbffffbbbbbggggkkkoolllgglp````eeeerpkkidddddddmmmmmmmhhhhhh",
"hnnnnhdmhnnnjjjjjjjjjjnhrplsopmjjjjnnnmpkkqnnnhhhmrre`pillossggbbbbfffffffbbbbbggggkskollkbbkpp``qqeee`osbgpdddddmmmmmmmhhrqhhhh",
"nnnnnnhhhhnjjjjjjjjjnnnmpllkl`hnjnhhnhhep`hnnhhhmdee`pilloskggbbbbfffffffbbbbbggggkskoolkfffi```qeeerlgfffbrdddmmmmmmmhhhmpdhhhh",
"nnnnnnhrqrhnnnnnnhhhhhdpksllidnnnhhnnnnmrrhnhhhmdre``illossggbbbfffffffffbbbbbgggskskolgfafgp```qeepkbfaafoddddmmmmmmhhhhrehhhmh",
"nnnnnh`ggldnnnnnhhhnndlbbgll`hjnhnjjjjjnhmhnhhmdreq`pilokkggbbbfffffffffbbbbbggggkskolkfffbp```e`kbfffaaaodmmrdmmmhhhhhhhhhhhnhh",
"hhmhdlbfbihnnnnnnjjjn`ffbspqdnjjnjjjjjnhderhhhmdeq`pilokkggbbbffffffffffbbbbbgggkskookgfbgi```qkbfffffffgmmmp`mmhhhhhhhhhhhhhnnn",
"de`poffgehnjjjjjjjjnhgaablehnjjjjjjjjjnmpoiehmdre`pillkkggbbbbffffffffffbbbbgggkkkoolgkgs`````faaaaffffkqmmekehhhhhhhhhhhhhnnnnn",
"`llgbfgdnnjjjjjjjjndifafoehjjjjjjjnnjndlgboqmdre``pllosggbbbffffffffffffbbbggggkskolllilp```lfaaaafbbfgemmeolhhhhhhhhhhhhnnnnnnh",
"lskffg`nnjjjjjjnnhepsffbrnjjjjjjjjjjnmsffflmmdre`pilokkgbbbffffffffffffbbbbgggkskolllipp```laaaaafggbglmmmok`hhhhhhhhhhnnnnnnnnr",
"oggbkennnnnjjjhde`plobbinjjjjjjjnjjnhofafsrmdre`pilokkggbbfffffffffffffbbbgggkskollliip```pfaaaabolkspmmmeslhhhhhhhhhhnnnnnnnnmp",
"ogggpnnnnjjjjnmrdmm`lkimjjjjjjjjjjnegaaakmmdre`pilokkggbbfffffffffffffbbbgggskkoolliip```qoaaafgp``i`mmhhloehhhhhhhhnnnnnnnnnnri",
"sgkldnnnnnjjjhdmnjnh`pehnnhnjjnjnmlfaafkmmdre`pilossggbbfffffffffffffbbbbgggkskolllipp``qeofffidddddmmhhqlehhhhhhhnnnnnnnnnnnh`l",
"bbkphnnnnnjjnmdhnjnheedreedhnhrqlbaaaaohhmdeq`plokkggbbffffffffffffffbbbgggkskolliipp``qeeofg`dddmmmmhhhqehhhhhhnnnnnnnnnnhrpokb",
"fboehnnnnnnnhdmhnnnhrreil`dhmekfaaaaflhhmdre`pllosggbbffffffffffffffbbbgggkskolllskl```eeelk`ddmmmmhhhepehhhhhhnnnnnme`ee`obffff",
"fkpdhnhhhhnhddmddhnhmeplledd`sfaaafkrhhmdre`pilosggbbffffffffffffffbbbbggkskollgfafi``qeeplpdddmmmhhhellemhhmmhhhhelkggkgfaaaaaf",
"spdnnnhhhhnhhmme`dnnhr`qdhhmpsbbkirnhhmdre`piloksgbbfffffffffffffffbbbgggkkoolbaaag``qeell`dddmmmhhhelllp````edmrigffbggfaaaaffb",
"ehnnnnnnnhhnnnhhhhhnnhhnnjjhei`dnnnhhhmril`pllokgbbbffffffffffffffbbbggggkollofafl``qeiggldddmmhhhhh`loollllperelgfbkllkfffgolp`",
"nnnnnnnnnnhnnnnnnnhhnjjjjjjnhhnnnnhhhmpkolpilosggbbfffffffffffffffbbbggksoollilop``q`gffk`ddmmhhhhhheilolliedhhd`liemhd`llqdhhhh",
"nnnnnnnnnhnnnnnnnhhhjjjjjjjnnnnnnhhhmigbopilosggbbfffffffffffffffbbbggsskolllipp``qebaaakddmmhhhhhhdpoksl`dnnnnnnnnnnnnmrdhnnnnn",
"nnnnnnnnhhnnnnnhrrhnjjjjjjnnnnnnhhhmelklpilosggbbfffffffffffffffbbbgggkkollliip``qqfaaab`dmmhhhhhhd`lklpdhnnnnnnnnnnnnnnhnnnnnnn",
"nnnnnnnnhnnnnjh`penjjjjjjnhnnnnnhhhmqlp`ilokkgbbfffffffffffffffbbbgggksoolliip```efaaafidmmhhhhhhelkklennnnnnnnnnnnjnnnnnnnnnhnn",
"nnnnnnnnhnnnnh`opmjjjjnhmdhnnnhhhhmdre`pllkkggbbfffffffffffffffbbbggkskolllipp``qfaaaflmmmhhhhhhrlsglrnnnnnnnnnnnnnjnhnnnnhdddhn",
"nnnnnnnnnnnnneog`njjjhrqrhnnnherhmdre`pilokggbbfffffffffffffffbbbggkskolliipp``qgaaaf`dmmhhhhhheiggkrnnnnnnnnnnjjjnmeedhnmpso`hn",
"nnnnnnnnnnnnmlgsrjjjm``ehnnnm`pemdre`pilosggbbfffffffffffffffbbbggskkolllipp```lfaaapdmmmhhhhdeplslrnnnnnnnnnjjjndpskop`psbfg`hn",
"nnnnnnnnnnnh`bflhjjh``hnnnnhqllqddeq`pllkkgbbfffffffffffffffbbbggskkolllipp```esaaaldmmhderrre`pipdnnnnnnnnjjjjh`kffffgbfffbimnn",
"nnnnnnhhhnhekfbennr`ehnnnnndpliedrq`pllkkgbbffffffffffffffffbbgggksoollipp```qekaabdmmmeq`errreerhnnnnnnnjjjnheobaaaffbfffg`hnnn",
"nnnnnnmdhhroffkhjdgkrnnnnnhrplprre`pllkkggbbfffffffffffffffbbbggkskolllpp```qeegff`mmm`l`edmhmmmhnnnnhdmnjjjnrlfaaaaafgklehnnnnn",
"nnnnnherdd`bfg`hhofshnhhhhhdplpee`pllkkgbbffffffffffffffffbbbggskkolllipp``qeeegfldmd`ipehhhhhhnnnnndpiehjjnh`sfaaaabl`dhnnnnnnn",
"nnnhd``er`lbbrnhoaainnddhhhrilp``pilosggbbfffffffffffffffbbbgggkkollllip``qeer`bbrmm`liehhhnhhhnnnhelopehjjjmibaaaflhnnnnnnnnnnn",
"nnnrppqdd`loinn`aabdnn`rhhm`lslp`iloksgbbffffffffffffffffbbgggkkolllilp``qeeer`slmmhpirhhnnhhmhnnnelkpdddnjjrsfaaflhnnnnnnhnnnnn",
"nnhe`emhme`edh`faalhnh`dhhdisgkppllkkgbbffffffffffffffffbbgggkkoollill```qeerreemmh`lphhhnhredhnnmlgorhmenjnoaaafennnnnnnnnnnhhn",
"nnnhhhhnhhdhhlfaakdhhdemhh`kbfspllkkgbbffffffffffffffffbbbggsskollllllp`qeerrddmmhikldhhnnrp`mnnn`koehhmennefaaf`nnn``hnnnnnhhhh",
"hnnnnnnnnnhhrkffkdnnhrrmhdlbffkilosggbbfffffffffffffffbbbggskkolliiolllpeerrdddmh`ss`hnnndilennnhobphhddhnhgaaapnnnrlrnnnnhhhhhh",
"hhnnnnnnnnnh`lllrnnnhrerepgaaaoloksgbbfffffffffffffffbbbgggkkolllilllooperrdddmm`lophnnnmpl`hnjneggdjhpdnhpfaaknnnri`nnnnhmhhhhh",
"hnnnnnnnnnnnhdeehnnnhqp`pgaaaallksgbbfffffffffffffffbbbgggkkolllipiiiskeerddmmmd`p`hnnnh`lidnjjhlbohjhimnmbaaghjnnhdhnnherhhhhhh",
"hnnnnnnnhnnnnndrhnnnrlksgfaaaflksgbbffffffffffffffffbbbggkskolllip```olerdei`rmmdrmnnnhellenjjjdosqnjn`hn`fabdnnnnnnnm`l`mhhhhhh",
"hnnnnnnhhnnnnhdrhnnhlgbfaaaaalokgbbbffffaffffffffffbbbggkskolllip```qqerrrkkqhhhhhhnnheoklmjjjn`kphjjjhhmofflnnnnnhhd``dhhhhhmhh",
"hnnnnnhdhnnnneqrnnhdbfaaaaaagoksgbbffffaffffffffffbbbggskkolllipp``qeerriggihhhhdeerepkbk`hjjjh`lrnjjjhdpkgs`hnnnhr`p`mhhhhhmhhh",
"hnnnnnnnnnnndp`hnhhlfaaaaaablkkgbbffffaafffffffffbbbggkskolllipp```eerribfkehhhekggggfffsrnjnhr``hnnhme`lggkpmnnnmerhhhhhhhhhhhh",
"hnnnnnnnnnd``iqnhhifaaaaaaalkkgbbffffaaaffffffffbbfbgskkoolllip```qeerpgfbldhhpbaaaaaafbphnjhdq`rmmeloologgglrhnnhhhhhhhhhhhhhhh",
"hnnnnnhmd`lkopdnhhsaaaaaaagosggbbffffaaffffffffbbffgsskoolliipp``qeerigffblq`ofaaaaaaafihjjnmeqer`lgbgolsbfodnnnnhhhhhhhhhhhhhhh",
"hnnnnhepilllidhhhegaaaaaaboksgbbffffaaffffffffbfffggkkkolllipp```e`plgfafbkobaaaaaaafkphjjjndeee`kbfgpe`obgqnnnnhhhhrqhhhhhhhhhh",
"nnnnnr`p``qrhnhhhpbaaaaaaossgbbfffffaafffffffbbfbggkskolllipp``qe`plgfaafbgfaaaaabl`rhnjjjjnhdepobbkenndiirhnnnnhhhh`ehhhhhhhhhh",
"nnnnmrdhnnnnnhhhdlfaaaaabsggbbfffffaaffffffffbbgggskkoolliipp``e``ilgfffbggfaaaaomnjjjjjjjjnhr`kbgphnjjnrhnnhhhhhhhrehhhhhhhhhhh",
"nnnhhhnnnnnnhhhhrgaaaaaabkgbbffffffafffffffbbbgggskkoollipp```qe``lkgfbgklsbfgiemnnjjjjjjjnnm`off`jjnjjjhhhrehhhhhhrhhmhhhhhhhhh",
"nhdmnnnnnnnhhhhmpfaaaaaabggbbfffffaafffffffbbbggskkoolllipp```ee``iokslp`q`pqhnnnhhhnhhjjnmr`obfbnjjdnjnnm`pehhhhhhhmmmhhhhmhhhh",
"hrrhnnnnnnhhhhm`faaaaaaafgbbffffffafffffffbbbggskkoolllip``p```pillli`edhhnnnnnnhhhnnnnjjhe`lbfbpnjnmnnnnherhhhhhhmmmmmhhhmhhhhn",
"dehnnnnnhhhhhmrbaaaaaaafgbbffffffaaffffffbbbggskskolllipp`````pppp`edhhhhnnnnnhrdhnnnjjjnm`lsffphnhhhjnnnnhhhhhhhmmmmmmhhhhhhhhn",
"rmnnnnnnhhhhmefaaaaaaafggbbfffffaaffffffbbbggskkkollliipp```pp`eddmhhhhhnnnnnhrehnjjjccjhqisgbkmjnhhnnnnnnhhhhhhmmmmmmmhhhhhhhhm",
"hnnnnnhhhhhmdfaaaaaaafggbbfffaaaaffffffbbbgggkskollllipp```eerrddmhhhhhnnnnnd`ehnjjjjccjdplgkk`njjhhnnnnnhhhmmmmmmdmmmmhhhhhhhdd",
"nnnnnnhhhhmrbaaaaaaafsgbbbffaaaafffffbbbbggskskoolliipp```qerrddmhhhhhnnnnheilrnjjcccccndiogkimjjnhhnnnnhhdermmmmddmmmmhhhhhmeem",
"nnnnhhhhhmefaaaaaaagggbbbffaaaafffffbbbbgggkskoollliipp``qeerddmmhhhhnnnnme``rhjjcccccjnrlsgkenjnhdhnnnnhripdmmdddddmmmhhhhdrrhn",
"nnhhhhmhmifaaaaaafkkggbbffaaaffffffbbbbggskskoollliipp``qeerrdmmhhhhnnnnhdrehjjjccjcccjn`sgbohjjheehnnnhmiiemmddddddmmmhhhdedhhn",
"hhhhr`qpkaaaaaaabkkggbbbfffffffffffbbbgggkkkkollliipp```eerrddddhhhnnnnnnhhnjjjcjjjjjcjhibbg`njn`pdnnnhh`prmddrdddddmmmhhhmhhhhh",
"hhh`sgsfaaaaaaagosggbbbffffffffffbbbbgggkskoollliipp```qeerddmhhhhnnnnhnnnjjjjjnhnjjjcjmofb`njneoennnhhmpmmmd`eddddmmmhhhhhhhhhh",
"hdkffffaaaaaafoosggbbbffffffffffbbbbgggkkkkollllipp```qeerrdmmhhhhnnnhnnjjjjjnmedhjjjjnegfkhjn`klhnnhhhdrmddloqddddmmmhhhhhhhhhh",
"ebaaaaaaaaaafllkkggbbbfffffffffbbbbgggkskoolllliipp``qeerrdmmhhhhnnnhhnjjjjjjhedhnnjcjhlbsrnn`gomnnhhhmmmdddkk`qrddmmmhhhhhhhhhh",
"baaaffaaaafkllosggbbbffffffffbbbbbgggkkkkolllliipp```eerrddmhhhhnnnhhnjjjjjjhddnjnhjcjmlkenhpgsdnnhhhhdmdddpokiedddmmmhhhhhhhhhq",
"faafgbfaffkllosggbbbfffffffffbbbbgggskkoollkliipp```qeeredmhhhhnnhhnnjjjjjcnhmnjjnhjjne`ehnekldnnnhhhmmdddrlkblddddmdmhhhhhhhhhp"
};
