/* XPM */
static char *background2_xpm[] = {
/* width height ncolors chars_per_pixel */
"128 128 19 1",
/* colors */
"` c #191315",
"a c #846342",
"b c #342114",
"c c #806B61",
"d c #110F0E",
"e c #8D7360",
"f c #594123",
"g c #3F343B",
"h c #372915",
"i c #988067",
"j c #6C4E35",
"k c #725C58",
"l c #A58C72",
"m c #231A1D",
"n c #2D262A",
"o c #4A3118",
"p c #594544",
"q c #615259",
"r c #030203",
/* pixels */
"fohofffohffobofffohbbmbhfjaeeiiiiiiiiieajfohhbbhfjjjfhbmhffjffoohbdrrmpqqqpggggqkccqgmmngggggpkcccqpggggg`dnpccecckpgggnmmrr`qaj",
"ooofjfoooffoboffohbbbbbofjaakccccccceaajfhbbbmmhffffobbboffjjffobmdrdggppqqpgggqcecqgm`nggggpqkcccqpgnnnnddnpceecccqpggm`mdrdgfo",
"offjffoofffohoffobbbbbhffpgm```````mgpjfohbbbbbbooooobbbofjjjjfob`rr`nggpqqpgggqceekgm`mngppqqqqqqqpgnmm`ddmpceeecckpgn`mn`rrmbb",
"hofffohffjfohofobhohhhohm`drrrrrrrrrd`mhhhhhhhhbbhofoohhofjajfobh`rrmmmnpkkqpgpkceckgm``ngpkkqqppqqpgn`d`ddmgkeeeeccqgm`ngmrr`bb",
"hhooohofjjfohooohofohm`drrrdgkcqpndrrrrd`mhoooobbofffohhfjaajfbbhdrdmd`ngqkqpppkcccqpgn`mgpkkqppppppgndd```mgqceeeccqgmmgpgdrdho",
"ohhbbhofjjfobbbhohm`drrrdgqccqkpppqpndrrrrd`mhbhojjjfhbhfjaajohhmrr``rdmgpqqpqqkckqqqpg`dnpkkqpggpppgmddmm``npceeeckpn`mgpq`rrmo",
"oohbbhfjjjfobmbm`drrrdnqccqkcckpgngppqpndrrrrddmgpajfbbofaajfoof`rrmdddmggppqkcckqpqqkpndmpqqppggggggmd`nm``ngkceckqpn`mgppmrr`h",
"ffhbbhfjjjfhmddrrrdnqcckkceeeckpgnnggngpqpndrrrrd`mhombojajfhhfhdrdmddd`mngpqcccqppqcckg`mgpppppggggn`dmnm``ngqcccqpgm`mgggndrdh",
"ffhbbhfpgm`drrrdnpccqpqqkceeecqgggggn`dmgqqqgndrrrrd``bojjfobhfmrr``dd`d`mngqcccqppqcccpnmnggpppgggnm```m```ngpqkqppgm``ngnmdrrm",
"fobmbhm`drrrrnpcckgngpkccccccqpgggggn`d`gqccqqqgmdrrrrd`mhobbof`rr`dd`````mgpcccqppqceekgm`mggppggn`dd```d`mnggppppggmdd```ddrr`",
"mhb``drrrrmpcckkkgnngqccccckqpggggggndd`gpceeekqqqgmrrrrrd`mhhndrdnmmnnmm`mnpqcckqqkceecpnd`ngggggn`dddddd`mnngggggggn`ddd```drd",
"dddrrrrmpcckqpqkqgmngqccccqpgggggggnmddmgpkccckpggpqpgmrrrrrdddrrdgggggnm``ngpqccccceeecqgmd`mgggnmddddddd`mmmmmnngggnm```mmmdrr",
"rrrr`pcccccckqqqpn`mgqccckpggnggggnnmd`ngppqppppgnnmgpqpg`rrrrrrrdgpppggn``mggpkceeeeeeckpg`d`nggnm`dddddd``````mnggggnnnnnnndrr",
"rdgkcqggqceeckqpgm`mgqkckqgnnnngnnm`ddmngggggggggm`d``mgpqpgdrrrrrdmgqpgndddngpceeceeecckqpn`d`mnnnmmddd``dd``dddmngggggnngmdrrr",
"rckgmd`gqceeccpgn`mngppqqpgnnmnnm``dd`mnggnnnnnnn`dd`d`mggppqrrrrrrrd`mgn`ddmnpceckkcccckqqgg`ddmnnnn`d`m`d`mm`dd`ngpppgm`drrrrr",
"rkgdddmgqcelecpn`dmngggggggnnmm``````mnnnm````mmmdd```d`ngqcndrmldrrrrrd`m`dmnpcecqqcccckkkqgn`d`mgggmdmnmdmnm`dddmggm`drrrrrddr",
"rgkdd`ngqceeckgmddnnngnnnnnnnm``mnnnnnmmmddd`mmmm`mmmmm`mgqcmrrpajfmdrrrrrd`mgqcecpqkcccccckpgn``mgggmd`mm`mnnmdddm`drrrrrmpilnd",
"r`cmmngpqccckpg`ddmnnmm````mm`dmnggggnm`ddd`nnggnnmmnnn``gqq`rrijfjaajo`rrrrrd`mgqqpkcecccccqpgm`mggnmdd`dd`mnmdddrrrrrmpiliajfm",
"drkgggpppqqqpgndddmmmm`ddd````mngqppgn`d``nggppppgnnnnn``gqgdrmlfffffjjajfmrrrrrd`mgqceecccckpgm`mngn`dddddd``drrrrrmpilijjfffoh",
"`rgkgqqqpgggnm`ddddd`dddddd```ngqckqgnddmnggpkkkqpgnnnn`dnqmrrqiffohofaeaaajphdrrrrd`mgqcccckpgmd`nnmm`dddddrrrrrmpiliafbofohhoh",
"mr`cpkkqgnm``ddddddd````mmmnnngpqcckpmddnggqkccckqpggnn``gq`rrijfooofaiiiiicaaajfmrrrrd`mgqckpg`ddmmmmmddrrrrrmpilieaffhoofhbboh",
"bdrcqkkpnm`d`dddddd`mm``mngggggpkcecpmd`ggpkcceeccqpgnmdmggdrmlohbofjilliiilllckjajfbdrrrd`mgpgmdd`m`drrrrrmpiliaaaajfohohhhoofo",
"o`rpkqpgn`mmnmm```mnnnm`ngqkkqppkcccpn`mgpqkceeeeccqgn`dmgmrrqebbhfaelllillliillicjjjajodrrrd`mm`ddrrrrrmpilijffjjjjjfohhbbffjfo",
"omrmcpgn``mnngnm``nggnmmgqceecqqkcckpnmnpqqcceeeeeckgmddnp`rdipbhfjeillliiiiiiiieajfffjjajfmrrrdrrrrrmpiliajfffjjjjjfohbbbojjjfo",
"fgdrcpn`ddmggggn`mnnnnngpceeecckkccqgmmnpqqcceecceecg`d`ggdrnloofaaiiiiiiieiiiieajfffffoofjaajhdrrmpiliejfffffjjfffffobmbofjajfo",
"jq`rpq`dddmgpppn``nnnngpceeeeeeckqqpgm`npqqcccccceecg`d`gmrrjehfjaiiiiieeeeiiieajffffffoobbofpjaaaliieajffffjjfoohhhhbbmhfjaajff",
"aemrmc`dd`mgpqpn`dm`mnpceeccceeckqpgg`dmgpqcccccccckgm`ng`rdijfjaiiieeaaeiiiiiajjfffffffohoffjffjaaeaajffoffffohbbbbbbbbofjajfff",
"aegdrcgd`mngpqpnmd`dmgqccckkceecqpggn`dmggpccccccccqgmmngdrhlfjaiiiieaaeiillieajjjjffffoooffjjjjjaaajfobbhoohoofoohhbmmhfjjjfffj",
"jap`rpq`mngpppggn``dmpcckqqkceecqpggnm``ngpceccccckpn`mnmrrkefaiiiiieeeillllieaajjjffffohoffjffjjjjjfhbbbhhmbofjjjffobbhffffffff",
"fffmrnc`ngpqpgggnmm`nqccqpqceeccqpggnmm`mgpceececcqgn`mn`rdlaaillliieiiillllieaaajjffffobhffffffffooooooooohofaeeajfobbboffoooof",
"oofhddcgnpqkpggngmmmgkeckqkceeckkqpggnn``npceeeeckpnm`mndrglaiilllliiilllllliieaajjffffobhofffffobbofjjjjfffjeiiiejfobbbhoooohhh",
"bofp`rppgqccqgnngmdmpceeccceeckkkqppggn``npccecckqgmddmmrrcieillilliiillillliieaajjjjjfohbhhohhoooffjaaaajjaeillieafobbbbhhhhbbb",
"ofjamrncpcccqggnnddnpceeeeeeccccckqppgg``npqkckkqpgmddm`rdliiiiiiiliiilliillliiaaajjjjjffhbbbbbofjaaaeeaaaaeillliejfhbbbbhhhhbbb",
"fjaagddcpceekpgm`d`gqccccccccccccckqpgg`d`gppppppgn`ddmdrgliliieiiliiiliiiillieaaaaaajjjfohmbbofaeeieeeeeeeilllliajobmbhhooohbbh",
"fjaap`rpqccccpg`d`ngqkkkqqkkccccccckqgn`ddnngggpggn```mrrciiieaeiiiiiiiieeillieaaaaaajjjjfobbojaeiiiiiiiieiilllliafhbbooooooohof",
"jaajfmrncqcccqgm`ngppppppppqkcccceccqgnm``m``mgggnm````rdleieaailiiiiieaaeiliieeeeeaaaaajfobofaiiiiiiiiiiiilllliejobhofffffoooof",
"jjjjfhddcpcccpgnnggpggggggpqkcceeeecpggnggnmd`nggnm```drpiliaaailieilieaeilliiiiiieaaaaajfohfjeiliiiiiiiiiilllliafohfffffffffffj",
"jjjjjp`rqpkckpnnngggnmmmnggpqkceeeckpgggppgn`d`nnnm`ddrrcelieeiliieilieeiiliiiiiiiaaaaaajooojaillliiillllliiiiieafbofjjjfffffjjj",
"jaaaeemrncqqpgmmnnnm`dd`ngggpkceeecqpppqkcqpgmdmnnm`ddrdleiiiilieaeiliiilliiilliieaaaaajfoofailllliiillliiieeeeajoofaaajjjjjajjj",
"aeiliigddcppgn`d`mmm`dd`ngggpqceeckppqceeeckpnd`nnm`ddrpiilliiieaaeillilllliilllieaaaaajfofjaillliiiilliieaaaaafhofaeeaaaaaaaaaa",
"eillliq`rqpgnm`d``mnn`d`nggggqceccqqkceeeeecqn`mnnm`drriiillieaaaailllllllliilllieaaajjffffjeilliiiiiiieajjffjjobfaiiiieeiiiieaa",
"illliicmrgcnmmmmnnngn`d`nggggqkccqqcceecceeekg``nnm`dr`laeiieaaaaeillliiiiiiillieajjjjfffffjeiiieeeeeeajfohhohhboailllliilllliii",
"lieeiiigddcgmnnggppggmd`nggggpqqqqkceckqccecqgm`mm``drpijaaaaaaeiiilliieeeeiilieajfffffffffjaeeaaaaaaajfobbbbmbfailliillllllliil",
"iaaaaiiq`rqpnggpqqqpgmddnngggppppqccckppqcecqgnm`dddrrijfjjjaaiiilliieaaaeiiiieajfooofffoffjjaaajaaajfohhhohhbojilliiiiiiiilllii",
"ajjjaiicmrgkgpqkkkqpgmddmnnggppppkcckpppqcccpggnn`ddrrlpfjjaeiillllieaaaeillieajfoohofffooffjjjjjjjjfhbhffjfffjeiieaaaaeeeiiiiii",
"jfffjilenddcgqcccckpgmddd`nggppgpcecqggpkccqgggggn`drdijfjaiilllllieaaaeiiliiajffhhoofffohoofffjjjjfobofjaajjjailiajjjjaaaaeeiea",
"jfffailcmr`cgkceeckpgm`dddmggpppqcecqgpkccqpggpqpgn`rrpifaillliiiieaaaeilliieajffooofffohbbhoffjjjfoofjaaaaaaaeiiejfffjjaaaaaeaa",
"jffaiiiq`rgkgkeeeckpnm```ddngqqkkeecqpqcccpgggqccqgmrrmlaiilliiieaaaaaiilllieajffoofffoohbhbhoffffoofjaeeeaaaeiiiafffffjjaaaaaaa",
"ajjiliagdrkpgkeeeckpnmmmnddmpkccceeckkccckpggpqcccqndrdiiiiieeeaaaaaaeiillliiajffooofoohooohbofffoofaaaeaaaaaeiiejfoffjjaaaeeiea",
"ieiiiajmr`cngqceeckpgnnnn`dmgkeeceeecccckppgpqkeeekndrrqllieaaajjjaaeeiiillliajfohhooooofffhmhfohofjaaaaaaaaailiajfoffjaeiiiiiii",
"ilieaff`rgkmgpceeecqgnnnn``mgceeceeeecckpppppqceeekg`rrnliaajjjjjjaaaaeeillleafobbbbhhofjjfohofobofjajjjjjjaailiajjfjaeiilllllll",
"iieajfhdrcpmngqceeckpgnmmddmpceeccecckqppgppqkceeckgmdrdiijjffffjaaaaaaailliajobbbbbbhffffoofffobofjjffffjaaillleajjaiiiiillllli",
"aajjjfmrmcgnngpceeecqgn``ddnpceeccckpggggppqqkccccqpg`rrqijffoffjjajjjaeilieafobbbhbbofffhbojjjfohoooooffjaeiillieeeilliiiiiiiie",
"jjjjjf`rpkgnmngkeeecqgnd`dmgpcceeecqgnnngpqqqkccckqpgmrrnljohhofjjjffjailliajfoooohbbbhoooojaaafohhbhbofjaeiiiiiliiilliieeeieaaj",
"ffjjjhdrcqgnnngqcecckgmdmnggpqkceecpn``ngpqqqqqkkkqqpgdrdiabbhffjffffjailleajfffoohbbmbbofjaaajfobbbbhfjaeieeaeiillliieaaaeeajff",
"ofjjjmrmcpggnngqceeeknddngppggpkcckgmddmgqkqpppqkkkkkq`rrqibbhfffffffaillieajjffohbbbbhhofjaaajfhbbbhojaeieaajaailllieaaaaaajohb",
"fjjjf`rpkpggggpqceecqndmgppggnggqkqg`ddmgqqqpppqkcccccmrrnlobooffoffjeiliieajjfohbbbooffffjaajfobmhhofjaaaajffjaeiiieaaaaaafobbh",
"faajhdrcpggppqqkccccpn`npqpgnmmggpgn`ddmgpppggpqkkcceegdrdijhooooofjaillieaajfobbmboffffffjjjjfbmmhofjjaajjffofjaeieaajaajjob`mo",
"aaaamrmcggpqkccccckqgnngqqggm`mnngnmdd`mgggggppqqkccccq`rrqihhohoofaiiiieaajfhbbbhoffffoffjjjfobbmbofjjjjffooofjaeeeaaaajjfhbmof",
"aiep`rpqngpkceeckqpgmmgpqpgn`d`````ddd`mnnggppqpqkcccppmrrnlfbhbofaiiieaaajfhmmmhfffffooffjjffhbbmbofjjjffohhofjaeeeaaaajffbbhfj",
"iiigddcgngpceeeckpgmdmgppgnm`ddddd`ddd``mmngpqqqqcccqgggdrdijbhhfjeiieaajjfob`bhffjjfoooffjjfohhhbbofjjjfffooofjaiieeaaajffoofje",
"liemrncnngqceeeckgn``nggggn`dddddd```````mngpqqqqcecpggq`rrpimhfjeiiajjjjffbmbofjjjfobbhfffffoohhbhffjjjfffoofjaeiiiieeajffofjai",
"llq`rpqggpccceecqgm`nngggnn`dd```mnngnm`mngpqqqqkcecpgpqmrrhlofjaiiajjjjjffhoffjjjfobmboffffooohhhofjjjjjffoffjeiiiiiieajfffjail",
"llgddcpgpqceeeecqgmmngggnnm`ddm`mmngpgnmmggpqqqkceecpppkgdrdijfaiiajfjjjjjfffjjajfobbmbhooooooobbhfjjajjfffofjaiillliieajffjaill",
"icmrncppqcceeeccqgmmnnnnnnm`ddmmmngpqpgnngpqqqqkceecqqqcq`rrpiaiiajfjaaaajjjjaajfobbhbbhooooooobbojjaajjffffjaeilllliieajjjaiili",
"egdrqqqqkceeecckpgn``mnnnnmdddmmngpkcqgnngqkkqqkcceckkcccmrrmliiajffaaaaajjjaajfhbhbbbbhooffohbbofjaaaajjffjaeillllliieaaaiiiiie",
"amrdcpkccccecckqpgn`d`nggnn`ddnngpqccqgnnpkccqqqkceccccccgdrriiijfjaaeeaajjjjjfobbohbbbhofhm``d````mgqajjjjaeilllllliiieeilieaaa",
"p`rnccccccccccqpggnm`d`nggn`d`ngpkcckpgnnpccckppqceeccecckmrrpiajjaaeieaajjjjfobmmbbbmbhm`drrrrrrrrrd`mgpjaeillllllllliiiiieajjj",
"gdrqkcccccccccqgnnnnn`dmgggmdmgpkcccqgnmnpccckpppceeccecccgdrmlajaeeieeaajjffoobbbhhhmddrrrdgkcqpndrrrrd`mgqcllllllllllliieajjjj",
"mrdckcckkcceecpgm`nggm`mgpgmdmpkccckpgmmgpkcckpgpkeccccceeq`rrieaeeiieaajjfffoobbhm`drrrdnqccqgpppqpndrrrrd`mgqcllllliiiieajjjja",
"`rgccckqkcceecpn`dmggnmngppmdnqceccqpn``ggpkkqpggqccckcceecmrrpiiiiieeaajffofohm`drrrrnpcckpgggggm`gpqpndrrrrd`mgqciieeeeaaaaaaq",
"drqqeckqqceeekgn`d`nggnmngpndgceeekpgmd`nggpqqpggpkkkkkceeegdrmliiiiieajfoohm`drrrrmpccqqqqpgggnmd`mngppqpndrrrrd`mgqaeeeeaaaaeg",
"rdckcckqkceecqgm`d`mnnnmmngm`gceecqgnd``nngpqqpgggqkcccccccq`rriiiiiieaphm`drrrr`gcckg`mgqqqpgn``mgggppppppqpndrrrrd`mgqciieeecm",
"rgccccckcceccqgm`dd`mnnm``mdmgceecpn`ddd`mggpppgggqccecckqkcmrrpiiicqgm`drrrrdgkckpggm`mgpqkpn`dmnggppqkqqpggpqpndrrrrd`mgqciiq`",
"rkqeecccccccqpgm`ddd`mnnmdddmgkeecpndddddmggppggggqceeeckqkcgdrmlggm`drrrrdgqccpm`mnnm`mgpqqpmd`gggppkcccqpgm`mgpqpndrrrrd`mggnd",
"rcqeeeeccckqqpgmddddd`nnnnm`mgqcccpmdddddmgggggggpqcceecckkcpdrrdddrrrrdnqccqpnmdd`mm`dmgpqpgmdmgggpqcceckpn`dddd`gpqpndrrrrdddr",
"rdgceeeeccqqpgn`dd`dd`nggpgnnngqckpn`ddddmgggggggppqqkcccckkgdrrrrrrrmpcckpppggnmdd`mddmggpgnmmnggpqcceeekgmddmm`d`ngppqpndrrrrr",
"rrdmgqceecqpgn`d``mdd`ngpqpgnngpqqpgmdddd`ngggggggggppkccqgmdrrrrr`pcckpgppqqpgnm`dddddmnggn``mngppkceeeekgmd`nnmmnggpgggpqpndrr",
"rrrrd`mgqcqgg`d`mm```ngpqqpggnngpppgn`ddddmngggggggggpqgm`drrrrrrdccpnngpqkkqpggnmmddddmnnm`ddnggpqcceeecqgmmmgggggggggnm`mgpqrr",
"rdrrrrrd`mggmd`mnm``mggqqqpggnnngppggmddddmnggggnmmmnm`drrrrrdrrrcppgnggqcccqpggnnnmddd```ddd`nggpkceeeecqgmmngpppgnnmmm`d``mdrr",
"ajpmdrrrrrd```ngn`d`ngpqqqpggnnngggggn`ddd`nggggm```drrrrrmpil`rrkqpgggqccccqpgggggnm`ddddddmnggpqkcceeckpgmmnpqqpgm`d``dd`mndrm",
"icaajpmdrrrrrd`mn`dmgpqqqppggggnnggggnmdddmnngnm`drrrrrmqiliicgdrgcqpgqcceckqpggggggn`dddddmngggpqkcccccqgnmmgpkqpnm`ddddd`nmrrp",
"elliajajpmdrrrrrd``ngpqqqpggggggnngggnm`d`mmm`drrrrdnqiliiilllcmrdckqqcceeckpggggggggmdd`mmnggggppqkcckqpgnmngqkqgm`m``dddmg`rri",
"lllijoojaajpmdrrrrrd`mgqqpggggggnmnnggnm```drrrrdhkiliiilllllllgdrqkcceeeecqpggggpppgmddmnnggppggpqkkkqpgm``npqqpn``mm`dd`ngdrml",
"lliafffjaieaajpmdrrrrrd`mgpgggggnmmnnnm`drrrrdgclliiiiillliiillq`rncceeeeecqpggggpppgn``nggppgggggpqqqpgn`dmgpppgm`mnnmmmngmrrqi",
"llijoojaiillieaajpmdrrrrrd`mgggnnm```drrrrdpclliiiiliilliieeeilcmrrcceeeeeckpnnngpppgn`mngpqpgnnggpqppgm`d`ngpgn``mmnnnnggp`rrii",
"liafhojeillllllieaajpmdrrrrrd`mnm`drrrr`pcliejaeilllllliaaaaaeilgdrpkceeeeckgnmngpppgn`mgpqqgnmmngpppgn`d`ngggnmdmngnnnggpgdrnll",
"iiafbfaillllliiiilieaajpmdrrrrrdrrrr`pilieajjjeilllllliajjjjaeilq`rmcceeeeckgmmmgpppgmdmgqqqgmddmggpgn`dmngggn`d`nggggggpkmrrqil",
"iejfojilllliiiieilllieajajpmdrrdmpjeiiaajjjjjaiilliiiieajfjjaiilcmrrcqceeecqgnmnggppg`dmgqpgn`ddmngggmdmggggn`d`ngppppppqgdrdiii",
"eafofaillliiieeiiliieajfofjajfpaiajfofjjjjjjaeillliiiiajjjjaiiiligdrgcceeckpgnnnggggn`dngpgn`ddddmnnm`dngggn`ddmgpqkqqqqkmrrhlii",
"ajffailliiieeaeilliaaajfhhofjjjfohbhffjjjjjjaeillliiieaajjaiiliiajmrdckcckppgggnnnnnm`mgggn`dd`dd`m```nggggmddmngqccckqqq`rrciaa",
"jfojillliiieeiilliaajjfobhofoooohbbhfffffffjjaillliiieaaaaiilliajfhdrqkccqggppggnm`d`mnnnn`dd```dd`d`mngggn`ddngpkceeckkgdrdliaa",
"fffailiiiiiiiiliiaajjjfobhoffoohbbhoooofffffjaiiiiiiieeaeiiliieajobdrgcckpggpppgndddmnnnm``mnnmmmmmmnngggnm``mgpqceeeeccmrrgljjj",
"oojillllliiillliajjffffobhffoobbbbbbbhooffffjeiiieeeeeeeeilliiajfobmrdckqgggpppgn`d`nnnm``mnggnnnmnnggggnm`dmnpqcceeeeeq`rrciffo",
"bfaiillllllllliajjfffffhbhffobbbhbbmbboofffjaiiiaaaeeiiiilllieajfhhhdrpkqggggppgnmmngnm``mggggggnngggggnn``mnpkcccceeeegdrdlaffb",
"hfaeiiiiillllieajfffjffhbhoohbbbbhbmmboofffaiieajjaiilllllliiajfhbbh`rncqgggggggnmnngmddmngppppggggppggnmd`npkceccceelcmrrplfoob",
"ofjaaaeeiilliiajfffjjjfobbhbbbbbbhobbbooffailijjjaeillllllieajfhbmbbmrrckpgggggnmmmnn`d`nggpqqppggpppggnm`mgqceecccceeq`rrcifooh",
"hffjjaaeiilliajffffjjjfhbmbmbbhhhoobbhoffjeiiajjaiiiiilliiaajfobhhhbbdrpcgggnnnm`d```ddmngpqqqqpppppppgmd`gqceeecccccegdr`ljfohb",
"bhffjjaeiiiieajfffjjjfobbmbbbhoooohbhoffjaiiiaaeiiieaeeeaajffhhofohbbdrmcgggnnm`dddd`mmnggpqqqqqqqqpppgmdmpceeeeccccccmrrplffoob",
"hbofjjaeiiieajfffjjjjfobbbbhooooohbbhoffjeiiiiiiieajjaaajjfohboffobmbmrrkqggnmdddd`mnngggppqqqqqqkqqpgg``gkeeeeeecckqq`rrciffooh",
"ohofjaaeeieajfffjjjjfohbbbooofoohbbbboffaeiillliajffjjjjffobboffobbmhhdrgcnnn`dd`mnggpgggpppppqqkckkpgnmgpcceeeeeckqpgdr`lafffff",
"foofjjaaeeajfffjjjjffohbbhooooohbbbbbofjaeiilliajfofffffobbbhofohmbhfp`rdcgm`ddddmgpqqqppppppppqkcckpnmngqccceeeecqpgmrrpljfffff",
"ooffjjaaaaajjjjjjjjffohbbhoohhbbhbbbhofjjaeiiiajfooffffohbbbooohbmhfjamrrqp`dddddngqkckqpppgpppqkccqgnmgqkkkcceeecpgn`rriefoffff",
"bofjjjjaaaaajaaaajjjffhbbhhhbbhhhbbboffjjaeieajfoooooohbbmmbhhbmbbfjaegdrgc``dddmgpkccckqppgggpqkccqgnngkkqqkceecqpgndrmljooffjf",
"bojjjjaaeeeeeeaaaajjjfohbhhbbbooobbhfffjjaeeaaffoooooohbbbbbbbbmbofjaap`rdcgmdd`gpqccccckqpgggppqkqgnngpkkqqqkcckpgnmrrpiohhfffo",
"hfjjjjaeiiiiiieaaaaajfooooohbhohbboofffjaaeeajfooofooohhhbbbhoobbofjjjjmrrpqn`dnpqcccccckqpggggppppnmmgqkkqppqqqpggn`rriambhfffo",
"fjjjjaaiilllliieeeaajfffffohhoohboffffjjaeeaajffffffoooooooofffohoffffohdrncn``gqcccckkkkkqpgggggggmdmgpkkqpggggggnmdrmlfmboffoo",
"fjjjaaiillllliiieeeajjfffohhhhhoofffjjjaaeeajfffffffoooooofffjjfhhoohbbh`rrcg`mgkccckqqqkckqgggnnm`ddmgpqkqpgnnnnnm`rrpimmhfffho",
"jjaaaeilliillliiieeajjfffhbbohoffjjjjjaaaeaajfffjfffoooooffjjjjfhbbbbmbo`rrpcmnpkccckppqkckqpgnmmddd`mngqqpgnm``mmm`rrijbhffjobo",
"jaaaeiliiiiilliiiieaajjfhbbbooffjjjjjaaaaaajjfjjffohhbbhofjaajfobbbmbbof`rrgcmgpkcccqpppqkkkpgnm`d``mmngpqpgmd`d```drrlpoffjfobf",
"aaaeiiiieaiilliiieeajjfhbmhhofjjjjjjaaaaajjjfffffobbbbbhfjjajjfhbbhhoffp`rrppmgpqcckqppppqkkpgn`mmnnmmnggpgn``m``dddrriaffjffofj",
"eiiiiieaaaeilliiieeajfobbbhofjjjjjjaaajjjffffffoooooobmofjaajfobbboofjjgdr`cpngpqkqqppgppqqqpgm`mnnnnmnngggmd`nm`ddddrpifffoooja",
"illlieajaaeilliieeaajobbooofjjjjjjjaajffffffffohhfffohofjaajjfhbhoffjjamrrpcgggpppppggpppppppnm`mnnnmmmnnnm``mnnm`dd`r`ljffhofai",
"lllieaajaeillieeeeajohobbofjjjjjjjaajffoofffohhhofffhofjaaajfobbhofjjjp`rrkkgggppgggggpppppggm`dmmmmmmmmnm``mnnnm````rriahoofail",
"lliieaaaeillieaaaajobhfobfjajjjjjajjfohhoffoohoffjfobfjaaajffhbbhoffjjgdr`cqpppppgnmnggpppggn`dd```````mm`d`mnnnm````drpibofaiil",
"liiieaeiiliieaaaaafobboofjaaajjaaajfobbboohbhofjjffoojaaajfoobbbhfffffmrrgcppqppgn`d`ngqqpgn`ddd````ddd``dd`nnnmmdddddrdlffjeill",
"liiiiiilliiaaaaaajfoobbojaaaaaaajjfohbbhohbhffjjjfoofjjjjfoohbbboffffo`rrkqgpqqpgmdrdngqqpnm`dd`mnnmmddd`dd`mnnm`dddd`rrcajaeill",
"lllllllllieaaaaajfhbohofaeaaaaajfohbbbbhooofjaaajfbofjffohbbhbbhoffoohdr`cggpqqpgmdddmgqqgnmmdd`ngggnm`ddddd`mm`dd````drpljaeiil",
"llllllllieaaaaaajobmbofjaaaaajjfobhhoooffjjaaeeajobhffohbbbhobbhofohbmrrgc`ngppgnmm``mgppgmmm`dmggppggn`dddd`mm`dmnnmm`rdljaaiil",
"lllllllieajjaaajfbb`bofjaaajjfoooffffjjaaaeiiiiajobbhhbmmmbhobmboohbb`rrqp``mgggnmm``mnggnm``ddmgpqqpgnmdddddd```nggnmmrrcejeiil",
"iiiiiieaajjjjjjfhbhbbhfjjjjffoofjajjaaeiiiiliieajfobbbbbbbhoobbbhhbbbdrdcgm``mgnmm````mnnnm`dd`mgpqkqpgnmdd`mmmmngggnnndrglaeiil",
"iiiieaajjfjjjffhbhohbhoffffooofaaeeeiiilllllliajffobmmbbbhooohbbbbbbmrrgcnnm``````d`````mnnm`d`ngqkccqggndd`nnggggggggg`rdleiiii",
"iiieajjfffffffhhoooohbhoffoofjaiiiiilliillliiaajffobbboooooooohbbbbb`rrqqgggnmdd`dd`m````nnnnmmngqcccqpgn`dmgpppgggggggmrrciiiii",
"iieajffooffffhbboffoobhoohbojailiiilllillliiaajffohhoffooooffoobbbbhdrdcpggggn`dddd`mmm``ngggnngpqccckppg`dmpkckpggggppgdrgliiii",
"iiajfoohoffffhbhfffohbhoohofaiilllllliillieajjfffhbfjjfohoffffobbbhmrrgcggggggnnm`mmnnmmnggggnggqkcckqppg`dmpccckpgggppp`rdliiii",
"iejfhmbbhfffohhoffohbbhbbbfjeillllllllllieajfffohhfjjjfohoffffobbbh`rrqcppggggggnnnnnm`mgggggggqkckqqpppgmdnqceecqgggpppmrrkiiii",
"eafhbmbbhfffooofffobbbhbbojaiiillllllllieajffffhbfjajfobboffffobbbbdrdckqpgggggggggggmdmgpggggpkcckqppppgmdnqceeecpggppggdrhliii",
"jfohhoohbofoboffffhbmmbbhfaeiiiillllllieaffoohhbofjajobmboffffohbbmrrgcqqppggggpqqqpgm`ngpggggqcccqpgggggmdnqceeecqgggpgn`rdliia"
};
