/* XPM */
static char *background8_xpm[] = {
/* width height ncolors chars_per_pixel */
"128 128 20 1",
/* colors */
"` c #502C1D",
"a c #603926",
"b c #683920",
"c c #582E1A",
"d c #663121",
"e c #82412C",
"f c #874F34",
"g c #6B3929",
"h c #905839",
"i c #73462D",
"j c #743727",
"k c #7A4026",
"l c #502717",
"m c #86492E",
"n c #3F1D12",
"o c #5A2F1F",
"p c #733C20",
"q c #6B3D28",
"r c #734229",
"s c #642E1D",
/* pixels */
"efhkeldsddekmkeeemejbrrigdgjmiioo`ssppsbbisdgfihfkggdgigollbddbggqaolosqbbbqs`obdpjrbo``ospmmmrrkid`acoagl`prgaoaaigollbpbeekrss",
"pkbbalnclogekkmejkkrermemrrrqpbgo`nospcgkisoiifhhkdoooqcocabadgpppjo`ccbbbeii`o`ddpprgslocbjeiipfhfo``oogoliiiaairbgc`lbbsdbgocj",
"ddg`annnnldskfhmmmfhkjiemierjbbca``lcssbbsssdpkfhmgjgggdobbcspbbrkqoodbgjkkfiid`lospkkdoo`cbbrgjmhfiaooaqaaphffihgaadllcccooao`d",
"ajgaonnnn`ojkhhhimhmkpjibrpjgqaono``no`all`ogkiehfehffic`cddqarkmhkqgdgjjifmmiraaosspkigdcoobqrqmmmiqagqbgasjfiijg`nllnnlaobqb`g",
"beehhg`nnnorffhhhmheisaagdppkkkb`llnnlccln`ogjrfmhfhffiosaasbgppjefkrfkpbimkipbgoolosjbribbbjkrieiikkrrgbaq`bihmg``nadddjjdbgfii",
"isskep`nnndjmhhhemmmrbgqgqbjjkpd`nn`nnllnlodihffhffehhkbjpgpmikmkkmfhhferihmkpbcaooccsjrqgqrpkrimekekprid`a`cremidnnbrkskdddgbbp",
"gigfffglnldskmhmeemergireirpbbbjdc`ocnllc`bkmhhhhfimhhiirgpeekkfhpihfhhijjhfrigoloooloogao`absjkhfmmejkffo``o`mmhipqqiejggdgfigg",
"`caairfc`adbcbrjjhfmffemmfjjbdaqb`gqa``nlokmfhhhhhhmhmhppgemefkfhhhhhffhfmffmrpolclllcbbqfodqfjehmmmjekhfia`l`skmfpirifkdoooiqig",
"`oo`giiborerboosjmmmhekeheppbrgrjdgqgsccllsjemfhhhemmmkkbpppkefmmmhhhffhhmmmiqc`nn``l`odrfibfiepfhmppkmmmiiaaosspmmipefmggggggoa",
"nnnniibbopjikiiqkmkhmfmhhmkmjkmmedjeijpgblccssemhfekejjbadkkkehhhhhhhhefeipppbsclcafoloppffrffepfhfepkmfikpjdoloskprkehfeffficn`",
"o`naifgqbpiiriqgjpkmhhhfmmimkmhherkjkmkiiqaacbcbrjgmjjoooojjejefhemehffbddsscooo``gfi``drippffmsmmfjkjeeeppbgbblcssdjjehhhfhfg`o",
"hiiirmikbrffrigrfhkehhhfefjimmeefrkiekmkfhfiiiboolokjdocdogrkjpmhmeemmegdgggdsdclsddaoarkijqqfmkekppdgdkeijaoadoldaejpbmhkhheifq",
"fhfhiiifemmmhifphhmphhfkkjmmffkkeiifiereefmeggriq``figdsccsqrpdkerjgjbdgjdkgoloccsaaocdrffejemmkpsjrfibrkpjadccodsihfijihhfhhhhp",
"fmekkmmfhmmhhhfihhmkhhhmkjmfhhhbiegdiefmekmkigrfioakhkrbcorpsddqcddqmfeeejigssbbgdggdcqeehhmhhebbmmmrbdqcdcarkpijgifhiirhhfmhhhk",
"kjjpjgjkkmeehhiihhhphhhkmjkmmmkkredloereemkpiiqibagdefrisjippjjcccggfeeppbdbqgqdjgqgdspkmhhmhmkkmhhmkpibbsggmmmppcobkffmhhffiiki",
"golbbggqjjjjeheqrhhmhhfmkjbeejgsigg``oibfhhmrriagagdkfpkdbembjqblcaqkepjsssjpkjpmemicdgmhmhfkmrmfhmhmrkrsbaqempjsllcbkkkmfhkjlab",
"lblqbjpspdjjmfmrfhfmfmhfijdiejooaaga``oskhfmrrkirqqdphfkkkkpsbrsllodpppbclllbdpehfmejlimpkeemefmhfemhmidclodpppbcnnldoobsbssdlad",
"ddsgjjbbsqkkkmhhhhhmmhhmpbdrrga`ddrgalllrefmipfffhjjrhhikepgsqag`nlcbpbglnnnlbbemhhhfqffssssbpkepmmhfidolnlbpkbbclnclccnnlllocpo",
"saoiefiebbppkkhmhhhimhhkkqariiaagrpqc`lldrrejkmhffhfmfhfmpjooaoaanl`grigonnnnlgdkmhhffijdsbscpbdeeffmkd`ln`kfmkpgcpjmeja`l`cgbpd",
"iaaapbmkmdkkggmmfhhhmhhmbgojfiiifgjbo``ldbrqrrffmihhmhhhkesa`aaigollbrpid`nnnloosmmhmhhfqaiaoocjiifmhhgoolomkpkkpjkmfeeiolscsjmg",
"pbooggkmpppeicpefmfemmmpbdbsdijrkjso```ccddqqikmiimemkekpjdoarrbgcolapkpslnnnnlloimieemkbgjrgjgrffffhhfii`immfmbefmmmjhembssskki",
"kaaldgfmjbpkrcsrpmejkeddcooobiemeejda`qiqbqjirikeejjjjdbcggaqfgaagccdrikba`nnnl`lgifmerkjimeppprhhfhefmiacbfhmieaarkpkmhhmpssdmi",
"sqqocirejjprbcgasbdsrggl````sbjpmmkjdooiggkrggpgjppdddgddogodgd````looiqrqannnnnnlkreempqerppprpekmefmhgiiihmpijiikfhkehhmpsdgjg",
"oaq`cqogfoabbco```l`aao```oobbgefmmfrbrmprkjrjrppsddddgegooggdl`n``anlbrpiqonnn`nloibfhhmpkebssdseffjhmiffqhkmfhfhkhhmphhmscdrbo",
"gogodcskiocagoosolllbaacdgbabbjpmfmfhfhhmkkmepbgbodocsekisssdbonn```llbprgq`nnnnl``oskhfmrkkaooggbmmhfhhhigiihhhhhihhmkhhfjcsesd",
"alaoclddjosdjpjbdccoaigbdjjjbirpmmmmhmhhmkkhebbqeggolcgjerdscggsoaaa`aarrrolnl``ddlllrefmipmiglolopmhmphfioobfhhhiihhhphhhkrcbga",
"biqbloodollsgdgoibgoggdoojdgeiogjmmhhhhhhfkhmisqjqbalnllgqpblspsoaqa`laspsglnnloscolldrrejjmfkacclodmegmhadlbfhhheqrhhmhhfmjsjpb",
"mirbooolllllssdgddbgdcoodosjeirllsjemfhhhemmebdbiiiollllbdddncbradqqo``sbbo`nlbdgdoocdprqrrfekrbsqclbjbeead`bfhhhmrfhfmfmhfigsbp",
"keiegg`llbcsddgfiggjragqgrrfhhfqcclssemhfekesosdkkrdd`nllllcclbsajjbg``lccllncsbpboodcdgqqikipbcssclsdpjjijbdhhfhhhhhhmmhhmpgsbp",
"ppikiballbbdoooiqiaocgrjimmfhhffiaacbcbrjgkjg`oagperrascllllcddboaqpga`llclclsrkkablddrqgriikpsslllclclbsqjobmmfhhhhhhimhhkkrpcs",
"biimiioosjkggggggoa`oreekmmhfhmhhfiiiboolopgdabgbpikpbccll`cdbao`l``ollnll`lodgjsqqocabjbdgrigao`n`lclnlsri`dihhhhhhhhhmhhhbiqos",
"odjkpjgrkmmeffficn`nlcpemkkfmieefmeggria`liggqqgbpfmpbdoolcsbpqqccnnnnnnnllccqdooaq`cbcagagikkpslnnnclcosjkdlifjemfhhhemmmkpbbcl",
"lsbdbegrekhhhfhfgl``oskhmkkeifmekmkigrfqoobiqqiirkhmksdslloodbaolnnnnnnnnllllkpdgogodcspbddbqbalnnnnlobbjjgddimcssemhfekejgsqad`",
"nldpprmepbmhkhheifqfiiffmjjgkreemkpiiqidaoccarkfjmmepsccccbadbccccnnnnnnlclcsgiaalaoclddgcsbsbdlnnnnnodgbdoocbdacbcbrjgmejooaooc",
"clcbkfhmirihhfhhhfpmhifmekdooibfhhmrgidbaalncbimjkejdsaddcdbaolnnnnnlnllccsbckkbbiqblood`lcccloabb`gadgegocllbjiiibooloiigaoaago",
"llloeehhiirhhfmhhhmffjeppjao`oskhfmrgrqdoolllcbggmejooaobaoddalloo`oo`ccaddpggqpmirboooll`ocspmpeeegireekppclldjdgriq`lieraajpdo",
"olprmhffhhfhhffiikrbrjjjpdddlllrefmipmipccllll`loiigaoaagdocdoclabooa`olqbbkrsrkeeiegg`nnnnldefhffmfjrfedbdgbclsdsbib``pirrpedo`",
"lcskffffhhmhhhkeldscldaoadblllldrrejrkijdoodsia``ffiaaipbdcooaoodgoaaigbgrpppbbpppikibalnlnlspjpjmhhfpedddgsccnnllldl`llsrppgoln",
"lcsjmhhefeikkbbalnlnn`olodc`l`ldbrqqbmjadaabriiaakhffihgaodcbjiibccoarkbekegb``dbiifrroll`ll`jbdjhihfkggdgigo`nnnnllnnlldbejdc`n",
"losdpmmmdddddd`annnnnlllllo``lccddqbqbgdoadgpkpaasjfiijg```odefffgdigieipbssolnlgbpkpbl`l`cllabaiifhhkdoooiba`nnnnnnnnnlbbjpsbcl",
"ln`ssjppdcagfgb`nnnnn`gbocl``aaacbgggqgdddbsdgjag`bihmg``n``gsffekfifbddddo``lnlcssssdbd`l`loaggiikfhmgggggd``nnnnnnnnnbpipddsdc",
"lllllocsddsirrclnnnlpekkpsll```lodbdbrjgagoccaaao`cremidnn`oagkffffkmjdggfia``lolbodsbbacccoaprdimfmhfefffilnnnnnnnnnnnjiirbjgdo",
"o`lnllssadoagaolnnodehhejsccnncccaoaggqiiiiaqgigo`o`mmhibagaigrkfmfkrjgbmifbaccqgbrgpqraolabaikbjjemehhhfhfalnnnnnnllnlpbopsjjbo",
"boolnnlclscllallnnspkepjkbdo`lclssddgbgerihhmmmidal`skmfpgaqaabipikmmfigifffggdffrjejrrrcooscjibkhmpbmhkhheqicaonlllll`bccdcsmpd",
"blaoccdlollnnllnlncdejdgebsllnnlcddsbkiemehmhhhiraaosspmmibqraqbjlgpkifaggffhfmmhmipgspbbllllldqfhffrihhfhhficbas`onnnlccspbdpra",
"biqqbbbbclnnnnnnnlloiqairqa`nnnnn`dddjjemmeeeefhkrgon`skbrerbglcollbrrrmemmfhhkhhfpjldsao`nl``lgifhgirhhfmhmiqiqggalnl`bbrppskkb",
"mirbgbbcdb`nnnnlacbdiigjrppgaollnl`dgsspeemkfkkmiiiaolcssbqppgo``llbqpkemmhefeikkbballc```ocdbjgimehfmhhmfiibqbggo`nnnospbppggqp",
"eejegjddpjo`n`qqemmemidiiimibdqool`ooddiimekempifigqo`no`al``d`o``oqefjeefmmbddddd`annlllcosrfmmiimmmpfhhkeldsdjgadnnn`appemrsrk",
"ppipgsbcbdblsihemmhhhmrejkeikjjdabaalcaaqrfprfhfhfboclnlcccnllclolcsmmmjjekkgdggfiaonnln`labaprkjeeeemkkppgl`bpjpkkdaccbmpkkebbp",
"biiibjbiiiiifhpmekeefhkihepbkmdadooo`oo`biffbpkmfmbol`llllnn```oodojekkgdjbddgbfiisonnnlncapbeffmmmmeejjjggolcagdggfiisjkmmfralb",
"dssbeeerqjkphemmmmhkkmfhhfirkhirbcn`nnnniikkadjmfmes`lclsccnnlabaaodgbddgkfmfegiffid`nllccrpjjgpkjjjeeejjkpgssgsssgbbpksspkpplll",
"lsbremekpiifhemmmmhhpihfhhieehhffg`oo`naifda`scspeppoo`cl`llllcbddcbkmpijmmmppcooiiqcnlccjrpggsddjssjejdjkdbbsoosdkjgggjgrrejglo",
"llpkmefmimfffbpemjfhhhhhffhhhehfeifqhiiirralnll`dsbdgdgccclnnn`lcldgmkpbgrmpjsclcbpgollodbbsgcoogoccaqqoirbpjsllcdgbbdllaorpkcln",
"bjpmmemhhmago`spkmmmmhhhffmfhhfhhhhphhfhqqblnnnlsdsgsdsbcdlllclllcogkkssspppbcnnno`clclsccbjgaiiiiaqgijdgbsbssocdpjibdl```gjmgcb",
"rpppeehmkd`lllpjehhhhhhhhefehhmmhhhmhhffiffo`n`oddgiidooaaocabac```spbbccbpbglnnnnnnlcddlcdqbdgpihhmmmksadcollncokkqdo`llngjjscb",
"ibdeemmkpolln`pejkfhemehffppefmfiikikmmhhhrr`loalcoiqaoll`lcckifollcspcolbgigonnnnn`odgolcddqijeehmhhhebjcccnnnlsiergjaolcaesods",
"acrriejekcllndppjpmhmeemmejpmmhkeldsddikmmemqddggdgga``n`l`cgpffio`ldggclcqpid`nnnnloagqrddbkgbpmmeeeffpbpslnnnldpkpikibaccsoodd",
"irikijikrbdc`sppddkerjgjbddrpkbbalnclooggjjeiaddgqrqlnnnnllbbkkeir``obsaldbkpslnnnnlcdriidskppbkeikmpjekiislnnncdrpiifiiodcccgdi",
"iiifiiikipbbccssdsqcddqmfmejddd`annnnnnncojjmddjeiega```nn`bqbrqpdg`ocgsccgikbalnnncbdigcqbrkqrkpgremjqejgolnnns`djbpkkrdddlgbpk",
"eikpkikkirqaabobgjcccggfmmppdggaonnnnnnllikeeppepekgdrqfigbbdgdbbbca`ooscoogbrqannnobskgggdkjjjedgdrfheeis`lnnlqcbcsdddegrqdsbpk",
"ppsdpppppejgjjacagblcaqkmpjssdqssnnnnnllbgpejdjkkrerriqhhifbbbddqbono`ololldbsiqonlddbkbsdsjpdpdbspmmmfmkbclnngqlclccssbbbbsdsbp",
"scssssscssbdbdbcsrslcdgkppscloajdonlnlcbjipkddskpirirrpfhfmqifbcbdollllllccdsbda`nlccpkbgdsgjiiiiimhemmeekd`nnibobc`l`cdagdoodss",
"llllllcccdrfiiqbiijgasrkfkgdllddqbslccrqeekggopkiiiggbrpmmhhmkrcaconnn`lllcodsd`lnooskkiqcsdprpjkphmmemmmmpcl`poobbclnnlcllccll`",
"`llnlllommmrqjkpejkebjpkmfjrqdccsadacgkfhhkdcosjjjejsossdikmmffrbdolllllllcdscldonlcsbfipooldkpiiihemmmfhepblopccdscclnnnnllnllc",
"l`locskfhhmkpiiemrmmepmjjemfhiiaqbqjgiikfhmggssspppdclll`oggeehiboollllllbppslldalcbjkjdsaclsprkfmmppekmmgpjsbdcdgblgo`nnnllcclc",
"clclccmhhmhmremmipkekkefpifmffmfmmmidimfmhfkiasspppdcnnnnnncojppddlcclcjimmebcosolcljiboocblcrkmagddbikekloddobrikpcsbbba``dddsc",
"looqkmmhfemhkkpkpmkpjpmfhhhfmmhmhhhmrejemehhfrjgddddollnlnnnasbdddcclccmfhmhkssscldcsmpdgogosbrgolllpejij`loodoppikadakia`cl`ssl",
"llcbkkejmmmmjgbpekpbdrkmmhhfmhmeeefhkihmpbmhkmkbddsssocllolbabllodccqkmmhfeemiiqdbrqdriaalaccspd`lnofiibjlnlscoppmmgsqpkdcccsbcc",
"ccasibdjkmmmrspkeeiejikefhhhhmmmhkkmfhhffrihfimiipbirpkrrpsqisoncclcbkkepmehfmgbpkkkskkbbiqdcbrgdolbmdcooonlcclkpkmesbbpbcsssdcs",
"oqgsacqbkkkmmbbpppikqbqjpkpmmekkhhpihfhhiirhhikfiipffpkhmfkfegdllllgsibdjkfffeksqrrkgggpmipddbprjbldposldscggccbkehia`ddbbdbbpic",
"ifqqeibqpkehiq`bbiifikdgpscddbrpmhhhhhffhhfhhmfiikiemmmiipipkkeiclabdacrgifmfhmiprpkbsbkeereggddssccslnncsddpllcbkkkc`csdcccsiib",
"mikmmmsdbbkkkc`cgbpkkpddonnnnlcrkmmhhhffhhmhhhkejkpmhhjjn`lllocssogqiiiifmhmmemmkbrbbsbpppijgsssssccblnnllsspsllopppilocc``csbdp",
"jmmhfhpccdpppilocddddjbdlnnnnnldeemhhhhefeikkbpgdgppkss`nnnnnlllbbgkifkkmmemmmmkjrggbaobsppkbgcnllllllllnlllsllllbssclnlllsccsqp",
"jkmmmfp`llbssclnllcssbsclnnnnnnlojpppmmmssdsdgdbddsddonnnnnnnlnlsdgpmmkkkjekmmppjpjgiggosspssbsllnnnnobslcnncllnlsbsc`cclnllbpps",
"jpmmkhksl`sbsc`acll`cddcnnnnnnnnlocsjjppscdgekjgdodgiaonnnnnllo`dogbbmpgsiiimmkrpppikibbllcoodsoccolclllllllclllllsdldbalnlobpdd",
"csiffhm`llcsgcgibllnnlllnnnnnnnn`nccsspssdckefjgssdjjsllnnlclcsbs`acsdjeeimffiiobbiifiicllllslsco`abclnlnllcllll`lclllooolcsppsc",
"ldkfefpocalolllagallnnnnnnnnnnnl`cogllsscockkjgjcoogdcl``llaabiffo``dopejrmmmes`cgbpkkrddonllllll````b`nlnllcccccdcclocsllcsqqdd",
"`skfhjglod`nnlocclao`nnnnnnnnn`aagga`lolclbpmefiaqggqbbsdo`dbjehfia`l`sjpjrpeprlocddddegradcclnlcnlccbo```ripsosppssooccllsdrpjo",
"rjehhjdosdnnldbpbolbcs``nnnnnn`daaoolnlssoskmmfrgrjihmekkqdgrrmmmiiaaosdbrsjpsclnllcssbbbbcclll```lccsblbfhmepbppjieggolcsskiigq",
"idbfhrgldsllclcsbaoaibcoqbqogadgegab`nnlaakehhfffemmhmhmhkjibrkeikbgd`losbjbpss`acll`cdagdooollnlnnlcdggmhempbssppikgbbcccgbbbii",
"cqrffebccslllllccbcgpekmimeegireekkkbacbkmmmmmmhekehmeeefhkifeppkpbba`lllppppgsgibllnnlcllccll``nnnnlobdmmmeegsbbiimribdsskiibfg",
"gdgkhkoo`llnnnnnnlspjmmfhffmfjrfedggfiibeemmmkhmfmhhfmhkkmfhhferriiol`ln`hfkpcllagallnnnnllnlla````llloaejppssscdddkkrjdjjemipmg",
"darehmrp```ln`nnnlcsdjeepjmhhfpedddgbbpisspkpkmhhhfmmmhhpihfhhiipfmgllcldhepdocdcclao`nnnllcccdiol`a`lccclllnllocdbgrmejrkfmrpea",
"iaiemjibdlol`nnll``lssjddjhihfkggdgfigggigefhkehhhfmhkfhhhhhffhfmmia`loojffkssdbpbolbbdol`ddqbdgilogaoococclnnlcssbbkkppjjmebkmg",
"ekjmmmpgbbllllnscccsccdbciifhhkdoooiqig`cbbffmkhhmkkefmmmhhhffhhmmerdoobkmmd`sssddddgqqo`cl`bq`oiaad`oobqpbcn`l`cdsddjpjikmkpmkm",
"mpmmfkjlccsslnnlllllscooogkkmhmggggggoa`oooehhehhhmkefhfhhhhhefeippbdodriekgoslcsbdbdbbscccnccaoiiidbsgdgjgibclcbsscldjkkpmeekfm",
"jikpbbalncld`lnllclnlll`lgmfmhfeffficn`nn`orhhmmhfkkjjmfeeehffbddssddbdjbmfjscllsdiqgggrsccclnlqoogbiprfkdspicccsddddjehmmhfhhee",
"ddssd`annnnnllll`llnnnnccjbemehhhfhfg`oooaimhhmmmmkejbkekjemmegdgdjggdqrqpirbc`eempbjjskppds`lldgdgdkifhfibrfialcogdrskmhkekhmmb",
"dggfiaonnnnnnllcsclnnnncsrhmpbmhkhheifqhffmmmmfkelgprsddbggjbddgbirgssbqobkjqpimhmkpqqrmmmkpbdbgdggbgffhhiijhfbclldbsjpmhmeemmeg",
"gbfiisonnnnnnnl`bscnnnnoqfhfirihhfhhhhkhfferkkbbal`aagdcsbqmfmfegggbdgogodsbpeemmhfimiimppkpsppjjgiiifhffhhmmfgc`lgirjdkerjgjbdd",
"egiffid`nnnnnnldpis`ccldiihhiirhhfmhfmmfhjddddd`annncarabggemmpjbooabblaocldjjmmemhhmogpemmbkieekprpmhfmfhhmmkgccsrpsgdqcddqmfmf",
"pcooiiicnnnnnnoopkdccgbkiepihhfhhffiikeeegdggfqaolnllbgjcqqrekrssdsbcdkqblodgjsmmhfmgocefkieaarjbrimmhhhefeipbccobkppiicccggfmmp",
"scsdrmign``nnoifbiggggddiirkfhmhhhkjddjdddgbfersdllnllsbbbjrkkqsscoodpkrbooocsjkffmkgdqmepijiikffjkeepfmmbddsssobimmsiqblcaiempj",
"cnnlrrjbibfiiqrrascdiboobiqpejikkbbdcbemefegiiriqocolllddbdgrrgao`nodjjiegg`lsgkfmhhjibfpmfhfhkhhepeejekpdsddegdgkmkpbrsllodpppb",
"lllobiifmbfhfhbbbolsmpdgojgkssddddlcagfmmppcsdgjrdpbsl``dbggikkppollsppikibalormfmhhmibjihhhhhihhmpmiqgbsdadiikbjejgsqag`nlcbpbd",
"cl`obgfmfehhffiifgboriaalbdsodggiblcaiempjsssbdjkikibocdbjdjsgbqc`nncdiifiioosremmefeidobfhhhiihhhjmfiiekjrbrkjdmejooaoaanl`abgd",
"soogbriikikmmhhfiipskkbbiqbcogbkksllodpppbsoirgjjemjfggoasssbsbbsclnldbpkkrddadpeefmerglbfhhheqrhhmfhememjkcsoloiigaoaaigollcbsa",
"bsddgdeldsddikmmemkagqpmirbbgjdigg`nlcbpbgcobfpihmpbkicbdolollllbdol`cddddegpcdgeejmergobfhhhmrfhfmfemffmms`l`n`ffiaairbgc`nlcsd",
"iadscsolnclooggekmmgsrkeeiejgdcooaanl`griggdbkihhffjpfis`lc`lnllscllnllcssbbbcsqpkppprjadhhfhhhhhhmehhmmmkdllloakhffihgaaolnlldr",
"ikgdol`nnnnnnnllkkmkbbpppikgdcccoggollbrpikiprffhhiibhfb``lnnnnnscc`acll`cdbq`cbsdjbjbksbmmfhhhhhhimhfmmhhgoolagsjirijglnnnnn`pm",
"mmmegc`nnnnnnnnbpehiq`bbiimiqcnlddgcolapejemhfhhffhhmmmbo`lnlnnnsacgibllnnlcsoscsppqbjecgrhhhhhhhhhmhhmkhhfii`qidbrhmgl`nnnncimp",
"emkkscnnnnnnnnlapkkqc`cgbpkkq`locbodlcdrimpmmfhhffhhmmmro`nnnllnolllagalllnncoclddjggjkrllsjemfhhhemmmmmefmiacbjbspjkronnnnliisj",
"pkrlooolllnnnl`obkpjjlccjdbpjbbdgc```loojimmhhhhhefeikpsocnnnn`nllcosslgdocgbdloodssbkfirsclssemhfekejkpfmhgiirebdskpkgccllsibgi",
"cbqblll`nllccnlnspmpbclcbppkpkkpqgc``onlbmmmemehffbddddssjsclcaalsdbpbocbpkrrbooolcspemmiiaacbcbrjgmjjagghmiffbksscssppdlldrgsdc",
"ooblnnodsoadc```skeiidbcgjbprkkeejjdo`llpkmmmeemmegdgjedgaeikdgssggspkgsgkeeregg`lcgppmpmefigibooloiigqpmfhhhidacscccspsscrribdl",
"caconlllcliilcsckkmkpripqppppjpppikqbalcpkkepjdgbddgbmjbsdbbbrscdjsspkkbbpppikiballcbrdjiekkggriq``ffjbqmfrhfillcclcekpdspkkpjso",
"gggo`cclllelnllgeekjpeikrjkgglbbiimridacqsbccolbkpirbggddkijjqgqprdgperq`bbiifiio`llbibdjbjjjgrfiaakhfikmmifhaslsskffmepsriiejrr",
"sdoaoaclnnlnnndjmmpkkekpkjpbcllgbpkjrgddssdal`nocscdlllclrrkfgbiejqrbbkc`cgbpkkrddllcgdsggqpjrqibaasjirrkhiffaolcsmhhmfiqmkkikem",
"kggllodlnnnnnnspempppppijgdsdnlcdddsesdcdsrrgd`lllllsl`oogijeaaiefkkpbsrlocddddegbocsodsdirkprkaaaq`bkfkkhhhmejapmmhfemhmmagdamh",
"kqsa`a`llnl`nndjeii`bbiimiroclnllcssdccclsjbbacnnllscoerkprrigabhfekppsclnllcssbbbpscassdpkekpkid`a`cjemmhmhpkdbkkepmmhfmdolllpm",
"hfioo`olonl`lnlbpkc`cgbpkkrsclcclnllolllssagiqosnldsffhmffemfmrihmmerpsllacll`cdagdclascsjmerpmffo``ookeepmmeeeskbdeeffmkd`lldff",
"ihhba`ololn`nnlsppilocdddgejcdbbllnnlnnnaarggiadrrsskhrhmemmhhhhhfmempdldibllnnldccsloooqmkpjekffia`losagjemmigddciiifehhgo`laai",
"fhhgioqcgonnnnlssscnnllcssbbalco`llllnlcrfhfsgoifiiqihhfffmffhhhhhimmmdllbdallllcosoccoiqhkiiffmeiiaolspppppmfriiiiffffhmfga`o`g",
"fmhgaoqbbbcllnlsbsc`clnnnldddolln`l`obddejmfg`o`aiggrhhmefhhhhhhhhmmhmpsdsscbsocdcc`odrigiimfmhirpbdolcbdsdpmiiifiihhmhemea`nnni",
"fjfaiiqrimpcdbdjdgcoo`nnnnlcsllnllcoddpkssbbcll`caiemmhfibdjemfhhhjkeejpdppdsjjppdoccqiioobmfhhkpkqblolclsrepmffmmkmkmjmemdd`nai",
"rioogfrjffibrpdddsoc`lnnnnnnnlnl```iggggidqo`n`nnnogpmfhkdllssemhfjppbpscsjqjjpppbdldifddlbmhhhkrrrb`clnlpksjefkmpjdemebmkgfiiir",
"qqdoqfikiijbdjdsdgoo`nnnnlnnnlll`l`qqig`lc``nnnnnnn`cbpsbqodcbcbrjgijgdgsbkkjjbbbbaasreia`bfmhhmkeeeggllcibgipkksgefpmmmmfmmfmhq",
"ihgcrfmpeldsdbbcqqbqbnnnlll`cssddddggool`l`lnnnnnnnnlloddiiqaiboolopdcsscsrjmkjgda`gbjefkadhhmhmmiikqsocdsssccqibdisbpkekpkkjjmj",
"errbbpbballcoagdiibkpcllolssccbgifficnnnnnnnnnnnnnnnlloadjrjdgriq``iidl`sdsdkrggqd`a`spiebbmmmffkmifrjsbsbsoncdqddjslscsssbpbdki",
"sjkbodd`anlcbprsimikrb`oosbdcsbrmfhfg```nnnnnnnnnnnnnlcbddjpigrfiaakfrddgboomeriffo``dgmfogihmmmibppkbddolll`bdbdsbdslllccssolls",
"lsjjgiiaolldqhkrejiegiiqaggolcspshheifqfqb`nnnnnnnn`nldbbjpbiiqibaasprgdgqaokfiiffiaocqkerllsjkmrjsbpjdda`lcgbgbgspibsllccdegcnn",
"logpiiisolncjehkihmbspidqgdgoocbkmhhhhpmmgannnnnnnl`coacbkmkrriaaaq`brergbaasjrmimiqaagkmiqcclssppppbdcsdscsbrrrdspjbddcskfmjsnn",
"cgrjgiaaollbbpmfhhffrihiegggoc`depehhhmffgg`nnnnn`aagga`sjrkrrkid`a`creradogobieiiqbgabqmifiaacbsbbdsbdspejpmhkpgsqccccbsmhmkpcl",
"bpkrgdoaaolbiprhfhhiirhhekkkba`cbkiiipijjjgonnnnn`daaoollsjkkpfhfo``o`kkqd`a`srkkrbbcbapmehhfiigsodsdpdspjqkhfkkiicccggemmhmjjds",
"ddekjgiqfiarmhhhhffhhfmhebjgbododpkeldsssgbgbqogadgegab`nldjdemhfia`l`skifo``odkrgqgolajrjefmeggpiqadpgsgdkkhhhbiqblcbgkkepmekds",
"skeffffpffmmkmhhhffhhmmfeddjd`o`cbbbllllclbpeeegireekkkb`cabgjfmmiiaaossifiaocoprpbboldgieekmkigrfigakfisbdemmkpbrsllospbsjkmksc",
"rfiihhhmhhkfkmhhhhefeikpddrifo``o`bgclnllnljkfmfjrfedggigdobbqjiipbgo`lbjkiraadbrfoo``lggjemkpiiqiqiisjqbsgrejgsqag`nlcbsriifrqd",
"pmmmiikikmmmmkeehffbddsdoodifib`llcbsbccolocgmhhfpedddgbdlcaigkkrbbca`asbppbboosrfibol`cqsmhhmrriagaiobrdockejooaoaanl`gjriffgrp"
};
